<svg width="417" height="44" viewBox="0 0 417 44" fill="none" xmlns="http://www.w3.org/2000/svg">
<path d="M23.9398 2.8501V4.28009C25.6598 6.52009 28.3698 8.73009 32.0798 10.9001C35.7898 13.0801 39.6998 14.7301 43.8098 15.8701L43.7598 16.3801C42.8098 16.6001 41.9498 17.0901 41.1798 17.8501C40.4398 18.6201 39.9398 19.4801 39.6598 20.4301C36.0098 18.4101 32.6498 16.0001 29.5898 13.2101C26.5498 10.3901 24.2498 7.43009 22.6898 4.33009C20.3898 8.04009 17.2598 11.4601 13.3098 14.5901C9.37976 17.7201 5.07976 20.2501 0.379761 22.1801L0.00976562 21.6301C3.65977 19.3901 7.01977 16.7101 10.0798 13.5801C13.1798 10.4501 15.4898 7.31009 17.0298 4.15009H8.51976L8.10976 2.86009H23.9298L23.9398 2.8501ZM42.1998 40.2001V41.5301H2.40977L2.08976 40.2001H19.2498V30.3101H7.00977L6.63976 29.0201H19.2398V20.3301H8.56976L8.19976 19.0001H35.2498V20.3301H23.8398V29.0201H38.1898V30.3101H23.8398V40.2001H42.1898H42.1998Z" fill="#004098"/>
<path d="M51.5895 13.4802L51.2695 12.1502H55.6395V3.0002L58.9495 3.51019V12.1602H61.9895V0.200195L65.5295 0.710205V5.82021H72.8395V7.15019H65.5295V12.1602H74.9595V13.4902H51.5895V13.4802ZM68.7495 15.0902L72.1495 15.6002V40.3902C72.1495 40.6002 71.8295 40.8502 71.1795 41.1302C70.5695 41.4102 69.9695 41.5402 69.3895 41.5402H68.7495V39.3302H52.7895V15.6402H56.0995V38.0002H68.7495V15.0902ZM62.0795 36.8902L61.3395 36.4302C61.6795 35.8802 61.9395 35.3702 62.1195 34.9102C61.5995 35.2502 61.0795 35.1702 60.5595 34.6802C60.5295 34.0102 60.2495 33.2402 59.7295 32.3802C59.0195 34.1302 58.1495 35.5702 57.1095 36.7002L56.3695 36.2902C57.4995 33.7402 58.1595 30.7402 58.3495 27.2702L60.8295 27.9602C60.3995 30.0502 60.1595 31.1802 60.0895 31.3602C61.6195 32.0302 62.4495 32.8202 62.5695 33.7102C63.3095 31.6902 63.7395 29.5402 63.8595 27.2702L66.2495 28.0102C65.9095 29.9702 65.6695 31.1502 65.5095 31.5502C67.3795 32.5602 68.3195 33.7002 68.3195 34.9502C68.3195 35.6602 68.0095 36.0702 67.3995 36.1902C66.9995 36.2802 66.5995 36.1602 66.1995 35.8202C66.0495 34.8402 65.6495 33.8102 64.9995 32.7402C64.2295 34.4902 63.2495 35.8702 62.0595 36.8802L62.0795 36.8902ZM63.9695 14.9902L66.5495 15.7302C66.2995 17.3902 66.0295 18.5802 65.7195 19.3202C67.5295 20.2702 68.3995 21.3302 68.3395 22.4902C68.3095 23.1302 67.9995 23.5002 67.4195 23.5902C67.0495 23.6502 66.6795 23.5302 66.3195 23.2202C66.2295 22.3902 65.8595 21.4602 65.2195 20.4102C64.4195 22.1302 63.3895 23.4902 62.1395 24.5002L61.4495 24.0402C61.9395 23.0602 62.2295 22.4602 62.3195 22.2502C62.1395 22.5602 61.8795 22.7302 61.5395 22.7602C61.2295 22.7902 60.8995 22.6502 60.5295 22.3502C60.4395 21.7402 60.2095 21.0602 59.8395 20.3302C59.0995 22.0502 58.2095 23.4302 57.1695 24.4702L56.4295 24.0602C57.6295 21.5802 58.3195 18.5602 58.4995 15.0002L61.0295 15.7402C60.7195 17.5802 60.4795 18.7502 60.2895 19.2402C61.9495 20.0402 62.6795 20.9302 62.4995 21.9102C63.3595 19.8602 63.8495 17.5602 63.9695 15.0102V14.9902ZM67.9695 25.2002V26.5302H57.1095L56.7395 25.2002H67.9595H67.9695ZM80.7095 0.450195L86.5495 2.01019C86.3995 2.59019 85.8095 2.9302 84.7995 3.0202C85.6295 5.6602 86.9295 8.1402 88.7095 10.4702C90.4895 12.8002 92.4495 14.7002 94.5995 16.1702L94.5095 16.7702C92.7595 17.4102 91.7295 18.4602 91.4295 19.9002C88.1795 16.4002 85.7895 11.3802 84.2495 4.8102C82.6895 9.4102 80.5095 13.2302 77.7195 16.2602H88.9895V17.5902H78.0395L77.6695 16.3002C76.2295 17.9002 74.7695 19.1802 73.2995 20.1602L72.7895 19.7002C74.8795 17.1902 76.6095 14.1602 77.9895 10.6402C79.3695 7.1102 80.2695 3.71019 80.6995 0.430191L80.7095 0.450195ZM86.6895 23.3602H91.2395V25.5202C89.2795 29.1402 86.8195 32.3602 83.8795 35.1802C86.3295 36.6802 87.6995 38.3402 87.9695 40.1502C88.1195 41.3102 87.7695 42.0702 86.9095 42.4002C86.3295 42.6502 85.6695 42.5702 84.9295 42.1702C84.2895 40.7302 83.1695 39.1302 81.5695 37.3902C79.9795 35.6102 78.3595 34.1402 76.7395 32.9702L77.1995 32.5602C79.4095 33.1102 81.2595 33.7702 82.7695 34.5402C84.5795 31.1402 85.9395 27.8602 86.8595 24.7002H74.8095L74.3995 23.3702H86.6795L86.6895 23.3602Z" fill="#004098"/>
<path d="M110.56 14.5799V41.7199C110.53 41.8999 110.15 42.1499 109.41 42.4599C108.7 42.7999 108 42.9699 107.29 42.9699H106.55V18.7299C105.42 20.5699 104.02 22.46 102.36 24.39L101.67 24.0199C103.2 20.8899 104.63 17.1999 105.95 12.9299C107.3 8.66993 108.3 4.41994 108.94 0.189941L113.26 1.97993C112.28 5.96993 111.37 9.58994 110.55 12.8399V14.5899L110.56 14.5799ZM122.47 18.8999V20.7399C121.92 26.3199 120.88 30.7099 119.34 33.8999C121.15 35.4299 123.37 36.4899 126.01 37.0699C128.68 37.6499 132.02 37.9399 136.04 37.9399C140.7 37.9399 143.84 37.92 145.47 37.89V38.4899C144.03 38.7999 143.25 39.9499 143.12 41.9399H135.67C131.38 41.9399 127.82 41.5099 125 40.6499C122.21 39.7899 119.89 38.29 118.05 36.14C116.27 38.9 113.88 41.1499 110.87 42.8999L110.46 42.2599C112.97 40.1399 114.92 37.3099 116.3 33.7499C114.83 31.3299 113.62 27.9399 112.67 23.5799L113.27 23.2999C114.28 26.7399 115.54 29.4499 117.04 31.4399C117.81 28.6199 118.33 24.8799 118.6 20.2199H112.94V18.2899C114.66 14.5199 116.19 10.4699 117.54 6.14993H113.17L112.76 4.81995H120.99V7.06995C119.95 10.1099 118.41 14.05 116.39 18.89H122.46L122.47 18.8999ZM123.62 6.42993L123.21 5.09995H129.01V0.909943H132.78V5.09995H140.65V11.2599H145.62V12.5899H140.65V19.0299C140.62 19.1799 140.24 19.4 139.5 19.67C138.8 19.95 138.17 20.0799 137.61 20.0799H137.01V18.8399H132.78V23.7599H142.44V25.0899H132.78V29.6899H144.33V31.0199H132.78V35.6199C132.78 35.8299 132.43 36.11 131.72 36.45C131.05 36.79 130.4 36.9599 129.79 36.9599H129.01V31.0299H121.97L121.6 29.7H129.01V25.0999H123.49L123.12 23.7699H129.01V18.8499H124.18L123.77 17.5599H129.01V12.5899H121.05L120.68 11.2599H129.01V6.42993H123.63H123.62ZM137.01 6.42993H132.78V11.2599H137.01V6.42993ZM137.01 17.5599V12.5899H132.78V17.5599H137.01Z" fill="#004098"/>
<path d="M161.39 7.09V18.13C161.39 20.58 161.31 22.71 161.16 24.52C161.04 26.3 160.73 28.38 160.24 30.78C159.78 33.14 158.98 35.35 157.85 37.4C156.75 39.42 155.33 41.25 153.62 42.87L153.02 42.46C154.83 39.27 156.01 35.74 156.56 31.88C157.11 27.99 157.39 23.4 157.39 18.13V5.75999H195.8V7.09H161.39ZM172.71 32.3L172.89 32.85C170.13 35.15 166.89 37.62 163.18 40.26C163.03 40.93 162.7 41.36 162.21 41.55L159.73 36.9C161.91 36.32 166.23 34.78 172.7 32.3H172.71ZM196.17 17.44V18.77H190.42V24.29C190.39 24.44 190.14 24.66 189.68 24.93C189.22 25.21 188.71 25.42 188.16 25.57L191.47 28.19C191.19 28.59 190.63 28.67 189.77 28.42C187.81 29.37 184.82 30.47 180.8 31.73L180.43 31.27C182.05 29.92 183.94 28.08 186.09 25.75V24.55H178.73V37.89C178.73 39.61 178.36 40.86 177.63 41.66C176.92 42.46 175.39 42.96 173.03 43.18C172.94 41.77 172.65 40.8 172.16 40.28C171.49 39.6 170.33 39.13 168.71 38.85V38.21C171.35 38.39 172.94 38.49 173.49 38.49C173.86 38.49 174.1 38.44 174.23 38.35C174.35 38.23 174.41 38.01 174.41 37.71V24.55H164.47L164.06 23.22H174.41V18.76H162.4L162.03 17.43H174.4V13.06H164.65L164.28 11.73H174.4V8.19H178.72V11.73H190.4V17.43H196.15L196.17 17.44ZM163.14 26.18L163.46 25.77C167.66 25.71 170.39 26.58 171.65 28.39C172.39 29.43 172.42 30.37 171.74 31.2C171.1 32 170.18 32.15 168.98 31.66C167.85 29.82 165.9 28 163.14 26.19V26.18ZM172.66 0.279999L173.07 0C176.5 0.31 178.53 1.24 179.14 2.81C179.51 3.76 179.28 4.56 178.45 5.2C177.47 5.94 176.4 5.91 175.23 5.11C174.95 3.45 174.1 1.84 172.65 0.279999H172.66ZM178.73 13.07V17.44H186.09V13.07H178.73ZM186.09 23.24V18.78H178.73V23.24H186.09ZM179.97 33.64L180.29 33.13C186.15 33.44 190.15 34.76 192.3 37.09C193.43 38.29 193.76 39.39 193.27 40.4C192.78 41.29 191.87 41.57 190.56 41.23C189.55 40.03 188 38.72 185.91 37.27C183.82 35.8 181.85 34.59 179.98 33.64H179.97Z" fill="#004098"/>
<path d="M252.34 31.5101H251.51V28.2401H244.01V31.1801C244.01 31.4601 243.63 31.7601 242.86 32.1001C242.09 32.4401 241.31 32.6101 240.51 32.6101H239.73V15.1801H232.65V38.3201H263.38V39.6501H228.28V15.1801H221.56L221.19 13.8901H228.27V1.93011H232.64V13.8901H239.72V0.370117L244 0.970123V13.9001H251.5V1.11012L255.87 1.71013V13.9001H264.56V15.1901H255.87V30.2301C255.87 30.4401 255.47 30.7201 254.67 31.0601C253.87 31.3701 253.09 31.5201 252.32 31.5201L252.34 31.5101ZM244.01 26.9101H251.51V15.1801H244.01V26.9101Z" fill="#004098"/>
<path d="M315.08 15.3201H295.58C297.54 25.8701 304.21 33.5501 315.59 38.3701L315.5 38.8801C313.17 39.3101 311.76 40.6901 311.27 43.0201C302.07 37.6801 296.58 28.6701 294.8 15.9701C294.52 18.3001 294.11 20.4301 293.56 22.3601C293.04 24.2601 292.24 26.2201 291.17 28.2501C290.1 30.2401 288.76 32.0801 287.17 33.7701C285.61 35.4301 283.61 37.0501 281.19 38.6501C278.77 40.2401 275.96 41.7001 272.77 43.0201L272.26 42.2801C275.45 40.4701 278.16 38.5201 280.4 36.4401C282.67 34.3501 284.46 32.1601 285.78 29.8601C287.1 27.5301 288.1 25.2301 288.77 22.9601C289.44 20.6601 289.92 18.1101 290.2 15.3201H273.13L272.72 13.9901H290.29C290.5 11.4801 290.61 6.94012 290.61 0.370117L295.49 1.01012C295.37 7.63012 295.21 11.9601 295.03 13.9801H315.09V15.3101L315.08 15.3201Z" fill="#004098"/>
<path d="M360.3 8.1898H329.43C329.61 11.0698 328.82 13.1398 327.04 14.3998C326.43 14.8898 325.67 15.0698 324.79 14.9498C323.93 14.7998 323.36 14.3498 323.09 13.6198C322.84 12.9798 322.88 12.3598 323.18 11.7798C323.49 11.1998 323.98 10.7498 324.65 10.4498C325.57 9.9598 326.35 9.1498 327 8.0098C327.67 6.8398 327.98 5.6198 327.92 4.3298H328.66C328.97 5.1898 329.2 6.0298 329.35 6.8598H343.61C343.61 6.8598 343.41 6.73981 343.1 6.48981C343.13 5.41981 342.9 4.30979 342.41 3.17979C341.95 2.04979 341.37 1.0898 340.66 0.329803L341.03 0.0498047C342.47 0.259805 343.7 0.589806 344.71 1.01981C345.75 1.44981 346.49 1.93981 346.92 2.48981C347.38 3.00981 347.67 3.5598 347.79 4.1498C347.94 4.6998 347.93 5.21981 347.74 5.70981C347.56 6.16981 347.26 6.5498 346.87 6.8598H365.13V9.06981C363.54 11.1598 361.59 13.0698 359.29 14.8198L358.78 14.5398C359.27 12.8198 359.78 10.7098 360.3 8.1898ZM363.43 29.8998L363.57 36.9398C364.28 37.1898 364.77 37.4598 365.04 37.7698C365.32 38.0498 365.45 38.4098 365.45 38.8698C365.45 39.5698 365.14 40.1098 364.53 40.4798C363.92 40.8498 362.74 41.1198 360.99 41.3098C359.27 41.5198 356.77 41.6298 353.49 41.6298H346.91C344.33 41.6298 342.6 41.3398 341.71 40.7598C340.82 40.1798 340.38 38.9998 340.38 37.2198V26.7298H324.74L324.33 25.3998H340.38V17.1198C335.72 17.6698 331.38 18.0098 327.36 18.1298L327.22 17.3898C331.79 16.7198 336.56 15.7198 341.53 14.3998C346.53 13.0498 350.45 11.7498 353.31 10.4898L355.06 14.6298C351.9 15.3398 348.47 15.9598 344.76 16.5198V25.3998H364.22V26.7298H344.76V36.1598C344.76 36.7098 344.93 37.0798 345.27 37.2598C345.61 37.4398 346.34 37.5398 347.48 37.5398H353.83C356.28 37.5398 358.15 37.5098 359.44 37.4498C360.05 37.3898 360.5 37.1298 360.77 36.6698C361.17 36.0298 361.87 33.7698 362.89 29.9098H363.44L363.43 29.8998Z" fill="#004098"/>
<path d="M399.81 16.6101V17.9402H391.58C392.16 25.3902 393.62 30.7101 395.95 33.9001C396.32 34.4801 396.67 34.4402 397.01 33.7602C397.62 32.5602 398.21 31.0201 398.76 29.1101L399.31 29.2002L398.57 36.1002C399.52 38.1502 399.64 39.4702 398.94 40.0602C398.33 40.5202 397.65 40.6701 396.92 40.5201C396.21 40.3701 395.54 40.0401 394.9 39.5501C394.26 39.0601 393.7 38.4801 393.24 37.8001C390.3 33.4201 388.49 26.7901 387.81 17.9301H381.14V31.3202C382.52 30.8302 384.77 30.0001 387.9 28.8401L388.08 29.3502C385.23 31.8002 382.27 34.1502 379.2 36.3902C378.95 37.1902 378.48 37.7901 377.77 38.1801L375.06 33.0702C375.92 32.6102 376.47 32.2402 376.72 31.9702C376.97 31.6902 377.09 31.3102 377.09 30.8202V4.78015H381.92C387.1 3.43015 391.3 1.97016 394.52 0.410156L396.18 4.78015C395.05 4.87015 393.45 5.06015 391.4 5.33015C391.22 9.10015 391.23 12.8602 391.45 16.6002H399.82L399.81 16.6101ZM392.86 39.5602V40.8902H378.19L377.82 39.5602H392.86ZM381.13 16.6101H387.66C387.48 13.7901 387.38 10.1902 387.38 5.80016C385.33 5.98016 383.24 6.12016 381.12 6.21016V16.6101H381.13ZM415.72 2.81015V5.29015C412.75 10.8101 410.44 14.6601 408.82 16.8401C411.4 18.5301 413.3 20.4102 414.52 22.5002C415.75 24.5602 416.36 26.6402 416.36 28.7602C416.39 31.1502 415.87 32.9502 414.8 34.1402C413.73 35.3102 411.93 35.9202 409.42 35.9802C409.42 34.3602 409.21 33.2502 408.78 32.6702C408.41 32.2402 407.58 31.9202 406.3 31.7002V31.0102H409.98C410.47 31.0102 410.84 30.9202 411.08 30.7302C411.94 30.2402 412.37 29.2101 412.37 27.6501C412.37 23.7601 410.82 20.2002 407.72 16.9802C409.07 12.5602 410.23 8.29015 411.22 4.15015H404.64V40.9001C404.64 41.0201 404.5 41.1801 404.23 41.3601C403.98 41.5701 403.59 41.7701 403.03 41.9601C402.51 42.1401 401.94 42.2401 401.33 42.2401H400.64V2.82016H415.73L415.72 2.81015Z" fill="#004098"/>
</svg>
