<svg width="90" height="14" viewBox="0 0 90 14" fill="none" xmlns="http://www.w3.org/2000/svg">
<g clip-path="url(#clip0_8_367)">
<path d="M12.98 7.71977H9.87C10.68 8.70977 11.91 9.57977 13.15 10.0198C12.95 10.1998 12.67 10.5198 12.53 10.7598C11.14 10.1598 9.73 8.98977 8.87 7.71977H4.33C3.45 9.04977 1.99 10.2798 0.62 10.9398C0.48 10.7198 0.21 10.3898 0 10.2098C1.19 9.71977 2.46 8.76977 3.29 7.71977H0.14V6.90977H3.11V2.32977H0.78V1.51977H3.11V0.00976562L4.33 0.0797656C4.32 0.189766 4.23 0.249766 4.05 0.279766V1.50977H9.08V0.00976562L10.31 0.0797656C10.3 0.189766 10.21 0.259766 10.03 0.279766V1.50977H12.36V2.31977H10.03V6.90977H12.99V7.71977H12.98ZM7 10.2698V11.8698H11.96V12.6798H1.22V11.8698H6.05V10.2698H3.07V9.48977H6.05V8.15977L7.28 8.22976C7.27 8.32976 7.18 8.39977 7 8.42977V9.48977H10.05V10.2698H7ZM9.07 2.32977H4.05V3.36977H9.08V2.32977H9.07ZM4.04 4.08977V5.12977H9.07V4.08977H4.05H4.04ZM4.04 5.85977V6.90977H9.07V5.85977H4.05H4.04Z" fill="white"/>
<path d="M18.2001 8.66977L19.8201 8.02977L20.0001 8.83977C18.5401 9.50977 16.9901 10.1698 16.0101 10.5898C16.0101 10.6998 15.9501 10.7898 15.8601 10.8298L15.3701 9.76977C15.9001 9.58977 16.5701 9.31977 17.3001 9.03977V4.37977H15.6001V3.47977H17.3001V0.139766L18.4801 0.219766C18.4701 0.319766 18.3801 0.369766 18.2001 0.399766V3.48977H19.7801V4.38977H18.2001V8.67977V8.66977ZM21.8701 10.9098C21.8701 11.6798 22.0501 11.8598 23.0301 11.8598H26.6001C27.4401 11.8598 27.5801 11.4698 27.6901 9.78977C27.9101 9.95977 28.2801 10.1098 28.5401 10.1698C28.3901 12.0998 28.0801 12.7198 26.6101 12.7198H23.0001C21.4201 12.7198 20.9701 12.3698 20.9701 10.8998V6.17977L19.5601 6.77977L19.1901 5.93977L20.9701 5.17977V1.33977L22.1501 1.41977C22.1401 1.51977 22.0501 1.58977 21.8701 1.61977V4.77977L23.9001 3.90977V0.00976562L25.0601 0.0797656C25.0501 0.179766 24.9801 0.249766 24.7901 0.279766V3.53977L27.0301 2.56977L27.2301 2.41977L28.0001 2.69977C27.9901 2.75977 27.9301 2.80977 27.8601 2.84977C27.8601 5.50977 27.8201 7.71977 27.7101 8.25977C27.5801 9.10977 27.1101 9.24977 25.6201 9.24977C25.5801 8.97977 25.5101 8.62977 25.4001 8.40977C25.7501 8.43977 26.2401 8.43976 26.4001 8.43976C26.6201 8.43976 26.7801 8.36977 26.8501 8.02977C26.9301 7.67977 26.9601 5.93977 26.9601 3.58977L24.8001 4.50977V9.88977H23.9001V4.91977L21.8701 5.78977V10.9198V10.9098Z" fill="white"/>
<path d="M36.15 3.03C36.12 3.13 36.02 3.2 35.86 3.21C35.48 5.24 34.71 6.74 31.55 7.51C31.45 7.27 31.21 6.91 31.03 6.73C33.92 6.1 34.66 4.84 34.92 2.91L36.15 3.04V3.03ZM37.8 8.79V11.72H43.61V12.6H31.1V11.72H36.83V8.79H32.61V7.92H42.18V8.79H37.8ZM32.37 2.58V4.5H31.43V1.71H36.84V0L38.09 0.08C38.08 0.18 37.99 0.25 37.81 0.28V1.71H43.27V4.5H42.3V2.58H32.37ZM38.46 2.79L39.66 2.86C39.65 2.96 39.58 3.03 39.38 3.06V5.62C39.38 5.96 39.48 6.03 40.09 6.03H42.21C42.66 6.03 42.74 5.9 42.78 5.08C42.98 5.22 43.36 5.35 43.62 5.4C43.51 6.56 43.23 6.86 42.32 6.86H40.01C38.76 6.86 38.46 6.61 38.46 5.64V2.79Z" fill="white"/>
<path d="M50.9299 6.22977L51.0599 7.03977L49.3599 7.63977V11.8698C49.3599 12.8798 48.8999 13.0298 47.0399 12.9998C46.9999 12.7798 46.8599 12.3798 46.7299 12.1298C47.3899 12.1398 47.9899 12.1398 48.1699 12.1398C48.3499 12.1298 48.4399 12.0698 48.4399 11.8698V7.95977C47.7799 8.17977 47.1799 8.38977 46.6999 8.54977C46.6999 8.65977 46.6299 8.74977 46.5299 8.76977L46.1399 7.65977C46.7699 7.48977 47.5699 7.24977 48.4399 6.98977V3.72977H46.3099V2.84977H48.4399V0.00976562L49.6499 0.0797656C49.6399 0.189766 49.5699 0.249766 49.3699 0.279766V2.83977H50.9799V3.71977H49.3699V6.71977L50.9399 6.22977H50.9299ZM56.0599 0.309766C56.0299 0.389766 55.9199 0.449766 55.7499 0.459766C55.5999 1.07977 55.3399 1.91977 55.0899 2.59977H58.6099V12.9298H57.6399V12.2298H52.7399V13.0298H51.7999V2.60977H54.1699C54.4399 1.83977 54.6999 0.779766 54.8399 0.0297656L56.0599 0.309766ZM57.6399 3.49977H52.7399V6.92977H57.6399V3.49977ZM52.7399 11.3298H57.6399V7.82977H52.7399V11.3298Z" fill="white"/>
<path d="M66.28 10.98C66.81 11.26 66.99 11.37 67.16 11.48C67.1 11.54 67.01 11.56 66.88 11.58C65.96 12.17 63.97 12.77 62.3 13.06C62.17 12.88 61.91 12.57 61.73 12.39C63.4 12.14 65.41 11.56 66.28 10.98ZM71.92 3.81H74.54V4.55H71.86L71.75 5.84H64.17L64.34 4.55H61.8V3.81H64.43L64.58 2.56H72.02L71.91 3.81H71.92ZM63.19 1.88V3.32H62.32V1.09H67.66V0L68.88 0.07C68.87 0.18 68.78 0.24 68.6 0.27V1.1H74.01V3.32H73.11V1.88H63.19ZM72.57 6.46V10.94H63.79V6.46H72.57ZM71.62 7.75V7.08H64.7V7.75H71.62ZM71.62 9.04V8.34H64.7V9.04H71.62ZM71.62 10.34V9.63H64.7V10.34H71.62ZM65.19 4.49L65.09 5.25H67.54C67.57 5.01 67.61 4.76 67.64 4.49H65.19ZM67.7 3.87C67.71 3.63 67.74 3.39 67.76 3.17H65.36L65.28 3.87H67.7ZM68.37 5.24H70.92L70.98 4.48H68.46L68.38 5.24H68.37ZM71.03 3.87L71.09 3.17H68.55L68.51 3.87H71.03ZM73.72 13.04C72.66 12.63 70.92 12.05 69.13 11.56L69.77 11.01C71.51 11.47 73.37 12.05 74.52 12.47L73.72 13.04Z" fill="white"/>
<path d="M81.6599 10.7603C81.5899 10.8603 81.4599 10.8703 81.3499 10.8403C80.4099 11.5403 78.9799 12.2803 77.7799 12.7603C77.6299 12.5803 77.3299 12.2603 77.1399 12.1203C78.3199 11.7103 79.7699 11.0003 80.6399 10.3003L81.6599 10.7603ZM83.9999 5.41031H89.9099V6.19031H77.1999V5.41031H83.0399V4.40031H79.0499V0.570312H88.0399V4.39031H84.2699C84.2599 4.49031 84.1899 4.56031 83.9899 4.57031V5.40031L83.9999 5.41031ZM87.8899 9.92031H84.0099V12.0903C84.0099 12.5703 83.8999 12.7803 83.5099 12.9003C83.1199 13.0303 82.4899 13.0303 81.4799 13.0303C81.4399 12.7903 81.3099 12.4803 81.1899 12.2603C81.9599 12.2903 82.6299 12.2903 82.8299 12.2903C83.0299 12.2803 83.0799 12.2203 83.0799 12.0703V9.93031H79.2699V6.99031H87.8999V9.93031L87.8899 9.92031ZM79.9599 1.26031V2.16031H87.0999V1.26031H79.9599ZM79.9599 2.80031V3.71031H87.0999V2.80031H79.9599ZM80.1699 7.70031V9.20031H86.9399V7.70031H80.1699ZM89.1599 12.7303C88.3499 12.1603 86.7199 11.3203 85.4199 10.8003L86.0199 10.2703C87.3099 10.7503 88.9499 11.5303 89.7999 12.1303L89.1599 12.7303Z" fill="white"/>
</g>
<defs>
<clipPath id="clip0_8_367">
<rect width="89.92" height="13.07" fill="white"/>
</clipPath>
</defs>
</svg>
