<svg width="46" height="46" viewBox="0 0 46 46" fill="none" xmlns="http://www.w3.org/2000/svg">
<path d="M32.9826 41.5314C31.1126 41.5314 29.6226 41.0914 28.1526 40.5514C25.9426 39.7314 23.7027 38.9914 21.6727 37.7514C18.2727 35.6714 15.3726 33.0014 12.7126 30.0714C10.6726 27.8214 8.81262 25.4314 7.62262 22.6114C6.83262 20.7514 6.14262 18.8414 5.50262 16.9214C4.48262 13.8614 5.08263 11.0214 6.69263 8.27144C7.79263 6.39144 9.3626 5.39144 11.4826 5.10144C13.2726 4.86144 13.4626 4.94144 14.3526 6.53144C15.4826 8.55144 16.6526 10.5414 17.8326 12.5314C18.4826 13.6214 18.4826 14.1314 17.5826 15.0214C16.8526 15.7414 16.0326 16.3714 15.2626 17.0514C14.8526 17.4114 14.4627 17.7914 14.0727 18.1714C13.5927 18.6314 13.4527 19.1914 13.7827 19.7814C14.4027 20.9014 15.0227 22.0314 15.7027 23.1214C17.9827 26.7414 21.0426 29.5514 24.7526 31.6514C25.3526 31.9914 25.9527 32.3514 26.5627 32.6814C27.2827 33.0814 27.9326 32.9714 28.4826 32.3514C29.0626 31.6914 29.6227 31.0214 30.2027 30.3614C30.6327 29.8714 31.0526 29.3714 31.5226 28.9314C32.4526 28.0614 32.9026 28.0514 33.9826 28.7014C35.7726 29.7614 37.5826 30.8114 39.3826 31.8614C39.9126 32.1714 40.4626 32.4714 40.9926 32.7914C41.4026 33.0414 41.5827 33.4114 41.5527 33.9014C41.4827 35.1714 41.2427 36.4114 40.6827 37.5414C40.4027 38.1114 39.8926 38.6214 39.3826 39.0214C37.4326 40.5514 35.2426 41.5014 33.0126 41.5414L32.9826 41.5314Z" fill="white"/>
</svg>
