<svg width="456" height="38" viewBox="0 0 456 38" fill="none" xmlns="http://www.w3.org/2000/svg">
<path d="M20.0899 12.78C20.9399 13.02 21.37 13.33 21.37 13.7C21.37 14.34 20.8799 14.73 19.8899 14.86C20.9599 15.71 21.74 16.38 22.25 16.86C22.14 17.29 21.81 17.5 21.25 17.5H6.88995L6.56995 16.34H17.8899L19.0899 14.98C18.5599 15.01 17.5 15.02 15.93 15.02H13.2099C12.0399 15.02 11.2599 14.87 10.8899 14.58C10.5399 14.26 10.3699 13.67 10.3699 12.82V11.74L6.56995 12.06L6.16995 10.98L10.3699 10.62V8.06H5.88995V17.06C5.88995 18.69 5.87995 20.01 5.84995 21.02C5.81995 22.03 5.71995 23.39 5.52995 25.1C5.36995 26.78 5.12995 28.23 4.80995 29.46C4.48995 30.69 3.99995 32.02 3.32995 33.46C2.68995 34.87 1.91995 36.14 1.00995 37.26L0.449951 36.9C0.979951 35.51 1.40995 34.03 1.72995 32.46C2.07995 30.89 2.29995 29.07 2.40995 27.02C2.51995 24.97 2.57995 23.41 2.60995 22.34C2.63995 21.25 2.64995 19.5 2.64995 17.1V6.89999H10.65V0.5L14.25 0.979996V3.86H21.73V5.02H14.25V6.89999H23.0899V8.62C22.1299 9.58 21.08 10.46 19.93 11.26L19.41 11.02C19.54 10.49 19.72 9.5 19.93 8.06H11.0899L13.97 8.42L12.8899 9.34V10.38L15.2099 10.18L18.01 9.94V11.06L12.8899 11.5V12.46C12.8899 12.67 12.94 12.82 13.05 12.9C13.16 12.95 13.4199 12.98 13.8499 12.98H18.37C18.5 12.95 18.72 12.94 19.01 12.94C19.44 12.86 19.68 12.81 19.73 12.78H20.0899ZM21.5299 26.62V33.42C21.5299 34.59 21.2899 35.45 20.8099 35.98C20.3599 36.51 19.3599 36.85 17.8099 36.98C17.7599 36.13 17.57 35.51 17.25 35.14C16.85 34.74 16.12 34.45 15.05 34.26V33.66C16.6 33.79 17.57 33.86 17.97 33.86C18.42 33.86 18.65 33.62 18.65 33.14V26.22H15.2099L16.29 27.14C15.65 28.45 15.1399 29.31 14.7699 29.74H18.65V30.9H14.8899V35.22C14.8899 35.27 14.8 35.35 14.61 35.46C14.45 35.57 14.1999 35.67 13.8499 35.78C13.4999 35.89 13.13 35.94 12.73 35.94H12.29V30.9H9.72995L9.40995 29.74H13.65C14.1 28.46 14.46 27.29 14.73 26.22H9.00995V36.34C9.00995 36.42 8.91995 36.53 8.72995 36.66C8.53995 36.82 8.24995 36.95 7.84995 37.06C7.44995 37.19 7.01995 37.26 6.56995 37.26H6.08995V24.34H8.08995V18.98H19.97V23.26C19.97 23.31 19.88 23.39 19.69 23.5L23.01 25.94C22.77 26.26 22.2799 26.49 21.5299 26.62ZM9.48995 25.06H18.25L19.4899 23.62C19.0099 23.86 18.42 23.98 17.73 23.98H17.29V23.38H10.7299V23.7C10.7299 23.78 10.64 23.89 10.45 24.02C10.29 24.13 10.02 24.23 9.64995 24.34C9.29995 24.42 8.92995 24.46 8.52995 24.46L9.48995 25.06ZM9.88995 26.54L10.3699 26.3C12.0499 26.81 12.9599 27.54 13.0899 28.5C13.1399 29.09 12.9 29.47 12.37 29.66C11.94 29.79 11.5199 29.69 11.0899 29.34C11.0099 28.35 10.6099 27.42 9.88995 26.54ZM17.29 20.14H10.7299V22.22H17.29V20.14ZM38.2099 12.5V13.66H30.5299C31.2199 23.39 33.69 30.42 37.93 34.74L37.8099 35.1C36.3199 35.15 35.14 36.01 34.29 37.66C32.88 35.31 31.8399 32.58 31.1699 29.46C30.5299 26.34 30.0999 22.46 29.8899 17.82C29.5199 22.22 28.68 26.05 27.37 29.3C26.09 32.53 24.0399 35.33 21.2099 37.7L20.65 37.06C22.86 34.18 24.4 30.87 25.25 27.14C26.13 23.38 26.62 18.89 26.73 13.66H22.29L21.97 12.5H26.7699V0.619995L30.29 1.14C30.21 8.58 30.1699 12.37 30.1699 12.5H38.2099ZM30.93 2.94L31.37 2.7C34.12 3.74 35.7299 5.11001 36.2099 6.82001C36.4999 7.89001 36.29 8.69 35.57 9.22C34.85 9.75 34.09 9.64999 33.29 8.89999C33.26 7.93999 33.0099 6.91001 32.5299 5.82001C32.0799 4.70001 31.54 3.74 30.93 2.94Z" fill="#004098"/>
<path d="M47.33 26.5398H48.01C48.65 28.6698 48.93 30.4598 48.85 31.8998C48.77 33.3098 48.42 34.4198 47.81 35.2198C47.38 35.7298 46.81 35.9898 46.09 36.0198C45.4 36.0498 44.88 35.7898 44.53 35.2598C44.05 34.2498 44.34 33.3098 45.41 32.4598C45.97 31.8698 46.45 31.0098 46.85 29.8598C47.28 28.6898 47.44 27.5798 47.33 26.5398ZM54.21 17.0598L54.65 16.8598C57.48 18.3298 59.09 20.0198 59.49 21.9398C59.73 23.0898 59.5 23.8998 58.81 24.3798C58.14 24.8298 57.44 24.7298 56.69 24.0598C56.66 23.4998 56.53 22.7798 56.29 21.8998C53.04 23.0998 49.98 24.0998 47.13 24.8998C46.81 25.3298 46.46 25.6098 46.09 25.7398L44.57 21.4998C45.18 21.3698 45.61 21.2198 45.85 21.0598C47.64 19.6498 49.72 17.2098 52.09 13.7398C50.97 14.1698 49.37 14.7098 47.29 15.3798C47 15.7798 46.69 16.0498 46.37 16.1798L44.61 11.9398C45.14 11.8298 45.52 11.6998 45.73 11.5398C46.72 10.4998 47.78 8.82976 48.93 6.53976C50.08 4.24976 50.89 2.25977 51.37 0.579773L54.61 2.93977C53.78 4.64977 52.68 6.30977 51.29 7.93977C49.93 9.56977 48.6 10.9698 47.29 12.1398C49.74 12.1398 51.7 12.1298 53.17 12.0998C54.24 10.2898 54.97 8.89977 55.37 7.93977L58.13 10.8198C57.01 12.6298 55.48 14.5098 53.53 16.4598C51.58 18.4098 49.7 20.0598 47.81 21.4998C50.29 21.3698 53.02 21.1798 56.01 20.9398C55.56 19.5498 54.96 18.2598 54.21 17.0598ZM50.77 25.9798L51.33 25.8598C53.52 27.8598 54.52 29.8698 54.33 31.8998C54.2 33.1298 53.73 33.8998 52.93 34.2198C52.21 34.5098 51.54 34.2598 50.93 33.4598C51.38 31.1698 51.33 28.6698 50.77 25.9798ZM54.77 25.3798L55.29 25.1798C57.88 26.5898 59.28 28.2298 59.49 30.0998C59.65 31.2498 59.34 32.0598 58.57 32.5398C57.88 32.9398 57.18 32.7798 56.49 32.0598C56.65 30.0298 56.08 27.8098 54.77 25.3798ZM70.53 2.85977C71.54 5.06977 73.09 7.17976 75.17 9.17976C77.28 11.1798 79.46 12.7798 81.73 13.9798L81.65 14.4998C80.29 15.1098 79.46 16.1398 79.17 17.5798C77.25 16.0298 75.48 14.0498 73.85 11.6198C72.25 9.18977 70.97 6.65978 70.01 4.01978C67 10.1498 62.97 14.8298 57.93 18.0598L57.45 17.6198C59.37 15.5698 61.18 13.0098 62.89 9.93977C64.62 6.86977 65.98 3.64977 66.97 0.259766L72.13 2.13977C71.89 2.69977 71.36 2.93977 70.53 2.85977ZM73.45 22.2198H77.37V36.2198C77.34 36.3798 76.97 36.5798 76.25 36.8198C75.56 37.0898 74.94 37.2198 74.41 37.2198H73.81V34.6998H64.41V36.4598C64.41 36.6698 64.08 36.9098 63.41 37.1798C62.74 37.4698 62.06 37.6198 61.37 37.6198H60.81V22.2198H73.45ZM76.77 16.0198V17.1798H62.25L61.93 16.0198H76.77ZM64.41 33.5398H73.81V23.3798H64.41V33.5398Z" fill="#004098"/>
<path d="M108.29 2.81934V4.05933C109.78 6.00933 112.14 7.92934 115.37 9.81934C118.6 11.7093 122 13.1493 125.57 14.1393L125.53 14.5793C124.7 14.7693 123.96 15.1893 123.29 15.8593C122.65 16.5293 122.21 17.2693 121.97 18.0993C118.8 16.3393 115.88 14.2493 113.21 11.8193C110.57 9.36934 108.57 6.78933 107.21 4.09933C105.21 7.32933 102.49 10.2993 99.05 13.0193C95.64 15.7393 91.89 17.9393 87.81 19.6193L87.49 19.1393C90.66 17.1893 93.58 14.8593 96.25 12.1393C98.94 9.41933 100.96 6.68933 102.29 3.93933H94.89L94.53 2.81934H108.29ZM124.17 35.2993V36.4593H89.57L89.29 35.2993H104.21V26.6993H93.57L93.25 25.5793H104.21V18.0193H94.93L94.61 16.8593H118.13V18.0193H108.21V25.5793H120.69V26.6993H108.21V35.2993H124.17Z" fill="#004098"/>
<path d="M158.21 27.7401H157.49V24.9001H150.97V27.4601C150.97 27.7001 150.64 27.9702 149.97 28.2602C149.3 28.5502 148.62 28.7002 147.93 28.7002H147.25V13.5401H141.09V33.6602H167.81V34.8202H137.29V13.5401H131.45L131.13 12.4202H137.29V2.02016H141.09V12.4202H147.25V0.660156L150.97 1.18015V12.4202H157.49V1.30016L161.29 1.82016V12.4202H168.85V13.5401H161.29V26.6201C161.29 26.8101 160.94 27.0501 160.25 27.3401C159.56 27.6101 158.88 27.7401 158.21 27.7401ZM150.97 23.7401H157.49V13.5401H150.97V23.7401Z" fill="#004098"/>
<path d="M183.33 0.540039L187.45 2.38005C186.25 5.82005 185.2 8.82005 184.29 11.3801V36.58C184.26 36.74 183.9 36.9701 183.21 37.2601C182.52 37.5501 181.85 37.7001 181.21 37.7001H180.49V15.62C178.7 17.94 176.8 19.9101 174.77 21.5401L174.25 21.18C176.06 18.65 177.8 15.5301 179.45 11.8201C181.1 8.11005 182.4 4.35004 183.33 0.540039ZM211.65 27.02L210.81 33.46C212.04 35.19 212.38 36.3701 211.85 36.9801C211.42 37.5401 210.81 37.7801 210.01 37.7001C209.21 37.6201 208.44 37.41 207.69 37.06C206.94 36.71 206.21 36.2601 205.49 35.7001C199.94 31.4301 196.45 24.5 195.01 14.9L186.25 15.9L185.81 14.78L194.85 13.78C194.34 10.15 194.09 5.93005 194.09 1.10005L198.09 1.78004C198.04 6.50004 198.21 10.35 198.61 13.34L205.05 12.62L210.73 12.0201L210.81 13.1001L198.73 14.4601C199.96 22.8601 202.92 28.67 207.61 31.9C207.96 32.19 208.22 32.33 208.41 32.3C208.6 32.27 208.78 32.09 208.97 31.74C209.64 30.62 210.38 29.02 211.21 26.94L211.65 27.02ZM200.93 2.26004L201.29 1.98004C204.76 2.33004 206.94 3.33004 207.85 4.98004C208.38 5.94004 208.34 6.77005 207.73 7.46005C207.06 8.21005 206.2 8.30005 205.13 7.74005C204.46 5.90005 203.06 4.07004 200.93 2.26004Z" fill="#004098"/>
<path d="M282.69 34.7002V35.8602H245.81L245.45 34.7002H261.85V22.8202H250.41L250.09 21.6602H261.85V11.5002H253.93C251.58 15.4202 248.82 18.6102 245.65 21.0602L245.13 20.7002C246.81 18.3802 248.38 15.5502 249.85 12.2202C251.32 8.8602 252.44 5.4302 253.21 1.9402L257.29 3.6602C256.52 6.1902 255.61 8.42019 254.57 10.3402H261.85V0.700195L265.97 1.26019V10.3402H280.41V11.5002H265.97V21.6602H279.09V22.8202H265.97V34.7002H282.69Z" fill="#004098"/>
<path d="M288.73 10.2995L289.05 9.97945C292.52 10.2194 294.72 11.1695 295.65 12.8195C296.21 13.8095 296.2 14.6694 295.61 15.4194C294.97 16.1694 294.13 16.2894 293.09 15.7794C292.64 14.7894 292.01 13.8095 291.21 12.8195C290.44 11.8095 289.61 10.9695 288.73 10.2995ZM300.61 8.57945L301.29 8.69945C298.09 17.5294 296.29 22.7095 295.89 24.2595C295.44 25.8595 295.21 27.0594 295.21 27.8594C295.24 28.3094 295.48 29.2595 295.93 30.6995C296.38 32.1095 296.58 33.4594 296.53 34.7394C296.48 35.6994 296.2 36.4495 295.69 36.9795C295.18 37.5395 294.49 37.8195 293.61 37.8195C293.18 37.8195 292.8 37.6494 292.45 37.2994C292.13 36.9494 291.92 36.4595 291.81 35.8195C292.13 33.7395 292.24 31.9395 292.13 30.4195C292.05 28.8695 291.78 27.9495 291.33 27.6595C290.85 27.3095 290.18 27.0994 289.33 27.0194V26.2195H291.13C291.34 26.2195 291.49 26.2094 291.57 26.1794C291.68 26.1494 291.78 26.0895 291.89 25.9795C292.02 25.8695 292.16 25.6994 292.29 25.4594C292.88 24.4694 295.65 18.8495 300.61 8.57945ZM291.69 1.53944L292.01 1.21945C295.58 1.50945 297.88 2.52945 298.89 4.25945C299.5 5.29945 299.49 6.21945 298.85 7.01945C298.24 7.78945 297.4 7.92945 296.33 7.41945C295.88 6.37945 295.22 5.32945 294.37 4.25945C293.52 3.18945 292.62 2.28944 291.69 1.53944ZM326.37 13.4194V14.5394H314.61V22.3795H323.13V36.2994C323.1 36.4594 322.72 36.6895 321.97 36.9795C321.22 37.2695 320.56 37.4195 319.97 37.4195H319.33V34.2595H306.05V36.4195C306.05 36.6295 305.7 36.8695 305.01 37.1395C304.32 37.4295 303.6 37.5794 302.85 37.5794H302.29V22.3795H310.73V14.5394H300.25L299.93 13.4194H310.73V6.41945C307.29 6.84945 303.96 7.10945 300.73 7.21945L300.61 6.53944C304.05 5.94944 307.68 5.12945 311.49 4.05945C315.33 2.96945 318.36 1.92945 320.57 0.939453L322.17 4.69945C320.01 5.12945 317.49 5.53945 314.61 5.93945V13.4194H326.37ZM319.33 23.5395H306.05V33.0995H319.33V23.5395Z" fill="#004098"/>
<path d="M348.41 7.98007V33.9001C348.38 34.0901 348.01 34.3101 347.29 34.5801C346.6 34.8701 345.96 35.0201 345.37 35.0201H344.81V31.9401H337.73V35.0201C337.73 35.2601 337.42 35.5301 336.81 35.8201C336.2 36.1401 335.54 36.3001 334.85 36.3001H334.25V7.98007H338.65C339.13 5.18007 339.5 2.71008 339.77 0.580078L343.69 1.90007C342.89 3.79007 341.73 5.82007 340.21 7.98007H348.41ZM344.81 9.14008H337.73V19.1001H344.81V9.14008ZM337.73 30.7801H344.81V20.2601H337.73V30.7801ZM367.89 7.90007V9.66008C367.73 17.8201 367.44 23.9001 367.01 27.9001C366.61 31.8701 365.92 34.4201 364.93 35.5401C363.73 36.9301 361.96 37.6201 359.61 37.6201C359.61 36.2601 359.33 35.3401 358.77 34.8601C358.08 34.1901 356.7 33.6901 354.65 33.3401L354.69 32.7001C357.2 32.9701 359.08 33.1001 360.33 33.1001C361 33.1001 361.52 32.9301 361.89 32.5801C362.58 31.9101 363.09 29.6901 363.41 25.9001C363.73 22.1101 363.97 16.5001 364.13 9.06007H355.73C353.78 12.5801 351.65 15.3801 349.33 17.4601L348.77 17.1001C351.41 12.5701 353.37 7.06008 354.65 0.580078L358.45 2.14008C357.89 4.33008 357.18 6.25007 356.33 7.90007H367.89ZM352.13 16.3401L352.49 16.1001C356.2 17.4101 358.5 19.1801 359.41 21.4201C359.94 22.7501 359.85 23.8501 359.13 24.7001C358.46 25.4701 357.62 25.5501 356.61 24.9401C356.45 24.8601 356.29 24.7501 356.13 24.6201C355.97 23.3401 355.5 21.9401 354.73 20.4201C353.98 18.9001 353.12 17.5401 352.13 16.3401Z" fill="#004098"/>
<path d="M377.97 29.1L376.21 24.98C378.18 24.93 380.66 24.77 383.65 24.5V20.34H377.89L377.57 19.1799H383.65V15.5L387.29 15.82C387 15.5 386.85 14.85 386.85 13.86V10.5H384.45C383.92 12.31 383.02 13.8099 381.77 14.9799C380.52 16.1299 378.68 17.02 376.25 17.66L375.77 17.06C378.54 15.94 380.18 13.75 380.69 10.5H376.37L376.05 9.33995H383.45V5.49995H377.65L377.33 4.33995H383.45V0.459961L386.81 0.899948V4.33995H394.09V5.49995H386.81V9.33995H395.21V10.5H389.97V13.34C389.97 13.55 390 13.7 390.05 13.78C390.13 13.83 390.28 13.86 390.49 13.86H392.57C392.73 13.83 392.82 13.82 392.85 13.82C393.04 13.82 393.29 13.77 393.61 13.66H393.97C394.53 13.85 394.89 14.0199 395.05 14.1799C395.21 14.3399 395.29 14.55 395.29 14.82C395.29 15.41 394.98 15.82 394.37 16.06C393.76 16.27 392.62 16.38 390.97 16.38H389.45C388.76 16.38 388.24 16.3099 387.89 16.1799C387.76 16.4499 387.45 16.62 386.97 16.7V19.1799H394.29V20.34H386.97V24.22C390.6 23.82 393.16 23.5099 394.65 23.2999L394.73 23.8999C390.12 25.5299 384.88 26.97 379.01 28.22C378.77 28.73 378.42 29.02 377.97 29.1ZM382.45 27.6199L383.09 27.66C383.54 29.93 383.44 31.87 382.77 33.5C382.1 35.13 381.2 36.2999 380.05 37.0199C379.44 37.4499 378.76 37.62 378.01 37.54C377.26 37.49 376.76 37.15 376.49 36.54C376.06 35.5 376.49 34.59 377.77 33.82C378.84 33.34 379.84 32.54 380.77 31.42C381.7 30.27 382.26 29.0099 382.45 27.6199ZM387.61 28.54L388.09 28.38C390.84 30.06 392.33 31.97 392.57 34.1C392.7 35.41 392.36 36.37 391.53 36.98C390.68 37.57 389.81 37.41 388.93 36.5C389.09 34.07 388.65 31.42 387.61 28.54ZM413.09 20.42L412.65 24.8599C413.26 25.8699 413.42 26.7399 413.13 27.4599C412.89 27.9099 412.54 28.1899 412.09 28.2999C411.64 28.3799 411.17 28.3399 410.69 28.1799C410.24 27.9899 409.81 27.73 409.41 27.38C407.7 25.86 406.58 23.6499 406.05 20.7399C405.54 17.8299 405.26 13.74 405.21 8.45996H402.41C402.28 11.53 402 13.99 401.57 15.86C403.7 17.59 404.81 19.35 404.89 21.14C404.92 22.23 404.54 22.9099 403.77 23.1799C403.21 23.3699 402.6 23.23 401.93 22.78C401.66 21.87 401.17 20.77 400.45 19.46C398.9 23.03 396.25 25.87 392.49 27.98L392.01 27.38C395.24 24.71 397.33 21.05 398.29 16.38C397.06 14.89 395.93 13.66 394.89 12.7L395.33 12.38C396.48 12.83 397.6 13.3399 398.69 13.8999C398.82 12.6999 398.94 10.89 399.05 8.45996H394.85L394.49 7.33995H399.05C399.08 5.94995 399.09 3.78995 399.09 0.859955L402.57 1.33995C402.54 3.54995 402.5 5.54995 402.45 7.33995H408.61V8.73996C408.48 16.87 409.22 21.89 410.85 23.78C411.09 24.1 411.29 24.0299 411.45 23.5799C411.64 23.2299 412.04 22.15 412.65 20.34L413.09 20.42ZM395.65 28.4599L396.09 28.22C399.26 29.61 401.18 31.3499 401.85 33.4599C402.28 34.8199 402.1 35.8699 401.33 36.6199C400.61 37.3099 399.78 37.2999 398.85 36.5799C398.77 36.5299 398.69 36.46 398.61 36.38C398.58 35.15 398.28 33.82 397.69 32.38C397.13 30.91 396.45 29.6099 395.65 28.4599ZM403.97 28.14L404.41 27.8599C408.17 29.1699 410.57 31.01 411.61 33.38C412.28 34.85 412.25 36.07 411.53 37.06C410.89 37.91 410.06 38.0899 409.05 37.5799C408.84 37.4699 408.62 37.3399 408.41 37.1799C408.28 35.7099 407.78 34.15 406.93 32.5C406.08 30.85 405.09 29.39 403.97 28.14Z" fill="#004098"/>
<path d="M454.97 11.0599V12.8999C453.77 14.1499 452.45 15.2099 451.01 16.0599L450.77 15.8999C452.16 17.1299 452.72 18.4099 452.45 19.7399C452.24 20.6699 451.73 21.2199 450.93 21.3799C450.34 21.5099 449.74 21.3299 449.13 20.8199C449.08 19.6999 448.74 18.5099 448.13 17.2599C447.52 15.9799 446.81 14.8899 446.01 13.9799L446.37 13.7399C448.08 14.2199 449.48 14.8899 450.57 15.7399C450.7 15.2599 450.89 14.0899 451.13 12.2199H424.29C424.58 14.4299 424.12 15.9799 422.89 16.8599C422.41 17.2299 421.85 17.3799 421.21 17.2999C420.57 17.1899 420.14 16.8699 419.93 16.3399C419.53 15.2499 419.94 14.4099 421.17 13.8199C421.76 13.3899 422.21 12.7299 422.53 11.8199C422.85 10.8899 422.92 9.96992 422.73 9.05992L423.37 9.01993C423.69 9.73993 423.93 10.4199 424.09 11.0599H443.25C444.64 8.86992 445.76 6.58992 446.61 4.21992L451.45 6.09993C451.24 6.60993 450.72 6.80992 449.89 6.69992C448.61 8.05992 446.81 9.50992 444.49 11.0599H454.97ZM448.69 25.0999V26.8999C446.9 29.0099 444.85 30.7399 442.53 32.0999C446.32 32.8699 450.65 33.3499 455.53 33.5399V34.0599C453.85 34.4899 452.82 35.6699 452.45 37.6199C446.64 36.9299 441.86 35.8099 438.13 34.2599C433.6 36.0499 427.8 37.1499 420.73 37.5799L420.57 36.9399C426.44 36.0899 431.36 34.7499 435.33 32.9399C433.28 31.8499 431.57 30.6599 430.21 29.3799C427.84 30.9499 425.24 32.2099 422.41 33.1399L422.09 32.6199C424.25 31.3699 426.37 29.6999 428.45 27.6199C427.52 26.5299 426.69 25.3399 425.97 24.0599L426.49 23.6199C427.29 24.7399 428.25 25.7399 429.37 26.6199C430.76 25.0199 431.86 23.4599 432.69 21.9399L436.09 23.5399C435.72 24.3399 435.42 24.8599 435.21 25.0999H448.69ZM426.69 13.8999H427.33C427.86 15.8699 427.96 17.4699 427.61 18.6999C427.29 19.8999 426.68 20.7499 425.77 21.2599C425.24 21.5799 424.65 21.6899 424.01 21.5799C423.4 21.4499 422.98 21.1099 422.77 20.5799C422.45 19.5899 422.88 18.7699 424.05 18.0999C424.77 17.7799 425.4 17.2299 425.93 16.4599C426.46 15.6599 426.72 14.8099 426.69 13.8999ZM449.13 0.419922L450.13 3.81993C441.6 4.69993 432.9 5.05992 424.05 4.89992L423.97 4.13992C428.13 3.84992 432.62 3.33992 437.45 2.61992C442.28 1.89992 446.17 1.16992 449.13 0.419922ZM426.21 5.61992L426.61 5.37993C429.38 5.93993 431.01 6.93993 431.49 8.37993C431.78 9.25993 431.58 9.96992 430.89 10.4999C430.14 11.0899 429.33 11.0199 428.45 10.2999C428.34 8.72993 427.6 7.16992 426.21 5.61992ZM429.77 13.3799L432.93 13.7799V18.3799C432.93 18.6199 433.01 18.7799 433.17 18.8599C433.36 18.9099 433.82 18.9399 434.57 18.9399H438.97C441.21 18.9399 442.53 18.9299 442.93 18.8999C443.36 18.8999 443.68 18.7899 443.89 18.5799C444.18 18.2099 444.6 17.3099 445.13 15.8999H445.57L445.69 18.5799C446.57 18.8699 447.01 19.3099 447.01 19.8999C447.01 20.4099 446.8 20.7899 446.37 21.0599C445.94 21.3299 445.13 21.5299 443.93 21.6599C442.73 21.7899 440.98 21.8599 438.69 21.8599H433.97C432.21 21.8599 431.06 21.6699 430.53 21.2999C430.02 20.9299 429.77 20.1699 429.77 19.0199V13.3799ZM444.41 26.2599H434.13C433.38 26.9499 432.6 27.6199 431.77 28.2599C433.74 29.4099 436.08 30.3799 438.77 31.1799C441.12 29.7399 443 28.0999 444.41 26.2599ZM434.81 5.21992L435.21 4.97992C437.93 5.69992 439.5 6.78992 439.93 8.25992C440.2 9.18992 439.98 9.90992 439.29 10.4199C438.49 11.0099 437.65 10.9099 436.77 10.1399C436.69 8.50992 436.04 6.86992 434.81 5.21992ZM435.53 12.9799L435.93 12.6999C438.84 13.0999 440.6 14.0499 441.21 15.5399C441.56 16.4199 441.42 17.1399 440.81 17.6999C440.14 18.3099 439.36 18.3099 438.45 17.6999C438.16 16.0199 437.18 14.4499 435.53 12.9799Z" fill="#004098"/>
</svg>
