<svg width="763" height="54" viewBox="0 0 763 54" fill="none" xmlns="http://www.w3.org/2000/svg">
<path d="M13.47 15.67V20.03C17.53 21.75 19.92 23.88 20.65 26.4C21.07 28.01 20.77 29.18 19.73 29.9C18.73 30.63 17.66 30.47 16.51 29.44C16.32 27.18 15.3 24.56 13.47 21.57V51.77C13.47 52.11 13.03 52.5 12.15 52.92C11.27 53.38 10.39 53.61 9.51001 53.61H8.48001V29.23C6.45001 33.36 3.98002 37.02 1.07002 40.2L0.27002 39.51C3.72002 33.69 6.18001 25.75 7.68001 15.68H1.13002L0.670013 14.01H8.48001V0L13.48 0.75V14.01H19.45V15.68H13.48L13.47 15.67ZM27.94 26.87V0.46L32.65 1.15V28.48C32.57 34.68 31.31 39.79 28.86 43.81C26.45 47.83 22.33 51.08 16.52 53.57L15.95 52.88C20.24 50.16 23.28 46.93 25.08 43.18C26.92 39.39 27.87 34.7 27.95 29.11C26.34 31.33 24.37 33.86 22.04 36.69C22.12 37.49 21.83 38.09 21.18 38.47L17.56 33.19C20.66 31.43 24.12 29.32 27.95 26.87H27.94ZM19.73 10.16L20.42 9.82C24.67 12.19 27.1 14.89 27.71 17.92C28.09 19.72 27.77 21 26.73 21.77C25.73 22.5 24.68 22.31 23.57 21.2C23.38 17.98 22.1 14.31 19.72 10.18L19.73 10.16ZM52.11 40.3L52.34 46.73C53.56 47.34 54.18 48.05 54.18 48.85C54.18 49.88 53.57 50.61 52.34 51.03C51.11 51.49 48.95 51.72 45.85 51.72H42.23C40.24 51.72 38.88 51.38 38.15 50.69C37.46 50 37.12 48.79 37.12 47.07V1.32H41.94V18.03C44.12 14.39 45.73 11.33 46.76 8.84L50.55 12.86C47.98 15.81 45.11 18.43 41.94 20.73V24.92C46.76 26.91 49.73 29.38 50.84 32.33C51.49 34.17 51.3 35.56 50.27 36.52C49.27 37.44 48.09 37.36 46.71 36.29C46.21 33.65 44.62 30.59 41.94 27.1V45.59C41.94 46.16 42.03 46.57 42.23 46.8C42.46 47.03 42.88 47.14 43.49 47.14H46.07C47.45 47.14 48.31 47.12 48.65 47.08C49.07 47 49.4 46.81 49.63 46.51C50.09 45.9 50.68 43.83 51.41 40.31H52.1L52.11 40.3Z" fill="white"/>
<path d="M113.21 3.95996V51.22C113.17 51.49 112.62 51.85 111.54 52.31C110.47 52.81 109.47 53.06 108.55 53.06H107.75V49.1H71.86V51.45C71.86 51.83 71.38 52.27 70.42 52.77C69.5 53.27 68.51 53.52 67.43 53.52H66.51V3.95996H113.19H113.21ZM81.8 47.42H107.75V5.62996H71.86V47.43H81.68L78.98 43.64C80.28 42.76 80.93 41.96 80.93 41.23V37.73C78.17 38.92 75.47 39.85 72.83 40.54L72.31 39.56C77.48 37.46 81.65 34.81 84.83 31.64H81.84V32.27C81.84 32.5 81.4 32.79 80.52 33.13C79.64 33.47 78.78 33.65 77.94 33.65H77.25V22.97H102.28V31.53L105.72 34.92C105.34 35.3 104.71 35.34 103.83 35.03C102.18 35.8 100.52 36.52 98.83 37.21C102.5 39.09 104.61 41.06 105.15 43.12C105.46 44.38 105.15 45.21 104.23 45.59C103.62 45.86 102.91 45.78 102.11 45.36C101.08 43.91 99.35 42.18 96.94 40.19C94.57 38.2 91.92 36.42 89.02 34.85L89.42 33.99C92.48 34.76 95.01 35.56 97 36.4C98.38 35.1 99.62 33.76 100.73 32.38C99.73 32.69 98.97 32.84 98.43 32.84H97.63V31.63H90.45C89.11 33.01 87.43 34.27 85.4 35.42V41.68C87.28 41.18 89.88 40.42 93.21 39.38L93.44 40.18C87.66 43.62 84.04 45.75 82.59 46.55C82.36 46.93 82.09 47.22 81.79 47.41L81.8 47.42ZM106.89 17.79V19.45H73.53L73.07 17.79H87.25V13.66H76.34L75.88 12H87.25V6.94996L92.19 7.57996V12H104.42V13.66H92.19V17.79H106.89ZM97.65 29.96V24.62H81.86V29.96H97.65Z" fill="white"/>
<path d="M179.47 48.3498V50.0198H126.13L125.61 48.3498H138.36C139.7 43.4098 141.42 36.0098 143.53 26.1298H132.33L131.81 24.4598H143.87C145.09 18.8298 146.13 13.6898 146.97 9.00984H129.63L129.17 7.33984H176.08V9.00984H152.65C151.35 15.7098 150.32 20.8598 149.55 24.4598H167.01V48.3498H179.47ZM161.44 26.1298H149.21C147.14 35.7798 145.44 43.1798 144.1 48.3498H161.44V26.1198V26.1298Z" fill="white"/>
<path d="M241.71 19.0604H217.37C219.82 32.2304 228.14 41.8204 242.35 47.8304L242.23 48.4604C239.32 49.0004 237.56 50.7204 236.95 53.6304C225.47 46.9704 218.61 35.7204 216.39 19.8704C216.05 22.7804 215.53 25.4404 214.84 27.8504C214.19 30.2204 213.19 32.6704 211.85 35.2004C210.51 37.6904 208.85 39.9904 206.85 42.0904C204.9 44.1604 202.41 46.1904 199.39 48.1804C196.37 50.1704 192.86 51.9904 188.88 53.6304L188.25 52.7104C192.23 50.4504 195.62 48.0204 198.41 45.4204C201.24 42.8204 203.48 40.0804 205.13 37.2104C206.78 34.3004 208.02 31.4304 208.86 28.6004C209.7 25.7304 210.3 22.5504 210.64 19.0704H189.34L188.82 17.4004H210.75C211.02 14.2604 211.15 8.60039 211.15 0.400391L217.24 1.20039C217.09 9.47039 216.9 14.8704 216.67 17.3904H241.7V19.0604H241.71Z" fill="white"/>
<path d="M273.8 25.1504L274.03 25.8404C271.69 27.3304 269.11 28.9004 266.28 30.5504V51.5704C266.28 51.9504 265.82 52.3704 264.9 52.8304C263.98 53.2904 263.06 53.5204 262.14 53.5204H261.11V33.4804C259.31 34.5104 257.63 35.4304 256.06 36.2404C255.83 37.0104 255.39 37.5204 254.74 37.7904L251.24 31.5904C253.19 31.1304 256.48 30.2504 261.12 28.9504V16.3804H256.87C255.57 21.3604 253.92 25.3804 251.93 28.4404L251.01 27.9804C252.58 21.8604 253.5 14.5404 253.77 6.05035L258.54 7.14035C258.27 9.63035 257.85 12.1604 257.28 14.7204H261.13V0.400352L266.3 1.15035V14.7004H274.57V16.3604H266.3V27.3804C266.91 27.1904 268.08 26.8404 269.8 26.3504C271.52 25.8504 272.86 25.4504 273.82 25.1404L273.8 25.1504ZM305.26 30.1504V31.8104H294.7V47.2004C294.7 49.3004 294.18 50.8503 293.15 51.8503C292.12 52.8403 289.95 53.4804 286.66 53.7404C286.39 52.0604 285.87 50.8904 285.11 50.2404C283.88 49.4404 281.91 48.8404 279.2 48.4604V47.7104C284.1 48.0204 287.03 48.1703 287.99 48.1703C288.53 48.1703 288.89 48.0903 289.08 47.9403C289.27 47.7503 289.37 47.4204 289.37 46.9604V31.8004H270.19L269.73 30.1404H289.37V23.5904L294.71 24.2804V30.1404H305.27L305.26 30.1504ZM271.44 11.8304L270.92 10.1604H283.49V0.110352L288.77 0.800352V10.1604H304.22V11.8304H288.77V20.6704H302.84V22.3304H273.5L273.04 20.6704H283.49V11.8304H271.43H271.44ZM273.79 33.6504L274.36 33.3104C279.45 34.7704 282.63 36.8904 283.89 39.6804C284.66 41.4004 284.54 42.7804 283.55 43.8104C282.59 44.8104 281.39 44.8403 279.93 43.9203C279.01 40.8203 276.96 37.3904 273.79 33.6404V33.6504Z" fill="white"/>
<path d="M361.82 46.3399C364.23 46.7999 365.44 47.5699 365.44 48.6399C365.44 49.3699 365.17 49.9199 364.64 50.3099C364.1 50.6899 362.94 50.9999 361.14 51.2299C359.38 51.4999 357.12 51.6699 354.36 51.7499C351.64 51.8299 347.76 51.8699 342.7 51.8699H329.38C324.71 51.8699 321.48 51.4099 319.68 50.4899C317.92 49.6099 317.04 47.7499 317.04 44.9199V5.79988H314.86L314.4 4.12988H364.12V5.79988H322.03V44.2699C322.03 45.5699 322.49 46.4699 323.41 46.9699C324.33 47.4299 326.13 47.6599 328.81 47.6599H343.16C348.94 47.6599 353.02 47.5799 355.39 47.4299C355.96 47.3899 356.96 47.2799 358.38 47.0899C359.11 47.0099 360.03 46.7699 361.14 46.3399H361.83H361.82ZM337.48 44.4399H336.73V41.6799H330.41V44.1499C330.41 44.2999 330.22 44.4899 329.84 44.7199C329.46 44.9099 328.94 45.0999 328.29 45.2899C327.68 45.4799 327.08 45.5799 326.51 45.5799H325.82V28.5399H341.32V43.1199C341.28 43.3499 340.8 43.6399 339.88 43.9799C339 44.2899 338.2 44.4399 337.47 44.4399H337.48ZM330.42 40.0199H336.74V30.1999H330.42V40.0199ZM350.06 24.8599V22.3899H336.85V24.1099C336.85 24.3799 336.35 24.6999 335.36 25.0899C334.4 25.4699 333.43 25.6599 332.43 25.6599H331.68V10.6199H355.28V23.4199C355.24 23.6499 354.69 23.9599 353.61 24.3399C352.58 24.6799 351.68 24.8599 350.91 24.8599H350.05H350.06ZM336.85 20.7299H350.06V12.2899H336.85V20.7299ZM356.89 44.2099H356.14V41.6799H349.65V43.3499C349.65 43.6199 349.21 43.9199 348.33 44.2699C347.49 44.5799 346.63 44.7299 345.75 44.7299H345.06V28.5399H360.85V42.8899C360.81 43.0799 360.31 43.3499 359.36 43.6899C358.44 44.0299 357.62 44.2099 356.89 44.2099ZM349.66 40.0199H356.15V30.1999H349.66V40.0199Z" fill="white"/>
<path d="M416.37 16.8798V19.2898C413.08 32.8798 406.23 42.5298 395.81 48.2298L395.24 47.5398C399.34 44.2098 402.67 39.9998 405.23 34.9098C407.79 29.8198 409.61 24.3698 410.68 18.5498H397.01L396.49 16.8798H416.36H416.37ZM441.23 10.3898L445.82 14.6398C441.42 18.9998 436.69 22.6998 431.64 25.7198C435.81 32.7598 441.86 38.3698 449.78 42.5398L449.55 43.1098C447.21 43.5298 445.57 45.1398 444.61 47.9298C439.56 43.9498 435.44 39.1998 432.27 33.6898C429.13 28.1398 426.8 20.8898 425.27 11.9298V46.3898C425.27 48.6898 424.75 50.3698 423.72 51.4398C422.72 52.5498 420.56 53.2598 417.23 53.5598C417 51.6498 416.46 50.3098 415.62 49.5398C414.47 48.5798 412.58 47.9098 409.94 47.5298V46.6698C414.57 47.0098 417.37 47.1898 418.32 47.1898C419.27 47.1898 419.7 46.7898 419.7 45.9798V0.339844L425.27 1.13984V7.86984C426.42 14.1898 428.31 19.7398 430.95 24.5198C435.16 19.6998 438.59 14.9898 441.23 10.3998V10.3898Z" fill="white"/>
<path d="M505.6 3.26992V15.4999C508.43 17.9099 510.27 19.5199 511.11 20.3199C510.96 20.9299 510.46 21.2399 509.62 21.2399H469.94V29.6199C469.94 31.3799 469.88 32.9699 469.77 34.3899C469.65 35.7699 469.39 37.3999 468.97 39.2699C468.55 41.1499 467.96 42.8499 467.19 44.3799C466.46 45.9099 465.39 47.4799 463.97 49.0899C462.59 50.6999 460.95 52.1099 459.03 53.3399L458.46 52.7699C460.87 49.7099 462.46 46.2999 463.23 42.5499C464 38.7599 464.38 34.4499 464.38 29.6299V19.5799H502.5L505.43 15.7299C504.47 16.4199 503.04 16.7599 501.12 16.7599H500.14V14.3499H465.52V3.32992H470.92V12.6899H482.75V0.169922L488.21 0.859922V12.6899H500.15V2.57992L505.61 3.26992H505.6ZM510.31 37.7799V39.3899H491.59V52.1899C491.59 52.2999 491.4 52.4599 491.02 52.6499C490.68 52.8799 490.12 53.0899 489.36 53.2799C488.63 53.4699 487.85 53.5699 487.01 53.5699H485.98V39.3899H471.05L470.59 37.7799H485.98V28.7099H473.86L473.4 27.0399H506.99V28.7099H491.6V37.7799H510.32H510.31Z" fill="white"/>
<path d="M534.02 40.25C536.43 42.62 539.32 44.21 542.69 45.02C546.06 45.79 550.79 46.17 556.87 46.17C564.41 46.17 570.29 46.06 574.5 45.83V46.52C572.09 47.02 570.69 48.8 570.31 51.86H554.92C549.18 51.86 544.78 51.17 541.71 49.79C538.65 48.45 535.87 46 533.38 42.44C532.73 41.44 532.08 41.44 531.43 42.44C531.28 42.67 530.43 43.95 528.9 46.29C527.37 48.59 526.24 50.35 525.51 51.57C525.66 52.03 525.49 52.47 524.99 52.89L520.57 46.4C521.49 45.86 522.89 44.98 524.76 43.76C526.67 42.54 528.26 41.54 529.53 40.77C530.83 40 531.69 39.62 532.11 39.62C537.81 36.63 543.21 33 548.3 28.71C553.39 24.38 557.39 20.1 560.3 15.85H524.36L523.84 14.19H567.02V16.83C563.42 21.58 558.71 26.02 552.9 30.15C547.12 34.28 540.82 37.65 534.01 40.26L534.02 40.25ZM538.79 0.690039L539.36 0.290039C544.83 1.63004 548.32 3.83004 549.81 6.89004C550.69 8.73004 550.65 10.28 549.7 11.54C548.78 12.77 547.56 13.03 546.03 12.34C545.72 12.23 545.42 12.05 545.11 11.82C544.8 9.98004 544.04 8.05004 542.81 6.02004C541.62 3.95004 540.28 2.17004 538.79 0.680039V0.690039Z" fill="white"/>
<path d="M636.8 49.1499V50.8099H584.66L584.14 49.1499H607.28V27.7299H589.31L588.85 26.0599H607.28V7.28988H587.01L586.55 5.62988H634.15V7.28988H613.19V26.0699H632.08V27.7399H613.19V49.1599H636.79L636.8 49.1499Z" fill="white"/>
<path d="M659.19 40.25C661.6 42.62 664.49 44.21 667.86 45.02C671.23 45.79 675.96 46.17 682.04 46.17C689.58 46.17 695.46 46.06 699.67 45.83V46.52C697.26 47.02 695.86 48.8 695.48 51.86H680.09C674.35 51.86 669.95 51.17 666.88 49.79C663.82 48.45 661.04 46 658.55 42.44C657.9 41.44 657.25 41.44 656.6 42.44C656.45 42.67 655.6 43.95 654.07 46.29C652.54 48.59 651.41 50.35 650.68 51.57C650.83 52.03 650.66 52.47 650.16 52.89L645.74 46.4C646.66 45.86 648.06 44.98 649.93 43.76C651.84 42.54 653.43 41.54 654.7 40.77C656 40 656.86 39.62 657.28 39.62C662.98 36.63 668.38 33 673.47 28.71C678.56 24.38 682.56 20.1 685.47 15.85H649.53L649.01 14.19H692.19V16.83C688.59 21.58 683.88 26.02 678.07 30.15C672.29 34.28 665.99 37.65 659.18 40.26L659.19 40.25ZM663.96 0.690039L664.53 0.290039C670 1.63004 673.49 3.83004 674.98 6.89004C675.86 8.73004 675.82 10.28 674.87 11.54C673.95 12.77 672.73 13.03 671.2 12.34C670.89 12.23 670.59 12.05 670.28 11.82C669.97 9.98004 669.21 8.05004 667.98 6.02004C666.79 3.95004 665.45 2.17004 663.96 0.680039V0.690039Z" fill="white"/>
<path d="M762.02 11.31V12.92H738.65C736.47 15.91 734.53 18.2 732.85 19.81H752.77V51.5C752.73 51.73 752.16 52.05 751.05 52.48C749.94 52.9 748.94 53.11 748.06 53.11H747.14V49.26H723.66V51.5C723.66 51.84 723.14 52.25 722.11 52.71C721.11 53.17 720.06 53.4 718.95 53.4H718.09V19.81H730.78C730.86 19.08 731.05 16.79 731.35 12.92H709.3L708.78 11.31H739.44C741.28 7.67004 742.73 4.00004 743.8 0.290039L749.6 2.36004C747.38 5.69004 744.6 8.68004 741.27 11.32H762L762.02 11.31ZM720.51 0.860039L721.03 0.460039C726.01 1.57004 729.07 3.48004 730.22 6.20004C730.95 7.85004 730.79 9.21004 729.76 10.28C728.73 11.35 727.46 11.45 725.97 10.57C725.82 10.49 725.66 10.4 725.51 10.28C724.97 7.26004 723.31 4.12004 720.51 0.860039ZM747.15 21.42H723.67V28.83H747.15V21.42ZM723.67 30.49V38.07H747.15V30.49H723.67ZM723.67 47.6H747.15V39.73H723.67V47.6Z" fill="white"/>
</svg>
