<svg width="763" height="39" viewBox="0 0 763 39" fill="none" xmlns="http://www.w3.org/2000/svg">
<path d="M37.0602 23.7095V25.3895C36.5002 31.9995 35.2301 36.0395 33.2601 37.5095C32.1101 38.3095 30.6202 38.7095 28.7802 38.7095C28.7802 37.5595 28.5502 36.7595 28.1002 36.3095C27.5402 35.7495 26.4701 35.3395 24.9001 35.0695V34.4295C26.7101 34.6395 28.2601 34.7495 29.5401 34.7495C30.1501 34.7495 30.6202 34.6295 30.9402 34.3895C32.0902 33.4795 32.9302 30.3095 33.4602 24.8695H9.22015C6.69015 27.3995 3.98016 29.5095 1.10016 31.1895L0.660156 30.7495C6.45016 26.1895 11.1001 19.7795 14.6201 11.5095H3.82016L3.46016 10.3495H15.1002C16.3002 7.33953 17.2601 4.30953 17.9801 1.26953L21.5802 2.78954C20.7802 5.77954 19.9101 8.29953 18.9801 10.3495H29.1002V11.8695L27.9402 16.9095H32.7001V18.4695L31.7802 23.7095H37.0602ZM8.10016 27.6295L8.70015 27.5895C9.29015 29.2195 9.51016 30.6795 9.38016 31.9895C9.25016 33.2695 8.95015 34.3195 8.50015 35.1495C8.05015 35.9495 7.47015 36.5495 6.78015 36.9495C6.14015 37.3795 5.46016 37.5395 4.74016 37.4295C4.05016 37.3195 3.58015 36.9595 3.34015 36.3495C2.91015 35.2595 3.37015 34.3595 4.70015 33.6695C5.63015 33.1895 6.43016 32.3995 7.10016 31.3095C7.79016 30.1895 8.13016 28.9595 8.10016 27.6295ZM6.66016 2.02953L7.06015 1.78954C10.4502 2.53954 12.5401 3.83953 13.3401 5.70953C13.8501 6.85953 13.7402 7.79954 13.0202 8.54954C12.3002 9.29954 11.4202 9.35953 10.3802 8.74953C10.2702 8.69953 10.1802 8.62954 10.1002 8.54954C9.94016 7.45954 9.53015 6.31954 8.86015 5.14954C8.22015 3.94954 7.49016 2.90953 6.66016 2.02953ZM29.4602 18.0695H14.7402C13.3502 20.1495 11.8901 22.0295 10.3401 23.7095H28.4202L29.4602 18.0695ZM12.5802 27.5895L13.1002 27.4695C15.4702 29.3895 16.6102 31.3795 16.5002 33.4295C16.4502 34.7095 15.9902 35.5595 15.1402 35.9895C14.2602 36.4395 13.4501 36.1595 12.7001 35.1495C13.2301 32.8295 13.1902 30.3095 12.5802 27.5895ZM25.7001 11.5095H18.4202C17.5402 13.3795 16.5502 15.1795 15.4602 16.9095H24.5002L25.7001 11.5095ZM17.6602 27.3095L18.1002 27.0695C20.9802 28.0795 22.6701 29.4795 23.1801 31.2695C23.5001 32.3595 23.3101 33.2195 22.6201 33.8295C21.8701 34.4695 21.0502 34.4295 20.1402 33.7095C19.9802 31.5495 19.1502 29.4195 17.6602 27.3095ZM23.3401 26.6695L23.7001 26.4295C26.7401 26.6995 28.6502 27.5795 29.4202 29.0695C29.8702 29.9795 29.8102 30.7495 29.2202 31.3895C28.5802 32.0595 27.7802 32.1095 26.8202 31.5495C26.6102 30.7195 26.1502 29.8595 25.4602 28.9495C24.7902 28.0195 24.0901 27.2595 23.3401 26.6695Z" fill="white"/>
<path d="M66.3001 24.6297V33.7897C68.0301 33.9997 70.2501 34.1097 72.9401 34.1097C78.0101 34.1097 81.4101 34.0797 83.1401 34.0297V34.5497C81.7801 34.8697 81.0701 35.9497 81.0201 37.7897H72.7001C67.8201 37.7897 64.0601 37.1397 61.4201 35.8297C58.7801 34.5497 56.7301 32.1097 55.2601 28.5097C53.2101 32.9897 50.1101 36.3797 45.9801 38.6697L45.5801 38.2297C50.1401 34.1797 52.7901 28.0797 53.5401 19.9497L57.3401 20.9497C56.9901 23.3197 56.4601 25.4697 55.7401 27.3897C57.2101 30.1597 59.4601 32.0297 62.5001 32.9897V15.9897H51.1801L50.8601 14.8297H76.0601C76.5401 12.2697 76.9301 10.3997 77.2201 9.22973H51.9401C52.0201 10.5397 51.8501 11.6697 51.4201 12.6297C50.9901 13.5897 50.4201 14.2797 49.7001 14.7097C49.0901 15.1397 48.3801 15.2697 47.5801 15.1097C46.7801 14.9197 46.2601 14.4697 46.0201 13.7497C45.6501 12.4697 46.1901 11.4697 47.6601 10.7497C48.4601 10.3197 49.1701 9.65973 49.7801 8.74973C50.3901 7.81973 50.6701 6.83973 50.6201 5.82973H51.1801C51.4501 6.57973 51.6501 7.31973 51.7801 8.06973H81.4601V9.98972C80.2101 11.3197 78.5801 12.5797 76.5801 13.7497C77.6701 14.5997 78.3501 15.1397 78.6201 15.3497C78.5101 15.7797 78.1401 15.9897 77.5001 15.9897H66.3001V23.4697H78.4201V24.6297H66.3001ZM60.9401 1.74973L61.3001 1.46973C64.6601 1.75973 66.7401 2.74973 67.5401 4.42973C68.0201 5.43973 67.9001 6.34973 67.1801 7.14973C66.4301 7.97973 65.5101 8.11972 64.4201 7.58972C64.2301 7.50972 64.0301 7.38973 63.8201 7.22973C63.7401 6.26973 63.4201 5.27972 62.8601 4.26972C62.3301 3.22972 61.6901 2.38973 60.9401 1.74973Z" fill="white"/>
<path d="M106.3 18.71V19.87H99.7802V31.63C101.78 31.23 103.86 30.79 106.02 30.31L106.14 30.83C101.82 32.91 97.5702 34.83 93.3802 36.59C93.1402 37.15 92.8102 37.48 92.3802 37.59L90.7002 33.35C91.5502 33.24 93.4902 32.9 96.5002 32.31V19.87H91.1802L90.8602 18.71H96.5002V13.03H93.2602C92.3802 13.96 91.5002 14.75 90.6202 15.39L90.1802 15.03C91.4902 13.3 92.7402 11.03 93.9402 8.23C95.1702 5.43 96.0302 2.94 96.5402 0.75L101.7 2.31C101.57 2.84 101.03 3.12 100.1 3.15C102.1 3.92 103.57 4.75 104.5 5.63C105.46 6.48 105.98 7.3 106.06 8.07H108.98L108.26 1.87L111.54 2.11L112.14 8.07H115.78V9.19H112.26L112.9 14.23C112.47 14.82 111.45 15.11 109.82 15.11L109.14 9.19H106.18L106.02 8.63C105.89 9.35 105.46 9.82 104.74 10.03C104.05 10.24 103.38 10.06 102.74 9.47C102.18 7.6 101.18 5.76 99.7402 3.95C98.2702 6.88 96.4602 9.52 94.3002 11.87H104.94V13.03H99.7802V18.71H106.3ZM91.5002 21.67L92.0202 21.47C94.4702 23.5 95.7002 25.58 95.7002 27.71C95.7002 28.94 95.3102 29.74 94.5402 30.11C93.9002 30.4 93.2702 30.2 92.6602 29.51C92.8502 27.11 92.4602 24.5 91.5002 21.67ZM101.34 29.79L100.66 29.51C101.14 27.54 101.55 24.76 101.9 21.19L104.74 22.47C103.54 25.91 102.41 28.35 101.34 29.79ZM122.02 16.27H125.66V37.11C125.66 37.19 125.54 37.3 125.3 37.43C125.06 37.59 124.7 37.74 124.22 37.87C123.74 38 123.25 38.07 122.74 38.07H122.18V35.15H110.46V37.43C110.46 37.54 110.35 37.66 110.14 37.79C109.93 37.95 109.59 38.1 109.14 38.23C108.69 38.36 108.21 38.43 107.7 38.43H107.1V16.27H122.02ZM114.66 17.43H110.46V25.03H114.66V17.43ZM110.46 26.19V33.99H114.66V26.19H110.46ZM128.14 8.03V9.19H122.98L122.26 14.43C121.62 14.99 120.57 15.11 119.1 14.79L119.86 9.19H117.34L117.02 8.03H120.02L120.86 1.91L123.74 2.75L123.14 8.03H128.14ZM122.18 17.43H117.78V25.03H122.18V17.43ZM117.78 33.99H122.18V26.19H117.78V33.99Z" fill="white"/>
<path d="M144.38 12.2696V15.3096C147.21 16.5096 148.87 17.9896 149.38 19.7496C149.67 20.8696 149.46 21.6796 148.74 22.1896C148.05 22.6996 147.3 22.5896 146.5 21.8696C146.37 20.2996 145.66 18.4696 144.38 16.3896V37.4296C144.38 37.6696 144.07 37.9396 143.46 38.2296C142.85 38.5496 142.23 38.7096 141.62 38.7096H140.9V21.7096C139.49 24.5896 137.77 27.1396 135.74 29.3496L135.18 28.8696C137.58 24.8196 139.3 19.2796 140.34 12.2696H135.78L135.46 11.1096H140.9V1.34961L144.38 1.86961V11.1096H148.54V12.2696H144.38ZM154.46 20.0696V1.66961L157.74 2.14961V21.1896C157.69 25.5096 156.81 29.0696 155.1 31.8696C153.42 34.6696 150.55 36.9396 146.5 38.6696L146.1 38.1896C149.09 36.2996 151.21 34.0396 152.46 31.4296C153.74 28.7896 154.41 25.5196 154.46 21.6296C153.34 23.1796 151.97 24.9396 150.34 26.9096C150.39 27.4696 150.19 27.8796 149.74 28.1496L147.22 24.4696C149.38 23.2396 151.79 21.7796 154.46 20.0696ZM148.74 8.42961L149.22 8.18961C152.18 9.83961 153.87 11.7196 154.3 13.8296C154.57 15.0796 154.34 15.9796 153.62 16.5096C152.93 17.0196 152.19 16.8796 151.42 16.1096C151.29 13.8696 150.39 11.3096 148.74 8.42961ZM171.3 29.4296L171.46 33.9096C172.31 34.3396 172.74 34.8296 172.74 35.3896C172.74 36.1096 172.31 36.6196 171.46 36.9096C170.61 37.2296 169.1 37.3896 166.94 37.3896H164.42C163.03 37.3896 162.09 37.1496 161.58 36.6696C161.1 36.1896 160.86 35.3496 160.86 34.1496V2.26961H164.22V13.9096C165.74 11.3796 166.86 9.23961 167.58 7.50961L170.22 10.3096C168.43 12.3596 166.43 14.1896 164.22 15.7896V18.7096C167.58 20.0996 169.65 21.8196 170.42 23.8696C170.87 25.1496 170.74 26.1196 170.02 26.7896C169.33 27.4296 168.5 27.3796 167.54 26.6296C167.19 24.7896 166.09 22.6596 164.22 20.2296V33.1096C164.22 33.5096 164.29 33.7896 164.42 33.9496C164.58 34.1096 164.87 34.1896 165.3 34.1896H167.1C168.06 34.1896 168.66 34.1796 168.9 34.1496C169.19 34.0996 169.42 33.9596 169.58 33.7496C169.9 33.3196 170.31 31.8796 170.82 29.4296H171.3Z" fill="white"/>
<path d="M215.06 4.11035V37.0303C215.03 37.2203 214.65 37.4704 213.9 37.7904C213.15 38.1404 212.46 38.3103 211.82 38.3103H211.26V35.5504H186.26V37.1904C186.26 37.4604 185.93 37.7604 185.26 38.1104C184.62 38.4604 183.93 38.6303 183.18 38.6303H182.54V4.11035H215.06ZM193.18 34.3904H211.26V5.27035H186.26V34.3904H193.1L191.22 31.7504C192.13 31.1404 192.58 30.5804 192.58 30.0704V27.6303C190.66 28.4603 188.78 29.1103 186.94 29.5903L186.58 28.9104C190.18 27.4404 193.09 25.6004 195.3 23.3904H193.22V23.8304C193.22 23.9904 192.91 24.1904 192.3 24.4304C191.69 24.6704 191.09 24.7904 190.5 24.7904H190.02V17.3503H207.46V23.3103L209.86 25.6703C209.59 25.9403 209.15 25.9604 208.54 25.7504C207.39 26.2804 206.23 26.7903 205.06 27.2703C207.62 28.5803 209.09 29.9504 209.46 31.3904C209.67 32.2704 209.46 32.8404 208.82 33.1104C208.39 33.3004 207.9 33.2403 207.34 32.9503C206.62 31.9403 205.42 30.7403 203.74 29.3503C202.09 27.9603 200.25 26.7203 198.22 25.6303L198.5 25.0303C200.63 25.5603 202.39 26.1204 203.78 26.7104C204.74 25.8004 205.61 24.8704 206.38 23.9104C205.69 24.1204 205.15 24.2304 204.78 24.2304H204.22V23.3904H199.22C198.29 24.3504 197.11 25.2303 195.7 26.0303V30.3904C197.01 30.0404 198.82 29.5104 201.14 28.7904L201.3 29.3503C197.27 31.7503 194.75 33.2304 193.74 33.7904C193.58 34.0604 193.39 34.2604 193.18 34.3904ZM210.66 13.7504V14.9104H187.42L187.1 13.7504H196.98V10.8704H189.38L189.06 9.71035H196.98V6.19035L200.42 6.63035V9.71035H208.94V10.8704H200.42V13.7504H210.66ZM204.22 22.2304V18.5104H193.22V22.2304H204.22Z" fill="white"/>
<path d="M230.98 25.51L230.3 24.23C232.38 23.03 233.7 21.31 234.26 19.07C233.14 18.56 232.29 18.03 231.72 17.47C231.15 16.91 230.86 16.23 230.86 15.43C230.86 14.68 231.11 14.05 231.6 13.53C232.09 13.01 232.77 12.75 233.62 12.75C234.55 12.75 235.29 13.08 235.84 13.75C236.39 14.42 236.66 15.35 236.66 16.55C236.66 18.28 236.2 19.98 235.28 21.63C234.36 23.28 232.93 24.58 230.98 25.51Z" fill="white"/>
<path d="M265.34 17.6298L265.46 18.1498C264.13 18.9498 262.11 20.0698 259.42 21.5098V33.9098C259.42 35.4598 259.1 36.5798 258.46 37.2698C257.85 37.9898 256.53 38.4598 254.5 38.6698C254.37 37.3598 254.09 36.4698 253.66 35.9898C253.05 35.3498 252.03 34.9198 250.62 34.7098V34.1098C252.97 34.2698 254.39 34.3498 254.9 34.3498C255.46 34.3498 255.74 34.1098 255.74 33.6298V23.3898C255.02 23.7398 253.89 24.2998 252.34 25.0698C252.18 25.5998 251.86 25.9598 251.38 26.1498L249.66 21.5098C251.39 21.1598 253.42 20.6998 255.74 20.1098V11.5098H250.18L249.86 10.3498H255.74V1.50977L259.42 2.02976V10.3498H265.62V11.5098H259.42V19.1898C261.58 18.6598 263.55 18.1398 265.34 17.6298ZM286.74 27.9898L285.94 34.4298C287.09 36.1398 287.42 37.2798 286.94 37.8698C286.51 38.4298 285.91 38.6698 285.14 38.5898C284.39 38.5398 283.66 38.3398 282.94 37.9898C282.22 37.6398 281.51 37.1998 280.82 36.6698C278.63 34.9398 276.79 32.7198 275.3 30.0298C271.91 33.1198 267.65 35.6798 262.5 37.7098L262.18 37.1098C267.01 34.4198 270.97 31.1898 274.06 27.4298C272.59 23.9098 271.58 19.6798 271.02 14.7498L262.9 15.7498L262.46 14.6698L270.9 13.5898C270.58 10.2798 270.42 6.34976 270.42 1.78976L274.34 2.34976C274.29 6.95976 274.38 10.5498 274.62 13.1098L281.02 12.3098L286.06 11.7098L286.14 12.8698L274.7 14.2698C275.1 18.0298 275.75 21.2298 276.66 23.8698C278.31 21.3398 279.75 18.4398 280.98 15.1898L284.18 17.1898C282.47 21.1398 280.45 24.4698 278.1 27.1898C279.35 29.5898 280.93 31.4798 282.82 32.8698C283.14 33.1598 283.39 33.2998 283.58 33.2698C283.77 33.2398 283.95 33.0598 284.14 32.7098C284.91 31.3498 285.62 29.7398 286.26 27.8698L286.74 27.9898ZM276.86 3.70976L277.18 3.38976C280.67 3.46976 282.94 4.30977 283.98 5.90977C284.59 6.86977 284.61 7.73977 284.02 8.50977C283.41 9.27977 282.55 9.39977 281.46 8.86977C281.11 7.95977 280.49 7.02976 279.58 6.06976C278.7 5.07976 277.79 4.29976 276.86 3.70976Z" fill="white"/>
<path d="M307.42 24.5903V31.2703C307.55 31.2403 310.79 30.7003 317.14 29.6303L317.26 30.2303C312.78 32.0203 306.31 34.2403 297.86 36.9103C297.62 37.4203 297.26 37.7403 296.78 37.8703L294.78 33.1103C296.14 33.0003 299.11 32.5903 303.7 31.8703V24.5903H295.98L295.66 23.4303H303.7V17.6303L307.42 18.0703V23.4303H316.26V24.5903H307.42ZM317.3 5.15031V6.31031H303.62L306.86 7.79031C304.83 10.5603 302.21 13.0003 298.98 15.1103C303.46 14.8703 307.74 14.5903 311.82 14.2703C310.94 12.4803 309.82 10.9103 308.46 9.55032L308.86 9.27031C312.57 10.5503 314.9 12.3103 315.86 14.5503C316.42 15.9403 316.35 17.0603 315.66 17.9103C315.02 18.6603 314.22 18.7203 313.26 18.1103C313.15 18.0303 313.05 17.9503 312.94 17.8703C312.89 17.1503 312.65 16.2603 312.22 15.1903C307.21 16.5203 302.74 17.6303 298.82 18.5103C298.55 18.9903 298.23 19.3103 297.86 19.4703L295.86 14.9103C296.42 14.8303 296.81 14.7203 297.02 14.5903C298.06 13.8703 299.18 12.6603 300.38 10.9503C301.61 9.22031 302.54 7.67031 303.18 6.31031H295.38L295.1 5.15031H317.3ZM322.22 5.59031V28.8703C322.22 29.0603 321.9 29.2803 321.26 29.5503C320.62 29.7903 319.99 29.9103 319.38 29.9103H318.74V5.07031L322.22 5.59031ZM326.42 2.07031L330.06 2.59031V33.9903C330.06 35.4803 329.73 36.5903 329.06 37.3103C328.42 38.0603 327.03 38.5403 324.9 38.7503C324.71 37.4203 324.39 36.5403 323.94 36.1103C323.27 35.5003 322.11 35.0403 320.46 34.7503V34.1903C323.23 34.3803 324.91 34.4703 325.5 34.4703C326.09 34.4703 326.42 34.2003 326.42 33.6703V2.07031Z" fill="white"/>
<path d="M376.26 27.4296V28.5896H340.18L339.86 27.4296H346.14V19.0296H341.58L341.22 17.8697H346.14V10.5097C344.19 12.3497 342.29 13.7997 340.42 14.8697L339.94 14.4296C343.01 11.0696 345.53 6.71965 347.5 1.38965L351.22 3.54965C350.53 5.03965 349.81 6.26965 349.06 7.22965H374.9V8.38965H348.1C347.51 9.10965 348.02 9.73965 349.62 10.2696V17.8697H352.9V10.2696L356.22 10.7496V17.8697H359.54V10.3896L362.86 10.8697V17.8697H366.1V10.3096L369.54 10.8297V17.8697H375.7V19.0296H369.54V27.4296H376.26ZM346.18 29.4296L346.82 29.4697C347.35 31.7397 347.3 33.6597 346.66 35.2297C346.02 36.7797 345.11 37.8597 343.94 38.4697C343.3 38.8397 342.59 38.9597 341.82 38.8297C341.07 38.6997 340.58 38.2996 340.34 37.6296C339.97 36.4796 340.47 35.5597 341.86 34.8697C342.9 34.4697 343.86 33.7796 344.74 32.7896C345.62 31.7996 346.1 30.6796 346.18 29.4296ZM349.62 19.0296V27.4296H352.9V19.0296H349.62ZM351.5 30.0296L351.98 29.8697C354.41 31.6297 355.61 33.5197 355.58 35.5497C355.55 36.7997 355.1 37.6697 354.22 38.1497C353.31 38.6297 352.47 38.3596 351.7 37.3496C352.18 35.0796 352.11 32.6396 351.5 30.0296ZM359.54 19.0296H356.22V27.4296H359.54V19.0296ZM358.66 29.9097L359.14 29.6696C362.29 30.9496 364.21 32.6196 364.9 34.6696C365.35 35.9796 365.22 37.0196 364.5 37.7896C363.81 38.5396 362.99 38.5797 362.06 37.9097C361.95 37.8297 361.85 37.7496 361.74 37.6696C361.69 36.4396 361.35 35.1196 360.74 33.7096C360.15 32.2996 359.46 31.0297 358.66 29.9097ZM366.1 19.0296H362.86V27.4296H366.1V19.0296ZM367.3 29.6296L367.7 29.3496C371.51 30.4996 373.95 32.1997 375.02 34.4697C375.66 35.8797 375.63 37.0396 374.94 37.9496C374.3 38.7996 373.46 38.9596 372.42 38.4296C372.26 38.3196 372.1 38.2196 371.94 38.1096C371.73 36.7496 371.17 35.2996 370.26 33.7496C369.38 32.1796 368.39 30.7996 367.3 29.6296Z" fill="white"/>
<path d="M404.18 15.2703V33.3103C404.18 34.7003 403.91 35.7103 403.38 36.3503C402.85 36.9903 401.71 37.3903 399.98 37.5503C399.93 36.4003 399.71 35.6203 399.34 35.1903C398.89 34.6603 398.06 34.2803 396.86 34.0703V33.4703C398.67 33.6003 399.79 33.6703 400.22 33.6703C400.7 33.6703 400.94 33.4203 400.94 32.9103V14.7903H388.82V37.4303C388.82 37.5103 388.71 37.6303 388.5 37.7903C388.31 37.9803 387.99 38.1403 387.54 38.2703C387.11 38.4303 386.66 38.5103 386.18 38.5103H385.66V13.6303H391.06C390.71 13.5003 390.39 13.2803 390.1 12.9903C390.21 11.4703 389.83 9.83027 388.98 8.07027H384.54L384.22 6.91028H406.42V8.07027H398.38L401.18 8.99027C400.11 10.9603 399.01 12.5103 397.86 13.6303H404.18V15.2703ZM396.86 32.4303H396.38V31.1103H393.22V32.5503C393.22 32.6303 393.14 32.7403 392.98 32.8703C392.82 32.9803 392.57 33.0803 392.22 33.1903C391.9 33.3003 391.54 33.3503 391.14 33.3503H390.74V23.7503H393.34V20.2703H389.82L389.5 19.1103H393.34V15.5503L395.9 15.9103V19.1103H400.54V20.2703H395.9V23.9103H398.94V31.7503C398.89 31.8603 398.63 32.0003 398.18 32.1903C397.73 32.3503 397.29 32.4303 396.86 32.4303ZM397.66 8.07027H390.18C391.01 8.47027 391.67 8.91027 392.18 9.39027C392.69 9.87027 393.02 10.3403 393.18 10.7903C393.37 11.2203 393.43 11.6303 393.38 12.0303C393.35 12.4303 393.22 12.7803 392.98 13.0703C392.77 13.3403 392.5 13.5203 392.18 13.6303H396.66C397.09 11.9803 397.42 10.1203 397.66 8.07027ZM391.46 1.27027L391.86 1.03027C394.71 1.59027 396.41 2.60027 396.94 4.07027C397.29 4.98027 397.11 5.71027 396.42 6.27027C395.67 6.88027 394.83 6.86028 393.9 6.19028C393.63 4.48028 392.82 2.84027 391.46 1.27027ZM393.22 29.9503H396.38V25.0703H393.22V29.9503ZM421.66 11.5503H418.38C417.71 18.3503 416.19 23.8703 413.82 28.1103C415.87 31.2303 418.47 33.6603 421.62 35.3903L421.5 35.7903C419.82 36.1103 418.73 37.0703 418.22 38.6703C415.63 36.6703 413.59 34.0603 412.1 30.8303C409.73 34.0603 406.65 36.7003 402.86 38.7503L402.54 38.2703C406.06 35.3603 408.79 31.8003 410.74 27.5903C409.65 24.3603 408.85 20.6003 408.34 16.3103C407.35 18.1803 406.31 19.7803 405.22 21.1103L404.62 20.7903C406.81 15.4003 408.21 9.00027 408.82 1.59027L412.74 2.75027C412.29 5.55027 411.67 8.10027 410.9 10.3903H421.66V11.5503ZM414.34 11.5503H410.5C410.15 12.4803 409.69 13.5803 409.1 14.8303C409.79 18.7503 410.74 22.0003 411.94 24.5903C413.25 20.8303 414.05 16.4803 414.34 11.5503Z" fill="white"/>
<path d="M445.02 8.9498V34.8698C444.99 35.0598 444.62 35.2798 443.9 35.5498C443.21 35.8398 442.57 35.9898 441.98 35.9898H441.42V32.9098H434.34V35.9898C434.34 36.2298 434.03 36.4998 433.42 36.7898C432.81 37.1098 432.15 37.2698 431.46 37.2698H430.86V8.9498H435.26C435.74 6.1498 436.11 3.6798 436.38 1.5498L440.3 2.8698C439.5 4.7598 438.34 6.7898 436.82 8.9498H445.02ZM441.42 10.1098H434.34V20.0698H441.42V10.1098ZM434.34 31.7498H441.42V21.2298H434.34V31.7498ZM464.5 8.8698V10.6298C464.34 18.7898 464.05 24.8698 463.62 28.8698C463.22 32.8398 462.53 35.3898 461.54 36.5098C460.34 37.8998 458.57 38.5898 456.22 38.5898C456.22 37.2298 455.94 36.3098 455.38 35.8298C454.69 35.1598 453.31 34.6598 451.26 34.3098L451.3 33.6698C453.81 33.9398 455.69 34.0698 456.94 34.0698C457.61 34.0698 458.13 33.8998 458.5 33.5498C459.19 32.8798 459.7 30.6598 460.02 26.8698C460.34 23.0798 460.58 17.4698 460.74 10.0298H452.34C450.39 13.5498 448.26 16.3498 445.94 18.4298L445.38 18.0698C448.02 13.5398 449.98 8.0298 451.26 1.5498L455.06 3.1098C454.5 5.2998 453.79 7.2198 452.94 8.8698H464.5ZM448.74 17.3098L449.1 17.0698C452.81 18.3798 455.11 20.1498 456.02 22.3898C456.55 23.7198 456.46 24.8198 455.74 25.6698C455.07 26.4398 454.23 26.5198 453.22 25.9098C453.06 25.8298 452.9 25.7198 452.74 25.5898C452.58 24.3098 452.11 22.9098 451.34 21.3898C450.59 19.8698 449.73 18.5098 448.74 17.3098Z" fill="white"/>
<path d="M511.86 36.1098V37.2698H484.5L484.18 36.1098H496.54V28.9898H488.22L487.9 27.8298H496.54V21.6298H491.82V22.9498C491.82 23.1598 491.47 23.4298 490.78 23.7498C490.11 24.0698 489.42 24.2298 488.7 24.2298H488.1V6.70976C487.91 6.81976 487.67 6.86977 487.38 6.86977H482.18V16.6698H487.78V17.8298H482.18V27.9498C482.77 27.7598 483.7 27.4698 484.98 27.0698C486.29 26.6398 487.27 26.3198 487.94 26.1098L488.1 26.6298C482.71 29.9598 478.66 32.3798 475.94 33.8698C475.81 34.3998 475.51 34.7598 475.06 34.9498L473.3 30.5498C473.91 30.4198 475.65 29.9198 478.5 29.0698V17.8298H474.18L473.86 16.6698H478.5V6.86977H474.1L473.78 5.70976H488.1V4.50977H509.06V22.1498C509.03 22.3398 508.65 22.5898 507.9 22.9098C507.18 23.1998 506.51 23.3498 505.9 23.3498H505.3V21.6298H500.26V27.8298H510.14V28.9898H500.26V36.1098H511.86ZM496.54 5.66976H491.82V12.5098H496.54V5.66976ZM491.82 20.5098H496.54V13.6698H491.82V20.5098ZM505.3 5.66976H500.26V12.5098H505.3V5.66976ZM500.26 20.5098H505.3V13.6698H500.26V20.5098Z" fill="white"/>
<path d="M552.26 10.7901V37.1901C552.21 37.3801 551.79 37.6201 551.02 37.9101C550.27 38.2001 549.58 38.3501 548.94 38.3501H548.38V35.1501H525.9V37.3101C525.9 37.5801 525.57 37.8701 524.9 38.1901C524.23 38.5101 523.51 38.6701 522.74 38.6701H522.1V10.7901H535.06V1.87012L538.94 2.43011V10.7901H552.26ZM535.06 11.9501H525.9V22.0701H535.06V11.9501ZM525.9 23.2301V33.9901H535.06V23.2301H525.9ZM548.38 11.9501H538.94V22.0701H548.38V11.9501ZM538.94 33.9901H548.38V23.2301H538.94V33.9901Z" fill="white"/>
<path d="M572.86 35.7898C572.01 35.7898 571.31 35.5098 570.76 34.9498C570.21 34.3898 569.94 33.7099 569.94 32.9099C569.94 32.1099 570.21 31.4299 570.76 30.8699C571.31 30.3099 572.01 30.0298 572.86 30.0298C573.71 30.0298 574.38 30.3099 574.94 30.8699C575.5 31.4299 575.78 32.1099 575.78 32.9099C575.78 33.7099 575.5 34.3898 574.94 34.9498C574.38 35.5098 573.69 35.7898 572.86 35.7898ZM570.88 5.38985C571.37 4.85985 572.03 4.58984 572.86 4.58984C573.69 4.58984 574.35 4.85985 574.84 5.38985C575.33 5.91985 575.58 6.71985 575.58 7.78985C575.58 9.99985 575.13 14.2398 574.22 20.5098L573.58 26.3498H572.14L571.5 20.5098C570.59 14.1898 570.14 9.94985 570.14 7.78985C570.14 6.71985 570.39 5.91985 570.88 5.38985Z" fill="white"/>
<path d="M603.78 4.58984H607.78V21.5499C607.75 21.6799 607.38 21.8798 606.66 22.1498C605.94 22.4198 605.3 22.5499 604.74 22.5499H604.18V20.1098H596.18V31.3098C597.03 30.9898 598.37 30.4398 600.18 29.6698C602.02 28.8998 603.17 28.4199 603.62 28.2299C602.79 26.3899 601.82 24.6698 600.7 23.0698L601.18 22.8699C605.07 25.1599 607.5 27.7798 608.46 30.7098C609.02 32.4998 608.93 33.8698 608.18 34.8298C607.54 35.6598 606.74 35.7398 605.78 35.0698C605.62 34.9598 605.46 34.8398 605.3 34.7098C605.27 33.0798 604.86 31.2599 604.06 29.2299C600.06 32.2399 597.02 34.4298 594.94 35.7898C594.62 36.4298 594.25 36.8598 593.82 37.0698L591.46 32.7498C591.97 32.4298 592.29 32.1598 592.42 31.9498C592.55 31.7098 592.62 31.3499 592.62 30.8699V4.58984H603.78ZM596.18 11.7098H604.18V5.74985H596.18V11.7098ZM596.18 18.9898H604.18V12.8699H596.18V18.9898ZM624.98 4.66985V26.9498C624.98 28.4398 624.67 29.5498 624.06 30.2698C623.45 30.9898 622.14 31.4598 620.14 31.6698C620.06 30.3098 619.81 29.3998 619.38 28.9498C618.87 28.3398 617.87 27.8798 616.38 27.5898V27.0298C618.65 27.1898 620.03 27.2698 620.54 27.2698C620.86 27.2698 621.07 27.2198 621.18 27.1098C621.31 26.9798 621.38 26.7598 621.38 26.4698V5.82985H614.7V37.3498C614.7 37.6198 614.39 37.9198 613.78 38.2698C613.17 38.6198 612.49 38.7898 611.74 38.7898H611.1V4.66985H624.98Z" fill="white"/>
<path d="M634.62 38.6297L634.3 37.9897C642.65 33.3797 648.79 27.0297 652.74 18.9497L655.94 21.4697C654.26 24.3497 652.33 26.8797 650.14 29.0697C653.63 30.4597 655.81 32.2197 656.66 34.3497C657.19 35.6597 657.1 36.6797 656.38 37.4297C655.69 38.1797 654.81 38.1997 653.74 37.5097C652.99 35.3797 651.47 32.8697 649.18 29.9897C645.18 33.5597 640.33 36.4397 634.62 38.6297ZM658.18 7.78969V8.90969H643.1L645.9 10.8297C644.03 13.1997 641.83 15.1897 639.3 16.7897C641.59 16.7897 644.25 16.7497 647.26 16.6697C648.33 14.9097 649.25 13.1897 650.02 11.5097L653.14 13.8697C648.79 21.2297 642.79 26.6197 635.14 30.0297L634.78 29.4297C639.42 26.4197 643.26 22.6397 646.3 18.1097C644.51 18.5897 641.99 19.1997 638.74 19.9497C638.42 20.3497 638.03 20.6197 637.58 20.7497L636.22 16.5897C637.26 16.4297 637.9 16.2697 638.14 16.1097C638.83 15.5497 639.57 14.5397 640.34 13.0697C641.14 11.5997 641.78 10.2197 642.26 8.90969H634.74L634.42 7.78969H646.02C645.59 7.67969 645.21 7.49969 644.86 7.22969C644.78 6.29969 644.49 5.31968 643.98 4.30968C643.5 3.26968 642.93 2.38969 642.26 1.66969L642.62 1.42969C645.77 1.93969 647.67 3.01969 648.34 4.66969C648.77 5.70969 648.61 6.57968 647.86 7.26968C647.59 7.53968 647.27 7.70969 646.9 7.78969H658.18ZM662.18 6.62968V28.6297C662.18 28.8197 661.86 29.0397 661.22 29.3097C660.58 29.5797 659.95 29.7097 659.34 29.7097H658.7V6.10969L662.18 6.62968ZM666.18 2.58968H669.94V33.8697C669.94 35.4197 669.59 36.5497 668.9 37.2697C668.23 38.0197 666.81 38.4997 664.62 38.7097C664.49 37.3997 664.17 36.4997 663.66 35.9897C662.99 35.3797 661.79 34.9197 660.06 34.6297V34.0697C662.94 34.2597 664.67 34.3497 665.26 34.3497C665.61 34.3497 665.85 34.2997 665.98 34.1897C666.11 34.0597 666.18 33.8397 666.18 33.5497V2.58968Z" fill="white"/>
<path d="M695.46 35.7098H694.9V33.4298H688.02V36.5898C688.02 36.7798 687.74 36.9899 687.18 37.2299C686.62 37.4699 686.05 37.5898 685.46 37.5898H684.98V23.9498C684.26 29.0998 682.5 33.1598 679.7 36.1498L679.14 35.7098C680.05 33.8398 680.74 31.6598 681.22 29.1498C681.73 26.6198 682.02 24.4598 682.1 22.6698C682.18 20.8598 682.22 18.5398 682.22 15.7098V5.42985H685.14C689.86 4.30985 693.7 3.02984 696.66 1.58984L697.82 4.78985C694.03 5.55985 689.9 6.06984 685.42 6.30984V9.38985H697.94V18.3898C697.91 18.5498 697.58 18.7398 696.94 18.9498C696.33 19.1598 695.77 19.2698 695.26 19.2698H694.74V17.5098H685.42C685.37 19.1098 685.31 20.3098 685.26 21.1098L688.22 22.3498H698.1V34.6298C698.07 34.7898 697.74 34.9998 697.1 35.2698C696.49 35.5598 695.94 35.7098 695.46 35.7098ZM694.74 10.5499H685.42V16.3498H694.74V10.5499ZM688.02 32.2698H694.9V23.5098H688.02V32.2698ZM716.9 11.5499H713.78C712.95 18.3799 711.23 23.8598 708.62 27.9898C710.91 31.1098 713.75 33.5498 717.14 35.3098L717.02 35.7098C715.23 36.0298 714.09 37.0198 713.58 38.6698C710.67 36.5398 708.38 33.8598 706.7 30.6298C704.01 33.9398 700.33 36.6198 695.66 38.6698L695.3 38.1898C699.62 35.3898 702.95 31.8399 705.3 27.5499C703.94 24.2699 702.91 20.1798 702.22 15.2698C701.23 16.9498 700.18 18.3898 699.06 19.5898L698.5 19.2299C700.63 14.4599 702.05 8.61985 702.74 1.70985L706.74 2.94984C706.21 5.77984 705.5 8.25985 704.62 10.3898H716.9V11.5499ZM709.58 11.5499H704.14C703.66 12.5899 703.25 13.4198 702.9 14.0298C703.75 18.1098 704.99 21.6998 706.62 24.7898C708.17 21.0798 709.15 16.6699 709.58 11.5499Z" fill="white"/>
<path d="M733.86 14.7498V17.1498C736.87 18.2698 738.67 19.7198 739.26 21.5098C739.63 22.6598 739.46 23.5098 738.74 24.0698C737.99 24.6598 737.18 24.5598 736.3 23.7898C736.09 22.1398 735.27 20.2798 733.86 18.2298V37.5498C733.86 37.6298 733.74 37.7498 733.5 37.9098C733.26 38.0998 732.89 38.2698 732.38 38.4298C731.9 38.5898 731.38 38.6698 730.82 38.6698H730.18V23.1098C728.58 25.7798 726.54 28.1998 724.06 30.3898L723.54 29.9098C726.37 25.9598 728.42 20.9098 729.7 14.7498H724.34L724.02 13.5898H730.18V7.1498C727.94 7.5498 725.9 7.8398 724.06 8.0298L723.9 7.4698C725.93 6.7498 728.05 5.8298 730.26 4.7098C732.5 3.5598 734.25 2.5098 735.5 1.5498L737.58 5.1898C736.51 5.6398 735.27 6.0298 733.86 6.3498V13.5898H740.1V14.7498H733.86ZM762.02 36.2298V37.3898H737.14L736.86 36.2298H747.5V29.0698H739.38L739.06 27.9098H747.5V22.4298C745.1 22.7198 742.47 22.9398 739.62 23.0698L739.46 22.4698C742.13 21.8598 744.97 21.0298 747.98 19.9898C751.02 18.9498 753.42 17.9798 755.18 17.0698L756.94 20.9898C754.91 21.3598 753.03 21.6798 751.3 21.9498V27.9098H760.58V29.0698H751.3V36.2298H762.02ZM744.3 15.3098V16.4298C744.3 16.6398 743.95 16.8998 743.26 17.1898C742.59 17.4598 741.93 17.5898 741.26 17.5898H740.74V4.5898H758.3V15.8698C758.27 16.0298 757.89 16.2598 757.14 16.5498C756.39 16.8398 755.74 16.9898 755.18 16.9898H754.58V15.3098H744.3ZM754.58 5.7498H744.3V14.1498H754.58V5.7498Z" fill="white"/>
</svg>
