<?xml version="1.0" encoding="utf-8"?>
<!-- Generator: Adobe Illustrator 27.0.0, SVG Export Plug-In . SVG Version: 6.00 Build 0)  -->
<svg version="1.1" id="圖層_1" xmlns="http://www.w3.org/2000/svg" xmlns:xlink="http://www.w3.org/1999/xlink" x="0px" y="0px"
	 viewBox="0 0 595 36" style="enable-background:new 0 0 595 36;" xml:space="preserve">
<style type="text/css">
	.st0{fill:#FFFFFF;}
</style>
<path class="st0" d="M35.3,5.1H22c-0.8,2-1.6,4-2.3,6.1v23.7c0,0.1-0.2,0.2-0.5,0.3c-0.3,0.1-0.7,0.3-1.1,0.4
	c-0.5,0.1-0.9,0.2-1.3,0.2H16V15.1c-4.4,5.7-9.6,10.3-15.7,13.8L0,28.4c3.8-3,7.3-6.6,10.4-10.9c3.1-4.3,5.4-8.4,6.7-12.5H0.9L0.6,4
	h34.8V5.1z M21.2,15l0.4-0.4c6,1.7,10.2,4,12.4,6.9c1.2,1.6,1.6,2.9,1.2,4c-0.4,0.9-1,1.2-2.1,0.9c-0.2,0-0.5-0.1-0.7-0.3
	c-1-1.8-2.5-3.7-4.7-5.7S23.4,16.5,21.2,15L21.2,15z"/>
<path class="st0" d="M73,3.5v1.1h-5.9v26.2c0,1.5-0.4,2.6-1.1,3.4c-0.8,0.8-2.3,1.3-4.7,1.5c-0.1-1.2-0.5-2.1-1.2-2.7
	c-0.9-0.6-2.4-1-4.6-1.4v-0.5c3.9,0.2,6.2,0.4,7,0.4c0.7,0,1.1-0.3,1.1-0.9v-26H37.9l-0.3-1.1H73L73,3.5z M56.7,12.9v12.7
	c0,0.1-0.4,0.3-1.1,0.6c-0.7,0.2-1.3,0.4-1.9,0.4h-0.6v-3h-7.8v3.4c0,0.2-0.3,0.4-0.9,0.7c-0.6,0.3-1.2,0.4-1.9,0.4H42V11.1h14.7
	L56.7,12.9L56.7,12.9z M45.4,22.4h7.8V12.2h-7.8V22.4z"/>
<path class="st0" d="M79.5,22.7h0.6c0.6,1.6,0.9,3.1,0.8,4.4c-0.1,1.3-0.3,2.4-0.8,3.2c-0.4,0.8-1,1.5-1.6,1.9
	c-0.6,0.4-1.2,0.6-2,0.5c-0.7-0.1-1.2-0.5-1.4-1.1c-0.4-1.2,0-2.1,1.4-2.8c0.8-0.5,1.5-1.4,2.1-2.5C79.3,25.2,79.6,24,79.5,22.7
	L79.5,22.7z M101.5,18.6H83.7V20c0,0.2-0.3,0.5-1,0.8c-0.7,0.3-1.3,0.4-2.1,0.4h-0.5V3.1h25v16.5c0,0.1-0.4,0.4-1.1,0.6
	c-0.7,0.2-1.3,0.4-1.9,0.4h-0.6V18.6z M90.9,4.2h-7.1v6h7.1V4.2z M83.7,17.5h7.1v-6.2h-7.1V17.5z M102,26.2l0.1,4.7
	c0.6,0.2,0.9,0.4,1.1,0.6c0.2,0.2,0.3,0.5,0.3,0.9c0,0.6-0.2,1-0.8,1.2c-0.5,0.3-1.4,0.5-2.7,0.7c-1.3,0.1-3.2,0.2-5.8,0.2h-5.2
	c-2,0-3.3-0.2-4-0.7c-0.6-0.4-0.9-1.2-0.9-2.5v-9.5l3.6,0.5v8.3c0,0.3,0.1,0.5,0.3,0.6c0.2,0.1,0.7,0.1,1.5,0.1h5c2.4,0,3.9,0,4.3,0
	c0.5,0,0.8-0.2,1.1-0.6c0.3-0.5,0.8-2,1.6-4.5L102,26.2L102,26.2z M90.1,20.3l0.3-0.3c3.3,0.9,5.3,2.4,6.1,4.3
	c0.5,1.2,0.4,2.2-0.3,3c-0.7,0.7-1.5,0.8-2.4,0.3c-0.1-0.1-0.2-0.2-0.4-0.3c-0.1-1.2-0.4-2.4-1.1-3.6C91.7,22.4,91,21.3,90.1,20.3
	L90.1,20.3z M101.5,4.2h-7.1v6h7.1V4.2z M94.3,17.5h7.1v-6.2h-7.1V17.5z M102,22.7l0.3-0.3c3.8,1.2,6.2,3,7.2,5.3
	c0.6,1.4,0.6,2.6,0,3.5c-0.6,0.8-1.4,1-2.4,0.5c-0.2-0.1-0.5-0.3-0.7-0.5c-0.2-1.4-0.7-2.9-1.5-4.5C104.1,25.3,103.2,23.9,102,22.7z
	"/>
<path class="st0" d="M126.3,7.8v1.1h-13.9l-0.3-1.1H126.3z M113.3,12.6h11.4v1.1h-11.1L113.3,12.6z M124.7,17.5v1.1h-11.1l-0.3-1.1
	H124.7z M123.8,22.3v10.6c0,0.2-0.4,0.4-1,0.7c-0.6,0.2-1.2,0.4-1.7,0.4h-0.5v-1.8h-3.8v2.2c0,0.2-0.3,0.4-0.9,0.7
	c-0.6,0.2-1.2,0.4-1.8,0.4h-0.5V22.3H123.8z M115.1,1.3l0.3-0.2c3.1,0.4,4.9,1.4,5.6,2.9c0.4,0.9,0.3,1.7-0.3,2.3
	c-0.7,0.7-1.6,0.7-2.6,0.1C117.7,4.7,116.7,3,115.1,1.3z M116.8,31h3.8v-7.6h-3.8V31z M147.3,28.3l-0.4,4.3c0.8,1,1.1,1.8,0.7,2.3
	c-0.3,0.4-0.7,0.6-1.2,0.6c-0.5,0-1.1,0-1.6-0.2c-0.5-0.2-1-0.5-1.4-0.8c-1.3-1-2.4-2.1-3.3-3.5c-2,1.6-4.2,2.9-6.6,3.9l-0.3-0.6
	c2-1.3,4-3,5.9-5.2c-0.7-1.7-1.2-3.8-1.6-6.3h-4.1v2.3l3.2-0.6l0.1,0.5c-1.4,0.7-2.5,1.2-3.3,1.6v5c0,1.2-0.3,2.1-0.8,2.7
	c-0.5,0.6-1.6,1-3.3,1.1c-0.1-1-0.3-1.7-0.7-2c-0.5-0.5-1.3-0.8-2.7-1v-0.6c2,0.1,3.2,0.2,3.7,0.2c0.3,0,0.5,0,0.6-0.1
	c0.1-0.1,0.1-0.3,0.1-0.5V28c-0.3,0.1-0.7,0.3-1.4,0.6c-0.6,0.3-1.1,0.5-1.5,0.7c-0.2,0.5-0.5,0.8-0.9,0.9l-1.5-3.4
	c0.7-0.1,2.4-0.4,5.2-1v-2.9H125l-0.3-1.1h5.6v-2.9c-1.6,0.3-3.1,0.5-4.5,0.6l-0.2-0.6c3-0.9,5.7-2.1,8.1-3.7h-8.3l-0.3-1.1h9.1
	v-3.1h-6.3l-0.3-1.1h6.6V6.7h-7.8L126,5.6h11.2c0.7-1.6,1.2-3.3,1.7-5.2l4.7,1.5c-0.2,0.5-0.7,0.7-1.4,0.6c-1.2,1.2-2.5,2.2-3.7,3.1
	h8.6v1.1h-9.6v3.1h7.9v1.1h-7.9v3.2h10.4v1.1H134l2.8,2.5c-0.3,0.3-0.9,0.3-1.9,0c-0.8,0.2-1.4,0.4-1.7,0.5v3.6h3.9
	c-0.2-1.5-0.3-3.6-0.3-6.2l4.2,0.4c0.9,0,1.7,0.2,2.3,0.5c0.6,0.2,1,0.5,1.3,0.8c0.3,0.3,0.5,0.6,0.6,1c0.1,0.3,0.1,0.6,0,0.9
	c-0.1,0.3-0.2,0.5-0.4,0.7c0.9,0.7,1.9,1.5,2.9,2.4c-0.1,0.4-0.4,0.6-1,0.6h-6.5c0.2,1.2,0.4,2.4,0.8,3.6c0.6-0.8,1.2-1.9,2-3.4
	l2.1,2.2c-0.9,1.4-1.9,2.7-3,3.8c0.6,1.1,1.4,2,2.4,2.7c0.4,0.3,0.7,0.2,0.9-0.2c0.3-0.6,0.8-1.7,1.3-3.3L147.3,28.3z M129.1,0.7
	l0.3-0.2c2.8,0.4,4.4,1.3,4.9,2.7c0.3,0.8,0.2,1.5-0.5,2.1c-0.7,0.6-1.5,0.6-2.4,0C131.4,3.7,130.6,2.2,129.1,0.7L129.1,0.7z
	 M142.9,21.8l1.3-1.7c-0.4,0.1-0.9,0-1.4-0.4c-0.1-1.2-0.8-2.3-1.8-3.4c-0.2,0.3-0.5,0.5-1.1,0.6c0,1.9,0.1,3.5,0.2,4.8L142.9,21.8
	L142.9,21.8z"/>
<path class="st0" d="M200.1,3.4v30.4c0,0.2-0.4,0.4-1.1,0.7c-0.7,0.3-1.4,0.5-1.9,0.5h-0.5v-3.3h-23V34c0,0.2-0.3,0.5-0.9,0.9
	c-0.6,0.3-1.3,0.5-2,0.5H170v-32L200.1,3.4L200.1,3.4z M173.6,30.6h23V4.5h-23V30.6z M192.3,10.8v14c0,0.1-0.4,0.3-1.1,0.6
	c-0.7,0.3-1.2,0.4-1.8,0.4H189v-2.7h-7.4v2.2c0,0.2-0.3,0.4-0.9,0.7c-0.6,0.2-1.2,0.4-1.8,0.4h-0.5V10.8H192.3L192.3,10.8z
	 M181.5,22h7.4V11.9h-7.4V22z"/>
<path class="st0" d="M213.3,10.6v2.9c2.7,1.1,4.3,2.5,4.8,4.2c0.3,1.1,0.1,1.8-0.6,2.3c-0.7,0.5-1.4,0.4-2.1-0.3
	c-0.1-1.5-0.8-3.2-2-5.2v20c0,0.2-0.3,0.5-0.9,0.8c-0.6,0.3-1.2,0.5-1.8,0.5H210V19.6c-1.3,2.7-3,5.2-4.9,7.3l-0.5-0.5
	c2.3-3.9,3.9-9.1,4.9-15.8h-4.3l-0.3-1.1h5.2V0.3l3.3,0.5v8.8h3.9v1.1L213.3,10.6L213.3,10.6z M222.9,18.1V0.6L226,1v18.1
	c-0.1,4.1-0.9,7.5-2.5,10.1c-1.6,2.7-4.3,4.8-8.2,6.5l-0.4-0.5c2.8-1.8,4.9-3.9,6-6.4c1.2-2.5,1.9-5.6,1.9-9.3
	c-1.1,1.5-2.4,3.1-3.9,5c0,0.5-0.1,0.9-0.6,1.2l-2.4-3.5C218.1,21.1,220.3,19.7,222.9,18.1L222.9,18.1z M217.4,7l0.5-0.2
	c2.8,1.6,4.4,3.4,4.8,5.4c0.2,1.2,0,2-0.6,2.5c-0.7,0.5-1.4,0.4-2.1-0.4C219.9,12.2,219,9.7,217.4,7z M238.9,26.9l0.2,4.3
	c0.8,0.4,1.2,0.9,1.2,1.4c0,0.7-0.4,1.2-1.2,1.4c-0.8,0.3-2.2,0.5-4.3,0.5h-2.4c-1.3,0-2.2-0.2-2.7-0.7c-0.5-0.5-0.7-1.2-0.7-2.4
	V1.2h3.2v11.1c1.4-2.4,2.5-4.4,3.2-6.1l2.5,2.7c-1.7,2-3.6,3.7-5.7,5.2v2.8c3.2,1.3,5.2,3,5.9,4.9c0.4,1.2,0.3,2.1-0.4,2.8
	c-0.7,0.6-1.4,0.6-2.4-0.1c-0.3-1.8-1.4-3.8-3.2-6.1v12.2c0,0.4,0.1,0.6,0.2,0.8c0.2,0.1,0.4,0.2,0.8,0.2h1.7c0.9,0,1.5,0,1.7,0
	c0.3,0,0.5-0.2,0.6-0.4c0.3-0.4,0.7-1.8,1.2-4.1L238.9,26.9L238.9,26.9z"/>
<path class="st0" d="M275.2,2.9v31.3c0,0.2-0.4,0.4-1.1,0.7c-0.7,0.3-1.4,0.5-2,0.5h-0.5v-2.6h-23.8v1.6c0,0.2-0.3,0.5-0.9,0.9
	c-0.6,0.3-1.3,0.5-2,0.5h-0.6V2.9L275.2,2.9L275.2,2.9z M254.4,31.7h17.2V4h-23.8v27.7H254.4l-1.9-2.5c0.9-0.6,1.3-1.1,1.3-1.6v-2.3
	c-1.8,0.8-3.6,1.4-5.4,1.9l-0.3-0.6c3.4-1.4,6.2-3.1,8.3-5.2h-2v0.4c0,0.1-0.3,0.3-0.9,0.6c-0.6,0.2-1.2,0.3-1.7,0.3h-0.5v-7.1H268
	v5.7l2.3,2.2c-0.2,0.2-0.7,0.3-1.2,0.1c-1.1,0.5-2.2,1-3.3,1.4c2.4,1.2,3.8,2.5,4.2,3.9c0.2,0.8,0,1.4-0.6,1.6
	c-0.4,0.2-0.9,0.1-1.4-0.2c-0.7-1-1.8-2.1-3.4-3.4c-1.6-1.3-3.3-2.5-5.2-3.5l0.3-0.6c2,0.5,3.7,1,5,1.6c0.9-0.9,1.7-1.8,2.5-2.7
	c-0.7,0.2-1.2,0.3-1.5,0.3h-0.5v-0.8h-4.8c-0.9,0.9-2,1.8-3.3,2.5v4.1c1.2-0.3,3-0.8,5.2-1.5l0.1,0.5c-3.8,2.3-6.2,3.7-7.2,4.2
	C254.8,31.3,254.6,31.5,254.4,31.7L254.4,31.7z M271,12.1v1.1h-22.1l-0.3-1.1h9.4V9.3h-7.2l-0.3-1.1h7.5V4.9l3.3,0.4v2.9h8.1v1.1
	h-8.1v2.7L271,12.1L271,12.1z M264.9,20.1v-3.5h-10.4v3.5H264.9z"/>
<path class="st0" d="M294.6,7.5v24.6c0,0.2-0.4,0.4-1.1,0.7c-0.7,0.3-1.3,0.4-1.8,0.4h-0.5v-2.9h-6.7v2.9c0,0.2-0.3,0.5-0.9,0.8
	c-0.6,0.3-1.2,0.5-1.9,0.5h-0.6V7.5h4.2c0.5-2.7,0.8-5,1.1-7l3.7,1.2c-0.8,1.8-1.9,3.7-3.3,5.8L294.6,7.5L294.6,7.5z M291.2,8.6
	h-6.7v9.5h6.7V8.6z M284.5,29.2h6.7v-10h-6.7V29.2z M313.1,7.4v1.7c-0.1,7.8-0.4,13.5-0.8,17.3c-0.4,3.8-1,6.2-2,7.3
	c-1.1,1.3-2.8,2-5.1,2c0-1.3-0.3-2.2-0.8-2.6c-0.7-0.6-2-1.1-3.9-1.4l0-0.6c2.4,0.2,4.2,0.4,5.4,0.4c0.6,0,1.1-0.2,1.5-0.5
	c0.7-0.6,1.1-2.8,1.4-6.3c0.3-3.6,0.5-8.9,0.7-16h-8c-1.8,3.3-3.9,6-6.1,8l-0.5-0.3c2.5-4.3,4.4-9.5,5.6-15.7l3.6,1.5
	c-0.5,2.1-1.2,3.9-2,5.5L313.1,7.4L313.1,7.4z M298.1,15.4l0.3-0.2c3.5,1.2,5.7,2.9,6.6,5.1c0.5,1.3,0.4,2.3-0.3,3.1
	c-0.6,0.7-1.4,0.8-2.4,0.2c-0.2-0.1-0.3-0.2-0.5-0.3c-0.1-1.2-0.6-2.5-1.3-4C299.9,17.9,299.1,16.6,298.1,15.4L298.1,15.4z"/>
<path class="st0" d="M346.6,6.6h-24.2c0.1,1.2-0.1,2.2-0.5,3.1c-0.4,0.9-0.9,1.5-1.6,1.9c-0.5,0.4-1.1,0.5-1.8,0.4
	c-0.7-0.1-1.1-0.4-1.3-1c-0.2-0.5-0.1-1,0.1-1.4c0.2-0.5,0.6-0.8,1.2-1.1c0.8-0.4,1.4-1.1,1.9-2c0.6-0.9,0.8-1.9,0.8-3l0.6,0
	c0.2,0.7,0.4,1.4,0.5,2h12.4c-0.4-0.1-0.7-0.2-1.1-0.4c-0.1-0.8-0.5-1.6-1-2.4s-1.1-1.5-1.8-2l0.3-0.3c3,0,4.9,0.8,5.6,2.2
	c0.5,0.9,0.4,1.7-0.3,2.4c-0.3,0.3-0.7,0.5-1.1,0.6h15v1.8c-1.2,1.3-2.6,2.4-4.1,3.3l-0.4-0.3C346.2,9.4,346.4,8.1,346.6,6.6
	L346.6,6.6z M345.3,13.1l2.5,3.1c-2.2,1.3-5.1,2.5-8.6,3.6c2.2,4.7,6.5,8,12.8,10l-0.1,0.4c-1.4,0.2-2.4,1.2-3,3.1
	c-5.3-2.9-8.8-7.3-10.5-13.2c-0.2,0-0.5,0.1-1.1,0.3c-0.5,0.1-0.9,0.3-1.2,0.3c1.3,2.7,1.9,5.4,1.9,7.9s-0.6,4.4-1.6,5.6
	c-0.8,1-2.5,1.5-5,1.5c0-1-0.3-1.8-0.8-2.3c-0.5-0.5-1.6-0.9-3.3-1.2v-0.5c2.1,0.2,3.8,0.3,5.1,0.3c0.6,0,0.9-0.1,1.1-0.4
	c0.8-1.1,1.1-2.9,1-5.6c-4.8,3.5-10.4,6-16.9,7.5l-0.3-0.6c3.2-1.2,6.3-2.8,9.3-4.8c3-2,5.4-4.2,7.1-6.5c-0.1-0.5-0.3-1-0.5-1.4
	c-2,1.3-4.3,2.6-6.9,3.9c-2.7,1.2-5.3,2.2-7.9,2.9l-0.2-0.5c2.5-1.1,4.9-2.6,7.4-4.4c2.5-1.8,4.4-3.6,5.9-5.4
	c-0.2-0.3-0.4-0.7-0.7-1.1c-3.5,2.1-7.5,3.7-11.9,4.9l-0.3-0.5c4.5-1.9,8.6-4.6,12.1-7.9h-8l-0.3-1.1H347V12h-11.2
	c-1.1,1-2.5,2.1-4.2,3.2c1.7,1.4,3.1,3,4.1,4.8C339.6,17.8,342.8,15.5,345.3,13.1L345.3,13.1z"/>
<path class="st0" d="M407.2,16.4h-16.1c1.8,7.2,7.3,12.4,16.6,15.6l0,0.5c-1.9,0.3-3,1.4-3.3,3.2c-2.3-1.1-4.3-2.4-6-3.9
	c-1.7-1.5-3-3.1-4.1-4.8c-1-1.7-1.8-3.3-2.4-4.9c-0.6-1.6-1-3.3-1.3-5.1c-0.4,2.2-0.9,4.1-1.6,5.8c-0.7,1.7-1.8,3.4-3.1,5
	c-1.3,1.6-3.1,3-5.4,4.4c-2.2,1.3-4.9,2.5-8.1,3.6l-0.4-0.6c5-2.4,8.6-5,10.8-8s3.5-6.5,4-10.7h-13.5l-0.3-1.1h13.9
	c0.1-1.5,0.2-4.8,0.3-9.9h-11.6l-0.3-1.1h29.7v1.1h-13.7c-0.1,4.8-0.2,8.1-0.5,9.9h16.5L407.2,16.4L407.2,16.4z"/>
<path class="st0" d="M444.5,16.4h-16.1c1.8,7.2,7.3,12.4,16.6,15.6l0,0.5c-1.9,0.3-3,1.4-3.3,3.2c-2.3-1.1-4.3-2.4-6-3.9
	c-1.7-1.5-3-3.1-4.1-4.8c-1-1.7-1.8-3.3-2.4-4.9c-0.6-1.6-1-3.3-1.3-5.1c-0.3,2.2-0.9,4.1-1.6,5.8c-0.7,1.7-1.8,3.4-3.1,5
	c-1.3,1.6-3.1,3-5.4,4.4s-4.9,2.5-8.1,3.6l-0.4-0.6c5-2.4,8.6-5,10.8-8s3.5-6.5,4-10.7h-13.5l-0.3-1.1h13.9c0.1-1.5,0.2-4.8,0.3-9.9
	h-11.6l-0.3-1.1h29.7v1.1h-13.7c-0.1,4.8-0.2,8.1-0.5,9.9h16.5L444.5,16.4L444.5,16.4z"/>
<path class="st0" d="M446.4,9.4l0.3-0.3c3.1,0.4,5,1.4,5.7,3c0.4,0.9,0.3,1.7-0.3,2.4c-0.7,0.7-1.5,0.7-2.4,0.2
	c-0.3-0.9-0.7-1.9-1.4-2.8C447.8,10.9,447.1,10.1,446.4,9.4z M457,7.1l0.7,0.2c-2.9,8.6-4.5,13.7-4.9,15.3c-0.4,1.5-0.6,2.6-0.6,3.4
	c0,0.5,0.2,1.4,0.6,2.9c0.4,1.4,0.6,2.7,0.6,3.9c-0.1,0.9-0.3,1.6-0.8,2.1c-0.5,0.5-1.1,0.8-1.9,0.8c-0.9,0-1.5-0.6-1.6-1.9
	c0.3-2,0.4-3.7,0.3-5.2c-0.1-1.5-0.3-2.4-0.8-2.7c-0.5-0.3-1.1-0.5-1.9-0.6v-0.8h1.7c0.3,0,0.5,0,0.6-0.1c0.1-0.1,0.3-0.3,0.5-0.7
	C450,22.8,452.5,17.2,457,7.1z M449,1l0.3-0.3c3.3,0.5,5.3,1.6,6.1,3.3c0.5,1,0.3,1.8-0.3,2.5c-0.7,0.6-1.5,0.7-2.5,0.1
	C452.1,4.7,450.9,2.8,449,1z M478.6,33.3h3v1.5h-27.4l-0.3-1.1h3.8v-13h20.8V33.3z M462.4,16.2v1.5c0,0.1-0.1,0.2-0.3,0.4
	c-0.2,0.1-0.6,0.2-1,0.4c-0.5,0.1-1,0.1-1.5,0.1H459V3h18.8v14.3c0,0.1-0.1,0.2-0.3,0.3c-0.2,0.1-0.6,0.2-1.1,0.4
	c-0.5,0.1-0.9,0.2-1.5,0.2h-0.6v-1.9L462.4,16.2L462.4,16.2z M461.1,21.8v11.9h2.8V21.8H461.1z M474.2,4.1h-11.9v11h11.9V4.1z
	 M467.1,4.5l2.7,1.2C469.5,7,469.1,8,468.6,9c2.5,0.6,4,1.5,4.5,2.9c0.3,0.8,0.1,1.3-0.4,1.7c-0.5,0.3-1,0.2-1.6-0.1
	c-0.6-1.2-1.6-2.5-3-3.8c-1.3,1.9-3,3.3-5,4.2l-0.3-0.5C465.2,11.5,466.6,8.5,467.1,4.5L467.1,4.5z M469.6,33.7V21.8h-2.9v11.9
	H469.6z M475.3,21.8h-2.9v11.9h2.9V21.8z"/>
<path class="st0" d="M497.2,21.6v1.5c-1.2,2.5-2.9,4.8-5,6.7c-2.2,1.9-4.9,3.4-8.1,4.6l-0.3-0.5c2.2-1.3,4.2-2.9,5.9-4.8
	c1.7-2,2.9-4.1,3.7-6.3h-8.6l-0.3-1.1H497.2L497.2,21.6z M514.5,18.2l2.7,2.7c-2.3,1.8-5,3.4-8.2,4.7c2.7,2.1,6.2,3.8,10.4,4.9
	l-0.1,0.4c-1.4,0.3-2.4,1.5-2.9,3.4c-3.3-1.6-6-3.6-8.2-5.9s-3.9-5.4-5-9.2v12.1c0,1.4-0.3,2.4-1,3.1c-0.7,0.7-2,1.2-4,1.4
	c-0.1-1.2-0.4-2-0.9-2.4c-0.6-0.6-1.8-1-3.5-1.2v-0.5c2.7,0.2,4.4,0.3,5,0.3c0.6,0,0.9-0.2,0.9-0.7V17.3h-6.5V18
	c0,0.2-0.3,0.4-1,0.7c-0.7,0.2-1.3,0.4-2,0.4h-0.6V5.1h9c0.4-1.9,0.7-3.5,0.9-4.8l4.1,1c-1.5,1.9-2.6,3.2-3.4,3.8h13.1v12.7
	c0,0.2-0.4,0.4-1.1,0.7c-0.7,0.3-1.4,0.4-1.9,0.4h-0.6v-1.6h-6.5V18c1,2.6,2.6,5,4.9,7C510.7,22.8,512.8,20.5,514.5,18.2L514.5,18.2
	z M509.8,6.2h-16.5v4.4h16.5V6.2z M493.2,11.7v4.4h16.5v-4.4H493.2z"/>
<path class="st0" d="M528.5,6.7v8.6c0,2-0.1,3.8-0.2,5.3c-0.1,1.5-0.4,3.2-0.8,5.2c-0.4,1.9-1.1,3.8-2.1,5.5c-1,1.7-2.2,3.2-3.8,4.6
	l-0.5-0.3c1.6-2.6,2.6-5.6,3.1-8.8c0.5-3.2,0.7-7,0.7-11.3V5.6h15.8c-0.4,0-0.7-0.2-1.1-0.4c-0.5-1.6-1.6-3.3-3.3-4.9l0.3-0.2
	c3.2,0.1,5.2,1,6,2.5c0.5,0.9,0.4,1.7-0.2,2.4c-0.3,0.3-0.7,0.5-1.2,0.6h15.3v1.1H528.5z M550.3,22v1.8c-1.6,2.3-3.6,4.3-6,5.9
	c3.4,1.1,7.6,1.9,12.6,2.1v0.5c-1.6,0.4-2.5,1.6-2.9,3.4c-5.4-0.8-9.7-2.2-12.8-4.1c-4.2,2.1-9.4,3.5-15.7,4.1l-0.2-0.6
	c5.5-1.1,10.1-2.8,13.8-5.1c-2.1-1.7-3.8-4-5.1-6.8h-2.8l-0.3-1.1L550.3,22L550.3,22z M545.2,20.2h-0.6v-1.4h-7v1.1
	c0,0.1-0.3,0.3-1,0.6c-0.6,0.2-1.2,0.3-1.9,0.3h-0.7v-7.9h-4.7l-0.3-1.1h5V7.6l3.5,0.5v3.7h7V7.6l3.5,0.5v3.7h7.5v1.1H548v6.4
	c0,0.1-0.3,0.3-1,0.6S545.8,20.2,545.2,20.2L545.2,20.2z M546.2,23.1h-11.4c1.4,2.2,3.6,4,6.4,5.4C543.3,26.9,545,25.1,546.2,23.1z
	 M537.6,17.7h7v-4.7h-7V17.7z"/>
<path class="st0" d="M580.7,27.1h-8.5v7.1c0,0.2-0.3,0.5-0.9,0.8c-0.6,0.3-1.2,0.5-1.9,0.5h-0.6V2.2c-0.2,0.4-0.7,0.6-1.4,0.5
	c-0.8,2.8-1.6,5.5-2.2,8.1v23.9c0,0.2-0.3,0.3-1,0.6c-0.6,0.2-1.2,0.4-1.8,0.4h-0.6V15.6c-1,1.6-2.1,3-3.1,4.2l-0.5-0.3
	c2.6-5.4,4.6-11.7,5.8-19l4.9,1.4v1h11.8v10.9c0,0.2-0.4,0.4-1.1,0.6c-0.7,0.2-1.3,0.3-1.8,0.3h-0.6v-1.9h-4.9v6.1h8.1v1.1h-8.1V26
	h8.5L580.7,27.1L580.7,27.1z M577.2,3.9h-4.9v7.8h4.9V3.9z M592.4,17.3v1.6c-1,3.6-2.5,6.7-4.4,9.2c1.7,1.8,3.8,3.3,6.4,4.5
	l-0.1,0.4c-1.4,0.2-2.5,1.1-3.1,2.8c-2.1-1.6-3.8-3.4-5.2-5.5c-2.4,2.3-5.5,4.1-9.4,5.4l-0.3-0.5c3.5-1.7,6.3-4,8.4-7
	c-1.3-2.6-2.2-5.9-2.8-9.7h-1.5l-0.3-1.1L592.4,17.3L592.4,17.3z M588.5,3.9h-6.1l-0.3-1.1h10.1v10.9c0,0.1-0.4,0.3-1.1,0.6
	c-0.7,0.2-1.4,0.4-1.9,0.4h-0.6v-1.8h-6.2l-0.3-1.1h6.5L588.5,3.9L588.5,3.9z M588.9,18.5h-6.1c0.7,2.9,1.8,5.4,3.4,7.5
	C587.4,23.7,588.3,21.2,588.9,18.5z"/>
</svg>
