<svg width="100" height="25" viewBox="0 0 100 25" fill="none" xmlns="http://www.w3.org/2000/svg">
<path d="M5.92999 12.29L8.85004 11.56L8.92004 11.83C8.14004 12.31 7.15999 12.93 5.92999 13.63V20.5C5.92999 22.05 5.56 23.22 3.12 23.47C3.07 21.99 2.82 21.44 1.13 21.21V20.89H3.34003C3.59003 20.89 3.67999 20.78 3.67999 20.5V14.88L2.58002 15.45C2.51002 15.75 2.28003 15.97 2.03003 16.04L1 13.35C1.57 13.26 2.51004 13.05 3.67004 12.78V7.6H1.23004L1.09003 7.14H3.67004V2L6.87 2.27C6.85 2.61 6.73003 2.77 5.91003 2.89V7.14H6.14001L7.12 5.45L8.90002 7.18C8.74002 7.48 8.44004 7.59 7.85004 7.59H5.91003V12.27L5.92999 12.29ZM12.39 15.62L14.51 17.2C14.35 17.38 14.08 17.5 13.67 17.57C13.33 22.36 12.69 23.44 10 23.44C10 22.39 9.79002 21.98 8.40002 21.71L8.42004 21.37C8.88004 21.39 9.88002 21.39 10.27 21.39C10.59 21.39 10.73 21.39 10.86 21.25C11.25 20.98 11.55 19.68 11.73 17.1H10.22L10.11 17.99C9.83998 18.15 9.54 18.24 9.13 18.24C8.88 18.24 8.58003 18.19 8.22003 18.13C8.49003 16.44 8.83999 14.07 8.92999 12.72L10.96 13.66H11.83V10.81H8.95001L8.85999 10.54C8.42999 10.79 7.95003 11.02 7.47003 11.22L7.35999 10.88C8.74999 9.92 9.88999 8.67 10.74 7.25C10.6 7.3 10.47 7.34 10.31 7.34C10.04 7.34 9.74003 7.23 9.47003 6.95C9.33003 6.29 8.88004 5.49 8.35004 5.06L8.48999 4.88C10.41 4.93 11.23 5.45 11.43 6.02C11.75 5.31 12.02 4.6 12.23 3.87H8.62L8.48004 3.41H12.11L13.34 2.22L15.44 3.98C15.28 4.19 15.05 4.25 14.55 4.3C13.61 6.67 11.81 8.82 9.19 10.35H11.65L12.36 9.41L14.46 10.85C14.35 10.96 14.09 11.12 13.75 11.17V14.43C13.75 14.5 13.22 14.98 11.83 14.98V14.11H10.55C10.5 14.77 10.39 15.75 10.3 16.64H11.53L12.4 15.64L12.39 15.62ZM18.39 16.33L19.53 15.19L21.56 16.88C21.4 17.09 21.19 17.15 20.69 17.2C20.39 18.02 20.01 18.8 19.48 19.51C20.94 20.35 21.49 21.38 21.49 22.14C21.49 22.8 21.08 23.26 20.51 23.26C20.3 23.26 20.08 23.19 19.83 23.05C19.49 22.34 18.89 21.61 18.21 20.9C17.05 21.95 15.54 22.77 13.67 23.34L13.53 23C15.11 22.22 16.27 21.17 17.14 19.92C16.36 19.3 15.54 18.76 14.77 18.34L14.88 18.09C16.02 18.25 17 18.48 17.8 18.75C18.1 18.13 18.35 17.47 18.51 16.79H14.7L14.56 16.33H18.39ZM21.95 12.02L21.99 13.5C22.47 13.68 22.56 13.82 22.56 14.12C22.56 14.76 22.08 15.19 20.87 15.19H19.82C18.27 15.19 18.18 14.76 18.18 13.18V10.78H16.95V11.6C16.95 12.9 16.65 14.86 14.12 16.01L13.89 15.71C15.1 14.45 15.15 12.93 15.15 11.6V9.48L17.27 10.32H17.98L18.78 9.32L20.77 10.85C20.63 11.01 20.36 11.15 20.02 11.19V13.27C20.02 13.47 20.08 13.57 20.2 13.57H20.82C20.93 13.57 21.02 13.57 21.12 13.43C21.28 13.22 21.55 12.47 21.74 12.01H21.97L21.95 12.02ZM20.88 3.82C20.81 3.96 20.67 4.03 20.45 4.03C20.36 4.03 20.22 4.03 20.08 3.98C19.55 4.3 18.57 4.82 17.8 5.24C18.23 5.72 18.74 6.15 19.24 6.54C19.72 5.9 20.27 5.02999 20.61 4.50999L22.69 5.81C22.62 5.95 22.48 6.02 22.28 6.02C22.17 6.02 22.05 6 21.89 5.97C21.41 6.22 20.52 6.61 19.79 6.93C20.75 7.57 21.82 8.09 22.94 8.41L22.89 8.64C22.09 8.85 21.5 9.51 21.25 10.53C18.31 8.95 16.46 6.24 15.45 2.31L15.79 2.17C16.2 3.13 16.75 4.02 17.43 4.82C17.91 4.11 18.48 3.13 18.8 2.54L20.88 3.82Z" fill="white"/>
<path d="M32.1401 12.2398C33.4201 11.9898 34.7601 11.6898 36.1101 11.3998L36.1602 11.6698C35.1302 12.2398 33.8101 12.9298 32.1401 13.7198V20.2898C32.1401 21.9098 31.7501 23.1198 29.0601 23.3898C29.0601 21.7198 28.5402 21.2198 26.7802 21.0198V20.6998H29.4001C29.6701 20.6998 29.7701 20.5898 29.7701 20.2898V14.8298C29.1501 15.0998 28.5101 15.3998 27.8301 15.6998C27.7201 15.9698 27.4601 16.2198 27.1901 16.2898L26.1602 13.3498C26.9102 13.2398 28.1901 13.0098 29.7701 12.7098V7.59978H26.4102L26.3001 7.13979H29.7701V2.02979L33.1002 2.29978C33.0802 2.61978 32.9401 2.79978 32.1401 2.91978V7.13979H32.8901L34.0302 5.33978L36.1101 7.18978C35.9501 7.48978 35.6502 7.59978 35.0402 7.59978H32.1401V12.2298V12.2398ZM45.4502 2.92979L48.0101 4.86978C47.8301 5.16978 47.5301 5.25978 46.8901 5.25978H43.3102V20.3298C43.3102 22.0198 42.8101 23.2298 39.7501 23.4598C39.7501 21.4098 38.5901 21.1498 36.6501 20.9298V20.6598H40.3701C40.6901 20.6598 40.8002 20.5498 40.8002 20.3198V5.27979H35.0201L34.9102 4.81979H44.0602L45.4502 2.94978V2.92979Z" fill="white"/>
<path d="M71.0601 5.13985L73.23 7.18984C73.07 7.36984 72.82 7.41985 72.39 7.45985C71.77 8.09985 70.7501 8.98985 69.9501 9.46985L69.6801 9.30984L69.73 9.07984C69.57 9.16984 69.3201 9.21985 68.9501 9.21985H64.13L63.99 8.75984H67.1901L68.15 7.63985L69.79 8.70985C69.9 8.11985 70.0001 7.38985 70.0601 6.81985H63.28V12.2298C63.28 12.3398 62.5501 12.7498 61.3201 12.7498H60.89V6.80984H54.5C54.55 7.05984 54.5701 7.30985 54.5701 7.53985C54.5701 8.79985 53.88 9.77985 52.74 9.77985C52.05 9.77985 51.46 9.40984 51.46 8.72984C51.46 8.13984 51.92 7.69985 52.46 7.46985C53.17 7.19985 53.83 6.34985 53.72 5.41985L54.04 5.39985C54.18 5.73985 54.29 6.05985 54.38 6.35985H60.88V4.18984H53.74L53.6 3.72984H67.23L68.53 2.08984L70.97 3.77985C70.81 4.09985 70.51 4.18984 69.9 4.18984H63.28V6.35985H69.85L71.0601 5.12984V5.13985ZM58.41 9.92985L60.26 11.1398C60.1 11.4398 59.8 11.5298 59.26 11.5298H54.22L54.08 11.0698H57.46L58.42 9.92985H58.41ZM71.86 18.8298V20.8398C72.77 21.2098 72.89 21.2498 72.89 21.6198C72.89 22.4598 72.18 22.9698 69.58 22.9698H64.15C61.46 22.9698 60.91 22.5398 60.91 20.2098V19.0698H56.76V19.7298C56.76 19.7998 56.39 20.5998 54.39 20.5998V12.4498L56.9501 13.4498H67.38L68.34 12.2198L70.9 14.0198C70.76 14.1998 70.44 14.3898 70.01 14.4998V19.4498C70.01 19.4498 69.35 20.1098 67.61 20.1098V19.0598H63.3V20.3398C63.3 21.1198 63.37 21.1598 64.28 21.1598H69.71C70.92 21.1598 70.94 21.1598 71.63 18.8298H71.88H71.86ZM58.35 7.66985L60.13 8.82984C59.97 9.12984 59.67 9.21985 59.13 9.21985H54.61L54.5 8.75984H57.4501L58.36 7.65984L58.35 7.66985ZM60.91 13.8998H56.76V15.9798H60.91V13.8998ZM56.76 18.5998H60.91V16.4298H56.76V18.5998ZM67.6 13.8998H63.29V15.9798H67.6V13.8998ZM63.29 18.5998H67.6V16.4298H63.29V18.5998ZM68.59 9.87984L70.55 11.1398C70.37 11.4398 70.07 11.5298 69.52 11.5298H64.11L63.97 11.0698H67.58L68.58 9.87984H68.59Z" fill="white"/>
<path d="M84.4401 5.11984L86.59 6.64985C86.43 6.96985 86.11 7.05984 85.52 7.05984H76.62L76.51 6.59985H83.3101L84.4501 5.11984H84.4401ZM77.61 9.56985H82.13L83.2001 8.14985L85.23 9.60985C85.05 9.92985 84.7701 10.0198 84.1801 10.0198H77.74L77.6 9.55984L77.61 9.56985ZM85.23 12.5798C85.05 12.8998 84.7501 12.9698 84.1801 12.9698H77.74L77.6 12.5398H82.0701L83.17 11.0998L85.22 12.5798H85.23ZM82.47 15.5898L83.36 14.4298L85.8 16.1598C85.69 16.3198 85.3701 16.5298 84.9301 16.5898V21.9498C84.9301 21.9498 84.3101 22.5898 82.6901 22.5898V21.0398H79.84V22.6398C79.84 22.6398 79.47 23.4398 77.65 23.4398V14.6498L79.9301 15.5898H82.46H82.47ZM85.3201 3.73985C85.1601 4.03985 84.84 4.12984 84.27 4.12984H77.83L77.72 3.69984H82.0601L83.2001 2.18984L85.3201 3.73985ZM79.84 20.5898H82.6901V16.0498H79.84V20.5898ZM98.26 9.78985C98.08 10.0898 97.78 10.1798 97.14 10.1798H92.99V14.6998H94.13L95.0701 13.4698L97.65 15.2998C97.51 15.4598 97.19 15.6698 96.74 15.7598V22.4498C96.74 22.4498 96.1 23.1598 94.37 23.1598V21.5598H89.3V22.6298C89.3 22.6298 88.96 23.4698 87.02 23.4698V13.7198L89.42 14.6998H90.63V10.1798H85.86L85.75 9.71985H90.63V5.37984C89.1 5.60984 87.5 5.78985 86.02 5.89985L85.9301 5.55984C89.0601 4.75985 92.96 3.20984 94.92 2.08984L97.36 4.29984C97.22 4.40984 97.0401 4.45985 96.8101 4.45985C96.5801 4.45985 96.31 4.40984 95.99 4.29984C95.15 4.52984 94.12 4.72985 93 4.95985V9.70985H94.64L95.92 7.92985L98.27 9.77985L98.26 9.78985ZM94.36 15.1498H89.29V21.0898H94.36V15.1498Z" fill="white"/>
</svg>
