<svg width="100" height="25" viewBox="0 0 100 25" fill="none" xmlns="http://www.w3.org/2000/svg">
<path d="M10.3099 9.38996L12.48 11.49C12.32 11.67 12.07 11.74 11.61 11.76C10.95 12.81 9.78001 14.52 8.89001 15.48L8.64001 15.34C8.85001 14.29 9.14003 12.37 9.28003 11.09H7.64001V20.52C7.64001 22.12 7.26999 23.26 4.73999 23.46C4.73999 21.68 4.16994 21.29 2.68994 21.15V20.85H5.04004C5.29004 20.85 5.35999 20.74 5.35999 20.48V11.08H2.16003L2 10.62H9.05005L10.3 9.35995L10.3099 9.38996ZM21.2 2.21996L23.73 4.04996C23.55 4.34996 23.25 4.45996 22.63 4.45996H18.91C18.2 5.57996 17.27 6.87996 16.47 7.71996H19.76L20.65 6.52996L23.12 8.28996C22.98 8.44995 22.7099 8.60996 22.3199 8.67996V18.47C22.3199 18.47 21.68 19.11 19.95 19.11V18.17H15C15 18.6 14.9999 18.65 14.8199 18.83L17.47 20.43C17.4 20.57 17.26 20.61 17.08 20.61C16.97 20.61 16.85 20.59 16.71 20.56C15.18 21.75 12.17 23.03 9.60999 23.48L9.44995 23.16C11.32 22.25 13.4 20.49 14.54 19.03H14.52C13.86 19.44 13.27 19.44 12.65 19.44V6.67996L15.11 7.70996H15.8199C15.9299 6.83996 16.05 5.49996 16.12 4.44996H11.6L11.9 4.74996C11.74 4.92996 11.47 4.97996 10.99 4.99996C10.08 5.79996 8.56997 6.82996 7.21997 7.52996C7.90997 8.07996 8.18005 8.71996 8.18005 9.23996C8.18005 9.96996 7.67994 10.54 7.05994 10.54C6.78994 10.54 6.48994 10.45 6.18994 10.2C5.81994 8.80996 4.57002 7.22996 3.27002 6.38996L3.41003 6.17996C4.87003 6.35996 5.92004 6.70996 6.67004 7.13996C7.29004 6.29996 7.99005 5.17996 8.43005 4.32996H2.58997L2.44995 3.89996H8.35999L9.68005 2.59996L11.21 4.07996L11.1899 3.98996H19.8199L21.21 2.20996L21.2 2.21996ZM19.95 8.17996H15V11.03H19.95V8.17996ZM15 11.49V14.39H19.95V11.49H15ZM15 17.74H19.95V14.82H15V17.74ZM18.22 18.9C22.24 19.33 23.52 20.95 23.52 22.14C23.52 22.89 23.02 23.46 22.36 23.46C22.09 23.46 21.81 23.37 21.52 23.16C20.9 21.74 19.47 20.03 18.1 19.07L18.24 18.89L18.22 18.9Z" fill="white"/>
<path d="M27.2799 5.95004C28.1499 6.11004 28.8599 6.36004 29.3799 6.61004C29.8399 5.33004 30.3399 3.60004 30.7499 2.04004L33.8999 3.16004C33.7899 3.43004 33.5599 3.57005 32.9899 3.57005C32.0999 4.78005 31.0499 6.04004 30.0199 6.99004C30.6999 7.49004 30.9598 8.06004 30.9598 8.54004C30.9598 9.22004 30.4598 9.77004 29.8398 9.77004C29.5698 9.77004 29.2699 9.66004 28.9999 9.38004C28.7899 8.26004 27.9699 6.87004 27.1299 6.09004L27.2899 5.93005L27.2799 5.95004ZM46.0698 5.38004L48.6299 7.41004C48.4699 7.62004 48.1499 7.78004 47.6499 7.84004C47.4699 16.58 47.1698 21.15 45.9398 22.34C45.1198 23.09 44.2999 23.44 42.6799 23.46C42.6799 21.95 42.4299 21.45 39.7999 20.95V20.61C40.8699 20.68 42.4699 20.72 43.1299 20.72C43.5599 20.72 43.7498 20.67 43.9698 20.45C44.7898 19.67 45.0699 14.86 45.2299 7.26004H39.8699C38.8699 8.93004 37.7198 10.34 36.4498 11.44C37.1798 12.06 37.4498 12.7 37.4498 13.22C37.4498 14.02 36.8799 14.59 36.2399 14.59C35.8999 14.59 35.5799 14.45 35.2799 14.11C35.2599 13.63 35.1198 13.08 34.9398 12.56C34.4798 12.67 33.9599 12.81 33.3899 12.97V22.85C33.3899 23.01 32.6798 23.49 31.5598 23.49H31.1699V16.19C31.0599 16.3 30.8499 16.37 30.5099 16.4C29.7999 18.5 28.7499 20.44 27.4999 21.63L27.1599 21.47C27.7499 20.03 28.2999 17.57 28.5299 15.28L31.1799 15.92V13.52C30.3999 13.73 29.5399 13.91 28.5999 14.14C28.4599 14.44 28.2098 14.6 27.9598 14.62L27.1799 12.18C27.7999 12.18 28.7798 12.18 29.9398 12.16C31.2898 9.88004 32.7699 6.91004 33.6799 4.76004L36.7399 6.11004C36.6499 6.29004 36.4898 6.38004 36.1898 6.38004C36.0798 6.38004 35.9599 6.36004 35.7999 6.33004C34.5699 8.00004 32.5999 10.26 30.7299 12.13C31.9399 12.11 33.3098 12.06 34.7198 12.02C34.4498 11.38 34.0599 10.76 33.6699 10.31L33.8799 10.15C34.8599 10.47 35.5899 10.83 36.1399 11.2C37.3699 9.10004 38.6298 5.49005 39.3098 2.07005L42.5999 3.03004C42.4899 3.30004 42.2998 3.49004 41.7098 3.49004C41.2298 4.68004 40.7099 5.80005 40.1099 6.82005H44.9498L46.0698 5.40004V5.38004ZM34.0598 15.31C36.4298 16.41 37.2098 17.73 37.2098 18.73C37.2098 19.6 36.6198 20.21 35.9498 20.21C35.6098 20.21 35.2698 20.05 34.9698 19.69C35.0198 18.34 34.4698 16.54 33.8098 15.42L34.0598 15.31ZM38.6299 10.97C41.7999 12.16 42.8298 13.8 42.8298 15.01C42.8298 15.95 42.2099 16.63 41.4799 16.63C41.1399 16.63 40.7699 16.45 40.4299 16.08C40.3799 14.46 39.4898 12.36 38.4398 11.13L38.6199 10.97H38.6299Z" fill="white"/>
<path d="M71.3398 4.43999L73.6898 6.64999C73.5298 6.85999 73.2798 6.9 72.8198 6.95C72.0898 7.45 70.8598 8.11 69.9398 8.43L69.7098 8.28999C69.8498 7.78999 70.0499 6.92 70.1699 6.24H55.7399C55.7599 6.42 55.7599 6.58 55.7599 6.74C55.7599 8.09 55.0098 9.07 53.8198 9.07C53.0198 9.07 52.3799 8.64 52.3799 7.93C52.3799 7.27 52.9299 6.79 53.5399 6.56C54.2699 6.31 55.0499 5.58 54.9799 4.67L55.2999 4.64999C55.4599 5.05999 55.5699 5.42999 55.6699 5.78999H61.7399V2L65.0698 2.3C65.0498 2.62 64.8399 2.78 64.1799 2.87V5.78999H66.0999C66.6299 4.68999 67.2599 3.17 67.6499 2.07L71.0999 3.42C71.0099 3.6 70.8498 3.68999 70.5798 3.68999C70.4698 3.68999 70.3498 3.67 70.1898 3.64C69.3498 4.28 68.0199 5.11999 66.7899 5.78999H69.9899L71.3398 4.43999ZM67.6898 19.62H60.2499L62.5798 21.4C62.4698 21.54 62.2599 21.61 61.9899 21.61C61.8099 21.61 61.5798 21.59 61.3098 21.5C59.2298 22.46 55.8799 23.26 52.6399 23.51L52.5299 23.17C55.3399 22.42 58.3099 20.93 59.8799 19.63H58.3298C58.3298 20.04 57.6199 20.59 55.9799 20.59V11.5L58.4899 12.5H67.4799L68.4199 11.31L70.9498 13.07C70.8098 13.23 70.5199 13.44 70.1099 13.5V19.69C70.1099 19.69 69.4498 20.31 67.7098 20.31V19.63L67.6898 19.62ZM55.8699 2.18C58.5899 2.55 59.4799 3.62 59.4799 4.49C59.4799 5.2 58.8899 5.78999 58.2299 5.78999C57.9099 5.78999 57.5899 5.64999 57.2899 5.35999C57.1799 4.28999 56.5098 3.05 55.7098 2.35L55.8699 2.18999V2.18ZM68.8599 10.99C68.8399 11.13 67.6299 11.56 66.8699 11.56H66.4598V10.94H59.5199C59.5199 11.12 59.0399 11.81 57.1699 11.81V6.82999L59.6599 7.81H66.2599L67.1299 6.67L69.6399 8.38C69.5299 8.52 69.2299 8.68 68.8599 8.77V10.98V10.99ZM67.6998 12.95H58.3198V14.71H67.6998V12.95ZM67.6998 16.92V15.16H58.3198V16.92H67.6998ZM58.3198 17.38V19.18H67.6998V17.38H58.3198ZM59.5299 10.51H66.4698V8.27H59.5299V10.51ZM64.2799 20.23C71.1999 20.21 73.2098 21.49 73.2098 22.44C73.2098 23.01 72.4998 23.47 71.6998 23.47C71.3098 23.47 70.8999 23.38 70.5399 23.13C69.3499 22.26 67.2298 21.21 64.2198 20.55L64.2899 20.23H64.2799Z" fill="white"/>
<path d="M82.3901 13.9798C83.2801 13.9998 84.4201 13.9998 85.3601 13.9798C85.7701 12.9798 86.2302 11.6998 86.5302 10.6898H82.4901C82.4001 14.8398 81.7801 19.9398 77.5801 23.4498L77.3101 23.2698C79.8001 19.1398 80.0302 14.0298 80.0302 9.40977V2.48977L82.8801 3.51977H94.3401L95.3002 2.25977L97.9701 4.10976C97.8301 4.28976 97.4902 4.49977 97.0302 4.58977V8.12977C97.0302 8.12977 96.3201 8.69977 94.5701 8.69977V7.85976H82.4901V10.2298H94.6101L95.9102 8.65977L98.3501 10.2798C98.1701 10.5998 97.8701 10.6898 97.2501 10.6898H89.6301C88.6901 11.7898 87.5301 13.0198 86.4801 13.9798C88.5101 13.9298 90.9801 13.8898 93.5601 13.8198C92.8501 13.1398 92.0502 12.5198 91.3002 12.0898L91.4102 11.8598C95.6802 12.1298 97.0701 13.7998 97.0701 14.9898C97.0701 15.6698 96.5901 16.2198 95.9701 16.2198C95.7201 16.2198 95.4701 16.1298 95.1901 15.9698C94.9401 15.4398 94.5501 14.8998 94.0701 14.3698C91.8101 14.8498 88.7101 15.3998 84.3501 16.1298C84.1901 16.4298 83.9601 16.5598 83.7101 16.6098L82.3901 13.9798ZM96.4302 20.5498L98.8301 22.3498C98.6501 22.6498 98.3701 22.7598 97.7301 22.7598H81.0201L80.9102 22.2998H88.5302V18.6898H82.6602L82.5502 18.2298H88.5302V15.5598L91.7701 15.8598C91.7201 16.1598 91.5201 16.2898 90.9001 16.4098V18.2398H94.0001L95.2501 16.6598L97.6001 18.2998C97.4401 18.5998 97.1401 18.6898 96.5001 18.6898H90.8801V22.2998H95.1001L96.4001 20.5398L96.4302 20.5498ZM94.5601 3.97977H82.4801V7.39977H94.5601V3.97977Z" fill="white"/>
</svg>
