<svg width="344" height="39" viewBox="0 0 344 39" fill="none" xmlns="http://www.w3.org/2000/svg">
<path d="M21.47 24.0799V33.2399C23.2 33.4499 25.42 33.5599 28.11 33.5599C33.18 33.5599 36.58 33.5299 38.31 33.4799V33.9999C36.95 34.3199 36.24 35.3999 36.19 37.2399H27.87C22.99 37.2399 19.23 36.5899 16.59 35.2799C13.95 33.9999 11.9 31.5599 10.43 27.9599C8.38001 32.4399 5.27999 35.8299 1.14999 38.1199L0.75 37.6799C5.31 33.6299 7.96001 27.5299 8.71001 19.3999L12.51 20.3999C12.16 22.7699 11.63 24.9199 10.91 26.8399C12.38 29.6099 14.63 31.4799 17.67 32.4399V15.4399H6.35001L6.03 14.2799H31.23C31.71 11.7199 32.1 9.84993 32.39 8.67993H7.11C7.19 9.98993 7.02 11.1199 6.59 12.0799C6.16 13.0399 5.59 13.7299 4.87 14.1599C4.26 14.5899 3.55 14.7199 2.75 14.5599C1.95 14.3699 1.43 13.9199 1.19 13.1999C0.820002 11.9199 1.36 10.9199 2.83 10.1999C3.63 9.76992 4.34 9.10992 4.95 8.19992C5.56 7.26992 5.84001 6.28994 5.79001 5.27994H6.35001C6.62001 6.02994 6.82 6.76993 6.95 7.51993H36.63V9.43994C35.38 10.7699 33.75 12.0299 31.75 13.1999C32.84 14.0499 33.52 14.5899 33.79 14.7999C33.68 15.2299 33.31 15.4399 32.67 15.4399H21.47V22.9199H33.59V24.0799H21.47ZM16.11 1.19992L16.47 0.919922C19.83 1.20992 21.91 2.19991 22.71 3.87991C23.19 4.88991 23.07 5.79991 22.35 6.59991C21.6 7.42991 20.68 7.56992 19.59 7.03992C19.4 6.95992 19.2 6.83993 18.99 6.67993C18.91 5.71993 18.59 4.72994 18.03 3.71994C17.5 2.67994 16.86 1.83992 16.11 1.19992Z" fill="white"/>
<path d="M78.9099 17.9602H67.7499C68.9499 19.3702 70.6299 20.5602 72.7899 21.5202C74.9499 22.4802 77.1399 23.1302 79.3499 23.4802L79.3099 24.0002C77.5499 24.8002 76.5599 25.8902 76.3499 27.2802C74.3199 26.3702 72.4599 25.1102 70.7499 23.4802C69.0699 21.8502 67.6999 20.0102 66.6299 17.9602H55.1899C53.7499 19.7502 52.1799 21.3202 50.4699 22.6802C53.6399 23.1602 55.5499 24.1702 56.1899 25.7202C56.5599 26.6502 56.3999 27.4102 55.7099 28.0002C54.9099 28.5902 54.0299 28.5302 53.0699 27.8402C52.9099 27.0702 52.5399 26.2302 51.9499 25.3202C51.3599 24.4102 50.7199 23.6402 50.0299 23.0002C47.6599 24.8402 44.9799 26.3502 41.9899 27.5202L41.6299 27.0802C45.6299 24.6502 48.8699 21.6102 51.3499 17.9602H42.3499L42.0299 16.8002H52.1099C52.9899 15.4402 53.7799 13.9702 54.4699 12.4002H45.9899L45.6699 11.2402H54.9899C55.5799 9.67017 56.0399 8.25018 56.3899 7.00018H44.3099L43.9899 5.84018H56.7099C57.0799 4.45018 57.4399 2.73018 57.7899 0.680176L61.9099 1.88016C61.4599 4.31016 61.1999 5.63018 61.1499 5.84018H77.5499V7.00018H60.7899C60.3399 8.49018 59.7999 9.91017 59.1899 11.2402H74.6699V12.4002H58.6699C57.9499 13.8102 57.0699 15.2802 56.0299 16.8002H78.9099V17.9602ZM66.7099 21.9602L69.2699 24.6002C67.7199 26.0102 66.2199 27.1102 64.7499 27.8802C69.3899 29.3202 72.2699 31.0902 73.3899 33.2002C73.9999 34.3502 73.9499 35.2402 73.2299 35.8802C72.5899 36.4402 71.7799 36.4502 70.7899 35.9202C70.0999 34.9602 68.9399 33.7602 67.3099 32.3202C65.6799 30.8802 63.8799 29.4902 61.9099 28.1602V33.8002C61.9099 35.2102 61.5999 36.2402 60.9899 36.8802C60.3799 37.5502 59.0599 37.9602 57.0299 38.1202C56.9499 37.0002 56.6799 36.2502 56.2299 35.8802C55.5899 35.3202 54.5499 34.9302 53.1099 34.7202V34.1602C55.5599 34.3502 57.0399 34.4402 57.5499 34.4402C58.0599 34.4402 58.3099 34.2102 58.3099 33.7602V28.7202C55.6399 30.7202 52.6299 32.8402 49.2699 35.0802C49.2399 35.5902 49.0199 35.9602 48.5899 36.2002L45.3099 32.7202C47.4699 32.0502 51.7999 30.3302 58.3099 27.5602V19.0002L61.9099 19.4802V27.1602C62.2599 27.2402 62.7499 27.3602 63.3899 27.5202C64.1099 26.5102 65.2199 24.6502 66.7099 21.9602Z" fill="white"/>
<path d="M95.11 16.56V18.2C94.47 23 93.23 26.9499 91.39 30.0399C93.42 31.3499 95.9 32.24 98.83 32.72C101.79 33.17 105.56 33.4 110.15 33.4C114.74 33.4 118.08 33.39 119.79 33.36V33.8799C118.32 34.1499 117.52 35.19 117.39 37H109.83C104.92 37 100.92 36.64 97.83 35.92C94.74 35.2 92.15 33.88 90.07 31.96C88.18 34.47 85.67 36.51 82.55 38.08L82.23 37.52C84.9 35.55 86.95 33.0899 88.39 30.1599C86.55 27.8099 85.06 24.59 83.91 20.4799L84.43 20.2C85.6 23.59 87.19 26.28 89.19 28.28C90.36 25.4 91.15 21.88 91.55 17.72H85.07V15.92C86.88 12.75 88.46 9.44995 89.79 6.03995H82.91L82.55 4.87994H93.27V6.91995C91.94 9.95995 90.38 13.17 88.59 16.56H95.11ZM120.39 10.52V11.68H114.91V17.3199C114.88 17.4799 114.51 17.69 113.79 17.96C113.1 18.2 112.48 18.3199 111.95 18.3199H111.39V16.96H106.83V21.08H117.11V22.24H106.83V26.44H119.07V27.5999H106.83V31.56C106.83 31.75 106.51 31.97 105.87 32.24C105.23 32.51 104.59 32.64 103.95 32.64H103.19V27.5999H94.35L94.03 26.44H103.19V22.24H96.31L95.99 21.08H103.19V16.96H96.79L96.43 15.8H103.19V11.68H93.71L93.39 10.52H103.19V6.47995H96.55L96.19 5.31995H103.19V0.959961L106.83 1.47995V5.31995H114.91V10.52H120.39ZM106.83 6.47995V10.52H111.39V6.47995H106.83ZM111.39 15.8V11.68H106.83V15.8H111.39Z" fill="white"/>
<path d="M140.71 8.56036V9.72037H123.63L123.31 8.56036H140.71ZM145.43 4.84036V6.92035C145.43 12.4103 143.02 16.3304 138.19 18.6804C138.38 18.8104 138.62 19.0303 138.91 19.3203C138.8 19.7503 138.46 19.9604 137.87 19.9604H125.35L125.03 18.8004H138.15V18.6003L137.83 18.2003C139.48 16.6503 140.59 14.9504 141.15 13.0804C141.71 11.2104 141.99 9.16035 141.99 6.92035V3.68036H154.19V12.5604C154.19 12.8004 154.23 12.9603 154.31 13.0403C154.42 13.1203 154.6 13.1603 154.87 13.1603H156.15C156.79 13.1603 157.19 13.1504 157.35 13.1204H158.07C158.12 13.1204 158.24 13.1104 158.43 13.0804C158.64 13.0304 158.8 12.9904 158.91 12.9604H159.27C160.2 13.3104 160.67 13.7704 160.67 14.3604C160.67 15.0804 160.3 15.6104 159.55 15.9604C158.8 16.2804 157.54 16.4404 155.75 16.4404H153.75C152.5 16.4404 151.68 16.2404 151.31 15.8404C150.96 15.4404 150.79 14.6704 150.79 13.5204V4.84036H145.43ZM125.03 13.6404H138.91V14.8004H125.35L125.03 13.6404ZM137.75 25.7204V35.1603C137.72 35.3203 137.38 35.5304 136.71 35.8004C136.07 36.0704 135.48 36.2003 134.95 36.2003H134.39V34.1603H128.95V36.4803C128.95 36.6903 128.63 36.9303 127.99 37.2003C127.35 37.4703 126.71 37.6003 126.07 37.6003H125.59V24.0004H137.75V25.7204ZM127.51 1.60034L127.87 1.36035C131.07 1.81035 133.04 2.85035 133.79 4.48035C134.24 5.49035 134.12 6.35034 133.43 7.04034C132.68 7.76034 131.79 7.83036 130.75 7.24036C130.67 7.19036 130.59 7.13035 130.51 7.08035C130.35 6.20035 129.98 5.25036 129.39 4.24036C128.8 3.20036 128.18 2.32034 127.51 1.60034ZM128.95 33.0004H134.39V25.1603H128.95V33.0004ZM156.63 19.3203V21.0804C155.14 24.6304 153.12 27.6304 150.59 30.0804C153.39 31.8404 156.88 33.1603 161.07 34.0403L161.03 34.4803C159.4 34.7203 158.32 35.7904 157.79 37.6804C153.82 36.2704 150.62 34.4303 148.19 32.1603C144.78 34.8003 140.48 36.7603 135.31 38.0403L134.99 37.4404C139.6 35.7104 143.43 33.3204 146.47 30.2804C144.34 27.6704 142.79 24.4003 141.83 20.4803H139.71L139.35 19.3203H156.63ZM152.59 20.4803H142.59C143.79 23.6003 145.66 26.2404 148.19 28.4004C150.11 26.0004 151.58 23.3603 152.59 20.4803Z" fill="white"/>
<path d="M200.23 4.04004H204.23V21.0001C204.2 21.1301 203.83 21.33 203.11 21.6C202.39 21.87 201.75 22.0001 201.19 22.0001H200.63V19.5601H192.63V30.76C193.48 30.44 194.82 29.8901 196.63 29.1201C198.47 28.3501 199.62 27.8701 200.07 27.6801C199.24 25.8401 198.27 24.1201 197.15 22.5201L197.63 22.32C201.52 24.61 203.95 27.23 204.91 30.16C205.47 31.95 205.38 33.3201 204.63 34.2801C203.99 35.1101 203.19 35.1901 202.23 34.5201C202.07 34.4101 201.91 34.29 201.75 34.16C201.72 32.53 201.31 30.7101 200.51 28.6801C196.51 31.6901 193.47 33.8801 191.39 35.2401C191.07 35.8801 190.7 36.3101 190.27 36.5201L187.91 32.2C188.42 31.88 188.74 31.6101 188.87 31.4001C189 31.1601 189.07 30.8 189.07 30.32V4.04004H200.23ZM192.63 11.16H200.63V5.20004H192.63V11.16ZM192.63 18.4401H200.63V12.32H192.63V18.4401ZM221.43 4.12006V26.4001C221.43 27.8901 221.12 29.0001 220.51 29.7201C219.9 30.4401 218.59 30.9101 216.59 31.1201C216.51 29.7601 216.26 28.8501 215.83 28.4001C215.32 27.7901 214.32 27.33 212.83 27.04V26.48C215.1 26.64 216.48 26.7201 216.99 26.7201C217.31 26.7201 217.52 26.6701 217.63 26.5601C217.76 26.4301 217.83 26.21 217.83 25.92V5.28006H211.15V36.8C211.15 37.07 210.84 37.3701 210.23 37.7201C209.62 38.0701 208.94 38.2401 208.19 38.2401H207.55V4.12006H221.43Z" fill="white"/>
<path d="M236.11 1.12039L239.71 1.64038V36.6804C239.71 36.9204 239.38 37.2004 238.71 37.5204C238.07 37.8704 237.44 38.0404 236.83 38.0404H236.11V21.4004H233.39C233.28 25.2404 232.82 28.4704 231.99 31.0804C231.19 33.6904 229.63 35.9504 227.31 37.8404L226.79 37.2404C227.51 36.1704 228.08 35.0404 228.51 33.8404C228.96 32.6104 229.28 31.2404 229.47 29.7204C229.66 28.1704 229.78 26.8704 229.83 25.8004C229.88 24.7304 229.91 23.2704 229.91 21.4004H227.07L226.75 20.2404H236.11V14.6404H228.71V3.24039H232.07V13.4804H236.11V1.12039ZM249.27 11.4804L249.39 12.0004C247.9 13.0904 245.83 14.4404 243.19 16.0404C243.03 16.5704 242.75 16.9104 242.35 17.0404L240.43 13.5204C242.51 13.1204 245.46 12.4404 249.27 11.4804ZM264.71 21.2404V22.4004H258.23V33.3204C258.23 34.8104 257.88 35.9204 257.19 36.6404C256.5 37.3604 255.02 37.8304 252.75 38.0404C252.59 36.8104 252.23 35.9604 251.67 35.4804C250.87 34.8104 249.5 34.3604 247.55 34.1204V33.5604C250.94 33.8004 252.95 33.9204 253.59 33.9204C254.23 33.9204 254.59 33.6404 254.59 33.0804V22.4004H240.87L240.55 21.2404H254.59V15.4404L258.23 15.9204V21.2404H264.71ZM241.19 11.7204L240.83 11.2804C242.24 10.1104 243.64 8.55037 245.03 6.60037C246.42 4.63037 247.47 2.72037 248.19 0.880371L251.95 2.32037C251.6 3.12037 251 4.00039 250.15 4.96039H262.19V6.7204C259.92 10.0804 257.08 12.8904 253.67 15.1604C250.26 17.4304 246.06 19.2004 241.07 20.4804L240.71 19.8804C245.46 17.9904 249.4 15.6104 252.55 12.7604C252.1 12.8904 251.6 12.8304 251.07 12.5604C250.38 11.0704 248.98 9.57038 246.87 8.08038C245.03 9.60038 243.14 10.8104 241.19 11.7204ZM243.47 23.9604L243.87 23.6804C247.2 24.5604 249.27 25.9504 250.07 27.8404C250.55 28.9604 250.46 29.8804 249.79 30.6004C249.12 31.2904 248.31 31.3304 247.35 30.7204C247.27 30.6704 247.19 30.6104 247.11 30.5604C246.95 29.4904 246.51 28.3504 245.79 27.1204C245.1 25.8904 244.32 24.8404 243.47 23.9604ZM258.03 6.12039H249.07C248.16 6.95039 247.7 7.37039 247.67 7.40039C249.96 7.72039 251.58 8.3504 252.51 9.2804C253.47 10.1904 253.79 11.0504 253.47 11.8804C255.23 10.1504 256.75 8.23039 258.03 6.12039Z" fill="white"/>
<path d="M278.02 3.28033L281.94 5.36032C278.74 12.9603 274.21 18.4903 268.34 21.9603L267.9 21.5603C270.01 19.4503 271.97 16.7903 273.78 13.5603C275.62 10.3103 277.03 6.88033 278.02 3.28033ZM291.22 23.0803L291.74 22.8003C296.33 25.3603 299.35 28.3203 300.82 31.6803C301.75 33.8103 301.86 35.5503 301.14 36.8803C300.61 37.9203 299.81 38.2303 298.74 37.8003C298.39 37.6703 298.05 37.4503 297.7 37.1603C297.51 35.6903 297.07 34.0503 296.38 32.2403C290.06 33.9203 282.75 35.4503 274.46 36.8403C274.09 37.4003 273.67 37.7603 273.22 37.9203L271.46 32.8403C272.18 32.6803 272.66 32.4803 272.9 32.2403C274.53 30.5903 276.35 27.9203 278.38 24.2403C280.41 20.5603 281.81 17.4103 282.58 14.8003L286.7 17.1203C285.39 19.8903 283.59 22.7203 281.3 25.6003C279.01 28.4803 276.77 30.9503 274.58 33.0003C280.05 32.7303 287.17 32.1303 295.94 31.2003C294.74 28.2903 293.17 25.5903 291.22 23.0803ZM291.66 2.84033V4.28033C292.57 7.27033 294.15 10.0003 296.42 12.4803C298.69 14.9303 301.45 16.7903 304.7 18.0403L304.62 18.4403C303.82 18.7103 303.1 19.1703 302.46 19.8403C301.82 20.5103 301.39 21.2403 301.18 22.0403C295.58 18.3103 292.05 12.2903 290.58 4.00034H286.18L285.82 2.84033H291.66Z" fill="white"/>
<path d="M321.18 14.7603H314.3V36.7203C314.3 36.9903 313.99 37.2803 313.38 37.6003C312.77 37.9503 312.06 38.1203 311.26 38.1203H310.62V3.84033H324.7V15.4403C324.67 15.6303 324.31 15.8703 323.62 16.1603C322.93 16.4303 322.3 16.5603 321.74 16.5603H321.18V14.7603ZM321.18 5.00034H314.3V8.68033H321.18V5.00034ZM314.3 13.6003H321.18V9.80032H314.3V13.6003ZM338.18 26.8003H332.34V35.4403C332.34 35.5203 332.23 35.6103 332.02 35.7203C331.81 35.8503 331.47 35.9703 331.02 36.0803C330.59 36.2103 330.13 36.2803 329.62 36.2803H329.02V26.8003H324.62C324.11 31.3103 321.57 34.5903 316.98 36.6403L316.58 36.1603C319.49 33.8703 321.11 30.7503 321.46 26.8003H316.5L316.18 25.6803H321.5C321.53 25.3903 321.54 24.9303 321.54 24.3203V19.9603H317.38L317.06 18.8003H337.42V19.9603H332.34V25.6803H338.18V26.8003ZM324.74 25.6803H329.02V19.9603H324.78V24.3203C324.78 24.9103 324.77 25.3603 324.74 25.6803ZM343.46 3.84033V33.4403C343.46 34.9603 343.15 36.0703 342.54 36.7603C341.95 37.4503 340.66 37.9103 338.66 38.1203C338.58 36.7903 338.35 35.9103 337.98 35.4803C337.42 34.8403 336.49 34.4003 335.18 34.1603V33.6003C337.26 33.7303 338.51 33.8003 338.94 33.8003C339.47 33.8003 339.74 33.5503 339.74 33.0403V14.7603H332.58V15.2003C332.58 15.3103 332.43 15.4503 332.14 15.6403C331.85 15.8003 331.45 15.9603 330.94 16.1203C330.46 16.2503 329.99 16.3203 329.54 16.3203H329.02V3.84033H343.46ZM339.74 5.00034H332.58V8.68033H339.74V5.00034ZM332.58 13.6003H339.74V9.80032H332.58V13.6003Z" fill="white"/>
</svg>
