<svg width="307" height="46" viewBox="0 0 307 46" fill="none" xmlns="http://www.w3.org/2000/svg">
<path d="M93.9102 20.6799C93.9102 16.9999 93.9102 16.3199 93.8602 15.5399C93.8102 14.7199 93.6202 14.3299 92.8202 14.1599C92.6302 14.1099 92.2102 14.0899 91.8802 14.0899C91.6102 14.0899 91.4702 14.0399 91.4702 13.8699C91.4702 13.6999 91.6402 13.6499 92.0002 13.6499C93.2802 13.6499 94.8102 13.7199 95.3202 13.7199C96.1402 13.7199 97.9802 13.6499 98.7402 13.6499C100.27 13.6499 101.89 13.7999 103.2 14.6899C103.88 15.1499 104.85 16.3899 104.85 18.0099C104.85 19.7999 104.12 21.4299 101.68 23.4099C103.84 26.1199 105.51 28.2999 106.94 29.8099C108.3 31.2199 109.27 31.3899 109.63 31.4599C109.9 31.5099 110.11 31.5299 110.31 31.5299C110.51 31.5299 110.6 31.5999 110.6 31.7199C110.6 31.9099 110.43 31.9599 110.14 31.9599H107.76C106.4 31.9599 105.8 31.8399 105.17 31.4999C104.13 30.9399 103.21 29.7999 101.85 27.9399C100.88 26.6099 99.7702 24.9599 99.4502 24.5999C99.3302 24.4599 99.1802 24.4299 99.0102 24.4299L96.9702 24.3799C96.8502 24.3799 96.7802 24.4299 96.7802 24.5699V24.9099C96.7802 27.1599 96.7802 29.0799 96.9002 30.0999C96.9702 30.7999 97.1202 31.3399 97.8502 31.4299C98.2102 31.4799 98.7502 31.5299 99.0402 31.5299C99.2302 31.5299 99.3302 31.5999 99.3302 31.7199C99.3302 31.8899 99.1602 31.9599 98.8402 31.9599C97.4402 31.9599 95.6402 31.8899 95.2802 31.8899C94.8202 31.8899 93.2902 31.9599 92.3202 31.9599C92.0102 31.9599 91.8402 31.8899 91.8402 31.7199C91.8402 31.5999 91.9402 31.5299 92.2302 31.5299C92.5902 31.5299 92.8802 31.4799 93.1002 31.4299C93.5802 31.3299 93.7102 30.7999 93.8002 30.0999C93.9202 29.0799 93.9202 27.1699 93.9202 24.9399V20.6799H93.9102ZM96.7702 22.5899C96.7702 22.8599 96.8202 22.9499 96.9902 23.0299C97.5002 23.1999 98.2302 23.2699 98.8302 23.2699C99.8002 23.2699 100.12 23.1699 100.55 22.8599C101.28 22.3299 101.98 21.2099 101.98 19.2299C101.98 15.7899 99.7002 14.7999 98.2702 14.7999C97.6602 14.7999 97.2302 14.8199 96.9902 14.8999C96.8202 14.9499 96.7702 15.0499 96.7702 15.2399V22.6099V22.5899Z" fill="white"/>
<path d="M112.73 20.6799C112.73 16.9999 112.73 16.3199 112.68 15.5399C112.63 14.7199 112.39 14.2999 111.86 14.1799C111.59 14.1099 111.28 14.0799 110.99 14.0799C110.75 14.0799 110.6 14.0299 110.6 13.8399C110.6 13.6899 110.8 13.6499 111.18 13.6499C112.1 13.6499 113.63 13.7199 114.33 13.7199C114.94 13.7199 116.37 13.6499 117.29 13.6499C117.61 13.6499 117.8 13.6999 117.8 13.8399C117.8 14.0299 117.65 14.0799 117.41 14.0799C117.17 14.0799 116.97 14.0999 116.68 14.1499C116.03 14.2699 115.83 14.6799 115.78 15.5299C115.73 16.3099 115.73 16.9799 115.73 20.6699V24.9299C115.73 27.2799 115.73 29.1899 115.83 30.2399C115.9 30.8899 116.07 31.3299 116.8 31.4299C117.14 31.4799 117.67 31.5299 118.04 31.5299C118.31 31.5299 118.43 31.5999 118.43 31.7199C118.43 31.8899 118.24 31.9599 117.97 31.9599C116.37 31.9599 114.84 31.8899 114.19 31.8899C113.63 31.8899 112.11 31.9599 111.14 31.9599C110.83 31.9599 110.66 31.8899 110.66 31.7199C110.66 31.5999 110.76 31.5299 111.05 31.5299C111.41 31.5299 111.7 31.4799 111.92 31.4299C112.41 31.3299 112.55 30.9199 112.62 30.2199C112.74 29.1999 112.74 27.2899 112.74 24.9399V20.6799H112.73Z" fill="white"/>
<path d="M122.42 16.0299C121.86 14.6999 121.45 14.4299 120.58 14.1899C120.22 14.0899 119.83 14.0899 119.64 14.0899C119.42 14.0899 119.35 14.0199 119.35 13.8699C119.35 13.6799 119.62 13.6499 119.98 13.6499C121.27 13.6499 122.65 13.7199 123.49 13.7199C124.1 13.7199 125.26 13.6499 126.47 13.6499C126.76 13.6499 127.03 13.6999 127.03 13.8699C127.03 14.0399 126.88 14.0899 126.67 14.0899C126.28 14.0899 125.92 14.1099 125.73 14.2599C125.56 14.3799 125.49 14.5499 125.49 14.7699C125.49 15.0799 125.71 15.7599 126.05 16.6399C127.38 20.1299 129.01 24.4199 130.27 27.7599C131.31 25.0999 134.51 17.1699 135.09 15.5699C135.21 15.2599 135.31 14.8899 135.31 14.6699C135.31 14.4799 135.21 14.2799 135 14.2099C134.71 14.1099 134.35 14.0899 134.03 14.0899C133.81 14.0899 133.62 14.0699 133.62 13.8999C133.62 13.7099 133.84 13.6599 134.3 13.6599C135.51 13.6599 136.53 13.7299 136.84 13.7299C137.25 13.7299 138.39 13.6599 139.12 13.6599C139.43 13.6599 139.63 13.7099 139.63 13.8799C139.63 14.0499 139.49 14.0999 139.24 14.0999C138.99 14.0999 138.49 14.0999 138.05 14.3899C137.73 14.6099 137.37 15.0199 136.72 16.5699C135.78 18.8499 135.12 20.1599 133.81 23.1399C132.26 26.6799 131.12 29.3199 130.59 30.5299C129.96 31.9399 129.81 32.3199 129.47 32.3199C129.16 32.3199 129.01 31.9799 128.55 30.8399L122.44 16.0399L122.42 16.0299Z" fill="white"/>
<path d="M143.16 20.6802C143.16 17.0002 143.16 16.3202 143.11 15.5402C143.06 14.7202 142.87 14.3302 142.07 14.1602C141.88 14.1102 141.46 14.0902 141.13 14.0902C140.86 14.0902 140.72 14.0402 140.72 13.8702C140.72 13.7002 140.89 13.6502 141.25 13.6502C142.36 13.6502 143.48 13.7202 144.74 13.7202C145.52 13.7202 150.34 13.7202 150.8 13.7002C151.26 13.6502 151.65 13.6002 151.84 13.5502C151.96 13.5302 152.11 13.4502 152.23 13.4502C152.35 13.4502 152.38 13.5502 152.38 13.6702C152.38 13.8402 152.26 14.1302 152.19 15.2502C152.16 15.4902 152.12 16.5602 152.07 16.8502C152.04 16.9702 152 17.1202 151.83 17.1202C151.66 17.1202 151.61 16.9702 151.61 16.6802C151.61 16.5802 151.59 16.1902 151.46 15.9002C151.29 15.4602 151.05 15.1702 149.84 15.0302C149.43 14.9802 146.88 14.9302 146.4 14.9302C146.28 14.9302 146.23 15.0002 146.23 15.1702V21.3002C146.23 21.4702 146.25 21.5702 146.4 21.5702C146.93 21.5702 149.72 21.5702 150.28 21.5202C150.86 21.4702 151.22 21.4002 151.44 21.1602C151.61 20.9702 151.71 20.8402 151.83 20.8402C151.93 20.8402 152 20.8902 152 21.0302C152 21.1702 151.9 21.5602 151.81 22.8002C151.79 23.2902 151.71 24.2502 151.71 24.4202C151.71 24.6102 151.71 24.8802 151.49 24.8802C151.32 24.8802 151.27 24.6102 151.27 24.4902C151.25 24.2502 151.25 24.1002 151.17 23.7902C151.05 23.3002 150.71 22.9402 149.81 22.8402C149.35 22.7902 146.95 22.7702 146.37 22.7702C146.25 22.7702 146.23 22.8702 146.23 23.0102V24.9202C146.23 25.7402 146.21 27.9702 146.23 28.6802C146.28 30.3502 146.67 30.7202 149.14 30.7202C149.77 30.7202 150.79 30.7202 151.42 30.4302C152.05 30.1402 152.34 29.6302 152.51 28.6402C152.56 28.3702 152.61 28.2802 152.78 28.2802C152.97 28.2802 152.97 28.4702 152.97 28.7202C152.97 29.2802 152.78 30.9202 152.65 31.4102C152.48 32.0402 152.26 32.0402 151.34 32.0402C149.18 32.0402 147.05 31.8902 144.63 31.8902C143.66 31.8902 142.67 31.9602 141.58 31.9602C141.26 31.9602 141.1 31.8902 141.1 31.7202C141.1 31.6002 141.2 31.5302 141.49 31.5302C141.85 31.5302 142.14 31.4802 142.36 31.4302C142.84 31.3302 142.97 30.8002 143.06 30.1002C143.18 29.0802 143.18 27.1702 143.18 24.9402V20.6802H143.16Z" fill="white"/>
<path d="M159.19 20.6799C159.19 16.9999 159.19 16.3199 159.14 15.5399C159.09 14.7199 158.9 14.3299 158.1 14.1599C157.91 14.1099 157.49 14.0899 157.16 14.0899C156.89 14.0899 156.75 14.0399 156.75 13.8699C156.75 13.6999 156.92 13.6499 157.28 13.6499C158.56 13.6499 160.09 13.7199 160.6 13.7199C161.42 13.7199 163.27 13.6499 164.02 13.6499C165.55 13.6499 167.17 13.7999 168.48 14.6899C169.16 15.1499 170.13 16.3899 170.13 18.0099C170.13 19.7999 169.4 21.4299 166.96 23.4099C169.12 26.1199 170.79 28.2999 172.22 29.8099C173.58 31.2199 174.55 31.3899 174.91 31.4599C175.18 31.5099 175.39 31.5299 175.59 31.5299C175.79 31.5299 175.88 31.5999 175.88 31.7199C175.88 31.9099 175.71 31.9599 175.42 31.9599H173.04C171.68 31.9599 171.08 31.8399 170.45 31.4999C169.41 30.9399 168.49 29.7999 167.13 27.9399C166.16 26.6099 165.05 24.9599 164.73 24.5999C164.61 24.4599 164.46 24.4299 164.29 24.4299L162.25 24.3799C162.13 24.3799 162.06 24.4299 162.06 24.5699V24.9099C162.06 27.1599 162.06 29.0799 162.18 30.0999C162.25 30.7999 162.4 31.3399 163.13 31.4299C163.49 31.4799 164.03 31.5299 164.32 31.5299C164.51 31.5299 164.61 31.5999 164.61 31.7199C164.61 31.8899 164.44 31.9599 164.13 31.9599C162.72 31.9599 160.93 31.8899 160.57 31.8899C160.11 31.8899 158.58 31.9599 157.61 31.9599C157.29 31.9599 157.13 31.8899 157.13 31.7199C157.13 31.5999 157.23 31.5299 157.52 31.5299C157.88 31.5299 158.17 31.4799 158.39 31.4299C158.87 31.3299 159 30.7999 159.09 30.0999C159.21 29.0799 159.21 27.1699 159.21 24.9399V20.6799H159.19ZM162.05 22.5899C162.05 22.8599 162.1 22.9499 162.27 23.0299C162.78 23.1999 163.51 23.2699 164.11 23.2699C165.08 23.2699 165.4 23.1699 165.83 22.8599C166.56 22.3299 167.26 21.2099 167.26 19.2299C167.26 15.7899 164.98 14.7999 163.55 14.7999C162.94 14.7999 162.51 14.8199 162.26 14.8999C162.09 14.9499 162.04 15.0499 162.04 15.2399V22.6099L162.05 22.5899Z" fill="white"/>
<path d="M205.03 28.8501C205.25 30.3801 205.49 31.0801 206.22 31.3001C206.92 31.5201 207.41 31.5401 207.72 31.5401C207.94 31.5401 208.11 31.5601 208.11 31.7101C208.11 31.9001 207.82 31.9801 207.48 31.9801C206.87 31.9801 203.53 31.9101 202.56 31.8401C202 31.7901 201.86 31.7201 201.86 31.5701C201.86 31.4501 201.96 31.3801 202.13 31.3001C202.27 31.2501 202.35 30.9401 202.25 30.2601L200.77 19.4501L195.41 30.6001C194.85 31.7401 194.73 31.9601 194.51 31.9601C194.29 31.9601 194.05 31.4701 193.66 30.7501C193.08 29.6401 191.16 25.9301 190.87 25.2501C190.65 24.7401 189.12 21.5201 188.28 19.7001L187 29.5101C186.95 29.9501 186.93 30.2601 186.93 30.6501C186.93 31.1101 187.25 31.3301 187.66 31.4301C188.1 31.5301 188.44 31.5501 188.68 31.5501C188.87 31.5501 189.04 31.6001 189.04 31.7201C189.04 31.9401 188.82 31.9901 188.46 31.9901C187.44 31.9901 186.35 31.9201 185.92 31.9201C185.46 31.9201 184.3 31.9901 183.52 31.9901C183.28 31.9901 183.08 31.9401 183.08 31.7201C183.08 31.6001 183.23 31.5501 183.47 31.5501C183.66 31.5501 183.83 31.5501 184.2 31.4801C184.88 31.3401 185.07 30.3901 185.19 29.5701L187.59 13.7701C187.66 13.3601 187.81 13.1401 188 13.1401C188.19 13.1401 188.34 13.2601 188.65 13.8901L195.27 27.5601L201.86 13.7201C202.05 13.3301 202.18 13.1401 202.39 13.1401C202.6 13.1401 202.75 13.3801 202.83 13.8901L205.04 28.8701L205.03 28.8501Z" fill="white"/>
<path d="M214.77 24.0799C214.77 27.5899 215.47 29.0699 216.66 30.0399C217.75 30.9399 218.87 31.0299 219.69 31.0299C220.76 31.0299 222.07 30.6899 223.03 29.7199C224.36 28.3899 224.44 26.2099 224.44 23.7099V20.6799C224.44 16.9999 224.44 16.3199 224.39 15.5399C224.34 14.7199 224.15 14.3299 223.35 14.1599C223.16 14.1099 222.74 14.0899 222.48 14.0899C222.22 14.0899 222.07 14.0399 222.07 13.8699C222.07 13.6999 222.24 13.6499 222.58 13.6499C223.82 13.6499 225.34 13.7199 225.37 13.7199C225.66 13.7199 227.19 13.6499 228.13 13.6499C228.47 13.6499 228.64 13.6999 228.64 13.8699C228.64 14.0399 228.5 14.0899 228.2 14.0899C227.93 14.0899 227.79 14.1099 227.5 14.1599C226.85 14.2799 226.65 14.6899 226.6 15.5399C226.55 16.3199 226.55 16.9899 226.55 20.6799V23.2699C226.55 25.9599 226.28 28.8199 224.25 30.5599C222.53 32.0399 220.79 32.3099 219.21 32.3099C217.93 32.3099 215.6 32.2399 213.83 30.6399C212.59 29.5199 211.67 27.7299 211.67 24.2199V20.6799C211.67 16.9999 211.67 16.3199 211.62 15.5399C211.57 14.7199 211.38 14.3299 210.58 14.1599C210.38 14.1099 209.97 14.0899 209.63 14.0899C209.36 14.0899 209.22 14.0399 209.22 13.8699C209.22 13.6999 209.39 13.6499 209.75 13.6499C211.03 13.6499 212.56 13.7199 213.29 13.7199C213.87 13.7199 215.4 13.6499 216.27 13.6499C216.63 13.6499 216.8 13.6999 216.8 13.8699C216.8 14.0399 216.65 14.0899 216.41 14.0899C216.14 14.0899 216 14.1099 215.71 14.1599C215.06 14.2799 214.86 14.6899 214.81 15.5399C214.76 16.3199 214.76 16.9899 214.76 20.6799V24.0699L214.77 24.0799Z" fill="white"/>
<path d="M232.23 31.6903C231.84 31.5203 231.77 31.4003 231.77 30.8703C231.77 29.5403 231.87 28.0803 231.89 27.7003C231.91 27.3403 231.99 27.0703 232.18 27.0703C232.4 27.0703 232.42 27.2903 232.42 27.4803C232.42 27.8003 232.52 28.3003 232.64 28.7203C233.17 30.5103 234.6 31.1703 236.1 31.1703C238.28 31.1703 239.35 29.6903 239.35 28.4103C239.35 27.2203 238.99 26.1103 236.98 24.5303L235.86 23.6603C233.19 21.5803 232.27 19.8803 232.27 17.9203C232.27 15.2503 234.5 13.3403 237.87 13.3403C238.79 13.3403 239.52 13.4403 240.1 13.5303C240.51 13.6003 240.83 13.6803 241.09 13.7503C241.31 13.8003 241.43 13.8703 241.43 14.0403C241.43 14.3603 241.33 15.0603 241.33 16.9503C241.33 17.4803 241.26 17.6803 241.06 17.6803C240.89 17.6803 240.82 17.5303 240.82 17.2403C240.82 17.0203 240.7 16.2703 240.19 15.6403C239.83 15.1803 239.12 14.4503 237.55 14.4503C235.76 14.4503 234.67 15.4903 234.67 16.9503C234.67 18.0603 235.23 18.9103 237.24 20.4403L237.92 20.9503C240.85 23.1603 241.89 24.8303 241.89 27.1303C241.89 28.5403 241.36 30.2103 239.61 31.3503C238.4 32.1303 237.04 32.3403 235.76 32.3403C234.35 32.3403 233.26 32.1703 232.22 31.7103L232.23 31.6903Z" fill="white"/>
<path d="M248.1 20.6802C248.1 17.0002 248.1 16.3202 248.05 15.5402C248 14.7202 247.81 14.3302 247.01 14.1602C246.82 14.1102 246.4 14.0902 246.06 14.0902C245.79 14.0902 245.65 14.0402 245.65 13.8702C245.65 13.7002 245.82 13.6502 246.18 13.6502C247.3 13.6502 248.41 13.7202 249.67 13.7202C250.45 13.7202 255.27 13.7202 255.73 13.7002C256.19 13.6502 256.58 13.6002 256.77 13.5502C256.89 13.5302 257.04 13.4502 257.16 13.4502C257.28 13.4502 257.31 13.5502 257.31 13.6702C257.31 13.8402 257.19 14.1302 257.12 15.2502C257.1 15.4902 257.05 16.5602 257 16.8502C256.98 16.9702 256.93 17.1202 256.76 17.1202C256.59 17.1202 256.54 16.9702 256.54 16.6802C256.54 16.5802 256.51 16.1902 256.39 15.9002C256.22 15.4602 255.98 15.1702 254.77 15.0302C254.36 14.9802 251.81 14.9302 251.33 14.9302C251.21 14.9302 251.16 15.0002 251.16 15.1702V21.3002C251.16 21.4702 251.18 21.5702 251.33 21.5702C251.86 21.5702 254.65 21.5702 255.21 21.5202C255.79 21.4702 256.15 21.4002 256.37 21.1602C256.54 20.9702 256.64 20.8402 256.76 20.8402C256.86 20.8402 256.93 20.8902 256.93 21.0302C256.93 21.1702 256.83 21.5602 256.74 22.8002C256.72 23.2902 256.64 24.2502 256.64 24.4202C256.64 24.6102 256.64 24.8802 256.42 24.8802C256.25 24.8802 256.2 24.6102 256.2 24.4902C256.18 24.2502 256.18 24.1002 256.1 23.7902C255.98 23.3002 255.64 22.9402 254.74 22.8402C254.28 22.7902 251.88 22.7702 251.3 22.7702C251.18 22.7702 251.15 22.8702 251.15 23.0102V24.9202C251.15 25.7402 251.13 27.9702 251.15 28.6802C251.2 30.3502 251.59 30.7202 254.06 30.7202C254.69 30.7202 255.71 30.7202 256.34 30.4302C256.97 30.1402 257.26 29.6302 257.43 28.6402C257.48 28.3702 257.53 28.2802 257.7 28.2802C257.89 28.2802 257.89 28.4702 257.89 28.7202C257.89 29.2802 257.7 30.9202 257.57 31.4102C257.4 32.0402 257.18 32.0402 256.26 32.0402C254.1 32.0402 251.97 31.8902 249.55 31.8902C248.58 31.8902 247.59 31.9602 246.5 31.9602C246.18 31.9602 246.02 31.8902 246.02 31.7202C246.02 31.6002 246.12 31.5302 246.41 31.5302C246.77 31.5302 247.06 31.4802 247.28 31.4302C247.77 31.3302 247.89 30.8002 247.98 30.1002C248.1 29.0802 248.1 27.1702 248.1 24.9402V20.6802Z" fill="white"/>
<path d="M266.24 24.0799C266.24 27.5899 266.94 29.0699 268.13 30.0399C269.22 30.9399 270.33 31.0299 271.16 31.0299C272.23 31.0299 273.54 30.6899 274.5 29.7199C275.83 28.3899 275.91 26.2099 275.91 23.7099V20.6799C275.91 16.9999 275.91 16.3199 275.86 15.5399C275.81 14.7199 275.62 14.3299 274.82 14.1599C274.63 14.1099 274.21 14.0899 273.95 14.0899C273.69 14.0899 273.54 14.0399 273.54 13.8699C273.54 13.6999 273.71 13.6499 274.05 13.6499C275.29 13.6499 276.81 13.7199 276.84 13.7199C277.13 13.7199 278.66 13.6499 279.6 13.6499C279.94 13.6499 280.11 13.6999 280.11 13.8699C280.11 14.0399 279.96 14.0899 279.67 14.0899C279.4 14.0899 279.26 14.1099 278.97 14.1599C278.32 14.2799 278.12 14.6899 278.07 15.5399C278.02 16.3199 278.02 16.9899 278.02 20.6799V23.2699C278.02 25.9599 277.75 28.8199 275.72 30.5599C274 32.0399 272.26 32.3099 270.68 32.3099C269.4 32.3099 267.07 32.2399 265.3 30.6399C264.06 29.5199 263.14 27.7299 263.14 24.2199V20.6799C263.14 16.9999 263.14 16.3199 263.09 15.5399C263.04 14.7199 262.85 14.3299 262.05 14.1599C261.86 14.1099 261.44 14.0899 261.11 14.0899C260.84 14.0899 260.7 14.0399 260.7 13.8699C260.7 13.6999 260.87 13.6499 261.23 13.6499C262.51 13.6499 264.04 13.7199 264.77 13.7199C265.35 13.7199 266.88 13.6499 267.75 13.6499C268.11 13.6499 268.28 13.6999 268.28 13.8699C268.28 14.0399 268.13 14.0899 267.89 14.0899C267.62 14.0899 267.48 14.1099 267.19 14.1599C266.54 14.2799 266.34 14.6899 266.29 15.5399C266.24 16.3199 266.24 16.9899 266.24 20.6799V24.0699V24.0799Z" fill="white"/>
<path d="M303.75 28.8501C303.97 30.3801 304.21 31.0801 304.94 31.3001C305.64 31.5201 306.13 31.5401 306.44 31.5401C306.66 31.5401 306.83 31.5601 306.83 31.7101C306.83 31.9001 306.54 31.9801 306.2 31.9801C305.59 31.9801 302.25 31.9101 301.28 31.8401C300.72 31.7901 300.58 31.7201 300.58 31.5701C300.58 31.4501 300.68 31.3801 300.85 31.3001C301 31.2501 301.07 30.9401 300.97 30.2601L299.49 19.4501L294.14 30.6001C293.58 31.7401 293.46 31.9601 293.24 31.9601C293.02 31.9601 292.78 31.4701 292.39 30.7501C291.81 29.6401 289.89 25.9301 289.6 25.2501C289.38 24.7401 287.85 21.5201 287.01 19.7001L285.73 29.5101C285.68 29.9501 285.66 30.2601 285.66 30.6501C285.66 31.1101 285.98 31.3301 286.39 31.4301C286.83 31.5301 287.17 31.5501 287.41 31.5501C287.6 31.5501 287.77 31.6001 287.77 31.7201C287.77 31.9401 287.55 31.9901 287.19 31.9901C286.17 31.9901 285.08 31.9201 284.65 31.9201C284.19 31.9201 283.03 31.9901 282.25 31.9901C282.01 31.9901 281.81 31.9401 281.81 31.7201C281.81 31.6001 281.95 31.5501 282.2 31.5501C282.39 31.5501 282.56 31.5501 282.93 31.4801C283.61 31.3401 283.8 30.3901 283.92 29.5701L286.32 13.7701C286.39 13.3601 286.54 13.1401 286.73 13.1401C286.92 13.1401 287.07 13.2601 287.38 13.8901L294 27.5601L300.59 13.7201C300.78 13.3301 300.9 13.1401 301.12 13.1401C301.34 13.1401 301.48 13.3801 301.56 13.8901L303.77 28.8701L303.75 28.8501Z" fill="white"/>
<path fill-rule="evenodd" clip-rule="evenodd" d="M73.97 2.11005C68.11 -0.329947 61.58 -0.289944 55.75 2.23006C49.82 -0.329944 43.17 -0.329944 37.23 2.23006C31.3 -0.329944 24.65 -0.329944 18.71 2.23006C12.87 -0.289944 6.33998 -0.329947 0.47998 2.11005V7.47005C6.19998 4.40005 12.98 4.45005 18.67 7.61005C18.67 7.62005 18.68 7.63005 18.69 7.64005C18.69 7.64005 18.7 7.64005 18.71 7.63005C18.71 7.63005 18.72 7.63005 18.73 7.64005C18.73 7.63005 18.74 7.62005 18.75 7.61005C24.52 4.40005 31.42 4.40005 37.19 7.61005C37.19 7.62005 37.2 7.63005 37.21 7.64005C37.21 7.64005 37.22 7.64005 37.23 7.63005C37.23 7.63005 37.24 7.63005 37.25 7.64005L37.27 7.61005C43.04 4.40005 49.94 4.40005 55.71 7.61005C55.71 7.62005 55.72 7.63005 55.73 7.64005C55.73 7.64005 55.74 7.64005 55.75 7.63005C55.75 7.63005 55.76 7.63005 55.77 7.64005C55.77 7.63005 55.78 7.62005 55.79 7.61005C61.48 4.45005 68.26 4.41005 73.98 7.47005V2.11005H73.97Z" fill="white"/>
<path fill-rule="evenodd" clip-rule="evenodd" d="M73.97 14.6901C68.11 12.2501 61.58 12.2901 55.75 14.8101C49.82 12.2501 43.17 12.2501 37.23 14.8101C31.3 12.2501 24.65 12.2501 18.71 14.8101C12.87 12.2901 6.33998 12.2501 0.47998 14.6901V20.0501C6.19998 16.9801 12.98 17.0301 18.67 20.1901C18.67 20.2001 18.68 20.2101 18.69 20.2201C18.69 20.2201 18.7 20.2201 18.71 20.2101C18.71 20.2101 18.72 20.2101 18.73 20.2201C18.73 20.2101 18.74 20.2001 18.75 20.1901C24.52 16.9801 31.42 16.9801 37.19 20.1901C37.19 20.2001 37.2 20.2101 37.21 20.2201C37.21 20.2201 37.22 20.2201 37.23 20.2101C37.23 20.2101 37.24 20.2101 37.25 20.2201L37.27 20.1901C43.04 16.9801 49.94 16.9801 55.71 20.1901C55.71 20.2001 55.72 20.2101 55.73 20.2201C55.73 20.2201 55.74 20.2201 55.75 20.2101C55.75 20.2101 55.76 20.2101 55.77 20.2201C55.77 20.2101 55.78 20.2001 55.79 20.1901C61.48 17.0301 68.26 16.9901 73.98 20.0501V14.6901H73.97Z" fill="white"/>
<path fill-rule="evenodd" clip-rule="evenodd" d="M73.97 27.28C68.11 24.84 61.58 24.88 55.75 27.4C49.82 24.84 43.17 24.84 37.23 27.4C31.3 24.84 24.65 24.84 18.71 27.4C12.87 24.88 6.33998 24.84 0.47998 27.28V32.64C6.19998 29.57 12.98 29.62 18.67 32.78C18.67 32.79 18.68 32.8 18.69 32.81C18.69 32.81 18.7 32.81 18.71 32.8C18.71 32.8 18.72 32.8 18.73 32.81C18.73 32.8 18.74 32.79 18.75 32.78C24.52 29.57 31.42 29.57 37.19 32.78C37.19 32.79 37.2 32.8 37.21 32.81C37.21 32.81 37.22 32.81 37.23 32.8C37.23 32.8 37.24 32.8 37.25 32.81C37.25 32.8 37.26 32.79 37.27 32.78C43.04 29.57 49.94 29.57 55.71 32.78C55.71 32.79 55.72 32.8 55.73 32.81C55.73 32.81 55.74 32.81 55.75 32.8C55.75 32.8 55.76 32.8 55.77 32.81C55.77 32.8 55.78 32.79 55.79 32.78C61.48 29.62 68.26 29.58 73.98 32.64V27.28H73.97Z" fill="white"/>
<path fill-rule="evenodd" clip-rule="evenodd" d="M73.97 39.8698C68.11 37.4298 61.58 37.4698 55.75 39.9898C49.82 37.4298 43.17 37.4298 37.23 39.9898C31.3 37.4298 24.65 37.4298 18.71 39.9898C12.87 37.4698 6.33998 37.4298 0.47998 39.8698V45.2298C6.19998 42.1598 12.98 42.2098 18.67 45.3698C18.67 45.3798 18.68 45.3898 18.69 45.3998C18.69 45.3998 18.7 45.3998 18.71 45.3898C18.71 45.3898 18.72 45.3898 18.73 45.3998C18.73 45.3898 18.74 45.3798 18.75 45.3698C24.52 42.1598 31.42 42.1598 37.19 45.3698C37.19 45.3798 37.2 45.3898 37.21 45.3998C37.21 45.3998 37.22 45.3998 37.23 45.3898C37.23 45.3898 37.24 45.3898 37.25 45.3998L37.27 45.3698C43.04 42.1598 49.94 42.1598 55.71 45.3698C55.71 45.3798 55.72 45.3898 55.73 45.3998C55.73 45.3998 55.74 45.3998 55.75 45.3898C55.75 45.3898 55.76 45.3898 55.77 45.3998C55.77 45.3898 55.78 45.3798 55.79 45.3698C61.48 42.2098 68.26 42.1698 73.98 45.2298V39.8698H73.97Z" fill="white"/>
</svg>
