<svg width="152" height="14" viewBox="0 0 152 14" fill="none" xmlns="http://www.w3.org/2000/svg">
<g clip-path="url(#clip0_3_13)">
<path d="M12.98 7.71977H9.87C10.68 8.70977 11.91 9.57977 13.15 10.0198C12.95 10.1998 12.67 10.5198 12.53 10.7598C11.14 10.1598 9.73 8.98977 8.87 7.71977H4.33C3.45 9.04977 1.99 10.2798 0.62 10.9398C0.48 10.7198 0.21 10.3898 0 10.2098C1.19 9.71977 2.46 8.76977 3.29 7.71977H0.14V6.90977H3.11V2.32977H0.78V1.51977H3.11V0.00976562L4.33 0.0797656C4.32 0.189766 4.23 0.249766 4.05 0.279766V1.50977H9.08V0.00976562L10.31 0.0797656C10.3 0.189766 10.21 0.259766 10.03 0.279766V1.50977H12.35V2.31977H10.03V6.90977H12.99V7.71977H12.98ZM7 10.2698V11.8698H11.96V12.6798H1.22V11.8698H6.05V10.2698H3.07V9.48977H6.05V8.15977L7.28 8.22976C7.27 8.32976 7.18 8.39977 7 8.42977V9.48977H10.05V10.2698H7ZM9.07 2.32977H4.05V3.36977H9.08V2.32977H9.07ZM4.04 4.09977V5.13977H9.07V4.09977H4.05H4.04ZM4.04 5.85977V6.90977H9.07V5.85977H4.05H4.04Z" fill="white"/>
<path d="M18.2001 8.66977L19.8201 8.02977L20.0001 8.83977C18.5401 9.50977 16.9901 10.1698 16.0101 10.5898C16.0101 10.6998 15.9501 10.7898 15.8601 10.8298L15.3701 9.76977C15.9001 9.58977 16.5801 9.31977 17.3001 9.03977V4.37977H15.6001V3.47977H17.3001V0.139766L18.4801 0.219766C18.4701 0.319766 18.3801 0.369766 18.2001 0.399766V3.48977H19.7801V4.38977H18.2001V8.67977V8.66977ZM21.8701 10.9098C21.8701 11.6798 22.0501 11.8598 23.0301 11.8598H26.6001C27.4401 11.8598 27.5801 11.4698 27.6901 9.78977C27.9101 9.95977 28.2801 10.1098 28.5401 10.1698C28.3901 12.0998 28.0801 12.7198 26.6101 12.7198H23.0001C21.4201 12.7198 20.9701 12.3698 20.9701 10.8998V6.17977L19.5501 6.77977L19.1901 5.93977L20.9701 5.17977V1.33977L22.1501 1.41977C22.1401 1.51977 22.0501 1.58977 21.8701 1.61977V4.78977L23.9001 3.91977V0.00976562L25.0601 0.0797656C25.0501 0.179766 24.9801 0.249766 24.7901 0.279766V3.53977L27.0301 2.56977L27.2301 2.41977L28.0001 2.69977C27.9901 2.75977 27.9301 2.80977 27.8601 2.84977C27.8601 5.50977 27.8201 7.71977 27.7101 8.25977C27.5801 9.10977 27.1101 9.24977 25.6201 9.24977C25.5801 8.97977 25.5101 8.62977 25.4001 8.40977C25.7501 8.43977 26.2401 8.43976 26.4001 8.43976C26.6201 8.43976 26.7801 8.36977 26.8501 8.02977C26.9301 7.67977 26.9601 5.93977 26.9601 3.58977L24.8001 4.50977V9.88977H23.9001V4.91977L21.8701 5.78977V10.9198V10.9098Z" fill="white"/>
<path d="M35.39 3.31C36.93 2.53 38.44 1.21 39.17 0L40.35 0.06C40.34 0.14 40.25 0.2 40.15 0.23C41.07 1.38 42.69 2.6 44.09 3.24C43.92 3.45 43.7 3.79 43.57 4.04C42.17 3.3 40.54 2.02 39.62 0.85C38.82 1.98 37.32 3.29 35.75 4.11C35.67 3.93 35.53 3.7 35.39 3.51V4.01H33.82V5.16C34.21 5.68 35.25 7.25 35.49 7.63L34.97 8.34C34.77 7.88 34.24 6.95 33.82 6.24V13.01H32.95V6.25C32.49 7.83 31.86 9.37 31.21 10.31C31.1 10.06 30.87 9.69 30.72 9.48C31.56 8.28 32.44 5.99 32.85 4H31V3.12H32.95V0L34.1 0.08C34.09 0.16 34 0.23 33.82 0.26V3.12H35.39V3.3V3.31ZM36.19 7.82V4.35H43.24V7.82H36.19ZM36.65 13.07V8.52H42.77V13.02H41.87V12.6H37.51V13.08H36.64L36.65 13.07ZM37 5.02V7.14H39.27V5.02H37ZM38.11 6.92C38.03 6.53 37.75 5.95 37.47 5.52L37.99 5.34C38.28 5.76 38.56 6.32 38.65 6.7L38.12 6.92H38.11ZM41.88 9.2H37.52V10.21H41.88V9.2ZM37.52 11.9H41.88V10.85H37.52V11.9ZM37.74 2.82H41.62V3.51H37.74V2.82ZM42.41 7.12V5H40.03V7.12H42.41ZM42.06 5.58C42.03 5.66 41.93 5.69 41.79 5.69C41.62 6.03 41.34 6.56 41.1 6.91L40.64 6.7C40.86 6.31 41.17 5.68 41.33 5.27L42.06 5.58Z" fill="white"/>
<path d="M46.75 3.95977C47.6 4.31977 48.64 4.92977 49.14 5.39977L48.58 6.15977C48.09 5.67977 47.07 5.03977 46.23 4.64977L46.75 3.95977ZM46.58 12.2798C47.24 11.1698 48.16 9.27977 48.82 7.68977L49.56 8.21977C48.96 9.71977 48.13 11.4698 47.53 12.5298C47.59 12.6098 47.61 12.6798 47.61 12.7498C47.61 12.8098 47.6 12.8498 47.57 12.8898L46.58 12.2698V12.2798ZM47.54 0.149766C48.35 0.539766 49.35 1.19977 49.82 1.68977L49.26 2.42977C48.78 1.92977 47.82 1.24977 46.99 0.819766L47.54 0.149766ZM59.15 10.0698H55.35C56.09 11.2498 57.48 11.9898 59.37 12.2398C59.17 12.4398 58.94 12.7698 58.82 13.0098C56.69 12.5998 55.23 11.6398 54.45 10.0698H54.23C53.63 11.4698 52.44 12.4698 49.72 13.0098C49.64 12.7998 49.41 12.4498 49.24 12.2698C51.49 11.8498 52.62 11.1398 53.2 10.0698H49.54V9.26977H53.53C53.64 8.91977 53.73 8.52977 53.78 8.11977L50.53 8.22976C50.5 8.33976 50.43 8.39977 50.33 8.40977L49.95 7.38977C50.61 7.38977 51.41 7.37977 52.3 7.35977C52.55 7.15977 52.8 6.93977 53.07 6.71977C52.47 6.22977 51.59 5.65977 50.83 5.25977L51.36 4.65977C51.58 4.76977 51.81 4.89977 52.05 5.03977C52.57 4.48977 53.16 3.76977 53.51 3.22977L54.39 3.70977C54.26 3.21977 53.96 2.50977 53.66 1.95977L54.42 1.70977C54.77 2.27977 55.12 3.04977 55.25 3.54977L54.44 3.85977V3.81977C54.37 3.84977 54.29 3.85977 54.19 3.85977C53.83 4.31977 53.24 4.94977 52.72 5.43977C53.1 5.67977 53.45 5.92977 53.74 6.14977C54.5 5.43977 55.25 4.66977 55.77 4.02977L56.72 4.57977C56.66 4.65977 56.57 4.68977 56.41 4.67977C55.67 5.47977 54.56 6.49977 53.54 7.33977L57.24 7.25977C56.82 6.90977 56.36 6.56977 55.94 6.28977L56.56 5.82977C57.56 6.44977 58.7 7.37977 59.25 8.05977L58.59 8.58977C58.44 8.38977 58.24 8.16977 58 7.94977C56.64 8.00977 55.25 8.05977 53.98 8.09977L54.96 8.20977C54.95 8.28977 54.85 8.35977 54.68 8.38977C54.62 8.69977 54.57 8.98977 54.5 9.26977H59.14V10.0698H59.15ZM52.12 1.04977C54.14 0.809766 56.38 0.449766 57.61 0.00976562L58.41 0.749766C58.41 0.749766 58.33 0.789766 58.26 0.789766C58.23 0.789766 58.19 0.789766 58.15 0.779766C56.69 1.22977 54.23 1.58977 52.06 1.79977C51.63 2.87977 51.04 3.99977 50.45 4.73977C50.28 4.58977 49.93 4.35977 49.71 4.24977C50.37 3.43977 51.03 2.08977 51.45 0.819766L52.14 1.03977L52.12 1.04977ZM58.55 4.49977C58.16 3.72977 57.29 2.52977 56.51 1.65977L57.21 1.23977C58 2.07977 58.91 3.23977 59.3 4.00977L58.56 4.49977H58.55Z" fill="white"/>
<path d="M62.06 4.03004C62.94 4.37004 64.02 4.95004 64.55 5.42004L64 6.19004C63.47 5.73004 62.4 5.10004 61.53 4.72004L62.05 4.03004H62.06ZM61.88 12.28C62.62 11.23 63.7 9.46004 64.49 7.94004L65.19 8.54004C64.46 9.95004 63.52 11.61 62.82 12.63C62.86 12.7 62.89 12.76 62.89 12.83C62.89 12.89 62.86 12.94 62.82 13L61.88 12.29V12.28ZM64.67 2.52004C64.17 2.03004 63.13 1.37004 62.27 0.950039L62.8 0.290039C63.65 0.650039 64.7 1.28004 65.22 1.76004L64.66 2.52004H64.67ZM74.81 0.870039V1.79004H73.68V11.68C73.68 12.94 73.19 13.04 70.33 13.01C70.27 12.76 70.12 12.3 69.97 12.02C70.57 12.05 71.15 12.06 71.59 12.06C72.65 12.06 72.74 12.06 72.74 11.67V1.79004H65.37V0.870039H74.81ZM70.72 9.19004H67.18V10.18H66.31V4.05004H70.72V9.19004ZM69.84 4.92004H67.18V8.32004H69.84V4.92004Z" fill="white"/>
<path d="M77.55 3.98C78.4 4.32 79.44 4.89 79.96 5.34L79.41 6.11C78.91 5.66 77.87 5.05 77.03 4.68L77.55 3.98ZM77.34 12.3C77.94 11.21 78.8 9.34 79.41 7.76L80.15 8.29C79.59 9.76 78.85 11.5 78.29 12.55C78.35 12.63 78.37 12.7 78.37 12.77C78.37 12.81 78.36 12.87 78.33 12.91L77.34 12.29V12.3ZM78.25 0.14C79.06 0.53 80.06 1.15 80.55 1.64L79.98 2.4C79.5 1.91 78.52 1.24 77.71 0.83L78.26 0.14H78.25ZM81.95 10.9V7.12C81.52 7.22 81.08 7.3 80.66 7.39C80.56 7.19 80.32 6.83 80.16 6.65C80.75 6.55 81.35 6.44 81.95 6.3V6.15H82.61C83.37 5.97 84.12 5.74 84.82 5.51V3.73H82.52V2.99H88.25V3.73H85.7V5.19C86.6 4.83 87.38 4.41 87.98 3.93L88.93 4.42C88.87 4.48 88.75 4.5 88.59 4.49C87.74 5.13 86.59 5.69 85.31 6.16H88.95V10.92H81.93L81.95 10.9ZM84.86 11.47C84.8 11.53 84.71 11.55 84.58 11.57C83.78 12.1 82.23 12.7 80.98 13.04C80.85 12.86 80.6 12.55 80.43 12.37C81.66 12.05 83.22 11.46 83.97 10.94L84.85 11.47H84.86ZM83.99 4.42C83.95 4.48 83.88 4.5 83.74 4.5C83.19 4.92 82.18 5.48 81.25 5.83C81.12 5.65 80.87 5.4 80.69 5.24C81.6 4.93 82.58 4.39 83.13 3.92L84 4.41L83.99 4.42ZM81.9 2.05V3.44H81.03V1.3H84.81V0L86 0.08C85.99 0.18 85.92 0.25 85.72 0.26V1.3H89.73V3.45H88.85V2.06H81.9V2.05ZM88.05 6.76H83.33L82.83 6.89V7.52H88.05V6.76ZM88.05 8.88V8.12H82.83V8.88H88.05ZM88.05 10.28V9.48H82.83V10.28H88.05ZM89.38 13.03C88.61 12.6 87.32 11.99 86.1 11.49L86.66 10.93C87.89 11.41 89.25 11.99 90.09 12.43L89.38 13.03Z" fill="white"/>
<path d="M97.6501 0.849922C97.6101 0.949922 97.5001 0.989922 97.3301 0.989922C96.4101 3.09992 94.9301 5.22992 93.4401 6.58992C93.2401 6.38992 92.8701 6.08992 92.6101 5.94992C94.1101 4.69992 95.5501 2.56992 96.4201 0.429922L97.6501 0.849922ZM99.1301 5.49992C99.0901 5.60992 98.9601 5.67992 98.7801 5.67992C98.1201 7.34992 97.0801 9.58992 96.1501 11.2799C98.1301 11.2199 100.46 11.1399 102.72 11.0599C102.05 10.1099 101.26 9.07992 100.56 8.25992L101.44 7.83992C102.74 9.31992 104.23 11.2999 104.94 12.5699L104 13.0899C103.82 12.7399 103.57 12.3299 103.27 11.8799C99.7501 12.0899 96.0101 12.2399 93.6901 12.3399C93.6601 12.4499 93.5601 12.5199 93.4701 12.5399L93.0801 11.3599L95.0801 11.2999C96.0601 9.55992 97.1801 6.99992 97.8301 5.13992L99.1301 5.48992V5.49992ZM101.36 0.429922C102.33 2.31992 104.13 4.59992 105.45 5.78992C105.2 5.98992 104.85 6.33992 104.66 6.58992C103.34 5.24992 101.54 2.80992 100.44 0.799922L101.35 0.419922L101.36 0.429922Z" fill="white"/>
<path d="M108.46 0.640137H120.27V13.0301H119.35V12.4101H109.36V13.0301H108.46V0.640137ZM109.36 11.5401H119.35V1.51014H109.36V11.5401ZM114.85 7.95014C115.16 8.31014 115.55 8.66014 116.01 8.99014C116.61 8.61014 117.34 8.08014 117.76 7.72014L118.53 8.20014C118.49 8.26014 118.39 8.28014 118.25 8.28014C117.82 8.59014 117.16 9.01014 116.57 9.34014C117.3 9.77014 118.11 10.1101 118.91 10.3201C118.73 10.4601 118.5 10.7501 118.38 10.9501C116.98 10.5201 115.51 9.63014 114.54 8.60014V11.1201H113.69V8.92014C112.71 9.59014 111.5 10.1701 110.4 10.5701C110.29 10.4201 110.04 10.1201 109.9 9.98014C111.22 9.55014 112.72 8.82014 113.75 7.95014H111.26V5.58014H117.44V7.95014H114.86H114.85ZM118.58 4.24014V4.88014H110.11V4.24014H113.88V3.30014H110.99V2.67014H113.88V1.82014L115.03 1.90014C115.02 1.98014 114.95 2.05014 114.76 2.08014V2.67014H117.74V3.30014H114.76V4.24014H118.58ZM112.07 6.16014V7.36014H116.58V6.16014H112.07Z" fill="white"/>
<path d="M127.88 10.98C128.41 11.26 128.59 11.37 128.76 11.48C128.7 11.54 128.61 11.56 128.48 11.58C127.56 12.17 125.57 12.77 123.9 13.06C123.77 12.88 123.51 12.57 123.33 12.39C125 12.14 127.01 11.56 127.88 10.98ZM133.52 3.81H136.14V4.55H133.46L133.35 5.84H125.77L125.94 4.55H123.4V3.81H126.03L126.18 2.56H133.62L133.51 3.81H133.52ZM124.79 1.88V3.32H123.92V1.09H129.26V0L130.48 0.07C130.47 0.18 130.38 0.24 130.2 0.27V1.1H135.61V3.32H134.71V1.88H124.79ZM134.17 6.46V10.94H125.39V6.46H134.17ZM133.22 7.75V7.08H126.3V7.75H133.22ZM133.22 9.04V8.34H126.3V9.04H133.22ZM133.22 10.34V9.63H126.3V10.34H133.22ZM126.79 4.49L126.69 5.25H129.14C129.17 5.01 129.21 4.76 129.24 4.49H126.79ZM129.3 3.87C129.31 3.63 129.34 3.39 129.36 3.17H126.96L126.88 3.87H129.3ZM129.97 5.24H132.52L132.58 4.48H130.06L129.98 5.24H129.97ZM132.63 3.87L132.69 3.17H130.15L130.11 3.87H132.63ZM135.32 13.04C134.26 12.63 132.52 12.05 130.73 11.56L131.37 11.01C133.11 11.47 134.97 12.05 136.12 12.47L135.32 13.04Z" fill="white"/>
<path d="M143.26 10.7598C143.19 10.8598 143.06 10.8698 142.95 10.8398C142.01 11.5398 140.58 12.2798 139.38 12.7598C139.23 12.5798 138.93 12.2598 138.74 12.1198C139.92 11.7098 141.37 10.9998 142.24 10.2998L143.26 10.7598ZM145.6 5.40982H151.51V6.18982H138.8V5.40982H144.64V4.39982H140.65V0.569824H149.64V4.38982H145.87C145.86 4.48982 145.79 4.55982 145.59 4.56982V5.39982L145.6 5.40982ZM149.49 9.91982H145.61V12.0898C145.61 12.5698 145.5 12.7798 145.11 12.8998C144.72 13.0198 144.09 13.0298 143.08 13.0298C143.04 12.7898 142.91 12.4798 142.79 12.2598C143.56 12.2898 144.23 12.2898 144.43 12.2898C144.63 12.2798 144.68 12.2198 144.68 12.0698V9.92982H140.87V6.98982H149.5V9.92982L149.49 9.91982ZM141.56 1.25982V2.15982H148.7V1.25982H141.56ZM141.56 2.79982V3.70982H148.7V2.79982H141.56ZM141.77 7.69982V9.19982H148.54V7.69982H141.77ZM150.76 12.7298C149.95 12.1598 148.32 11.3198 147.02 10.7998L147.62 10.2698C148.91 10.7498 150.55 11.5298 151.4 12.1298L150.76 12.7298Z" fill="white"/>
</g>
<defs>
<clipPath id="clip0_3_13">
<rect width="151.51" height="13.1" fill="white"/>
</clipPath>
</defs>
</svg>
