<svg width="100" height="25" viewBox="0 0 100 25" fill="none" xmlns="http://www.w3.org/2000/svg">
<path d="M5.99011 9.24989V16.6699C7.11011 16.4599 8.30001 16.2399 9.51001 15.9899L9.56006 16.2599C8.17006 17.1299 6.04008 18.3399 2.96008 19.8899C2.85008 20.2099 2.62012 20.4099 2.37012 20.4799L1 17.5099C1.62 17.4399 2.55006 17.2799 3.69006 17.0799V9.24989H1.25L1.14001 8.78989H3.70007V2.66988L6.99011 2.96989C6.97011 3.30989 6.69001 3.46988 6.01001 3.55988V8.78989H6.44006L7.54004 6.98988L9.5 8.83988C9.32 9.13988 9.00002 9.24989 8.40002 9.24989H6H5.99011ZM21.51 17.4899L21.4901 20.6199C22.4701 20.9899 22.63 21.1199 22.63 21.4899C22.63 22.4899 21.85 22.9499 18.91 22.9499H13.4801C10.6501 22.9499 9.87012 22.3099 9.87012 19.7299V12.1999L7.75 13.1999L7.45007 12.8599L9.87012 11.7199V4.36988L13.1101 4.63988C13.0601 4.97988 12.88 5.13988 12.17 5.25988V10.6199L14.3201 9.58988V2.12988L17.52 2.39988C17.47 2.71988 17.2901 2.89989 16.6101 2.96989V8.48988L18.55 7.57988L19.4601 5.86988L22.13 7.39988C21.97 7.64988 21.6101 7.89988 21.1001 8.01988V14.8899C21.1001 16.3299 20.6701 17.3799 18.3201 17.5099C18.3201 15.8399 18.2701 15.4599 17.1801 15.3199V15.0899H18.4601C18.7301 15.0899 18.8301 14.9999 18.8301 14.7899V7.91988L16.6201 8.96989V17.7099C16.6201 17.7099 16.2101 18.4399 14.3401 18.4399V10.0599L12.1901 11.0899V19.7899C12.1901 20.7299 12.37 20.8599 13.42 20.8599H18.9701C19.4701 20.8599 19.8101 20.8099 20.0901 20.4899C20.3901 20.1699 20.7701 19.0299 21.3201 17.4799H21.53L21.51 17.4899Z" fill="white"/>
<path d="M44.9902 2.49023L47.5201 4.36024C47.3601 4.57024 47.0202 4.75024 46.5602 4.86024V22.4602C46.5602 22.4602 45.9702 23.2402 44.2302 23.2402V21.8702H29.7601V22.5602C29.7601 22.6302 29.5302 23.5402 27.4502 23.5402V2.74023L29.9602 3.79024H44.0001L44.9802 2.49023H44.9902ZM29.7601 21.4102H44.2302V4.24023H29.7601V21.4102ZM41.7701 9.29024L43.8002 10.6402C43.6202 10.9602 43.3401 11.0502 42.7501 11.0502H30.4001L30.2601 10.5902H35.9001V8.88023H34.3702V8.99023C34.3702 8.99023 34.0302 9.68024 32.3202 9.68024V5.14024L34.4902 6.03024H39.3702L40.1501 5.00024L42.4102 6.55023C42.3002 6.69023 42.0202 6.85023 41.6602 6.92023V9.02023C41.6602 9.09023 41.0402 9.57024 39.5802 9.57024V8.89024H37.9802V10.6002H40.7402L41.7701 9.30023V9.29024ZM40.2902 12.5102L41.0702 11.5302L43.1902 13.0402C43.0802 13.1802 42.8002 13.3402 42.4402 13.4102V19.8502C42.4402 19.8502 41.9101 20.4002 40.5001 20.4002V19.4002H33.4702V19.8602C33.4702 19.8602 33.2002 20.5702 31.5302 20.5702V11.6702L33.6102 12.5402H40.3002L40.2902 12.5102ZM33.4602 18.9202H40.4902V12.9602H33.4602V18.9202ZM34.3702 8.42023H39.5802V6.48023H34.3702V8.42023ZM38.3202 13.6902L39.9902 14.8302C39.9002 14.9402 39.6701 15.0802 39.4001 15.1302V17.6402C39.4001 17.6402 38.9402 18.1002 37.9202 18.1002V17.3202H36.0502V17.7502C36.0502 17.7502 35.7802 18.2102 34.5902 18.2102V13.7102L36.1702 14.3902H37.7902L38.3402 13.6802L38.3202 13.6902ZM36.0402 16.8602H37.9102V14.8502H36.0402V16.8602Z" fill="white"/>
<path d="M56.7701 12.86C57.8901 14.16 59.6202 14.32 64.1202 14.32H67.5402C69.4802 14.32 71.5101 14.32 72.9001 14.27V14.57C72.1501 14.73 71.8002 15.41 71.7802 16.24H68.5402C68.4902 16.45 68.3102 16.56 67.7002 16.65V17.81H69.3202L70.5302 16.23L72.8402 17.85C72.6602 18.15 72.3801 18.24 71.7701 18.24H67.7102V20.73C67.7102 22.28 67.3002 23.31 64.3502 23.56C64.3502 21.98 63.4402 21.64 61.4502 21.46V21.14H64.8502C65.2402 21.14 65.3302 21.03 65.3302 20.73V18.24H51.5702L51.4302 17.81H65.3302V16.23H64.1401C58.6801 16.23 57.2901 15.39 56.3801 13.19C55.6501 13.94 54.6001 14.97 53.2501 16.2C53.2001 16.52 53.0201 16.75 52.7701 16.84L51.4502 14.31C52.0702 14.15 53.2102 13.76 54.5502 13.31V9.13H51.6301L51.5402 8.63H54.2102L55.4001 7.05L57.9302 9.13C57.7502 9.31 57.4001 9.52 56.7701 9.61V12.85V12.86ZM52.7102 2.79C55.7502 2.93 56.7302 4.05 56.7302 5C56.7302 5.73 56.1602 6.35 55.4702 6.35C55.1702 6.35 54.8802 6.24 54.5802 5.98C54.3302 4.88 53.5102 3.62999 52.5702 2.93999L52.7102 2.78V2.79ZM55.5201 18.84C58.8501 18.82 59.9502 20.03 59.9502 21.03C59.9502 21.78 59.3601 22.42 58.6301 22.42C58.3601 22.42 58.0402 22.33 57.7402 22.08C57.4002 20.96 56.4402 19.68 55.4102 19.02L55.5201 18.84ZM57.6401 5.21L57.5001 4.75H61.8602C61.7202 4.68 61.5602 4.57 61.4302 4.43C61.3802 3.65 60.9302 2.73999 60.3602 2.25999L60.4702 2.1C62.8002 2.19 63.5702 2.97 63.5702 3.67C63.5702 4.13 63.2302 4.56 62.7902 4.74H66.0502C66.3202 3.92 66.6402 2.82 66.8002 2L69.9302 2.96C69.8402 3.21 69.5902 3.29999 69.0602 3.25999C68.4702 3.73999 67.6001 4.29 66.7501 4.74H69.4001L70.5902 3.25999L72.8302 4.81C72.6502 5.11 72.3702 5.2 71.7802 5.2H66.1002C65.6202 5.77 65.0302 6.43 64.4802 6.91H67.9502L68.8402 5.75L71.2802 7.46C71.1402 7.62 70.8702 7.77999 70.4602 7.87V13.12C70.4602 13.12 69.8901 13.8 68.1501 13.8V12.84H61.5101V13.11C61.5101 13.11 61.1201 13.91 59.2701 13.91V5.92L61.6401 6.89999H63.2601C63.3701 6.37999 63.4701 5.70999 63.5101 5.18999H57.6202L57.6401 5.21ZM68.1602 7.38H61.5201V8.73H68.1602V7.38ZM61.5201 9.18V10.55H68.1602V9.18H61.5201ZM61.5201 12.4H68.1602V11.01H61.5201V12.4Z" fill="white"/>
<path d="M86.47 12.1498L85.4199 12.4498V20.7798C85.4199 22.2598 85.0999 23.3398 82.7999 23.5398C82.7999 21.9398 82.43 21.5498 80.95 21.3898V21.0898H83.0499C83.2599 21.0898 83.35 20.9998 83.35 20.7198V12.9998C82.37 13.2498 81.25 13.5298 79.99 13.8198C79.94 17.1798 79.65 20.8698 76.84 23.5198L76.5199 23.3098C77.8199 20.7798 77.96 17.5298 77.98 14.2898L77.7699 14.3398C77.6299 14.6398 77.3799 14.7998 77.1299 14.8398L76.4199 12.2398C76.8099 12.2398 77.33 12.2198 77.97 12.1898V4.46981L80.2499 5.35981C80.3599 4.41981 80.5 3.0298 80.59 2.0498L83.99 2.5498C83.92 2.9198 83.72 3.0998 83.08 3.1198C82.58 3.7798 81.8 4.69981 81.21 5.37981H83.1L83.99 4.21981L86.3199 5.92981C86.1599 6.10981 85.8399 6.29981 85.4099 6.35981V11.8398L86.4399 11.7698L86.46 12.1098L86.47 12.1498ZM79.99 5.8698V12.1498C81.02 12.0998 82.16 12.0398 83.35 11.9898V5.8698H79.99ZM80.6299 7.21981C82.4299 7.89981 83.0499 8.8398 83.0499 9.6198C83.0499 10.3298 82.4999 10.8798 81.9299 10.8798C81.6299 10.8798 81.34 10.7398 81.09 10.3998C81.09 9.6198 80.9499 8.27981 80.3799 7.38981L80.6299 7.2298V7.21981ZM82.84 13.9798C82.82 14.1898 82.6999 14.2998 82.2499 14.3498V19.0998C82.2499 19.0998 82.0199 19.5798 80.8099 19.5798V13.8298L82.84 13.9898V13.9798ZM97.5199 18.4098L97.5699 20.8098C98.1399 21.0798 98.2499 21.2398 98.2499 21.6498C98.2499 22.4698 97.6999 23.0898 96.3099 23.0898H94.96C93.09 23.0898 92.97 22.4498 92.97 20.2398V10.8598H89.9099V14.5798C89.9099 17.4098 89.6099 21.1298 85.8199 23.5298L85.59 23.3198C87.44 20.7598 87.6 17.5398 87.6 14.5798V9.41981L90.2899 10.3998H92.71L93.7599 9.0498L96.2 10.9398C96.04 11.1198 95.7699 11.2598 95.3099 11.3098V20.3698C95.3099 20.8898 95.3299 20.9198 95.5199 20.9198H96.2699C96.3799 20.9198 96.48 20.9198 96.59 20.6898C96.79 20.2998 97.1399 19.1398 97.3199 18.4098H97.4999H97.5199ZM85.99 6.53981H90.3999V2.10981L93.6399 2.40981C93.6199 2.70981 93.4099 2.83981 92.7699 2.95981V6.53981H94.21L95.58 4.7598L98.09 6.58981C97.91 6.88981 97.61 6.99981 96.99 6.99981H86.1L85.99 6.53981Z" fill="white"/>
</svg>
