<svg width="46" height="46" viewBox="0 0 46 46" fill="none" xmlns="http://www.w3.org/2000/svg">
<path d="M22.4414 37.5691C20.5114 34.4691 18.5815 31.6791 16.9815 28.6991C15.0215 25.0491 13.1115 21.3391 11.6315 17.4791C9.93148 13.0491 11.7914 8.07911 15.6814 5.24911C19.7514 2.28911 25.1214 2.24911 29.1714 5.13911C33.1014 7.94911 34.8914 12.8491 33.4514 17.3391C31.5414 23.3091 28.1815 28.5591 24.9015 33.8191C24.1715 34.9991 23.3814 36.1391 22.4414 37.5591V37.5691ZM28.3715 14.5291C28.3715 11.2391 25.7315 8.58911 22.4815 8.58911C19.2315 8.58911 16.5914 11.2691 16.6014 14.5391C16.6014 17.7391 19.2314 20.3691 22.4214 20.3891C25.7114 20.4091 28.3815 17.7791 28.3715 14.5291Z" fill="white"/>
<path d="M22.9301 43.2192C22.1601 43.2192 4 43.1592 4 38.2192C4 33.2792 22.1601 33.2192 22.9301 33.2192C23.7001 33.2192 41.86 33.2792 41.86 38.2192C41.86 43.1592 23.7101 43.2192 22.9301 43.2192ZM22.9301 35.1092C12.1801 35.1092 6.04002 37.1592 5.90002 38.2092C6.04002 39.2592 12.1801 41.3092 22.9301 41.3092C33.6801 41.3092 39.8101 39.2592 39.9501 38.2092C39.8001 37.1592 33.6701 35.1092 22.9301 35.1092Z" fill="white"/>
</svg>
