<svg width="1392" height="110" viewBox="0 0 1392 110" fill="none" xmlns="http://www.w3.org/2000/svg">
<path d="M104.22 21.805H60.015C59.22 25.465 58.185 29.485 57.045 33.265H92.775V109.435H74.91V102.79H29.895V109.435H12.945V33.265H39.285C39.975 29.71 40.665 25.705 41.115 21.805H0V6.235H104.22V21.805ZM74.895 60.4V48.61H29.895V60.4H74.91H74.895ZM29.88 87.43H74.895V75.4H29.895V87.43H29.88Z" fill="white"/>
<path d="M151.41 7.15C150.945 8.185 149.805 8.755 147.975 8.53C145.455 15.28 142.47 22.045 139.38 28.57L143.85 30.055C143.505 31.09 142.47 32.11 140.415 32.35V109.885H124.26V54.79C121.86 58.105 119.445 61.315 116.925 64.18C115.545 60.175 111.765 51.13 109.59 47.11C118.635 36.91 127.92 18.595 133.41 0.954994L151.395 7.13499L151.41 7.15ZM208.68 80.215C214.065 86.05 220.245 93.955 222.66 99.805L209.49 107.245C208.455 104.5 206.625 101.17 204.45 97.735C202.725 106.9 198.84 109.42 190.47 109.42H179.355C163.785 109.42 163.44 103.585 163.44 90.745C161.145 96.58 157.935 102.655 153.585 107.125L141.795 98.65C146.37 94.525 150.27 87.88 152.325 81.7L163.44 86.395V81.7L176.955 82.495C175.575 81.235 174.09 79.975 172.605 78.94L174.435 77.455H153.135V43.33H213.945V77.455H190.695C192.87 79.285 194.7 81.235 195.96 82.84L185.43 91.315C184.17 89.365 181.995 87.07 179.595 84.79C179.25 84.79 178.905 84.91 178.455 85.015V93.49C178.455 96.475 178.905 96.7 181.77 96.7H188.76C191.16 96.7 191.745 95.785 192.075 89.71C194.13 91.315 198.375 92.92 201.93 93.955C200.1 91.555 198.27 89.14 196.425 86.965L208.68 80.215ZM149.355 9.325H174.555V1.53999L194.715 2.575C194.595 3.955 193.575 4.62999 191.28 5.09499V9.33999H217.965V21.37H210.285L211.425 21.715C210.96 22.63 209.94 23.095 208.215 23.095L205.92 27.22H221.04V39.94H145.215V27.22H160.68C159.99 25.27 159.075 23.095 158.28 21.385H149.34V9.355L149.355 9.325ZM168.825 52.96V56.17H197.46V52.96H168.825ZM168.825 64.525V67.84H197.46V64.525H168.825ZM173.64 21.34C174.555 23.29 175.47 25.345 176.16 27.175H190.125C190.935 25.345 191.61 23.275 192.3 21.34H173.625H173.64Z" fill="white"/>
<path d="M333.615 57.88H272.565C264.885 79.525 253.89 97.51 238.2 109.42C235.56 106.105 229.38 100.03 225.6 97.045C238.2 88.45 247.59 74.71 254.235 57.88H228.465V42.19H259.5C260.76 37.27 262.02 32.11 262.935 26.845H248.16V39.325H231.9V11.83H271.98V0.610001L292.59 1.74999C292.47 3.00999 291.555 3.805 289.155 4.15V11.83H330.27V39.325H313.2V26.845H272.43L283.305 29.14C282.96 30.4 281.82 31.09 279.87 31.09C279.075 34.87 278.145 38.53 277.23 42.205H333.585V57.895L333.615 57.88ZM310.71 69.34C318.96 78.61 329.61 91.555 334.08 100.495L319.77 109.54C318.975 107.815 317.94 105.76 316.68 103.705C297.9 105.19 278.88 106.45 265.935 107.14C265.59 108.28 264.555 108.865 263.535 108.97L257.115 90.88L268.56 90.535C272.805 81.265 276.915 69.235 279.33 59.5L298.92 64.66C298.47 65.8 297.21 66.385 295.26 66.49C292.86 73.93 289.425 82.525 285.87 89.965C292.74 89.74 299.85 89.5 307.065 89.17C303.975 84.925 300.645 80.815 297.555 77.14L310.725 69.355L310.71 69.34Z" fill="white"/>
<path d="M381.15 94.315H396.84C402.57 88.93 404.055 81.94 404.745 74.965L420.315 76.69C420.09 77.605 419.175 78.295 417.57 78.52C415.845 88.72 413.22 101.08 400.395 109.21C399.705 107.95 398.79 106.465 397.755 104.86V105.205H361.785V109.555H348.615V79.78C347.7 80.815 346.905 81.835 345.975 82.765C344.715 80.125 341.4 74.635 339.555 72.115C344.595 66.73 349.41 57.805 352.38 48.64H344.13V25.615H368.865V48.64H361.305L366.915 50.47C366.465 51.265 365.535 51.85 364.05 51.73L362.565 55.63H369.435C370.575 52.765 371.505 49.675 372.075 47.155V25.63H397.155V48.655H377.685L386.625 51.055C386.28 51.97 385.365 52.435 383.64 52.435L382.035 55.645H397.605V66.415H381.105V69.4H395.07V78.79H381.105V81.88H395.07V91.27H381.105V94.36L381.15 94.315ZM351.03 22.96V18.61H341.07V7.735H351.03V0.744995L367.98 1.66C367.86 2.8 366.945 3.48999 364.89 3.83499V7.735H375.315V0.744995L392.265 1.66C392.145 2.8 391.23 3.48999 389.175 3.83499V7.735H398.34V18.61H389.175V22.96H375.315V18.61H364.89V22.96H351.03ZM354.465 34.99V39.22H358.02V34.99H354.465ZM367.755 69.355V66.37H361.8V69.355H367.755ZM367.755 81.835V78.745H361.8V81.835H367.755ZM361.8 91.225V94.315H367.755V91.225H361.8ZM382.41 34.99V39.22H386.31V34.99H382.41ZM435.435 91.45C435.435 94.66 435.555 95.005 436.35 95.005H437.385C438.525 95.005 438.99 93.52 439.215 82.525C441.735 84.82 447.69 86.995 451.35 88.03C450.21 103.72 446.775 107.965 438.975 107.965H433.71C423.63 107.965 421.575 103.84 421.575 91.585V72.235H401.19V4.53999H445.29V72.235H435.435V91.48V91.45ZM415.275 18.61V23.425H430.5V18.61H415.275ZM415.275 35.905V40.72H430.5V35.905H415.275ZM415.275 53.2V58.015H430.5V53.2H415.275Z" fill="white"/>
<path d="M564.39 32.35H519.84C518.01 37.39 516.06 42.31 513.765 46.9H521.205V34.765L540.9 35.8C540.78 37.06 539.865 37.855 537.465 38.2V46.9H560.835V80.35C560.835 92.38 557.055 95.815 541.245 95.815C540.78 91.69 539.175 85.855 537.465 81.835V109.555H521.205V61.795H513.87V95.695H498.405V70.615C496.11 73.255 493.71 75.655 491.07 77.95C489.585 75.31 486.6 70.96 483.975 67.645V109.915H467.82V54.82C465.42 58.135 463.005 61.345 460.485 64.21C459.105 60.205 455.325 51.16 453.15 47.14C462.195 36.94 471.48 18.625 476.97 0.985001L494.955 7.16499C494.49 8.19999 493.35 8.76999 491.52 8.54499C489 15.295 486.015 22.06 482.925 28.585L487.395 30.07C487.05 31.105 486.015 32.125 483.96 32.365V61.915C491.745 54.7 497.925 44.395 502.86 32.365H489V17.245H507.9C509.385 11.74 510.765 6.02499 511.8 0.174988L530.58 4.29999C530.235 5.43999 529.095 6.12999 527.265 6.12999C526.47 9.90999 525.555 13.57 524.52 17.245H564.375V32.365L564.39 32.35ZM544.92 61.78H537.48V81.37C539.775 81.49 542.52 81.49 543.555 81.49C544.59 81.37 544.935 81.145 544.935 80.11V61.78H544.92Z" fill="white"/>
<path d="M665.52 46.315L674.79 47.005C674.67 48.265 674.67 50.32 674.445 51.925C673.41 85.375 672.27 98.545 668.955 103C665.175 108.16 660.93 109.75 645.825 109.42C645.705 106.555 644.91 102.775 643.755 99.46H616.725V106.555H601.485V66.235H647.76V94.3C652.23 94.3 652.8 94.3 654.18 92.47C655.89 90.295 656.82 81.94 657.495 60.865H597.48C595.53 77.125 591.18 94.42 582.48 106.57C579.735 103.48 572.745 97.87 569.085 96.04C581.565 78.52 582.48 52.285 582.48 34.195V5.67999H665.97V40.615H598.86C598.86 42.445 598.74 44.395 598.635 46.45H661.86L665.52 46.33V46.315ZM649.26 19.51H598.98V26.725H649.26V19.51ZM632.31 86.515V79.18H616.74V86.515H632.31Z" fill="white"/>
<path d="M746.94 71.515L748.32 85.825C735.495 88.81 722.085 91.66 713.385 93.505C713.16 94.645 712.125 95.455 711.09 95.56L706.965 78.265C710.625 77.8 714.87 77.125 719.445 76.315V56.155H709.935V40.915H719.445V23.74H709.14V8.39498H745.215V23.74H735.03V40.915H744.54V56.155H735.03V73.675L746.94 71.5V71.515ZM808.785 83.425H789.435V95.8C789.435 106.915 785.88 109.435 767.565 109.435C766.875 105.775 765.39 100.96 763.785 97.3C759.315 101.53 753.93 105.655 748.785 108.64C746.265 105.775 741.225 101.08 738.135 98.68C745.005 95.365 752.115 89.74 756 84.475L772.38 90.55C771.915 91.465 770.775 91.93 769.29 91.69C767.91 93.295 766.305 94.9 764.595 96.61C767.46 96.73 770.775 96.73 771.81 96.73C773.07 96.61 773.535 96.385 773.535 95.245V83.455H754.29V58.03H808.8V83.455L808.785 83.425ZM815.775 41.845V54.895H746.595V41.845H772.365V37.375H752.775V4.16499H810.15V37.375H792.63C792.285 38.29 791.25 38.86 789.315 39.205V41.845H815.775ZM767.67 13.675V16.315H794.475V13.675H767.67ZM767.67 25.24V27.88H794.475V25.24H767.67ZM769.5 68.425V73H792.63V68.425H769.5ZM805.47 108.055C802.605 103.585 795.735 96.49 790.125 91.675L802.725 84.805C808.23 89.155 815.445 95.8 818.985 100.495L805.47 108.055Z" fill="white"/>
<path d="M921.705 6.45999L932.355 10.36C932.235 11.155 931.905 11.965 931.215 12.535C928.125 22.39 924.345 34.06 919.77 46.21C929.04 57.775 931.905 65.56 931.905 72.55C931.905 95.8 916.215 95.8 906.255 95.455C906.135 91.105 904.305 84.46 901.785 79.99V109.42H885.405V17.11C882.885 23.185 880.02 29.02 876.81 34.525H882.42V48.835H867.18C865.35 51.13 863.52 53.305 861.675 55.36H879.195V108.625H863.505V104.725H848.955V109.645H833.955V77.575C832.575 78.37 831.21 79.18 829.71 79.87C828 76.315 823.98 69.67 821.355 66.475C825.705 64.525 829.95 62.125 833.955 59.485V55.36H839.565C842.205 53.305 844.605 51.115 847.005 48.835H824.1V34.525H842.535V25.825H828.555V11.62H842.535V1.195L861.21 2.23C861.09 3.37 860.175 4.18 857.895 4.525V11.62H867.75V19.75C869.58 15.97 871.185 12.07 872.565 8.065L885.39 12.19V7.03H918.255L921.69 6.45999H921.705ZM863.52 73.57V68.41H848.97V73.57H863.52ZM848.97 91.555H863.52V85.945H848.97V91.555ZM857.91 34.525H859.17C861.12 31.78 862.95 28.795 864.555 25.825H857.91V34.525ZM901.77 22.615V79.42C904.515 79.645 906.93 79.645 908.535 79.645C914.265 79.645 915.405 77.005 915.405 71.74C915.405 66.13 912.315 59.95 902.925 49.06C905.91 39.445 908.43 30.625 910.485 22.6H901.785L901.77 22.615Z" fill="white"/>
<path d="M1046.43 89.5H1032.47C1037.85 93.505 1044.15 98.32 1047.59 101.875L1035.33 109.555C1031.55 105.31 1023.3 98.335 1017.12 93.64L1024.11 89.515H1007.61L1014.71 93.64C1014.36 94.105 1013.67 94.435 1012.88 94.555C1008.87 99.475 999.81 106.24 992.145 109.555C989.745 106.915 985.38 102.91 982.065 100.39C979.545 109.66 970.605 109.66 961.215 109.66C960.99 105.19 959.49 99.01 957.315 95.005C960.18 95.35 962.7 95.35 964.305 95.35C965.685 95.35 966.6 95.005 967.515 93.52C968.775 91.345 969.24 82.525 969.57 58.24H963.39C961.785 77.59 958.125 95.92 948.495 109.435C945.855 105.43 940.935 100.39 936.81 97.75C947.925 82.18 948.6 58.465 948.945 32.92H938.64V17.575H955.02V0.849983L974.265 1.88499C974.145 3.14499 973.23 3.835 970.95 4.285V17.575H985.605V20.32C989.61 14.71 992.7 7.59999 994.305 0.624992L1010.91 4.87C1010.57 5.785 1009.65 6.35499 1008.05 6.24999C1007.48 8.07999 1006.79 10.03 1006.1 11.86H1046.42V25.15H999.345L998.31 26.755L1013.21 27.55C1013.09 28.69 1012.17 29.38 1010 29.845V35.23H1021.46V26.53L1040.01 27.565C1039.89 28.705 1038.98 29.515 1036.7 29.86V35.245H1044.95V48.19H1036.7V76.6H1046.43V89.545V89.5ZM976.56 43.225L984.69 43.45C984.69 44.71 984.69 46.54 984.57 48.265C984.225 78.16 983.88 92.935 982.17 99.805C987.78 97.405 993.735 93.385 997.98 89.5H985.5V76.555H995.01V48.145H987.105V35.2H995.01V30.955C994.095 32.095 993.06 33.13 992.025 34.045C990.54 32.56 988.02 30.73 985.605 29.005V32.905H964.53L964.185 43.21H976.56V43.225ZM1021.46 48.145H1010V50.785H1021.46V48.145ZM1021.46 63.61V60.865H1010V63.61H1021.46ZM1010 73.69V76.555H1021.46V73.69H1010Z" fill="white"/>
<path d="M1096.25 58.12L1092.12 58.69V96.145C1092.12 106.57 1088.69 109.66 1075.17 109.66C1074.83 106.225 1073.22 100.72 1071.51 97.405C1073.24 97.525 1075.07 97.63 1076.43 97.63C1079.75 97.63 1080.09 97.63 1080.09 95.905V60.4L1069.22 61.885C1068.99 77.35 1067.49 97.045 1060.97 109.765C1058.79 107.815 1053.53 104.605 1050.66 103.465C1056.17 92.35 1057.31 76.78 1057.53 63.385L1056.15 63.61C1055.93 64.645 1054.89 65.215 1053.98 65.335L1051.11 51.595L1057.53 51.025V15.985H1067.04C1067.84 11.065 1068.53 5.10998 1068.75 0.639984L1085.82 3.62499C1085.48 4.53999 1084.44 5.11 1082.73 5.23C1081.82 8.32 1080.56 12.325 1079.3 16H1092.12V47.725L1095.9 47.38L1096.25 58.15V58.12ZM1076.55 30.625C1078.28 34.525 1079.64 39.565 1080.11 43.345H1080.23L1080.11 28.345H1069.23V33.04L1076.57 30.64L1076.55 30.625ZM1069.22 49.975L1080.09 48.94V44.365L1071.62 47.23C1071.5 44.02 1070.48 39.325 1069.22 35.2V49.975ZM1079.99 63.835C1079.87 64.63 1079.19 65.215 1077.81 65.32V89.14H1070.82V63.25L1079.99 63.82V63.835ZM1154.55 95.215H1160.97V107.59H1093.4V95.215H1099.82V65.32H1154.57V95.215H1154.55ZM1108.28 61.09V62.695H1097.16V4.50999H1129.68V14.815H1121.9V20.2H1129.23V31.885C1132.32 23.98 1133.93 12.07 1134.72 0.849983L1150.53 4.05998C1150.19 4.97498 1149.27 5.66499 1147.79 5.66499C1147.44 8.75499 1147.1 11.845 1146.53 15.055H1160.49V27.43H1144.11C1142.73 32.935 1141.02 37.96 1138.85 41.98C1136.55 40.03 1132.43 37.51 1129.23 35.68V45.19H1121.9V50.575H1131.17V61.105H1108.26L1108.28 61.09ZM1111.59 14.815H1108.28V20.2H1111.59V14.815ZM1118.36 29.59H1108.28V35.77H1118.36V29.59ZM1111.59 50.545V45.16H1108.28V50.545H1111.59ZM1112.06 77.575V95.215H1115.04V77.575H1112.06ZM1128.32 77.575H1125.33V95.215H1128.32V77.575ZM1132.79 55.705V43.33H1158.68V55.705H1132.79ZM1141.61 77.575H1138.62V95.215H1141.61V77.575Z" fill="white"/>
<path d="M1196.56 45.0549V81.0249C1202.98 91.6749 1215.46 91.6749 1235.16 91.6749C1248.67 91.6749 1264.83 91.2099 1276.39 90.1899C1274.56 94.1949 1271.92 102.22 1271.13 107.14C1262.53 107.605 1250.97 107.935 1239.97 107.935C1211.56 107.935 1199.65 107.365 1189.23 95.2149C1184.53 99.3399 1179.72 103.465 1175.59 106.675C1175.59 108.16 1175.14 108.85 1173.76 109.315L1165.51 90.9849C1170.21 88.3449 1175.47 85.1499 1180.29 81.6999V60.3999H1168.48V45.0549H1196.55H1196.56ZM1180.41 3.3699C1186.93 8.0649 1195.3 15.0549 1199.19 20.4399L1185.9 31.4349C1182.58 26.1699 1174.56 18.4899 1168.03 13.3449L1180.41 3.3849V3.3699ZM1199.53 35.3199H1210.75C1207.09 33.2649 1202.05 31.0749 1198.5 29.5899C1204.11 23.0649 1208.58 11.8449 1210.87 1.64489L1228.51 6.11491V0.729912L1248.45 1.76489C1248.33 3.02489 1247.31 3.8199 1245.01 4.2849V12.8799H1268.73V26.8599H1245.01V35.3349H1273.77V49.1949H1199.55V35.3349L1199.53 35.3199ZM1266.07 89.1549H1249.69V86.5149H1224.04V89.4999H1208.47V52.7349H1266.09V89.1549H1266.07ZM1228.51 35.3199V26.8449H1218.31C1216.83 29.9349 1215.1 32.7999 1213.27 35.3199H1228.51ZM1224.04 72.6549H1249.69V65.6649H1224.04V72.6549ZM1228.51 12.8649V6.68489C1228.05 7.37489 1227.13 7.71989 1225.77 7.71989C1225.32 9.44489 1224.73 11.1549 1224.16 12.8799H1228.51V12.8649Z" fill="white"/>
<path d="M1390.23 87.775H1377.06C1382.79 92.125 1388.51 97.285 1391.96 101.065L1377.75 109.885C1373.97 104.965 1365.84 97.285 1359.2 91.9L1367.45 87.775H1346.84L1357.04 91.78C1356.47 92.92 1355.09 93.16 1353.83 92.92C1347.87 98.875 1338.59 105.4 1329.77 109.645C1327.47 106.78 1323.12 101.86 1320.03 98.995C1307.9 101.05 1296.21 103 1288.08 104.155C1287.86 105.295 1286.82 105.985 1285.79 106.21L1281.32 89.26C1286.01 88.795 1291.74 88.12 1298.04 87.43V84.22L1287.86 87.43C1287.29 82.165 1285.46 74.26 1283.61 68.185L1294.26 65.2C1295.75 69.445 1297.13 74.485 1298.04 78.835V63.94H1283.61V49.975H1298.04V43.675H1289.34V39.895C1286.7 36.58 1282.59 32.56 1279.73 30.61C1288.55 21.565 1295.19 9.99999 1298.97 0.714989L1316.84 3.80499C1316.49 4.94499 1315.58 5.63499 1313.85 5.75499L1313.63 6.09998C1318.44 9.30998 1323.81 13.195 1327.94 16.75V9.655H1350.15V0.714989L1369.4 1.74999C1369.28 3.00999 1368.36 3.7 1366.08 4.15V9.655H1388.87V22.705H1366.08V25.915H1383.5V71.275H1334.13V25.915H1350.17V22.705H1331.15L1323.47 34.615L1322.9 33.925V43.66H1312.7V49.96H1326.44V63.925H1312.7V80.08C1313.96 75.505 1315.44 69.31 1316.01 64.84L1329.98 69.085C1329.53 69.88 1328.49 70.345 1326.89 70.345C1325.85 74.47 1323.9 80.425 1322.07 84.43L1326.77 83.86V74.005H1390.22V87.745L1390.23 87.775ZM1319.1 29.935C1315.55 26.5 1310.97 22.72 1306.62 19.51C1304.67 22.945 1302.5 26.38 1299.98 29.935H1319.1ZM1312.68 81.82V85.72L1320.59 84.685L1312.68 81.82ZM1328.15 87.775L1328.49 94.075C1331.81 92.125 1334.91 89.95 1337.43 87.775H1328.16H1328.15ZM1367.66 38.185V35.545H1349.1V38.185H1367.66ZM1367.66 49.87V47.23H1349.1V49.87H1367.66ZM1367.66 61.66V58.915H1349.1V61.66H1367.66Z" fill="white"/>
</svg>
