<svg width="46" height="46" viewBox="0 0 46 46" fill="none" xmlns="http://www.w3.org/2000/svg">
<path d="M29.87 40.53V27.22C31.04 27.22 32.1799 27.19 33.3099 27.23C34.0499 27.26 34.41 27.1 34.47 26.25C34.55 24.88 34.8 23.51 34.99 22H29.95C29.95 20.44 29.86 19 29.98 17.58C30.07 16.53 30.9599 16.17 31.9099 16.13C32.9399 16.08 33.97 16.12 35.09 16.12V11.42C32.62 11.14 30.11 10.76 27.72 11.95C25.74 12.94 24.6899 14.66 24.5299 16.83C24.3999 18.47 24.5099 20.12 24.5099 21.91H19.98V27.17H24.34V40.46C23.97 40.48 23.61 40.53 23.24 40.53C18.32 40.53 13.41 40.53 8.48999 40.53C6.57999 40.53 6 39.96 6 38.07C6 28.2 6 18.33 6 8.45C6 6.57 6.58 6 8.5 6C18.33 6 28.17 6 38 6C39.97 6 40.5199 6.56 40.5199 8.54C40.5199 18.37 40.5199 28.21 40.5199 38.04C40.5199 39.94 39.9399 40.51 38.0499 40.52C35.3599 40.52 32.6799 40.52 29.8799 40.52L29.87 40.53Z" fill="white"/>
</svg>
