<svg width="268" height="88" viewBox="0 0 268 88" fill="none" xmlns="http://www.w3.org/2000/svg">
<path d="M2.89987 74.7391C2.89987 70.5791 2.89988 69.8091 2.84988 68.9291C2.79988 67.9991 2.57989 67.5591 1.66989 67.3691C1.44989 67.3191 0.989884 67.2891 0.599884 67.2891C0.299884 67.2891 0.129883 67.2391 0.129883 67.0391C0.129883 66.8391 0.319889 66.7891 0.729889 66.7891C2.17989 66.7891 3.90989 66.8691 4.47989 66.8691C5.40989 66.8691 7.48987 66.7891 8.33987 66.7891C10.0699 66.7891 11.8999 66.9491 13.3799 67.9691C14.1499 68.4891 15.2399 69.8891 15.2399 71.7191C15.2399 73.7491 14.4199 75.5791 11.6499 77.8291C14.0899 80.8991 15.9799 83.3691 17.5999 85.0691C19.1299 86.6591 20.2299 86.8491 20.6399 86.9291C20.9399 86.9791 21.1899 87.0091 21.4099 87.0091C21.6299 87.0091 21.7399 87.0891 21.7399 87.2291C21.7399 87.4491 21.5499 87.4991 21.2199 87.4991H18.5299C16.9899 87.4991 16.3099 87.3591 15.5999 86.9791C14.4199 86.3491 13.3799 85.0591 11.8499 82.9491C10.7499 81.4391 9.48989 79.5791 9.13989 79.1691C8.99989 79.0091 8.83987 78.9791 8.64987 78.9791L6.34988 78.9291C6.20988 78.9291 6.12988 78.9791 6.12988 79.1491V79.5291C6.12988 82.0791 6.12987 84.2391 6.26987 85.3891C6.34987 86.1791 6.51987 86.7891 7.33987 86.8991C7.74987 86.9491 8.34987 87.0091 8.67987 87.0091C8.89987 87.0091 9.00989 87.0891 9.00989 87.2291C9.00989 87.4191 8.81987 87.4991 8.45987 87.4991C6.86987 87.4991 4.83987 87.4191 4.42987 87.4191C3.90987 87.4191 2.17987 87.4991 1.08987 87.4991C0.729874 87.4991 0.539886 87.4191 0.539886 87.2291C0.539886 87.0891 0.649889 87.0091 0.979889 87.0091C1.38989 87.0091 1.71988 86.9591 1.96988 86.8991C2.51988 86.7891 2.65987 86.1891 2.76987 85.3891C2.90987 84.2391 2.90988 82.0691 2.90988 79.5491V74.7291L2.89987 74.7391ZM6.12988 76.9091C6.12988 77.2091 6.17988 77.3191 6.37988 77.3991C6.95988 77.5891 7.77987 77.6691 8.45987 77.6691C9.55987 77.6691 9.90988 77.5591 10.4099 77.1991C11.2299 76.5991 12.0299 75.3391 12.0299 73.0891C12.0299 69.1991 9.44987 68.0791 7.83987 68.0791C7.15987 68.0791 6.65989 68.1091 6.38989 68.1891C6.19989 68.2391 6.13989 68.3491 6.13989 68.5691V76.8991L6.12988 76.9091Z" fill="white"/>
<path d="M26.39 74.7391C26.39 70.5791 26.39 69.8091 26.34 68.9291C26.29 67.9991 26.01 67.5291 25.41 67.3891C25.11 67.3091 24.75 67.2791 24.42 67.2791C24.15 67.2791 23.98 67.2291 23.98 67.0091C23.98 66.8491 24.2 66.7891 24.64 66.7891C25.68 66.7891 27.41 66.8691 28.2 66.8691C28.89 66.8691 30.5 66.7891 31.54 66.7891C31.9 66.7891 32.12 66.8391 32.12 67.0091C32.12 67.2291 31.96 67.2791 31.68 67.2791C31.4 67.2791 31.19 67.3091 30.86 67.3591C30.12 67.4991 29.9 67.9591 29.85 68.9191C29.8 69.7991 29.8 70.5591 29.8 74.7291V79.5491C29.8 82.2091 29.8 84.3691 29.91 85.5491C29.99 86.2891 30.18 86.7791 31.01 86.8891C31.39 86.9391 32 86.9991 32.41 86.9991C32.71 86.9991 32.85 87.0791 32.85 87.2191C32.85 87.4091 32.63 87.4891 32.33 87.4891C30.52 87.4891 28.79 87.4091 28.05 87.4091C27.42 87.4091 25.69 87.4891 24.6 87.4891C24.24 87.4891 24.05 87.4091 24.05 87.2191C24.05 87.0791 24.16 86.9991 24.49 86.9991C24.9 86.9991 25.23 86.9491 25.48 86.8891C26.03 86.7791 26.19 86.3091 26.27 85.5191C26.41 84.3691 26.41 82.1991 26.41 79.5491V74.7291L26.39 74.7391Z" fill="white"/>
<path d="M39.5398 69.4791C38.9098 67.9691 38.4398 67.6691 37.4598 67.3991C37.0498 67.2891 36.6098 67.2891 36.3898 67.2891C36.1398 67.2891 36.0598 67.2091 36.0598 67.0391C36.0598 66.8191 36.3598 66.7891 36.7698 66.7891C38.2198 66.7891 39.7798 66.8691 40.7398 66.8691C41.4298 66.8691 42.7398 66.7891 44.1098 66.7891C44.4398 66.7891 44.7398 66.8391 44.7398 67.0391C44.7398 67.2391 44.5798 67.2891 44.3298 67.2891C43.8898 67.2891 43.4798 67.3191 43.2598 67.4791C43.0698 67.6191 42.9898 67.8091 42.9898 68.0591C42.9898 68.4191 43.2398 69.1791 43.6198 70.1691C45.1298 74.1191 46.9598 78.9691 48.3898 82.7491C49.5698 79.7391 53.1898 70.7691 53.8398 68.9691C53.9798 68.6091 54.0898 68.1991 54.0898 67.9591C54.0898 67.7391 53.9798 67.5191 53.7298 67.4391C53.3998 67.3291 52.9898 67.2991 52.6298 67.2991C52.3798 67.2991 52.1598 67.2691 52.1598 67.0791C52.1598 66.8591 52.4098 66.8091 52.9298 66.8091C54.2998 66.8091 55.4498 66.8891 55.8098 66.8891C56.2798 66.8891 57.5598 66.8091 58.3898 66.8091C58.7498 66.8091 58.9698 66.8591 58.9698 67.0591C58.9698 67.2591 58.7998 67.3091 58.5298 67.3091C58.2598 67.3091 57.6798 67.3091 57.1898 67.6391C56.8298 67.8891 56.4198 68.3491 55.6798 70.1091C54.6098 72.6891 53.8698 74.1691 52.3898 77.5391C50.6398 81.5391 49.3498 84.5291 48.7398 85.8991C48.0298 87.4891 47.8598 87.9291 47.4798 87.9291C47.1198 87.9291 46.9598 87.5491 46.4398 86.2591L39.5298 69.5191L39.5398 69.4791Z" fill="white"/>
<path d="M65.1899 74.7393C65.1899 70.5793 65.19 69.8093 65.14 68.9293C65.09 67.9993 64.87 67.5593 63.96 67.3693C63.74 67.3193 63.28 67.2893 62.89 67.2893C62.59 67.2893 62.4199 67.2393 62.4199 67.0393C62.4199 66.8393 62.61 66.7893 63.02 66.7893C64.28 66.7893 65.5399 66.8693 66.9699 66.8693C67.8499 66.8693 73.2999 66.8694 73.8199 66.8394C74.3399 66.7894 74.7799 66.7293 74.9999 66.6793C75.1399 66.6493 75.2999 66.5693 75.4399 66.5693C75.5799 66.5693 75.5999 66.6793 75.5999 66.8193C75.5999 67.0093 75.4599 67.3393 75.3799 68.5993C75.3499 68.8693 75.2999 70.0793 75.2399 70.4093C75.2099 70.5493 75.1599 70.7094 74.9699 70.7094C74.7799 70.7094 74.7199 70.5493 74.7199 70.2193C74.7199 70.1093 74.6899 69.6694 74.5599 69.3394C74.3699 68.8494 74.0899 68.5193 72.7199 68.3493C72.2499 68.2993 69.38 68.2393 68.83 68.2393C68.69 68.2393 68.64 68.3193 68.64 68.5093V75.4393C68.64 75.6293 68.67 75.7393 68.83 75.7393C69.43 75.7393 72.58 75.7393 73.21 75.6893C73.87 75.6393 74.28 75.5494 74.53 75.2794C74.72 75.0594 74.8299 74.9193 74.9699 74.9193C75.0799 74.9193 75.1599 74.9693 75.1599 75.1393C75.1599 75.3093 75.0499 75.7393 74.9399 77.1393C74.9099 77.6893 74.83 78.7793 74.83 78.9793C74.83 79.1993 74.83 79.4993 74.58 79.4993C74.39 79.4993 74.33 79.1993 74.33 79.0593C74.3 78.7893 74.2999 78.6193 74.2199 78.2693C74.0799 77.7193 73.6999 77.3093 72.6799 77.1993C72.1599 77.1493 69.4499 77.1193 68.7899 77.1193C68.6499 77.1193 68.6199 77.2293 68.6199 77.3893V79.5493C68.6199 80.4793 68.5899 82.9993 68.6199 83.7993C68.6699 85.6893 69.1099 86.0993 71.9099 86.0993C72.6199 86.0993 73.7699 86.0993 74.4899 85.7693C75.1999 85.4393 75.5299 84.8693 75.7199 83.7393C75.7699 83.4393 75.83 83.3293 76.02 83.3293C76.24 83.3293 76.2399 83.5493 76.2399 83.8193C76.2399 84.4493 76.0199 86.3093 75.8799 86.8593C75.6899 87.5693 75.44 87.5693 74.4 87.5693C71.96 87.5693 69.5499 87.4093 66.8099 87.4093C65.7099 87.4093 64.5899 87.4893 63.3599 87.4893C62.9999 87.4893 62.8099 87.4093 62.8099 87.2193C62.8099 87.0793 62.9199 86.9993 63.2499 86.9993C63.6599 86.9993 63.9899 86.9493 64.2399 86.8893C64.7899 86.7793 64.93 86.1793 65.03 85.3793C65.17 84.2293 65.1699 82.0593 65.1699 79.5393V74.7193L65.1899 74.7393Z" fill="white"/>
<path d="M85.5298 74.7391C85.5298 70.5791 85.5297 69.8091 85.4797 68.9291C85.4297 67.9991 85.2097 67.5591 84.2997 67.3691C84.0797 67.3191 83.6197 67.2891 83.2297 67.2891C82.9297 67.2891 82.7598 67.2391 82.7598 67.0391C82.7598 66.8391 82.9497 66.7891 83.3597 66.7891C84.8097 66.7891 86.5397 66.8691 87.1097 66.8691C88.0397 66.8691 90.1197 66.7891 90.9697 66.7891C92.6997 66.7891 94.5298 66.9491 96.0098 67.9691C96.7798 68.4891 97.8698 69.8891 97.8698 71.7191C97.8698 73.7491 97.0498 75.5791 94.2798 77.8291C96.7198 80.8991 98.6097 83.3691 100.23 85.0691C101.76 86.6591 102.86 86.8491 103.27 86.9291C103.57 86.9791 103.82 87.0091 104.04 87.0091C104.26 87.0091 104.37 87.0891 104.37 87.2291C104.37 87.4491 104.18 87.4991 103.85 87.4991H101.16C99.6197 87.4991 98.9397 87.3591 98.2297 86.9791C97.0497 86.3491 96.0097 85.0591 94.4797 82.9491C93.3797 81.4391 92.1198 79.5791 91.7698 79.1691C91.6298 79.0091 91.4698 78.9791 91.2798 78.9791L88.9797 78.9291C88.8397 78.9291 88.7598 78.9791 88.7598 79.1491V79.5291C88.7598 82.0791 88.7598 84.2391 88.8998 85.3891C88.9798 86.1791 89.1497 86.7891 89.9697 86.8991C90.3797 86.9491 90.9798 87.0091 91.3098 87.0091C91.5298 87.0091 91.6398 87.0891 91.6398 87.2291C91.6398 87.4191 91.4498 87.4991 91.0898 87.4991C89.4998 87.4991 87.4698 87.4191 87.0598 87.4191C86.5398 87.4191 84.8097 87.4991 83.7197 87.4991C83.3597 87.4991 83.1697 87.4191 83.1697 87.2291C83.1697 87.0891 83.2797 87.0091 83.6097 87.0091C84.0197 87.0091 84.3497 86.9591 84.5997 86.8991C85.1497 86.7891 85.2898 86.1891 85.3898 85.3891C85.5298 84.2391 85.5298 82.0691 85.5298 79.5491V74.7291V74.7391ZM88.7598 76.9091C88.7598 77.2091 88.8098 77.3191 89.0098 77.3991C89.5898 77.5891 90.4098 77.6691 91.0898 77.6691C92.1898 77.6691 92.5397 77.5591 93.0397 77.1991C93.8597 76.5991 94.6597 75.3391 94.6597 73.0891C94.6597 69.1991 92.0797 68.0791 90.4697 68.0791C89.7897 68.0791 89.2898 68.1091 89.0198 68.1891C88.8298 68.2391 88.7698 68.3491 88.7698 68.5691V76.8991L88.7598 76.9091Z" fill="white"/>
<path d="M141.76 83.9792C142.01 85.7092 142.28 86.4992 143.1 86.7492C143.89 86.9992 144.44 87.0192 144.8 87.0192C145.05 87.0192 145.24 87.0492 145.24 87.2092C145.24 87.4292 144.91 87.5092 144.53 87.5092C143.84 87.5092 140.06 87.4292 138.97 87.3492C138.34 87.2992 138.17 87.2092 138.17 87.0492C138.17 86.9092 138.28 86.8292 138.47 86.7492C138.63 86.6992 138.72 86.3392 138.61 85.5692L136.94 73.3492L130.88 85.9592C130.25 87.2492 130.11 87.4892 129.87 87.4892C129.63 87.4892 129.35 86.9392 128.91 86.1192C128.25 84.8592 126.09 80.6692 125.76 79.8992C125.51 79.3192 123.79 75.6792 122.83 73.6192L121.38 84.7192C121.33 85.2092 121.3 85.5692 121.3 86.0092C121.3 86.5292 121.66 86.7792 122.12 86.8892C122.61 86.9992 123 87.0292 123.27 87.0292C123.49 87.0292 123.68 87.0792 123.68 87.2192C123.68 87.4692 123.43 87.5192 123.02 87.5192C121.87 87.5192 120.64 87.4392 120.14 87.4392C119.62 87.4392 118.3 87.5192 117.43 87.5192C117.16 87.5192 116.94 87.4692 116.94 87.2192C116.94 87.0792 117.1 87.0292 117.38 87.0292C117.6 87.0292 117.79 87.0292 118.2 86.9492C118.97 86.7792 119.19 85.7192 119.32 84.7792L122.03 66.9092C122.11 66.4392 122.28 66.1992 122.5 66.1992C122.72 66.1992 122.88 66.3392 123.24 67.0492L130.72 82.5092L138.17 66.8592C138.39 66.4192 138.53 66.1992 138.77 66.1992C139.01 66.1992 139.18 66.4692 139.26 67.0492L141.75 83.9892L141.76 83.9792Z" fill="white"/>
<path d="M154.97 78.5793C154.97 82.5493 155.76 84.2293 157.11 85.3193C158.34 86.3293 159.6 86.4393 160.54 86.4393C161.75 86.4393 163.23 86.0593 164.32 84.9593C165.83 83.4493 165.91 80.9892 165.91 78.1592V74.7292C165.91 70.5692 165.91 69.7993 165.86 68.9193C165.81 67.9893 165.59 67.5493 164.68 67.3593C164.46 67.3093 163.99 67.2793 163.69 67.2793C163.39 67.2793 163.22 67.2293 163.22 67.0293C163.22 66.8293 163.41 66.7793 163.8 66.7793C165.2 66.7793 166.92 66.8593 166.95 66.8593C167.28 66.8593 169.01 66.7793 170.07 66.7793C170.45 66.7793 170.65 66.8293 170.65 67.0293C170.65 67.2293 170.49 67.2793 170.16 67.2793C169.86 67.2793 169.69 67.3093 169.36 67.3593C168.62 67.4993 168.4 67.9593 168.35 68.9193C168.3 69.7993 168.3 70.5592 168.3 74.7292V77.6592C168.3 80.6992 168 83.9392 165.7 85.9092C163.75 87.5792 161.78 87.8793 160 87.8793C158.55 87.8793 155.92 87.7993 153.92 85.9893C152.52 84.7293 151.48 82.6992 151.48 78.7292V74.7292C151.48 70.5692 151.48 69.7993 151.42 68.9193C151.37 67.9893 151.15 67.5493 150.24 67.3593C150.02 67.3093 149.55 67.2793 149.17 67.2793C148.87 67.2793 148.7 67.2293 148.7 67.0293C148.7 66.8293 148.89 66.7793 149.3 66.7793C150.75 66.7793 152.48 66.8593 153.3 66.8593C153.96 66.8593 155.68 66.7793 156.67 66.7793C157.08 66.7793 157.27 66.8293 157.27 67.0293C157.27 67.2293 157.1 67.2793 156.83 67.2793C156.53 67.2793 156.36 67.3093 156.04 67.3593C155.3 67.4993 155.08 67.9593 155.03 68.9193C154.98 69.7993 154.98 70.5592 154.98 74.7292V78.5693L154.97 78.5793Z" fill="white"/>
<path d="M176.93 87.1897C176.49 86.9997 176.41 86.8597 176.41 86.2597C176.41 84.7497 176.52 83.1097 176.55 82.6697C176.58 82.2597 176.66 81.9597 176.88 81.9597C177.13 81.9597 177.15 82.2097 177.15 82.4297C177.15 82.7897 177.26 83.3597 177.4 83.8297C178 85.8597 179.62 86.5997 181.32 86.5997C183.79 86.5997 184.99 84.9297 184.99 83.4797C184.99 82.1397 184.58 80.8797 182.3 79.0997L181.04 78.1097C178.03 75.7497 176.98 73.8297 176.98 71.6097C176.98 68.5997 179.5 66.4297 183.31 66.4297C184.35 66.4297 185.17 66.5397 185.83 66.6497C186.3 66.7297 186.65 66.8097 186.95 66.8997C187.2 66.9497 187.33 67.0397 187.33 67.2297C187.33 67.5897 187.22 68.3797 187.22 70.5197C187.22 71.1197 187.14 71.3397 186.92 71.3397C186.73 71.3397 186.65 71.1797 186.65 70.8497C186.65 70.5997 186.51 69.7497 185.94 69.0397C185.53 68.5197 184.73 67.6997 182.95 67.6997C180.92 67.6997 179.69 68.8797 179.69 70.5197C179.69 71.7797 180.32 72.7397 182.6 74.4697L183.37 75.0497C186.69 77.5397 187.87 79.4297 187.87 82.0397C187.87 83.6297 187.27 85.5197 185.29 86.8097C183.92 87.6897 182.38 87.9297 180.93 87.9297C179.34 87.9297 178.11 87.7397 176.93 87.2197V87.1897Z" fill="white"/>
<path d="M197.07 74.7393C197.07 70.5793 197.07 69.8093 197.02 68.9293C196.97 67.9993 196.75 67.5593 195.84 67.3693C195.62 67.3193 195.16 67.2893 194.77 67.2893C194.47 67.2893 194.3 67.2393 194.3 67.0393C194.3 66.8393 194.49 66.7893 194.9 66.7893C196.16 66.7893 197.42 66.8693 198.85 66.8693C199.73 66.8693 205.18 66.8694 205.7 66.8394C206.22 66.7894 206.66 66.7293 206.88 66.6793C207.02 66.6493 207.18 66.5693 207.32 66.5693C207.46 66.5693 207.48 66.6793 207.48 66.8193C207.48 67.0093 207.34 67.3393 207.26 68.5993C207.23 68.8693 207.18 70.0793 207.12 70.4093C207.09 70.5493 207.04 70.7094 206.85 70.7094C206.66 70.7094 206.6 70.5493 206.6 70.2193C206.6 70.1093 206.57 69.6694 206.44 69.3394C206.25 68.8494 205.97 68.5193 204.6 68.3493C204.13 68.2993 201.26 68.2393 200.71 68.2393C200.57 68.2393 200.52 68.3193 200.52 68.5093V75.4393C200.52 75.6293 200.55 75.7393 200.71 75.7393C201.31 75.7393 204.46 75.7393 205.09 75.6893C205.75 75.6393 206.16 75.5494 206.41 75.2794C206.6 75.0594 206.71 74.9193 206.85 74.9193C206.96 74.9193 207.04 74.9693 207.04 75.1393C207.04 75.3093 206.93 75.7393 206.82 77.1393C206.79 77.6893 206.71 78.7793 206.71 78.9793C206.71 79.1993 206.71 79.4993 206.46 79.4993C206.27 79.4993 206.21 79.1993 206.21 79.0593C206.18 78.7893 206.18 78.6193 206.1 78.2693C205.96 77.7193 205.58 77.3093 204.56 77.1993C204.04 77.1493 201.33 77.1193 200.67 77.1193C200.53 77.1193 200.5 77.2293 200.5 77.3893V79.5493C200.5 80.4793 200.47 82.9993 200.5 83.7993C200.55 85.6893 200.99 86.0993 203.79 86.0993C204.5 86.0993 205.65 86.0993 206.37 85.7693C207.08 85.4393 207.41 84.8693 207.6 83.7393C207.65 83.4393 207.71 83.3293 207.9 83.3293C208.12 83.3293 208.12 83.5493 208.12 83.8193C208.12 84.4493 207.9 86.3093 207.76 86.8593C207.57 87.5693 207.32 87.5693 206.28 87.5693C203.84 87.5693 201.43 87.4093 198.69 87.4093C197.59 87.4093 196.47 87.4893 195.24 87.4893C194.88 87.4893 194.69 87.4093 194.69 87.2193C194.69 87.0793 194.8 86.9993 195.13 86.9993C195.54 86.9993 195.87 86.9493 196.12 86.8893C196.67 86.7793 196.81 86.1793 196.91 85.3793C197.05 84.2293 197.05 82.0593 197.05 79.5393V74.7193L197.07 74.7393Z" fill="white"/>
<path d="M219.79 78.5793C219.79 82.5493 220.58 84.2293 221.93 85.3193C223.16 86.3293 224.42 86.4393 225.36 86.4393C226.57 86.4393 228.05 86.0593 229.14 84.9593C230.65 83.4493 230.73 80.9892 230.73 78.1592V74.7292C230.73 70.5692 230.73 69.7993 230.68 68.9193C230.63 67.9893 230.41 67.5493 229.5 67.3593C229.28 67.3093 228.81 67.2793 228.51 67.2793C228.21 67.2793 228.04 67.2293 228.04 67.0293C228.04 66.8293 228.23 66.7793 228.62 66.7793C230.02 66.7793 231.74 66.8593 231.77 66.8593C232.1 66.8593 233.83 66.7793 234.89 66.7793C235.27 66.7793 235.47 66.8293 235.47 67.0293C235.47 67.2293 235.31 67.2793 234.98 67.2793C234.68 67.2793 234.51 67.3093 234.19 67.3593C233.45 67.4993 233.23 67.9593 233.18 68.9193C233.13 69.7993 233.13 70.5592 233.13 74.7292V77.6592C233.13 80.6992 232.83 83.9392 230.53 85.9092C228.58 87.5792 226.61 87.8793 224.83 87.8793C223.38 87.8793 220.75 87.7993 218.75 85.9893C217.35 84.7293 216.31 82.6992 216.31 78.7292V74.7292C216.31 70.5692 216.31 69.7993 216.25 68.9193C216.2 67.9893 215.98 67.5493 215.07 67.3593C214.85 67.3093 214.38 67.2793 214 67.2793C213.7 67.2793 213.53 67.2293 213.53 67.0293C213.53 66.8293 213.72 66.7793 214.13 66.7793C215.58 66.7793 217.31 66.8593 218.13 66.8593C218.79 66.8593 220.51 66.7793 221.5 66.7793C221.91 66.7793 222.1 66.8293 222.1 67.0293C222.1 67.2293 221.93 67.2793 221.66 67.2793C221.36 67.2793 221.19 67.3093 220.86 67.3593C220.12 67.4993 219.9 67.9593 219.85 68.9193C219.8 69.7993 219.8 70.5592 219.8 74.7292V78.5693L219.79 78.5793Z" fill="white"/>
<path d="M264.4 83.9792C264.65 85.7092 264.92 86.4992 265.74 86.7492C266.53 86.9992 267.08 87.0192 267.44 87.0192C267.69 87.0192 267.88 87.0492 267.88 87.2092C267.88 87.4292 267.55 87.5092 267.17 87.5092C266.48 87.5092 262.7 87.4292 261.61 87.3492C260.98 87.2992 260.82 87.2092 260.82 87.0492C260.82 86.9092 260.93 86.8292 261.12 86.7492C261.28 86.6992 261.37 86.3392 261.26 85.5692L259.59 73.3492L253.53 85.9592C252.9 87.2492 252.76 87.4892 252.52 87.4892C252.28 87.4892 252 86.9392 251.56 86.1192C250.9 84.8592 248.74 80.6692 248.41 79.8992C248.16 79.3192 246.44 75.6792 245.48 73.6192L244.03 84.7192C243.98 85.2092 243.95 85.5692 243.95 86.0092C243.95 86.5292 244.31 86.7792 244.77 86.8892C245.26 86.9992 245.65 87.0292 245.92 87.0292C246.14 87.0292 246.33 87.0792 246.33 87.2192C246.33 87.4692 246.08 87.5192 245.67 87.5192C244.52 87.5192 243.29 87.4392 242.79 87.4392C242.27 87.4392 240.95 87.5192 240.08 87.5192C239.81 87.5192 239.59 87.4692 239.59 87.2192C239.59 87.0792 239.75 87.0292 240.03 87.0292C240.25 87.0292 240.44 87.0292 240.85 86.9492C241.62 86.7792 241.84 85.7192 241.97 84.7792L244.68 66.9092C244.76 66.4392 244.93 66.1992 245.15 66.1992C245.37 66.1992 245.53 66.3392 245.89 67.0492L253.37 82.5092L260.82 66.8592C261.04 66.4192 261.18 66.1992 261.42 66.1992C261.66 66.1992 261.83 66.4692 261.91 67.0492L264.4 83.9892V83.9792Z" fill="white"/>
<path fill-rule="evenodd" clip-rule="evenodd" d="M174.92 2.85956C168.26 0.0895557 160.83 0.12957 154.2 2.99957C147.46 0.0795703 139.89 0.0795703 133.15 2.99957C126.41 0.0795703 118.84 0.0795703 112.1 2.99957C105.47 0.12957 98.0299 0.0795557 91.3699 2.85956V8.94958C97.8699 5.45958 105.58 5.50955 112.05 9.09955C112.05 9.10955 112.06 9.11959 112.07 9.13959C112.07 9.13959 112.09 9.13958 112.09 9.12958C112.09 9.12958 112.11 9.12959 112.11 9.13959C112.11 9.12959 112.12 9.11955 112.13 9.09955C118.69 5.45955 126.53 5.45955 133.1 9.09955C133.1 9.10955 133.11 9.11959 133.12 9.13959C133.12 9.13959 133.14 9.13958 133.14 9.12958C133.14 9.12958 133.16 9.12959 133.16 9.13959C133.16 9.12959 133.17 9.11955 133.18 9.09955C139.74 5.45955 147.58 5.45955 154.15 9.09955C154.15 9.10955 154.16 9.11959 154.17 9.13959C154.17 9.13959 154.19 9.13958 154.19 9.12958C154.19 9.12958 154.21 9.12959 154.21 9.13959C154.21 9.12959 154.22 9.11955 154.23 9.09955C160.7 5.50955 168.4 5.45957 174.91 8.93957V2.84955L174.92 2.85956Z" fill="white"/>
<path fill-rule="evenodd" clip-rule="evenodd" d="M174.92 17.1691C168.26 14.3991 160.83 14.4391 154.2 17.3091C147.46 14.3891 139.89 14.3891 133.15 17.3091C126.41 14.3891 118.84 14.3891 112.1 17.3091C105.47 14.4391 98.0299 14.3891 91.3699 17.1691V23.2592C97.8699 19.7692 105.58 19.8191 112.05 23.4091C112.05 23.4191 112.06 23.4292 112.07 23.4492C112.07 23.4492 112.09 23.4491 112.09 23.4391C112.09 23.4391 112.11 23.4392 112.11 23.4492C112.11 23.4392 112.12 23.4291 112.13 23.4091C118.69 19.7691 126.53 19.7691 133.1 23.4091C133.1 23.4191 133.11 23.4292 133.12 23.4492C133.12 23.4492 133.14 23.4491 133.14 23.4391C133.14 23.4391 133.16 23.4392 133.16 23.4492C133.16 23.4392 133.17 23.4291 133.18 23.4091C139.74 19.7691 147.58 19.7691 154.15 23.4091C154.15 23.4191 154.16 23.4292 154.17 23.4492C154.17 23.4492 154.19 23.4491 154.19 23.4391C154.19 23.4391 154.21 23.4392 154.21 23.4492C154.21 23.4392 154.22 23.4291 154.23 23.4091C160.7 19.8191 168.4 19.7691 174.91 23.2491V17.1591L174.92 17.1691Z" fill="white"/>
<path fill-rule="evenodd" clip-rule="evenodd" d="M174.92 31.4797C168.26 28.7097 160.83 28.7497 154.2 31.6197C147.46 28.6997 139.89 28.6997 133.15 31.6197C126.41 28.6997 118.84 28.6997 112.1 31.6197C105.47 28.7497 98.0299 28.6997 91.3699 31.4797V37.5697C97.8699 34.0797 105.58 34.1297 112.05 37.7197C112.05 37.7297 112.06 37.7397 112.07 37.7597C112.07 37.7597 112.09 37.7597 112.09 37.7497C112.09 37.7497 112.11 37.7497 112.11 37.7597C112.11 37.7497 112.12 37.7397 112.13 37.7197C118.69 34.0797 126.53 34.0797 133.1 37.7197C133.1 37.7297 133.11 37.7397 133.12 37.7597C133.12 37.7597 133.14 37.7597 133.14 37.7497C133.14 37.7497 133.16 37.7497 133.16 37.7597C133.16 37.7497 133.17 37.7397 133.18 37.7197C139.74 34.0797 147.58 34.0797 154.15 37.7197C154.15 37.7297 154.16 37.7397 154.17 37.7597C154.17 37.7597 154.19 37.7597 154.19 37.7497C154.19 37.7497 154.21 37.7497 154.21 37.7597C154.21 37.7497 154.22 37.7397 154.23 37.7197C160.7 34.1297 168.4 34.0797 174.91 37.5597V31.4697L174.92 31.4797Z" fill="white"/>
<path fill-rule="evenodd" clip-rule="evenodd" d="M174.92 45.7892C168.26 43.0192 160.83 43.0593 154.2 45.9293C147.46 43.0093 139.89 43.0093 133.15 45.9293C126.41 43.0093 118.84 43.0093 112.1 45.9293C105.47 43.0593 98.0299 43.0092 91.3699 45.7892V51.8793C97.8699 48.3893 105.58 48.4393 112.05 52.0293C112.05 52.0393 112.06 52.0493 112.07 52.0693C112.07 52.0693 112.09 52.0693 112.09 52.0593C112.09 52.0593 112.11 52.0593 112.11 52.0693C112.11 52.0593 112.12 52.0493 112.13 52.0293C118.69 48.3893 126.53 48.3893 133.1 52.0293C133.1 52.0393 133.11 52.0493 133.12 52.0693C133.12 52.0693 133.14 52.0693 133.14 52.0593C133.14 52.0593 133.16 52.0593 133.16 52.0693C133.16 52.0593 133.17 52.0493 133.18 52.0293C139.74 48.3893 147.58 48.3893 154.15 52.0293C154.15 52.0393 154.16 52.0493 154.17 52.0693C154.17 52.0693 154.19 52.0693 154.19 52.0593C154.19 52.0593 154.21 52.0593 154.21 52.0693C154.21 52.0593 154.22 52.0493 154.23 52.0293C160.7 48.4393 168.4 48.3893 174.91 51.8693V45.7793L174.92 45.7892Z" fill="white"/>
</svg>
