<svg width="46" height="46" viewBox="0 0 46 46" fill="none" xmlns="http://www.w3.org/2000/svg">
<path d="M7.61011 37.51H32.7401C32.7401 34.7 32.7401 31.95 32.7401 29.2C32.7401 28.65 32.69 28.08 32.77 27.54C32.91 26.47 33.59 25.64 34.63 25.9C35.29 26.06 36.23 26.97 36.26 27.57C36.41 31.5 36.3801 35.44 36.3101 39.38C36.2801 40.79 35.2101 41.1 33.9501 41.09C25.9701 41.07 17.98 41.08 10 41.08C8.67 41.08 7.34001 41.08 6.01001 41.08C4.62001 41.08 4 40.39 4 39.03C4 29.66 4 20.29 4 10.92C4 9.36998 4.82004 8.72998 6.29004 8.72998C9.51004 8.72998 12.7201 8.72998 15.9401 8.72998C17.1901 8.72998 18.2001 9.13998 18.1901 10.57C18.1801 12.03 17.13 12.34 15.89 12.34C13.18 12.33 10.47 12.34 7.63 12.34V37.53L7.61011 37.51Z" fill="white"/>
<path d="M22.9502 26.88C21.3802 25.33 19.7402 23.7 18.2202 22.19C22.5102 17.9 32.1302 8.29 36.4202 4C37.8702 5.48 39.5302 7.17 41.0802 8.75C36.8902 12.94 27.2902 22.55 22.9602 26.88H22.9502Z" fill="white"/>
<path d="M14.6401 30.44C15.5401 27.72 16.3402 25.34 17.1202 22.98C18.7702 24.67 20.3701 26.3 22.0101 27.98C19.7701 28.73 17.3901 29.53 14.6401 30.44Z" fill="white"/>
</svg>
