<?xml version="1.0" encoding="utf-8"?>
<!-- Generator: Adobe Illustrator 27.0.0, SVG Export Plug-In . SVG Version: 6.00 Build 0)  -->
<svg version="1.1" id="圖層_1" xmlns="http://www.w3.org/2000/svg" xmlns:xlink="http://www.w3.org/1999/xlink" x="0px" y="0px"
	 viewBox="0 0 320 151" style="enable-background:new 0 0 320 151;" xml:space="preserve">
<style type="text/css">
	.st0{fill:#FFFFFF;}
	.st1{fill-rule:evenodd;clip-rule:evenodd;fill:#FFFFFF;}
</style>
<path class="st0" d="M47,25.1c0.2,0,0.5-0.1,0.5-0.5V23c0-11.5,0-13.6-0.1-16.1c-0.2-2.6-0.8-3.8-3.3-4.3c-0.6-0.1-1.9-0.2-2.9-0.2
	c-0.8,0-1.3-0.1-1.3-0.7s0.5-0.7,1.6-0.7c4.1,0,8.9,0.2,10.9,0.2c1.8,0,6.6-0.2,9.5-0.2c1.1,0,1.6,0.1,1.6,0.7S63,2.4,62.1,2.4
	c-0.6,0-1.3,0.1-2.2,0.2c-2,0.4-2.6,1.7-2.8,4.3c-0.1,2.4-0.1,4.5-0.1,16.1v13.3c0,7,0,12.9,0.4,16.2c0.2,2.1,0.7,3.8,3,4.1
	c1.1,0.1,2.7,0.3,3.9,0.3c0.8,0,1.2,0.2,1.2,0.6c0,0.5-0.6,0.8-1.5,0.8c-4.9,0-9.7-0.2-11.8-0.2c-1.7,0-6.5,0.2-9.5,0.2
	c-1.1,0-1.6-0.2-1.6-0.8c0-0.4,0.3-0.6,1.2-0.6c1.1,0,2-0.2,2.7-0.3c1.5-0.3,1.9-2,2.2-4.2c0.4-3.2,0.4-9.2,0.4-16.1v-6.7
	c0-0.3-0.2-0.5-0.5-0.5H18.1c-0.2,0-0.4,0.1-0.4,0.5v6.7c0,7,0,13,0.4,16.2c0.2,2.1,0.7,3.8,3,4.1c1.1,0.2,2.7,0.3,3.9,0.3
	c0.8,0,1.2,0.2,1.2,0.6c0,0.5-0.6,0.8-1.5,0.8c-4.9,0-9.7-0.2-11.8-0.2c-1.7,0-6.5,0.2-9.5,0.2c-1,0-1.5-0.2-1.5-0.8
	c0-0.4,0.3-0.6,1.2-0.6c1.1,0,2-0.1,2.7-0.3c1.5-0.3,1.9-2,2.2-4.2c0.4-3.2,0.4-9.2,0.4-16.1V23C8.2,11.5,8.2,9.4,8,7
	C7.9,4.4,7.2,3.2,4.7,2.7c-0.6-0.1-1.9-0.2-3-0.2C1,2.4,0.5,2.3,0.5,1.8S1,1.1,2.1,1.1C6.2,1.1,11,1.3,13,1.3c1.8,0,6.6-0.2,9.5-0.2
	c1.1,0,1.6,0.1,1.6,0.7s-0.4,0.7-1.4,0.7c-0.6,0-1.3,0.1-2.2,0.2c-2,0.4-2.6,1.7-2.8,4.3c-0.1,2.4-0.1,4.5-0.1,16.1v1.6
	c0,0.4,0.2,0.5,0.4,0.5L47,25.1L47,25.1z"/>
<path class="st0" d="M73.5,29.7C73.5,16.7,82,0,104.8,0c18.9,0,30.6,11,30.6,28.3s-12.1,31-31.3,31C82.3,59.4,73.5,43.1,73.5,29.7
	L73.5,29.7z M124.8,31.1c0-17-9.8-27.5-22.2-27.5c-8.7,0-18.6,4.8-18.6,23.7c0,15.7,8.7,28.2,23.3,28.2
	C112.5,55.6,124.8,53,124.8,31.1z"/>
<path class="st0" d="M161.4,5.3l-11.3,0.3c-4.4,0.2-6.2,0.5-7.4,2.2c-0.8,1.1-1.1,2-1.3,2.6c-0.2,0.6-0.4,0.9-0.8,0.9
	c-0.5,0-0.7-0.4-0.7-1.2c0-1.2,1.4-8.1,1.6-8.7c0.2-1,0.4-1.4,0.9-1.4c0.6,0,1.4,0.8,3.3,0.9c2.2,0.2,5.1,0.4,7.6,0.4h30
	c2.4,0,4.1-0.2,5.2-0.4c1.1-0.2,1.7-0.4,2-0.4c0.5,0,0.6,0.5,0.6,1.6c0,1.6-0.2,6.8-0.2,8.8c-0.1,0.8-0.2,1.2-0.7,1.2
	c-0.6,0-0.8-0.4-0.8-1.5l-0.1-0.8c-0.1-2-2.2-4.1-8.9-4.2l-9.5-0.2v31c0,7,0,13,0.4,16.2c0.2,2.1,0.7,3.8,3,4.1
	c1.1,0.1,2.7,0.3,3.9,0.3c0.8,0,1.2,0.2,1.2,0.6c0,0.5-0.6,0.8-1.4,0.8c-5,0-9.8-0.2-11.9-0.2c-1.7,0-6.5,0.2-9.5,0.2
	c-1,0-1.5-0.2-1.5-0.8c0-0.4,0.3-0.6,1.2-0.6c1.1,0,2-0.2,2.7-0.3c1.5-0.3,2-2,2.2-4.2c0.4-3.2,0.4-9.2,0.4-16.1L161.4,5.3
	L161.4,5.3z"/>
<path class="st0" d="M4,148.2c-1.2-0.5-1.4-0.9-1.4-2.6c0-4.2,0.3-8.7,0.4-9.9c0.1-1.1,0.3-2,0.9-2c0.7,0,0.8,0.7,0.8,1.3
	c0,1,0.3,2.6,0.7,3.9c1.7,5.6,6.1,7.7,10.8,7.7c6.8,0,10.1-4.6,10.1-8.6c0-3.7-1.1-7.2-7.4-12.1l-3.5-2.7
	c-8.3-6.5-11.2-11.8-11.2-18c0-8.3,7-14.3,17.5-14.3c4.9,0,8.1,0.8,10.1,1.3c0.7,0.2,1.1,0.4,1.1,0.9c0,1-0.3,3.2-0.3,9.1
	c0,1.7-0.2,2.3-0.8,2.3c-0.5,0-0.8-0.4-0.8-1.4c0-0.7-0.4-3-2-5c-1.1-1.4-3.3-3.7-8.2-3.7c-5.6,0-9,3.3-9,7.8c0,3.5,1.7,6.1,8,10.9
	l2.1,1.6c9.2,6.9,12.4,12.1,12.4,19.3c0,4.4-1.7,9.6-7.1,13.2c-3.8,2.4-8,3.1-12,3.1C10.7,150.2,7.2,149.6,4,148.2L4,148.2z"/>
<path class="st0" d="M53,113.8c0-11.5,0-13.6-0.1-16.1c-0.2-2.6-0.8-3.8-3.3-4.3c-0.6-0.2-1.9-0.2-3-0.2c-0.8,0-1.3-0.2-1.3-0.7
	s0.5-0.7,1.7-0.7c4,0,8.8,0.2,10.9,0.2c3.1,0,7.5-0.2,11-0.2c9.5,0,12.9,3.2,14.1,4.3c1.7,1.6,3.8,5,3.8,9
	c0,10.8-7.9,18.3-18.6,18.3c-0.4,0-1.2,0-1.6-0.1s-0.9-0.2-0.9-0.7c0-0.6,0.5-0.8,2.1-0.8c4.2,0,10.2-4.8,10.2-12.5
	c0-2.5-0.2-7.6-4.5-11.4c-2.7-2.5-5.8-3-7.6-3c-1.1,0-2.3,0.1-3,0.3c-0.4,0.1-0.6,0.6-0.6,1.4v30.3c0,7,0,13,0.4,16.2
	c0.2,2.1,0.7,3.8,2.9,4.1c1.1,0.2,2.7,0.3,3.9,0.3c0.8,0,1.2,0.2,1.2,0.6c0,0.5-0.6,0.8-1.4,0.8c-5,0-9.8-0.2-11.7-0.2
	c-1.7,0-6.5,0.2-9.5,0.2c-1,0-1.5-0.2-1.5-0.8c0-0.4,0.3-0.6,1.2-0.6c1.1,0,2-0.1,2.7-0.3c1.5-0.3,1.9-2,2.2-4.2
	c0.4-3.2,0.4-9.2,0.4-16.1L53,113.8L53,113.8z"/>
<path class="st0" d="M103.3,113.8c0-11.5,0-13.6-0.2-16.1c-0.2-2.6-0.8-3.8-3.3-4.3c-0.6-0.2-1.9-0.2-2.9-0.2
	c-0.8,0-1.3-0.2-1.3-0.7s0.5-0.7,1.7-0.7c4,0,8.8,0.2,10.4,0.2c2.6,0,8.3-0.2,10.7-0.2c4.8,0,9.8,0.5,13.9,3.3
	c2.1,1.4,5.2,5.3,5.2,10.4c0,5.6-2.4,10.8-10,17c6.7,8.5,12,15.2,16.4,19.9c4.2,4.4,7.4,4.9,8.5,5.1c0.8,0.2,1.5,0.2,2.1,0.2
	s0.9,0.2,0.9,0.6c0,0.6-0.5,0.8-1.4,0.8h-7.2c-4.2,0-6.1-0.4-8.1-1.4c-3.3-1.7-6.1-5.3-10.4-11.1c-3-4.2-6.5-9.3-7.5-10.4
	c-0.4-0.4-0.8-0.5-1.4-0.5l-6.6-0.1c-0.4,0-0.6,0.1-0.6,0.6v1.1c0,7,0,13,0.4,16.2c0.2,2.2,0.7,3.9,2.9,4.2c1.1,0.1,2.8,0.3,3.7,0.3
	c0.6,0,0.9,0.2,0.9,0.6c0,0.5-0.5,0.8-1.5,0.8c-4.4,0-10-0.2-11.1-0.2c-1.4,0-6.2,0.2-9.2,0.2c-1,0-1.5-0.2-1.5-0.8
	c0-0.4,0.3-0.6,1.2-0.6c1.1,0,2-0.1,2.7-0.3c1.5-0.3,1.9-2,2.2-4.2c0.4-3.2,0.4-9.2,0.4-16.1L103.3,113.8L103.3,113.8z M112.3,119.8
	c0,0.8,0.2,1.1,0.7,1.4c1.6,0.5,3.9,0.8,5.8,0.8c3,0,4-0.3,5.4-1.3c2.3-1.7,4.5-5.2,4.5-11.4c0-10.8-7.1-13.9-11.6-13.9
	c-1.9,0-3.3,0.1-4,0.3c-0.5,0.2-0.7,0.5-0.7,1.1L112.3,119.8L112.3,119.8z"/>
<path class="st0" d="M161.3,113.8c0-11.5,0-13.6-0.1-16.1c-0.1-2.6-0.9-3.9-2.6-4.2c-0.8-0.2-1.8-0.3-2.7-0.3
	c-0.8,0-1.2-0.2-1.2-0.8c0-0.4,0.6-0.6,1.8-0.6c2.9,0,7.6,0.2,9.8,0.2c1.9,0,6.4-0.2,9.2-0.2c1,0,1.6,0.2,1.6,0.6
	c0,0.6-0.4,0.8-1.2,0.8c-0.8,0-1.4,0.1-2.3,0.2c-2.1,0.4-2.7,1.7-2.8,4.3c-0.2,2.4-0.2,4.5-0.2,16.1v13.3c0,7.4,0,13.3,0.3,16.6
	c0.2,2,0.8,3.4,3,3.7c1.1,0.2,2.7,0.3,3.9,0.3c0.8,0,1.2,0.2,1.2,0.6c0,0.5-0.6,0.8-1.4,0.8c-5,0-9.8-0.2-11.8-0.2
	c-1.7,0-6.5,0.2-9.5,0.2c-1,0-1.5-0.2-1.5-0.8c0-0.4,0.3-0.6,1.2-0.6c1.1,0,2-0.1,2.7-0.3c1.5-0.3,2-1.6,2.2-3.8
	c0.4-3.2,0.4-9.2,0.4-16.5L161.3,113.8L161.3,113.8z"/>
<path class="st0" d="M200.5,138.8c0.2,5.9,1.1,7.9,2.7,8.4c1.3,0.4,2.7,0.5,3.9,0.5c0.8,0,1.3,0.2,1.3,0.6c0,0.6-0.7,0.8-1.7,0.8
	c-4.9,0-7.9-0.2-9.4-0.2c-0.7,0-4.2,0.2-8.2,0.2c-1,0-1.7-0.1-1.7-0.8c0-0.4,0.4-0.6,1.2-0.6c1,0,2.4-0.1,3.4-0.4
	c2-0.6,2.3-2.8,2.4-9.4l0.7-44.8c0-1.5,0.2-2.6,1-2.6c0.8,0,1.5,1,2.8,2.4c0.9,1,12.4,13.3,23.5,24.3c5.2,5.2,15.4,16.1,16.7,17.3
	h0.4l-0.8-34c-0.1-4.6-0.8-6.1-2.6-6.8c-1.1-0.4-2.9-0.4-4-0.4c-0.9,0-1.2-0.2-1.2-0.7c0-0.6,0.8-0.7,2-0.7c3.9,0,7.6,0.2,9.2,0.2
	c0.8,0,3.7-0.2,7.4-0.2c1,0,1.7,0.1,1.7,0.7c0,0.4-0.5,0.7-1.4,0.7c-0.8,0-1.4,0-2.3,0.2c-2.1,0.6-2.7,2.2-2.8,6.4l-0.8,47.8
	c0,1.7-0.3,2.4-1,2.4c-0.8,0-1.7-0.8-2.6-1.7c-4.8-4.5-14.5-14.5-22.3-22.3c-8.2-8.2-16.7-17.6-18-19.1h-0.2L200.5,138.8
	L200.5,138.8z"/>
<path class="st0" d="M313.9,144c0,2.1-0.1,2.2-1,2.7c-4.9,2.6-12.3,3.4-18.2,3.4c-18.5,0-35-8.8-35-29.7c0-12.1,6.3-20.6,13.2-24.8
	c7.3-4.4,14-4.9,20.4-4.9c5.2,0,11.9,0.9,13.4,1.2c1.6,0.3,4.2,0.8,6,0.8c0.9,0.1,1.1,0.4,1.1,0.9c0,0.8-0.5,3-0.5,12.4
	c0,1.2-0.2,1.6-0.8,1.6c-0.5,0-0.7-0.4-0.8-1c-0.2-1.7-0.6-4.2-2.6-6.3c-2.3-2.4-8.3-5.9-16.9-5.9c-4.2,0-9.7,0.3-15,4.7
	c-4.2,3.6-7,9.2-7,18.6c0,16.3,10.4,28.5,26.3,28.5c2,0,4.6,0,6.4-0.8c1.1-0.5,1.4-1.5,1.4-2.8v-7.1c0-3.8,0-6.7-0.1-8.9
	c-0.1-2.6-0.8-3.8-3.3-4.3c-0.6-0.2-1.9-0.2-3-0.2c-0.7,0-1.1-0.2-1.1-0.6c0-0.6,0.5-0.8,1.6-0.8c3.9,0,8.7,0.2,11,0.2
	c2.3,0,6.4-0.2,8.9-0.2c1,0,1.5,0.2,1.5,0.8c0,0.4-0.5,0.6-1,0.6c-0.6,0-1.1,0.1-2,0.2c-2,0.4-2.8,1.7-2.9,4.3
	c-0.1,2.3-0.1,5.3-0.1,9.1L313.9,144L313.9,144z"/>
<path class="st1" d="M317,4.5c-7.4-3.1-15.6-3-23,0.2c-7.5-3.2-15.9-3.2-23.4,0c-7.5-3.2-15.9-3.2-23.4,0c-7.4-3.2-15.6-3.2-23-0.1
	v6.8c7.2-3.9,15.8-3.8,23,0.2c0,0,0,0,0,0c0,0,0,0,0,0c0,0,0,0,0,0l0,0c7.3-4.1,16-4.1,23.3,0l0,0c0,0,0,0,0,0c0,0,0,0,0,0
	c0,0,0,0,0,0c7.3-4.1,16-4.1,23.3,0c0,0,0,0,0,0c0,0,0,0,0,0c0,0,0,0,0,0l0,0c7.2-4,15.7-4,22.9-0.2V4.5z"/>
<path class="st1" d="M317,20.4c-7.4-3.1-15.6-3-23,0.2c-7.5-3.2-15.9-3.2-23.4,0c-7.5-3.2-15.9-3.2-23.4,0c-7.4-3.2-15.6-3.2-23-0.2
	v6.8c7.2-3.9,15.8-3.8,23,0.2c0,0,0,0,0,0c0,0,0,0,0,0c0,0,0,0,0,0l0,0c7.3-4,16-4,23.3,0l0,0c0,0,0,0,0,0c0,0,0,0,0,0c0,0,0,0,0,0
	c7.3-4,16-4,23.3,0c0,0,0,0,0,0c0,0,0,0,0,0c0,0,0,0,0,0l0,0c7.2-4,15.7-4,22.9-0.2V20.4z"/>
<path class="st1" d="M317,36.3c-7.4-3.1-15.6-3-23,0.2c-7.5-3.2-15.9-3.2-23.4,0c-7.5-3.2-15.9-3.2-23.4,0c-7.4-3.2-15.6-3.2-23-0.2
	v6.8c7.2-3.9,15.8-3.8,23,0.2c0,0,0,0,0,0c0,0,0,0,0,0c0,0,0,0,0,0l0,0c7.3-4,16-4,23.3,0l0,0c0,0,0,0,0,0c0,0,0,0,0,0c0,0,0,0,0,0
	c7.3-4,16-4,23.3,0c0,0,0,0,0,0c0,0,0,0,0,0c0,0,0,0,0,0l0,0c7.2-4,15.7-4,22.9-0.2V36.3z"/>
<path class="st1" d="M317,52.2c-7.4-3.1-15.6-3-23,0.2c-7.5-3.2-15.9-3.2-23.4,0c-7.5-3.2-15.9-3.2-23.4,0c-7.4-3.2-15.6-3.2-23-0.1
	V59c7.2-3.9,15.8-3.8,23,0.2c0,0,0,0,0,0c0,0,0,0,0,0c0,0,0,0,0,0l0,0c7.3-4.1,16-4.1,23.3,0l0,0c0,0,0,0,0,0c0,0,0,0,0,0
	c0,0,0,0,0,0c7.3-4.1,16-4.1,23.3,0c0,0,0,0,0,0c0,0,0,0,0,0c0,0,0,0,0,0l0,0c7.2-4,15.7-4,22.9-0.2V52.2z"/>
</svg>
