<svg width="75" height="14" viewBox="0 0 75 14" fill="none" xmlns="http://www.w3.org/2000/svg">
<g clip-path="url(#clip0_3_171)">
<path d="M1.51 2.87C1.51 4.12 1.27 5.63 0.7 6.53C0.18 6.22 0.1 6.18 0 6.14C0.5 5.37 0.73 3.94 0.76 2.76L1.52 2.87H1.51ZM2.06 0L3.25 0.08C3.24 0.18 3.17 0.25 2.98 0.26V13H2.06V0ZM4.22 4.54C4.02 4.01 3.59 3.12 3.21 2.48L3.85 2.16C4.26 2.79 4.7 3.62 4.89 4.14L4.22 4.55V4.54ZM9.14 4.72H13.05V5.52H4.37V4.72H8.15V3.7H5.42V2.97H8.15V2.02H4.86V1.26H8.15V0L9.41 0.08C9.4 0.18 9.33 0.25 9.13 0.28V1.26H12.55V2.02H9.13V2.97H11.97V3.7H9.13V4.72H9.14ZM11.79 6.46V12.02C11.79 12.93 11.43 13.03 9.48 13.03C9.44 12.79 9.31 12.46 9.18 12.22C9.57 12.23 9.94 12.25 10.2 12.25C10.77 12.25 10.84 12.25 10.84 12.03V10.78H6.48V13.01H5.57V6.46H11.78H11.79ZM10.85 7.23H6.48V8.28H10.84V7.23H10.85ZM6.49 10.06H10.85V9H6.48V10.06H6.49Z" fill="white"/>
<path d="M18.2001 8.74L19.8801 8.14C19.9201 8.32 19.9601 8.52 20.0501 8.97C18.5601 9.57 17.0101 10.19 16.0201 10.57C16.0101 10.68 15.9401 10.77 15.8501 10.79L15.3701 9.73C15.9001 9.56 16.5801 9.32 17.3001 9.07V4.38H15.6001V3.48H17.3001V0.14L18.4801 0.22C18.4701 0.32 18.3801 0.37 18.2001 0.4V3.49H19.7101V3.76H22.1801C22.0801 3.31 21.8401 2.68 21.5601 2.19L22.3601 1.99C22.6801 2.47 22.9501 3.15 23.0301 3.6C22.7201 3.67 22.5401 3.73 22.4301 3.75H25.4801L25.1201 3.62C25.3701 3.16 25.6801 2.46 25.8501 1.97H20.2201V1.19H23.6201V0L24.8201 0.07C24.8101 0.17 24.7401 0.24 24.5401 0.27V1.19H28.1701V1.97H26.0501L26.9501 2.24C26.9201 2.32 26.8301 2.37 26.6701 2.37C26.4701 2.76 26.1801 3.34 25.9301 3.76H28.5101V4.57H19.7101V4.39H18.2001V8.75V8.74ZM23.3501 9.72C23.3201 9.8 23.2401 9.87 23.0801 9.9C22.6901 11.37 21.8901 12.46 19.3401 13.07C19.2401 12.85 18.9901 12.45 18.7901 12.27C21.1301 11.82 21.9001 10.97 22.1901 9.59L23.3401 9.72H23.3501ZM25.7001 11.75C25.7001 12.04 25.7701 12.1 26.1201 12.1H27.3401C27.6801 12.1 27.7501 11.93 27.7901 10.63C27.9701 10.78 28.3401 10.92 28.5901 10.98C28.4901 12.55 28.2501 12.93 27.4601 12.93H26.0201C25.0501 12.93 24.8101 12.68 24.8101 11.77V9.5H20.7301V5.34H27.5901V9.5H25.7001V11.76V11.75ZM21.6201 6.01V7.09H26.6601V6.01H21.6201ZM21.6201 7.73V8.84H26.6601V7.73H21.6201Z" fill="white"/>
<path d="M34.5101 7.3698C34.4701 7.4698 34.3701 7.5098 34.2001 7.5098C33.5401 9.1098 32.4801 10.7598 31.3801 11.7998C31.2001 11.6298 30.8301 11.3798 30.6001 11.2398C31.6601 10.2898 32.7201 8.6498 33.3201 6.9998L34.5101 7.3798V7.3698ZM43.6101 5.5198H37.8201V11.7998C37.8201 12.4298 37.6701 12.7098 37.2001 12.8598C36.7201 12.9998 35.9101 13.0098 34.6601 13.0098C34.6001 12.7398 34.4601 12.3398 34.3101 12.0698C34.9001 12.0798 35.4601 12.0998 35.8801 12.0998C36.7901 12.0998 36.8501 12.0998 36.8501 11.7898V5.5198H31.1101V4.5998H43.6101V5.5198ZM42.3601 1.0498V1.9698H32.3901V1.0498H42.3601ZM42.9101 11.7398C42.5201 10.5498 41.4301 8.6998 40.3601 7.3398L41.2301 6.9598C42.2901 8.2898 43.4301 10.0998 43.8601 11.2998L42.9101 11.7298V11.7398Z" fill="white"/>
<path d="M49.2098 10.18C48.7998 11.19 48.1698 12.14 47.0498 12.69L46.3198 12.17C47.3698 11.68 48.0598 10.8 48.4098 9.89L49.2098 10.18ZM59.0998 3.78V4.55H46.4098V3.78H50.1598C50.0298 3.32 49.7798 2.73 49.4998 2.27L50.2798 2.03H47.2798V1.26H52.2498V0L53.4698 0.07C53.4598 0.17 53.3698 0.24 53.1898 0.27V1.26H58.2198V2.03H55.5598L56.2498 2.25C56.2098 2.33 56.1098 2.38 55.9698 2.38C55.7898 2.77 55.4798 3.33 55.2098 3.78H59.0898H59.0998ZM56.9798 5.25V9.17H51.9698C52.8098 9.48 53.7198 9.95 54.2298 10.36C53.7698 10.84 53.7098 10.92 53.6598 10.99C53.1098 10.54 51.9898 9.95 51.0698 9.62L51.4898 9.17H48.5498V5.25H56.9998H56.9798ZM56.0398 6.87V5.93H49.4398V6.87H56.0398ZM56.0398 8.48V7.53H49.4398V8.48H56.0398ZM50.9398 11.74C50.9398 12.06 51.0498 12.12 51.7398 12.12H54.1398C54.6998 12.12 54.7998 11.94 54.8498 10.64C55.0598 10.78 55.4098 10.91 55.6598 10.95C55.5598 12.53 55.2798 12.88 54.2198 12.88H51.6698C50.3698 12.88 50.0198 12.67 50.0198 11.75V10.05L51.2098 10.13C51.1998 10.21 51.1298 10.28 50.9398 10.31V11.74ZM54.3198 3.76C54.5698 3.28 54.9098 2.56 55.0998 2.02H50.3398C50.6598 2.54 50.9698 3.24 51.0798 3.7L50.8698 3.77H54.3198V3.76ZM58.4398 12.64C57.9098 11.93 56.7598 10.93 55.7198 10.27L56.4298 9.78C57.4398 10.4 58.6198 11.36 59.1598 12.09L58.4298 12.64H58.4398Z" fill="white"/>
<path d="M62.2598 0.599609H74.0798V12.9996H73.1698V12.4396H63.1398V12.9996H62.2598V0.599609ZM63.1398 11.6096H73.1698V1.40961H63.1398V11.6096ZM68.5198 5.02961H72.4798V5.64961H63.8498V5.02961H67.6898V4.32961H65.3198V2.12961H70.9598V4.32961H68.5098V5.02961H68.5198ZM64.8598 10.7996V6.28961H71.4298V10.7996H64.8598ZM65.6298 6.91961V10.1696H70.6198V6.91961H65.6298ZM66.1198 2.72961V3.73961H70.1398V2.72961H66.1198ZM66.6098 9.51961V7.55961H69.6498V9.51961H66.6098ZM67.2298 8.08961V8.98961H69.0098V8.08961H67.2298Z" fill="white"/>
</g>
<defs>
<clipPath id="clip0_3_171">
<rect width="74.08" height="13.07" fill="white"/>
</clipPath>
</defs>
</svg>
