<?xml version="1.0" encoding="utf-8"?>
<!-- Generator: Adobe Illustrator 27.0.0, SVG Export Plug-In . SVG Version: 6.00 Build 0)  -->
<svg version="1.1" id="圖層_1" xmlns="http://www.w3.org/2000/svg" xmlns:xlink="http://www.w3.org/1999/xlink" x="0px" y="0px"
	 viewBox="0 0 417 44" style="enable-background:new 0 0 417 44;" xml:space="preserve">
<style type="text/css">
	.st0{fill:#FFFFFF;}
</style>
<path class="st0" d="M23.9,2.9v1.4c1.7,2.2,4.4,4.5,8.1,6.6c3.7,2.2,7.6,3.8,11.7,5l0,0.5c-1,0.2-1.8,0.7-2.6,1.5
	c-0.7,0.8-1.2,1.6-1.5,2.6c-3.7-2-7-4.4-10.1-7.2c-3-2.8-5.3-5.8-6.9-8.9c-2.3,3.7-5.4,7.1-9.4,10.3c-3.9,3.1-8.2,5.7-12.9,7.6
	L0,21.6c3.7-2.2,7-4.9,10.1-8.1c3.1-3.1,5.4-6.3,7-9.4H8.5L8.1,2.9L23.9,2.9L23.9,2.9z M42.2,40.2v1.3H2.4l-0.3-1.3h17.2v-9.9H7
	L6.6,29h12.6v-8.7H8.6L8.2,19h27.1v1.3H23.8V29h14.4v1.3H23.8v9.9H42.2L42.2,40.2z"/>
<path class="st0" d="M51.6,13.5l-0.3-1.3h4.4V3l3.3,0.5v8.7h3v-12l3.5,0.5v5.1h7.3v1.3h-7.3v5H75v1.3L51.6,13.5L51.6,13.5z
	 M68.7,15.1l3.4,0.5v24.8c0,0.2-0.3,0.5-1,0.7c-0.6,0.3-1.2,0.4-1.8,0.4h-0.6v-2.2h-16V15.6h3.3V38h12.6V15.1z M62.1,36.9l-0.7-0.5
	c0.3-0.5,0.6-1.1,0.8-1.5c-0.5,0.3-1,0.3-1.6-0.2c0-0.7-0.3-1.4-0.8-2.3c-0.7,1.8-1.6,3.2-2.6,4.3l-0.7-0.4c1.1-2.5,1.8-5.5,2-9
	l2.5,0.7c-0.4,2.1-0.7,3.2-0.7,3.4c1.5,0.7,2.4,1.5,2.5,2.3c0.7-2,1.2-4.2,1.3-6.4l2.4,0.7c-0.3,2-0.6,3.1-0.7,3.5
	c1.9,1,2.8,2.1,2.8,3.4c0,0.7-0.3,1.1-0.9,1.2c-0.4,0.1-0.8,0-1.2-0.4c-0.2-1-0.6-2-1.2-3.1C64.2,34.5,63.2,35.9,62.1,36.9
	L62.1,36.9z M64,15l2.6,0.7c-0.2,1.7-0.5,2.9-0.8,3.6c1.8,1,2.7,2,2.6,3.2c0,0.6-0.3,1-0.9,1.1c-0.4,0.1-0.7-0.1-1.1-0.4
	c-0.1-0.8-0.5-1.8-1.1-2.8c-0.8,1.7-1.8,3.1-3.1,4.1L61.4,24c0.5-1,0.8-1.6,0.9-1.8c-0.2,0.3-0.4,0.5-0.8,0.5c-0.3,0-0.6-0.1-1-0.4
	c-0.1-0.6-0.3-1.3-0.7-2c-0.7,1.7-1.6,3.1-2.7,4.1l-0.7-0.4c1.2-2.5,1.9-5.5,2.1-9.1l2.5,0.7c-0.3,1.8-0.5,3-0.7,3.5
	c1.7,0.8,2.4,1.7,2.2,2.7C63.4,19.9,63.8,17.6,64,15L64,15z M68,25.2v1.3H57.1l-0.4-1.3H68L68,25.2z M80.7,0.5L86.5,2
	c-0.2,0.6-0.7,0.9-1.8,1c0.8,2.6,2.1,5.1,3.9,7.4c1.8,2.3,3.7,4.2,5.9,5.7l-0.1,0.6c-1.8,0.6-2.8,1.7-3.1,3.1
	c-3.2-3.5-5.6-8.5-7.2-15.1c-1.6,4.6-3.7,8.4-6.5,11.5H89v1.3H78l-0.4-1.3c-1.4,1.6-2.9,2.9-4.4,3.9l-0.5-0.5
	c2.1-2.5,3.8-5.5,5.2-9.1C79.4,7.1,80.3,3.7,80.7,0.5L80.7,0.5z M86.7,23.4h4.6v2.2c-2,3.6-4.4,6.8-7.4,9.7c2.4,1.5,3.8,3.2,4.1,5
	c0.2,1.2-0.2,1.9-1.1,2.2c-0.6,0.2-1.2,0.2-2-0.2c-0.6-1.4-1.8-3-3.4-4.8c-1.6-1.8-3.2-3.2-4.8-4.4l0.5-0.4c2.2,0.5,4.1,1.2,5.6,2
	c1.8-3.4,3.2-6.7,4.1-9.8h-12l-0.4-1.3L86.7,23.4L86.7,23.4z"/>
<path class="st0" d="M110.6,14.6v27.1c0,0.2-0.4,0.4-1.1,0.7c-0.7,0.3-1.4,0.5-2.1,0.5h-0.7V18.7c-1.1,1.8-2.5,3.7-4.2,5.7l-0.7-0.4
	c1.5-3.1,3-6.8,4.3-11.1c1.4-4.3,2.4-8.5,3-12.7l4.3,1.8c-1,4-1.9,7.6-2.7,10.9L110.6,14.6L110.6,14.6z M122.5,18.9v1.8
	c-0.6,5.6-1.6,10-3.1,13.2c1.8,1.5,4,2.6,6.7,3.2c2.7,0.6,6,0.9,10,0.9c4.7,0,7.8,0,9.4,0v0.6c-1.4,0.3-2.2,1.5-2.4,3.5h-7.4
	c-4.3,0-7.8-0.4-10.7-1.3c-2.8-0.9-5.1-2.4-6.9-4.5c-1.8,2.8-4.2,5-7.2,6.8l-0.4-0.6c2.5-2.1,4.5-5,5.8-8.5
	c-1.5-2.4-2.7-5.8-3.6-10.2l0.6-0.3c1,3.4,2.3,6.1,3.8,8.1c0.8-2.8,1.3-6.6,1.6-11.2h-5.7v-1.9c1.7-3.8,3.2-7.8,4.6-12.1h-4.4
	l-0.4-1.3h8.2v2.2c-1,3-2.6,7-4.6,11.8L122.5,18.9L122.5,18.9z M123.6,6.4l-0.4-1.3h5.8V0.9h3.8v4.2h7.9v6.2h5v1.3h-5V19
	c0,0.1-0.4,0.4-1.1,0.6c-0.7,0.3-1.3,0.4-1.9,0.4H137v-1.2h-4.2v4.9h9.7v1.3h-9.7v4.6h11.6V31h-11.6v4.6c0,0.2-0.4,0.5-1.1,0.8
	c-0.7,0.3-1.3,0.5-1.9,0.5H129V31h-7l-0.4-1.3h7.4v-4.6h-5.5l-0.4-1.3h5.9v-4.9h-4.8l-0.4-1.3h5.2v-5h-8l-0.4-1.3h8.3V6.4H123.6
	L123.6,6.4z M137,6.4h-4.2v4.8h4.2V6.4z M137,17.6v-5h-4.2v5H137z"/>
<path class="st0" d="M161.4,7.1v11c0,2.5-0.1,4.6-0.2,6.4c-0.1,1.8-0.4,3.9-0.9,6.3c-0.5,2.4-1.3,4.6-2.4,6.6
	c-1.1,2-2.5,3.8-4.2,5.5l-0.6-0.4c1.8-3.2,3-6.7,3.5-10.6c0.6-3.9,0.8-8.5,0.8-13.8V5.8h38.4v1.3H161.4z M172.7,32.3l0.2,0.5
	c-2.8,2.3-6,4.8-9.7,7.4c-0.1,0.7-0.5,1.1-1,1.3l-2.5-4.6C161.9,36.3,166.2,34.8,172.7,32.3L172.7,32.3z M196.2,17.4v1.3h-5.8v5.5
	c0,0.1-0.3,0.4-0.7,0.6c-0.5,0.3-1,0.5-1.5,0.6l3.3,2.6c-0.3,0.4-0.8,0.5-1.7,0.2c-2,1-4.9,2-9,3.3l-0.4-0.5
	c1.6-1.4,3.5-3.2,5.7-5.5v-1.2h-7.4v13.3c0,1.7-0.4,3-1.1,3.8c-0.7,0.8-2.2,1.3-4.6,1.5c-0.1-1.4-0.4-2.4-0.9-2.9
	c-0.7-0.7-1.8-1.1-3.4-1.4v-0.6c2.6,0.2,4.2,0.3,4.8,0.3c0.4,0,0.6-0.1,0.7-0.1c0.1-0.1,0.2-0.3,0.2-0.6V24.6h-9.9l-0.4-1.3h10.4
	v-4.5h-12l-0.4-1.3h12.4v-4.4h-9.8l-0.4-1.3h10.1V8.2h4.3v3.5h11.7v5.7L196.2,17.4L196.2,17.4z M163.1,26.2l0.3-0.4
	c4.2-0.1,6.9,0.8,8.2,2.6c0.7,1,0.8,2,0.1,2.8c-0.6,0.8-1.6,0.9-2.8,0.5C167.9,29.8,165.9,28,163.1,26.2L163.1,26.2z M172.7,0.3
	l0.4-0.3c3.4,0.3,5.5,1.2,6.1,2.8c0.4,1,0.1,1.8-0.7,2.4c-1,0.7-2.1,0.7-3.2-0.1C174.9,3.5,174.1,1.8,172.7,0.3L172.7,0.3z
	 M178.7,13.1v4.4h7.4v-4.4H178.7z M186.1,23.2v-4.5h-7.4v4.5H186.1z M180,33.6l0.3-0.5c5.9,0.3,9.9,1.6,12,4c1.1,1.2,1.5,2.3,1,3.3
	c-0.5,0.9-1.4,1.2-2.7,0.8c-1-1.2-2.6-2.5-4.6-4C183.8,35.8,181.9,34.6,180,33.6L180,33.6z"/>
<path class="st0" d="M252.3,31.5h-0.8v-3.3H244v2.9c0,0.3-0.4,0.6-1.1,0.9s-1.6,0.5-2.4,0.5h-0.8V15.2h-7.1v23.1h30.7v1.3h-35.1
	V15.2h-6.7l-0.4-1.3h7.1v-12h4.4v12h7.1V0.4L244,1v12.9h7.5V1.1l4.4,0.6v12.2h8.7v1.3h-8.7v15c0,0.2-0.4,0.5-1.2,0.8
	C253.9,31.4,253.1,31.5,252.3,31.5L252.3,31.5z M244,26.9h7.5V15.2H244V26.9z"/>
<path class="st0" d="M315.1,15.3h-19.5c2,10.6,8.6,18.2,20,23l-0.1,0.5c-2.3,0.4-3.7,1.8-4.2,4.1c-9.2-5.3-14.7-14.3-16.5-27
	c-0.3,2.3-0.7,4.5-1.2,6.4c-0.5,1.9-1.3,3.9-2.4,5.9c-1.1,2-2.4,3.8-4,5.5c-1.6,1.7-3.6,3.3-6,4.9c-2.4,1.6-5.2,3-8.4,4.4l-0.5-0.7
	c3.2-1.8,5.9-3.8,8.1-5.8c2.3-2.1,4.1-4.3,5.4-6.6c1.3-2.3,2.3-4.6,3-6.9c0.7-2.3,1.2-4.9,1.4-7.6h-17.1l-0.4-1.3h17.6
	c0.2-2.5,0.3-7,0.3-13.6l4.9,0.6c-0.1,6.6-0.3,10.9-0.5,13h20.1L315.1,15.3L315.1,15.3z"/>
<path class="st0" d="M360.3,8.2h-30.9c0.2,2.9-0.6,4.9-2.4,6.2c-0.6,0.5-1.4,0.7-2.2,0.5c-0.9-0.1-1.4-0.6-1.7-1.3
	c-0.2-0.6-0.2-1.3,0.1-1.8c0.3-0.6,0.8-1,1.5-1.3c0.9-0.5,1.7-1.3,2.4-2.4c0.7-1.2,1-2.4,0.9-3.7h0.7c0.3,0.9,0.5,1.7,0.7,2.5h14.3
	c0,0-0.2-0.1-0.5-0.4c0-1.1-0.2-2.2-0.7-3.3c-0.5-1.1-1-2.1-1.8-2.8l0.4-0.3c1.4,0.2,2.7,0.5,3.7,1c1,0.4,1.8,0.9,2.2,1.5
	c0.5,0.5,0.8,1.1,0.9,1.7c0.1,0.6,0.1,1.1-0.1,1.6c-0.2,0.5-0.5,0.8-0.9,1.1h18.3v2.2c-1.6,2.1-3.5,4-5.8,5.7l-0.5-0.3
	C359.3,12.8,359.8,10.7,360.3,8.2z M363.4,29.9l0.1,7c0.7,0.2,1.2,0.5,1.5,0.8c0.3,0.3,0.4,0.6,0.4,1.1c0,0.7-0.3,1.2-0.9,1.6
	c-0.6,0.4-1.8,0.6-3.5,0.8c-1.7,0.2-4.2,0.3-7.5,0.3h-6.6c-2.6,0-4.3-0.3-5.2-0.9c-0.9-0.6-1.3-1.8-1.3-3.5V26.7h-15.6l-0.4-1.3
	h16.1v-8.3c-4.7,0.5-9,0.9-13,1l-0.1-0.7c4.6-0.7,9.3-1.7,14.3-3c5-1.4,8.9-2.7,11.8-3.9l1.8,4.1c-3.2,0.7-6.6,1.3-10.3,1.9v8.9
	h19.5v1.3h-19.5v9.4c0,0.5,0.2,0.9,0.5,1.1s1.1,0.3,2.2,0.3h6.3c2.5,0,4.3,0,5.6-0.1c0.6-0.1,1.1-0.3,1.3-0.8
	c0.4-0.6,1.1-2.9,2.1-6.8L363.4,29.9L363.4,29.9z"/>
<path class="st0" d="M399.8,16.6v1.3h-8.2c0.6,7.4,2,12.8,4.4,16c0.4,0.6,0.7,0.5,1.1-0.1c0.6-1.2,1.2-2.7,1.8-4.7l0.5,0.1l-0.7,6.9
	c0.9,2,1.1,3.4,0.4,4c-0.6,0.5-1.3,0.6-2,0.5c-0.7-0.2-1.4-0.5-2-1c-0.6-0.5-1.2-1.1-1.7-1.8c-2.9-4.4-4.8-11-5.4-19.9h-6.7v13.4
	c1.4-0.5,3.6-1.3,6.8-2.5l0.2,0.5c-2.8,2.4-5.8,4.8-8.9,7c-0.2,0.8-0.7,1.4-1.4,1.8l-2.7-5.1c0.9-0.5,1.4-0.8,1.7-1.1
	c0.2-0.3,0.4-0.7,0.4-1.1v-26h4.8c5.2-1.3,9.4-2.8,12.6-4.4l1.7,4.4c-1.1,0.1-2.7,0.3-4.8,0.6c-0.2,3.8-0.2,7.5,0.1,11.3L399.8,16.6
	L399.8,16.6z M392.9,39.6v1.3h-14.7l-0.4-1.3H392.9z M381.1,16.6h6.5c-0.2-2.8-0.3-6.4-0.3-10.8c-2.1,0.2-4.1,0.3-6.3,0.4
	L381.1,16.6L381.1,16.6z M415.7,2.8v2.5c-3,5.5-5.3,9.4-6.9,11.5c2.6,1.7,4.5,3.6,5.7,5.7c1.2,2.1,1.8,4.1,1.8,6.3
	c0,2.4-0.5,4.2-1.6,5.4c-1.1,1.2-2.9,1.8-5.4,1.8c0-1.6-0.2-2.7-0.6-3.3c-0.4-0.4-1.2-0.7-2.5-1V31h3.7c0.5,0,0.9-0.1,1.1-0.3
	c0.9-0.5,1.3-1.5,1.3-3.1c0-3.9-1.5-7.4-4.6-10.7c1.4-4.4,2.5-8.7,3.5-12.8h-6.6v36.7c0,0.1-0.1,0.3-0.4,0.5
	c-0.2,0.2-0.6,0.4-1.2,0.6c-0.5,0.2-1.1,0.3-1.7,0.3h-0.7V2.8L415.7,2.8L415.7,2.8z"/>
</svg>
