<svg width="841" height="170" viewBox="0 0 841 170" fill="none" xmlns="http://www.w3.org/2000/svg">
<path fill-rule="evenodd" clip-rule="evenodd" d="M473.84 2.6202C465.32 -0.929799 455.83 -0.869799 447.34 2.8002C438.72 -0.929799 429.04 -0.929799 420.42 2.8002C411.8 -0.929799 402.12 -0.929799 393.5 2.8002C385.02 -0.869799 375.51 -0.929799 367 2.6202V10.4102C375.32 5.9502 385.18 6.0102 393.45 10.6102C393.45 10.6302 393.47 10.6402 393.47 10.6602C393.48 10.6602 393.49 10.6502 393.5 10.6402C393.51 10.6402 393.52 10.6502 393.53 10.6602C393.53 10.6402 393.55 10.6302 393.55 10.6102C401.94 5.9502 411.97 5.9502 420.36 10.6102C420.36 10.6302 420.38 10.6402 420.38 10.6602C420.39 10.6602 420.4 10.6502 420.41 10.6402C420.42 10.6402 420.43 10.6502 420.44 10.6602C420.44 10.6402 420.46 10.6302 420.46 10.6102C428.85 5.9502 438.88 5.9502 447.27 10.6102C447.27 10.6302 447.29 10.6402 447.29 10.6602C447.3 10.6602 447.31 10.6502 447.32 10.6402C447.33 10.6402 447.34 10.6502 447.35 10.6602C447.35 10.6402 447.37 10.6302 447.37 10.6102C455.64 6.0202 465.49 5.9502 473.81 10.4102V2.6202H473.84Z" fill="white"/>
<path fill-rule="evenodd" clip-rule="evenodd" d="M473.84 20.92C465.32 17.37 455.83 17.43 447.34 21.1C438.72 17.37 429.04 17.37 420.42 21.1C411.8 17.37 402.12 17.37 393.5 21.1C385.02 17.43 375.51 17.37 367 20.92V28.71C375.32 24.25 385.18 24.31 393.45 28.91C393.45 28.93 393.47 28.94 393.47 28.96C393.48 28.96 393.49 28.95 393.5 28.94C393.51 28.94 393.52 28.95 393.53 28.96C393.53 28.94 393.55 28.93 393.55 28.91C401.94 24.25 411.97 24.25 420.36 28.91C420.36 28.93 420.38 28.94 420.38 28.96C420.39 28.96 420.4 28.95 420.41 28.94C420.42 28.94 420.43 28.95 420.44 28.96C420.44 28.94 420.46 28.93 420.46 28.91C428.85 24.25 438.88 24.25 447.27 28.91C447.27 28.93 447.29 28.94 447.29 28.96C447.3 28.96 447.31 28.95 447.32 28.94C447.33 28.94 447.34 28.95 447.35 28.96C447.35 28.94 447.37 28.93 447.37 28.91C455.64 24.32 465.49 24.25 473.81 28.71V20.92H473.84Z" fill="white"/>
<path fill-rule="evenodd" clip-rule="evenodd" d="M473.84 39.2203C465.32 35.6703 455.83 35.7303 447.34 39.4003C438.72 35.6703 429.04 35.6703 420.42 39.4003C411.8 35.6703 402.12 35.6703 393.5 39.4003C385.02 35.7303 375.51 35.6703 367 39.2203V47.0103C375.32 42.5503 385.18 42.6103 393.45 47.2103C393.45 47.2303 393.47 47.2403 393.47 47.2603C393.48 47.2603 393.49 47.2503 393.5 47.2403C393.51 47.2403 393.52 47.2503 393.53 47.2603C393.53 47.2403 393.55 47.2303 393.55 47.2103C401.94 42.5503 411.97 42.5503 420.36 47.2103C420.36 47.2303 420.38 47.2403 420.38 47.2603C420.39 47.2603 420.4 47.2503 420.41 47.2403C420.42 47.2403 420.43 47.2503 420.44 47.2603C420.44 47.2403 420.46 47.2303 420.46 47.2103C428.85 42.5503 438.88 42.5503 447.27 47.2103C447.27 47.2303 447.29 47.2403 447.29 47.2603C447.3 47.2603 447.31 47.2503 447.32 47.2403C447.33 47.2403 447.34 47.2503 447.35 47.2603C447.35 47.2403 447.37 47.2303 447.37 47.2103C455.64 42.6203 465.49 42.5503 473.81 47.0103V39.2203H473.84Z" fill="white"/>
<path fill-rule="evenodd" clip-rule="evenodd" d="M473.84 57.5201C465.32 53.9701 455.83 54.0301 447.34 57.7001C438.72 53.9701 429.04 53.9701 420.42 57.7001C411.8 53.9701 402.12 53.9701 393.5 57.7001C385.02 54.0301 375.51 53.9701 367 57.5201V65.3101C375.32 60.8501 385.18 60.9101 393.45 65.5101C393.45 65.5301 393.47 65.5401 393.47 65.5601C393.48 65.5601 393.49 65.5501 393.5 65.5401C393.51 65.5401 393.52 65.5501 393.53 65.5601C393.53 65.5401 393.55 65.5301 393.55 65.5101C401.94 60.8501 411.97 60.8501 420.36 65.5101C420.36 65.5301 420.38 65.5401 420.38 65.5601C420.39 65.5601 420.4 65.5501 420.41 65.5401C420.42 65.5401 420.43 65.5501 420.44 65.5601C420.44 65.5401 420.46 65.5301 420.46 65.5101C428.85 60.8501 438.88 60.8501 447.27 65.5101C447.27 65.5301 447.29 65.5401 447.29 65.5601C447.3 65.5601 447.31 65.5501 447.32 65.5401C447.33 65.5401 447.34 65.5501 447.35 65.5601C447.35 65.5401 447.37 65.5301 447.37 65.5101C455.64 60.9201 465.49 60.8501 473.81 65.3101V57.5201H473.84Z" fill="white"/>
<path d="M8.89 127.44C8.89 114.07 8.89 111.6 8.71 108.79C8.53 105.8 7.83 104.39 4.93 103.78C4.23 103.6 2.73 103.52 1.5 103.52C0.53 103.52 0 103.34 0 102.73C0 102.12 0.62 101.94 1.94 101.94C6.6 101.94 12.15 102.2 13.99 102.2C16.98 102.2 23.67 101.94 26.4 101.94C31.94 101.94 37.84 102.47 42.59 105.72C45.05 107.39 48.57 111.88 48.57 117.77C48.57 124.28 45.93 130.18 37.04 137.39C44.87 147.24 50.94 155.16 56.13 160.62C61.06 165.72 64.58 166.34 65.9 166.6C66.87 166.78 67.66 166.86 68.36 166.86C69.06 166.86 69.42 167.12 69.42 167.56C69.42 168.26 68.8 168.44 67.75 168.44H59.13C54.2 168.44 52 168 49.72 166.77C45.94 164.75 42.59 160.61 37.67 153.84C34.15 149 30.1 143.02 28.96 141.7C28.52 141.17 27.99 141.08 27.38 141.08L19.99 140.9C19.55 140.9 19.29 141.08 19.29 141.6V142.83C19.29 151.01 19.29 157.96 19.73 161.66C19.99 164.21 20.52 166.15 23.16 166.5C24.48 166.68 26.41 166.85 27.47 166.85C28.17 166.85 28.53 167.11 28.53 167.55C28.53 168.17 27.91 168.43 26.77 168.43C21.67 168.43 15.16 168.17 13.84 168.17C12.17 168.17 6.63 168.43 3.11 168.43C1.97 168.43 1.35 168.17 1.35 167.55C1.35 167.11 1.7 166.85 2.76 166.85C4.08 166.85 5.14 166.67 5.93 166.5C7.69 166.15 8.13 164.21 8.48 161.66C8.92 157.96 8.92 151.01 8.92 142.92V127.44H8.89ZM19.27 134.39C19.27 135.36 19.45 135.71 20.06 135.97C21.91 136.59 24.55 136.85 26.75 136.85C30.27 136.85 31.41 136.5 33 135.35C35.64 133.41 38.19 129.37 38.19 122.15C38.19 109.66 29.92 106.05 24.73 106.05C22.53 106.05 20.95 106.14 20.07 106.4C19.45 106.58 19.28 106.93 19.28 107.63V134.38L19.27 134.39Z" fill="white"/>
<path d="M82.53 127.44C82.53 114.07 82.53 111.6 82.35 108.79C82.17 105.8 81.29 104.3 79.36 103.86C78.39 103.6 77.25 103.51 76.19 103.51C75.31 103.51 74.78 103.33 74.78 102.63C74.78 102.1 75.48 101.93 76.89 101.93C80.23 101.93 85.78 102.19 88.33 102.19C90.53 102.19 95.72 101.93 99.06 101.93C100.2 101.93 100.91 102.11 100.91 102.63C100.91 103.33 100.38 103.51 99.5 103.51C98.62 103.51 97.92 103.6 96.86 103.77C94.48 104.21 93.78 105.71 93.6 108.78C93.42 111.6 93.42 114.06 93.42 127.43V142.91C93.42 151.44 93.42 158.39 93.77 162.18C94.03 164.56 94.65 166.14 97.29 166.49C98.52 166.67 100.46 166.84 101.78 166.84C102.75 166.84 103.19 167.1 103.19 167.54C103.19 168.16 102.49 168.42 101.52 168.42C95.71 168.42 90.17 168.16 87.79 168.16C85.77 168.16 80.22 168.42 76.7 168.42C75.56 168.42 74.94 168.16 74.94 167.54C74.94 167.1 75.29 166.84 76.35 166.84C77.67 166.84 78.73 166.66 79.52 166.49C81.28 166.14 81.81 164.64 82.07 162.09C82.51 158.39 82.51 151.44 82.51 142.91V127.43L82.53 127.44Z" fill="white"/>
<path d="M123 110.55C120.98 105.71 119.48 104.74 116.31 103.86C114.99 103.51 113.58 103.51 112.88 103.51C112.09 103.51 111.82 103.25 111.82 102.72C111.82 102.02 112.79 101.93 114.11 101.93C118.77 101.93 123.79 102.19 126.87 102.19C129.07 102.19 133.29 101.93 137.69 101.93C138.75 101.93 139.71 102.11 139.71 102.72C139.71 103.33 139.18 103.51 138.39 103.51C136.98 103.51 135.66 103.6 134.96 104.13C134.34 104.57 134.08 105.19 134.08 105.98C134.08 107.12 134.87 109.59 136.1 112.75C140.94 125.42 146.83 140.99 151.41 153.13C155.19 143.45 166.81 114.68 168.92 108.87C169.36 107.73 169.71 106.41 169.71 105.61C169.71 104.91 169.36 104.2 168.57 103.94C167.51 103.59 166.19 103.5 165.05 103.5C164.26 103.5 163.55 103.41 163.55 102.8C163.55 102.1 164.34 101.92 166.01 101.92C170.41 101.92 174.1 102.18 175.25 102.18C176.75 102.18 180.88 101.92 183.52 101.92C184.66 101.92 185.37 102.1 185.37 102.71C185.37 103.32 184.84 103.5 183.96 103.5C183.08 103.5 181.23 103.5 179.65 104.56C178.51 105.35 177.19 106.85 174.81 112.48C171.38 120.75 169 125.5 164.25 136.32C158.62 149.17 154.48 158.76 152.55 163.15C150.26 168.25 149.73 169.66 148.5 169.66C147.36 169.66 146.83 168.43 145.16 164.29L122.99 110.53L123 110.55Z" fill="white"/>
<path d="M203.59 127.44C203.59 114.07 203.59 111.6 203.41 108.79C203.23 105.8 202.53 104.39 199.63 103.78C198.93 103.6 197.43 103.52 196.2 103.52C195.23 103.52 194.7 103.34 194.7 102.73C194.7 102.12 195.32 101.94 196.64 101.94C200.69 101.94 204.73 102.2 209.31 102.2C212.13 102.2 229.63 102.2 231.31 102.11C232.98 101.93 234.39 101.76 235.09 101.58C235.53 101.49 236.06 101.23 236.5 101.23C236.94 101.23 237.03 101.58 237.03 102.02C237.03 102.64 236.59 103.69 236.33 107.74C236.24 108.62 236.07 112.49 235.89 113.55C235.8 113.99 235.63 114.52 235.01 114.52C234.39 114.52 234.22 113.99 234.22 112.94C234.22 112.59 234.13 111.18 233.69 110.12C233.07 108.54 232.19 107.48 227.8 106.95C226.3 106.77 217.07 106.6 215.31 106.6C214.87 106.6 214.69 106.86 214.69 107.48V129.74C214.69 130.36 214.78 130.71 215.31 130.71C217.25 130.71 227.36 130.71 229.39 130.53C231.5 130.35 232.82 130.09 233.61 129.21C234.23 128.51 234.58 128.07 235.02 128.07C235.37 128.07 235.64 128.25 235.64 128.77C235.64 129.29 235.29 130.71 234.94 135.19C234.85 136.95 234.59 140.47 234.59 141.08C234.59 141.78 234.59 142.75 233.8 142.75C233.18 142.75 233.01 141.78 233.01 141.34C232.92 140.46 232.92 139.93 232.66 138.79C232.22 137.03 230.99 135.71 227.73 135.36C226.06 135.18 217.35 135.1 215.24 135.1C214.8 135.1 214.71 135.45 214.71 135.98V142.93C214.71 145.92 214.62 154.02 214.71 156.57C214.89 162.64 216.29 163.96 225.27 163.96C227.56 163.96 231.25 163.96 233.54 162.9C235.83 161.84 236.88 160 237.5 156.39C237.68 155.42 237.85 155.07 238.47 155.07C239.17 155.07 239.17 155.77 239.17 156.65C239.17 158.67 238.47 164.66 238.03 166.42C237.41 168.71 236.62 168.71 233.28 168.71C225.45 168.71 217.71 168.18 208.91 168.18C205.39 168.18 201.78 168.44 197.82 168.44C196.68 168.44 196.06 168.18 196.06 167.56C196.06 167.12 196.41 166.86 197.47 166.86C198.79 166.86 199.85 166.68 200.64 166.51C202.4 166.16 202.84 164.22 203.19 161.67C203.63 157.97 203.63 151.02 203.63 142.93V127.45L203.59 127.44Z" fill="white"/>
<path d="M267.11 127.44C267.11 114.07 267.11 111.6 266.93 108.79C266.75 105.8 266.05 104.39 263.15 103.78C262.45 103.6 260.95 103.52 259.72 103.52C258.75 103.52 258.22 103.34 258.22 102.73C258.22 102.12 258.84 101.94 260.16 101.94C264.82 101.94 270.37 102.2 272.21 102.2C275.2 102.2 281.89 101.94 284.62 101.94C290.16 101.94 296.06 102.47 300.81 105.72C303.27 107.39 306.79 111.88 306.79 117.77C306.79 124.28 304.15 130.18 295.26 137.39C303.09 147.24 309.16 155.16 314.35 160.62C319.28 165.72 322.8 166.34 324.12 166.6C325.09 166.78 325.88 166.86 326.58 166.86C327.28 166.86 327.64 167.12 327.64 167.56C327.64 168.26 327.02 168.44 325.97 168.44H317.35C312.42 168.44 310.22 168 307.94 166.77C304.16 164.75 300.81 160.61 295.89 153.84C292.37 149 288.32 143.02 287.18 141.7C286.74 141.17 286.21 141.08 285.6 141.08L278.21 140.9C277.77 140.9 277.51 141.08 277.51 141.6V142.83C277.51 151.01 277.51 157.96 277.95 161.66C278.21 164.21 278.74 166.15 281.38 166.5C282.7 166.68 284.63 166.85 285.69 166.85C286.39 166.85 286.75 167.11 286.75 167.55C286.75 168.17 286.13 168.43 284.99 168.43C279.89 168.43 273.38 168.17 272.06 168.17C270.39 168.17 264.85 168.43 261.33 168.43C260.19 168.43 259.57 168.17 259.57 167.55C259.57 167.11 259.92 166.85 260.98 166.85C262.3 166.85 263.36 166.67 264.15 166.5C265.91 166.15 266.35 164.21 266.7 161.66C267.14 157.96 267.14 151.01 267.14 142.92V127.44H267.11ZM277.49 134.39C277.49 135.36 277.67 135.71 278.28 135.97C280.13 136.59 282.77 136.85 284.97 136.85C288.49 136.85 289.63 136.5 291.22 135.35C293.86 133.41 296.41 129.37 296.41 122.15C296.41 109.66 288.14 106.05 282.95 106.05C280.75 106.05 279.17 106.14 278.29 106.4C277.67 106.58 277.5 106.93 277.5 107.63V134.38L277.49 134.39Z" fill="white"/>
<path d="M444.13 157.09C444.92 162.63 445.8 165.18 448.44 165.98C450.99 166.77 452.75 166.86 453.89 166.86C454.68 166.86 455.3 166.95 455.3 167.48C455.3 168.18 454.24 168.45 453.01 168.45C450.81 168.45 438.67 168.19 435.15 167.92C433.13 167.74 432.6 167.48 432.6 166.95C432.6 166.51 432.95 166.25 433.57 165.98C434.1 165.8 434.36 164.66 434.01 162.2L428.64 122.96L409.2 163.43C407.18 167.57 406.74 168.36 405.95 168.36C405.16 168.36 404.28 166.6 402.87 163.96C400.76 159.91 393.81 146.45 392.75 143.99C391.96 142.14 386.42 130.44 383.34 123.84L378.68 159.47C378.5 161.05 378.42 162.2 378.42 163.6C378.42 165.27 379.56 166.06 381.06 166.42C382.64 166.77 383.88 166.86 384.76 166.86C385.46 166.86 386.08 167.04 386.08 167.48C386.08 168.27 385.29 168.45 383.97 168.45C380.27 168.45 376.32 168.19 374.73 168.19C373.06 168.19 368.84 168.45 366.02 168.45C365.14 168.45 364.44 168.27 364.44 167.48C364.44 167.04 364.97 166.86 365.85 166.86C366.55 166.86 367.17 166.86 368.49 166.6C370.95 166.07 371.66 162.64 372.1 159.65L380.81 102.29C381.07 100.79 381.6 100 382.31 100C383.02 100 383.54 100.44 384.69 102.73L408.71 152.35L432.64 102.11C433.34 100.7 433.78 100 434.58 100C435.38 100 435.9 100.88 436.16 102.73L444.17 157.1L444.13 157.09Z" fill="white"/>
<path d="M484.77 139.76C484.77 152.52 487.32 157.88 491.63 161.4C495.59 164.66 499.64 165.01 502.63 165.01C506.5 165.01 511.25 163.78 514.77 160.26C519.61 155.42 519.87 147.5 519.87 138.44V127.44C519.87 114.07 519.87 111.6 519.69 108.79C519.51 105.8 518.81 104.39 515.91 103.78C515.21 103.6 513.71 103.52 512.74 103.52C511.77 103.52 511.24 103.34 511.24 102.73C511.24 102.12 511.86 101.94 513.09 101.94C517.58 101.94 523.12 102.2 523.21 102.2C524.27 102.2 529.81 101.94 533.24 101.94C534.47 101.94 535.09 102.12 535.09 102.73C535.09 103.34 534.56 103.52 533.51 103.52C532.54 103.52 532.01 103.61 530.96 103.78C528.58 104.22 527.88 105.72 527.7 108.79C527.52 111.61 527.52 114.07 527.52 127.44V136.85C527.52 146.62 526.55 157 519.16 163.33C512.91 168.7 506.58 169.66 500.86 169.66C496.2 169.66 487.75 169.4 481.33 163.59C476.84 159.54 473.5 153.03 473.5 140.27V127.42C473.5 114.05 473.5 111.58 473.32 108.77C473.14 105.78 472.44 104.37 469.54 103.76C468.84 103.58 467.34 103.5 466.11 103.5C465.14 103.5 464.61 103.32 464.61 102.71C464.61 102.1 465.23 101.92 466.55 101.92C471.21 101.92 476.76 102.18 479.4 102.18C481.51 102.18 487.05 101.92 490.22 101.92C491.54 101.92 492.16 102.1 492.16 102.71C492.16 103.32 491.63 103.5 490.75 103.5C489.78 103.5 489.25 103.59 488.2 103.76C485.82 104.2 485.12 105.7 484.95 108.77C484.77 111.59 484.77 114.05 484.77 127.42V139.74V139.76Z" fill="white"/>
<path d="M553.48 167.38C552.07 166.76 551.81 166.32 551.81 164.39C551.81 159.55 552.16 154.27 552.25 152.86C552.34 151.54 552.6 150.57 553.31 150.57C554.1 150.57 554.19 151.36 554.19 152.07C554.19 153.21 554.54 155.06 554.98 156.56C556.92 163.07 562.11 165.45 567.56 165.45C575.48 165.45 579.35 160.08 579.35 155.42C579.35 151.11 578.03 147.06 570.73 141.34L566.68 138.17C557 130.6 553.66 124.44 553.66 117.32C553.66 107.64 561.75 100.69 573.98 100.69C577.32 100.69 579.96 101.04 582.07 101.39C583.57 101.65 584.71 101.92 585.68 102.18C586.47 102.36 586.91 102.62 586.91 103.24C586.91 104.38 586.56 106.94 586.56 113.8C586.56 115.74 586.3 116.44 585.59 116.44C584.97 116.44 584.71 115.91 584.71 114.86C584.71 114.07 584.27 111.34 582.42 109.05C581.1 107.38 578.55 104.74 572.83 104.74C566.32 104.74 562.36 108.52 562.36 113.8C562.36 117.85 564.38 120.93 571.69 126.47L574.15 128.32C584.8 136.33 588.58 142.4 588.58 150.76C588.58 155.86 586.64 161.93 580.31 166.07C575.91 168.89 570.98 169.68 566.32 169.68C561.22 169.68 557.26 169.06 553.47 167.39L553.48 167.38Z" fill="white"/>
<path d="M616.39 127.44C616.39 114.07 616.39 111.6 616.21 108.79C616.03 105.8 615.33 104.39 612.43 103.78C611.73 103.6 610.23 103.52 609 103.52C608.03 103.52 607.5 103.34 607.5 102.73C607.5 102.12 608.12 101.94 609.44 101.94C613.49 101.94 617.53 102.2 622.11 102.2C624.93 102.2 642.43 102.2 644.11 102.11C645.78 101.93 647.19 101.76 647.89 101.58C648.33 101.49 648.86 101.23 649.3 101.23C649.74 101.23 649.83 101.58 649.83 102.02C649.83 102.64 649.39 103.69 649.13 107.74C649.04 108.62 648.87 112.49 648.69 113.55C648.6 113.99 648.43 114.52 647.81 114.52C647.19 114.52 647.02 113.99 647.02 112.94C647.02 112.59 646.93 111.18 646.49 110.12C645.87 108.54 644.99 107.48 640.6 106.95C639.1 106.77 629.87 106.6 628.11 106.6C627.67 106.6 627.49 106.86 627.49 107.48V129.74C627.49 130.36 627.58 130.71 628.11 130.71C630.05 130.71 640.16 130.71 642.19 130.53C644.3 130.35 645.62 130.09 646.41 129.21C647.03 128.51 647.38 128.07 647.82 128.07C648.17 128.07 648.44 128.25 648.44 128.77C648.44 129.29 648.09 130.71 647.74 135.19C647.65 136.95 647.39 140.47 647.39 141.08C647.39 141.78 647.39 142.75 646.6 142.75C645.98 142.75 645.81 141.78 645.81 141.34C645.72 140.46 645.72 139.93 645.46 138.79C645.02 137.03 643.79 135.71 640.53 135.36C638.86 135.18 630.15 135.1 628.04 135.1C627.6 135.1 627.51 135.45 627.51 135.98V142.93C627.51 145.92 627.42 154.02 627.51 156.57C627.69 162.64 629.09 163.96 638.07 163.96C640.36 163.96 644.05 163.96 646.34 162.9C648.63 161.84 649.68 160 650.3 156.39C650.48 155.42 650.65 155.07 651.27 155.07C651.97 155.07 651.97 155.77 651.97 156.65C651.97 158.67 651.27 164.66 650.83 166.42C650.21 168.71 649.42 168.71 646.08 168.71C638.25 168.71 630.51 168.18 621.71 168.18C618.19 168.18 614.58 168.44 610.62 168.44C609.48 168.44 608.86 168.18 608.86 167.56C608.86 167.12 609.21 166.86 610.27 166.86C611.59 166.86 612.65 166.68 613.44 166.51C615.2 166.16 615.64 164.22 615.99 161.67C616.43 157.97 616.43 151.02 616.43 142.93V127.45L616.39 127.44Z" fill="white"/>
<path d="M687.57 139.76C687.57 152.52 690.12 157.88 694.43 161.4C698.39 164.66 702.44 165.01 705.43 165.01C709.3 165.01 714.05 163.78 717.57 160.26C722.41 155.42 722.67 147.5 722.67 138.44V127.44C722.67 114.07 722.67 111.6 722.49 108.79C722.31 105.8 721.61 104.39 718.71 103.78C718.01 103.6 716.51 103.52 715.54 103.52C714.57 103.52 714.04 103.34 714.04 102.73C714.04 102.12 714.66 101.94 715.89 101.94C720.38 101.94 725.92 102.2 726.01 102.2C727.07 102.2 732.61 101.94 736.04 101.94C737.27 101.94 737.89 102.12 737.89 102.73C737.89 103.34 737.36 103.52 736.31 103.52C735.34 103.52 734.81 103.61 733.76 103.78C731.38 104.22 730.68 105.72 730.5 108.79C730.32 111.61 730.32 114.07 730.32 127.44V136.85C730.32 146.62 729.35 157 721.96 163.33C715.71 168.7 709.38 169.66 703.66 169.66C699 169.66 690.55 169.4 684.13 163.59C679.64 159.54 676.3 153.03 676.3 140.27V127.42C676.3 114.05 676.3 111.58 676.12 108.77C675.94 105.78 675.24 104.37 672.34 103.76C671.64 103.58 670.14 103.5 668.91 103.5C667.94 103.5 667.41 103.32 667.41 102.71C667.41 102.1 668.03 101.92 669.35 101.92C674.01 101.92 679.56 102.18 682.2 102.18C684.31 102.18 689.85 101.92 693.02 101.92C694.34 101.92 694.96 102.1 694.96 102.71C694.96 103.32 694.43 103.5 693.55 103.5C692.58 103.5 692.05 103.59 691 103.76C688.62 104.2 687.92 105.7 687.75 108.77C687.57 111.59 687.57 114.05 687.57 127.42V139.74V139.76Z" fill="white"/>
<path d="M829.04 157.09C829.83 162.63 830.71 165.18 833.35 165.98C835.9 166.77 837.66 166.86 838.8 166.86C839.59 166.86 840.21 166.95 840.21 167.48C840.21 168.18 839.15 168.45 837.92 168.45C835.72 168.45 823.58 168.19 820.06 167.92C818.04 167.74 817.51 167.48 817.51 166.95C817.51 166.51 817.86 166.25 818.48 165.98C819.01 165.8 819.27 164.66 818.92 162.2L813.55 122.96L794.11 163.43C792.09 167.57 791.65 168.36 790.86 168.36C790.07 168.36 789.19 166.6 787.78 163.96C785.67 159.91 778.72 146.45 777.66 143.99C776.87 142.14 771.32 130.44 768.25 123.84L763.59 159.47C763.41 161.05 763.33 162.2 763.33 163.6C763.33 165.27 764.47 166.06 765.97 166.42C767.55 166.77 768.79 166.86 769.67 166.86C770.37 166.86 770.99 167.04 770.99 167.48C770.99 168.27 770.2 168.45 768.88 168.45C765.18 168.45 761.23 168.19 759.64 168.19C757.97 168.19 753.75 168.45 750.93 168.45C750.05 168.45 749.35 168.27 749.35 167.48C749.35 167.04 749.88 166.86 750.76 166.86C751.46 166.86 752.08 166.86 753.4 166.6C755.86 166.07 756.57 162.64 757.01 159.65L765.72 102.29C765.98 100.79 766.51 100 767.22 100C767.93 100 768.45 100.44 769.6 102.73L793.62 152.35L817.55 102.11C818.25 100.7 818.69 100 819.49 100C820.29 100 820.81 100.88 821.07 102.73L829.08 157.1L829.04 157.09Z" fill="white"/>
</svg>
