<svg width="320" height="151" viewBox="0 0 320 151" fill="none" xmlns="http://www.w3.org/2000/svg">
<path d="M46.9898 25.1401C47.2198 25.1401 47.4498 24.9901 47.4498 24.6101V23.0201C47.4498 11.5101 47.4498 9.39006 47.2998 6.97006C47.1498 4.40006 46.5398 3.18006 44.0398 2.65006C43.4298 2.50006 42.1498 2.42006 41.0898 2.42006C40.2598 2.42006 39.7998 2.27006 39.7998 1.74006C39.7998 1.21006 40.3298 1.06006 41.3898 1.06006C45.4798 1.06006 50.2498 1.29006 52.2898 1.29006C54.1098 1.29006 58.8798 1.06006 61.8298 1.06006C62.8898 1.06006 63.4198 1.21006 63.4198 1.74006C63.4198 2.27006 62.9698 2.42006 62.0598 2.42006C61.4498 2.42006 60.7698 2.50006 59.8598 2.65006C57.8198 3.03006 57.2098 4.32006 57.0598 6.97006C56.9098 9.39006 56.9098 11.5101 56.9098 23.0201V36.3501C56.9098 43.3201 56.9098 49.3001 57.2898 52.5601C57.5198 54.6801 57.9698 56.3501 60.2398 56.6501C61.2998 56.8001 62.9698 56.9501 64.0998 56.9501C64.9298 56.9501 65.3098 57.1801 65.3098 57.5601C65.3098 58.0901 64.6998 58.3201 63.7998 58.3201C58.8798 58.3201 54.1098 58.0901 51.9898 58.0901C50.2498 58.0901 45.4798 58.3201 42.5198 58.3201C41.4598 58.3201 40.9298 58.0901 40.9298 57.5601C40.9298 57.1801 41.2298 56.9501 42.1398 56.9501C43.2798 56.9501 44.1798 56.8001 44.8698 56.6501C46.3798 56.3501 46.7598 54.6801 47.0698 52.4901C47.4498 49.3101 47.4498 43.3301 47.4498 36.3601V29.7001C47.4498 29.4001 47.2198 29.2501 46.9898 29.2501H18.0598C17.8298 29.2501 17.6098 29.3301 17.6098 29.7001V36.3601C17.6098 43.3301 17.6098 49.3101 17.9898 52.5701C18.2198 54.6901 18.6698 56.3601 20.9398 56.6601C21.9998 56.8101 23.6698 56.9601 24.7998 56.9601C25.6298 56.9601 26.0098 57.1901 26.0098 57.5701C26.0098 58.1001 25.3998 58.3301 24.4998 58.3301C19.5798 58.3301 14.8098 58.1001 12.6898 58.1001C10.9498 58.1001 6.17976 58.3301 3.14977 58.3301C2.15977 58.3301 1.63977 58.1001 1.63977 57.5701C1.63977 57.1901 1.93978 56.9601 2.84978 56.9601C3.98978 56.9601 4.88977 56.8101 5.57977 56.6601C7.08977 56.3601 7.46977 54.6901 7.77977 52.5001C8.15977 49.3201 8.15977 43.3401 8.15977 36.3701V23.0401C8.15977 11.5301 8.15977 9.41006 8.00977 6.99006C7.85977 4.42006 7.24977 3.20006 4.74977 2.67006C4.13977 2.52006 2.85977 2.44006 1.79977 2.44006C0.969774 2.44006 0.509766 2.29006 0.509766 1.76006C0.509766 1.23006 1.03978 1.08006 2.09978 1.08006C6.18978 1.08006 10.9598 1.31006 13.0098 1.31006C14.8298 1.31006 19.5998 1.08006 22.5498 1.08006C23.6098 1.08006 24.1398 1.23006 24.1398 1.76006C24.1398 2.29006 23.6898 2.44006 22.7798 2.44006C22.1698 2.44006 21.4898 2.52006 20.5798 2.67006C18.5398 3.05006 17.9298 4.34006 17.7798 6.99006C17.6298 9.41006 17.6298 11.5301 17.6298 23.0401V24.6301C17.6298 25.0101 17.8598 25.1601 18.0798 25.1601H47.0098L46.9898 25.1401Z" fill="#004098"/>
<path d="M73.4897 29.69C73.4897 16.74 82.0497 0 104.77 0C123.63 0 135.36 10.98 135.36 28.32C135.36 45.66 123.24 59.37 104.01 59.37C82.2797 59.37 73.4897 43.09 73.4897 29.68V29.69ZM124.76 31.13C124.76 14.17 114.99 3.64 102.57 3.64C93.8597 3.64 83.9397 8.49 83.9397 27.34C83.9397 43.09 92.6497 55.59 107.19 55.59C112.49 55.59 124.76 53.02 124.76 31.13Z" fill="#004098"/>
<path d="M161.41 5.3L150.13 5.6C145.74 5.75 143.92 6.13 142.78 7.8C142.02 8.94 141.64 9.84 141.49 10.45C141.34 11.06 141.11 11.36 140.66 11.36C140.13 11.36 139.98 10.98 139.98 10.15C139.98 8.94 141.42 2.05 141.57 1.44C141.8 0.46 142.02 0 142.48 0C143.09 0 143.84 0.76 145.74 0.91C147.94 1.14 150.81 1.29 153.31 1.29H183.3C185.72 1.29 187.39 1.06 188.53 0.91C189.67 0.68 190.27 0.53 190.57 0.53C191.1 0.53 191.18 0.98 191.18 2.12C191.18 3.71 190.95 8.94 190.95 10.9C190.87 11.66 190.72 12.11 190.27 12.11C189.66 12.11 189.51 11.73 189.44 10.6L189.36 9.77C189.21 7.8 187.16 5.68 180.42 5.53L170.88 5.3V36.35C170.88 43.32 170.88 49.3 171.26 52.56C171.49 54.68 171.94 56.35 174.21 56.65C175.27 56.8 176.94 56.95 178.07 56.95C178.9 56.95 179.28 57.18 179.28 57.56C179.28 58.09 178.67 58.32 177.84 58.32C172.84 58.32 168.07 58.09 165.95 58.09C164.21 58.09 159.44 58.32 156.41 58.32C155.43 58.32 154.9 58.09 154.9 57.56C154.9 57.18 155.2 56.95 156.11 56.95C157.25 56.95 158.15 56.8 158.84 56.65C160.35 56.35 160.81 54.68 161.04 52.49C161.42 49.31 161.42 43.33 161.42 36.36V5.3H161.41Z" fill="#004098"/>
<path d="M3.97955 148.18C2.76955 147.65 2.53955 147.27 2.53955 145.61C2.53955 141.44 2.83956 136.9 2.91956 135.69C2.99956 134.55 3.21956 133.72 3.82956 133.72C4.50956 133.72 4.58955 134.4 4.58955 135.01C4.58955 135.99 4.88956 137.58 5.26956 138.87C6.93956 144.47 11.3996 146.52 16.0996 146.52C22.9196 146.52 26.2496 141.9 26.2496 137.89C26.2496 134.18 25.1096 130.7 18.8296 125.77L15.3496 123.04C7.01956 116.53 4.13956 111.23 4.13956 105.09C4.13956 96.7598 11.1096 90.7798 21.6296 90.7798C26.5496 90.7798 29.7296 91.5398 31.6996 92.0698C32.3796 92.2198 32.7596 92.4498 32.7596 92.9798C32.7596 93.9598 32.4596 96.1598 32.4596 102.07C32.4596 103.74 32.2296 104.34 31.6296 104.34C31.0996 104.34 30.8696 103.89 30.8696 102.98C30.8696 102.3 30.4896 99.9498 28.8996 97.9798C27.7596 96.5398 25.5696 94.2698 20.6496 94.2698C15.0496 94.2698 11.6396 97.5298 11.6396 102.07C11.6396 105.55 13.3796 108.2 19.6696 112.98L21.7896 114.57C30.9496 121.46 34.2096 126.69 34.2096 133.88C34.2096 138.27 32.5396 143.5 27.0896 147.06C23.2996 149.48 19.0596 150.16 15.0496 150.16C10.6596 150.16 7.24956 149.63 3.98956 148.19L3.97955 148.18Z" fill="#004098"/>
<path d="M52.9698 113.8C52.9698 102.29 52.9698 100.17 52.8198 97.7498C52.6698 95.1798 52.0598 93.9598 49.5598 93.4298C48.9498 93.2798 47.6698 93.1998 46.6098 93.1998C45.7798 93.1998 45.3198 93.0498 45.3198 92.5198C45.3198 91.9898 45.8498 91.8398 46.9898 91.8398C50.9998 91.8398 55.7798 92.0698 57.8998 92.0698C61.0098 92.0698 65.3998 91.8398 68.8798 91.8398C78.3498 91.8398 81.7498 95.0199 82.9598 96.1599C84.6298 97.7499 86.7498 101.16 86.7498 105.17C86.7498 115.92 78.8698 123.5 68.1198 123.5C67.7398 123.5 66.9098 123.5 66.5298 123.42C66.1498 123.34 65.6198 123.27 65.6198 122.74C65.6198 122.13 66.1498 121.91 67.7398 121.91C71.9798 121.91 77.8898 117.14 77.8898 109.41C77.8898 106.91 77.6598 101.84 73.4198 98.0499C70.6898 95.5499 67.5898 95.0998 65.8498 95.0998C64.7098 95.0998 63.5798 95.1798 62.8998 95.3998C62.5198 95.5498 62.2898 96.0098 62.2898 96.8398V127.13C62.2898 134.1 62.2898 140.08 62.6698 143.34C62.8998 145.46 63.3498 147.13 65.6198 147.43C66.6798 147.58 68.3498 147.73 69.4798 147.73C70.3098 147.73 70.6898 147.96 70.6898 148.34C70.6898 148.87 70.0798 149.1 69.2498 149.1C64.2498 149.1 59.4798 148.87 57.5098 148.87C55.7698 148.87 50.9998 149.1 47.9698 149.1C46.9798 149.1 46.4598 148.87 46.4598 148.34C46.4598 147.96 46.7598 147.73 47.6698 147.73C48.8098 147.73 49.7198 147.58 50.3998 147.43C51.9098 147.13 52.2898 145.46 52.5998 143.26C52.9798 140.08 52.9798 134.1 52.9798 127.13V113.8H52.9698Z" fill="#004098"/>
<path d="M103.33 113.8C103.33 102.29 103.33 100.17 103.18 97.7498C103.03 95.1798 102.42 93.9598 99.9197 93.4298C99.3097 93.2798 98.0297 93.1998 96.9697 93.1998C96.1397 93.1998 95.6797 93.0498 95.6797 92.5198C95.6797 91.9898 96.2097 91.8398 97.3497 91.8398C101.36 91.8398 106.14 92.0698 107.73 92.0698C110.31 92.0698 116.06 91.8398 118.41 91.8398C123.18 91.8398 128.25 92.2898 132.34 95.0998C134.46 96.5398 137.49 100.4 137.49 105.48C137.49 111.08 135.14 116.23 127.49 122.44C134.23 130.92 139.46 137.66 143.92 142.36C148.16 146.75 151.27 147.28 152.4 147.51C153.23 147.66 153.91 147.74 154.52 147.74C155.13 147.74 155.43 147.97 155.43 148.35C155.43 148.96 154.9 149.11 153.99 149.11H146.8C142.56 149.11 140.67 148.73 138.7 147.67C135.44 145.93 132.57 142.37 128.32 136.54C125.29 132.37 121.81 127.22 120.82 126.09C120.44 125.64 119.99 125.56 119.46 125.56L112.87 125.41C112.49 125.41 112.26 125.56 112.26 126.02V127.08C112.26 134.12 112.26 140.11 112.64 143.29C112.87 145.49 113.32 147.15 115.59 147.46C116.73 147.61 118.39 147.76 119.3 147.76C119.91 147.76 120.21 147.99 120.21 148.37C120.21 148.9 119.68 149.13 118.7 149.13C114.31 149.13 108.7 148.9 107.57 148.9C106.13 148.9 101.36 149.13 98.3297 149.13C97.3397 149.13 96.8197 148.9 96.8197 148.37C96.8197 147.99 97.1197 147.76 98.0297 147.76C99.1697 147.76 100.07 147.61 100.76 147.46C102.27 147.16 102.65 145.49 102.96 143.29C103.34 140.11 103.34 134.13 103.34 127.16V113.83L103.33 113.8ZM112.27 119.78C112.27 120.61 112.42 120.92 112.95 121.14C114.54 121.67 116.81 121.9 118.71 121.9C121.74 121.9 122.72 121.6 124.09 120.61C126.36 118.94 128.56 115.46 128.56 109.25C128.56 98.4998 121.44 95.3898 116.97 95.3898C115.08 95.3898 113.71 95.4698 112.96 95.6898C112.43 95.8398 112.28 96.1398 112.28 96.7498V119.77L112.27 119.78Z" fill="#004098"/>
<path d="M161.26 113.8C161.26 102.29 161.26 100.17 161.11 97.7498C160.96 95.1798 160.2 93.8898 158.53 93.5098C157.7 93.2798 156.71 93.2098 155.8 93.2098C155.04 93.2098 154.59 93.0598 154.59 92.4498C154.59 91.9998 155.2 91.8398 156.41 91.8398C159.29 91.8398 164.06 92.0698 166.25 92.0698C168.14 92.0698 172.61 91.8398 175.49 91.8398C176.47 91.8398 177.08 91.9898 177.08 92.4498C177.08 93.0598 176.63 93.2098 175.87 93.2098C175.11 93.2098 174.51 93.2898 173.6 93.4398C171.55 93.8198 170.95 95.1098 170.8 97.7598C170.65 100.18 170.65 102.3 170.65 113.81V127.14C170.65 134.49 170.65 140.47 170.95 143.72C171.18 145.76 171.71 147.13 173.98 147.43C175.04 147.58 176.71 147.73 177.84 147.73C178.67 147.73 179.05 147.96 179.05 148.34C179.05 148.87 178.44 149.1 177.61 149.1C172.61 149.1 167.84 148.87 165.8 148.87C164.06 148.87 159.29 149.1 156.26 149.1C155.27 149.1 154.75 148.87 154.75 148.34C154.75 147.96 155.05 147.73 155.96 147.73C157.1 147.73 158 147.58 158.69 147.43C160.2 147.13 160.66 145.84 160.89 143.64C161.27 140.46 161.27 134.48 161.27 127.13V113.8H161.26Z" fill="#004098"/>
<path d="M200.48 138.79C200.63 144.7 201.62 146.67 203.13 147.2C204.42 147.65 205.86 147.73 207.07 147.73C207.9 147.73 208.36 147.88 208.36 148.34C208.36 148.95 207.68 149.1 206.62 149.1C201.7 149.1 198.67 148.87 197.23 148.87C196.55 148.87 192.99 149.1 189.05 149.1C188.07 149.1 187.38 149.02 187.38 148.34C187.38 147.89 187.83 147.73 188.59 147.73C189.58 147.73 190.94 147.65 192 147.35C193.97 146.74 194.27 144.55 194.35 137.96L195.03 93.1301C195.03 91.6201 195.26 90.5601 196.01 90.5601C196.84 90.5601 197.52 91.5401 198.81 92.9101C199.72 93.8901 211.23 106.24 222.29 117.22C227.44 122.37 237.66 133.27 238.95 134.49H239.33L238.57 100.49C238.49 95.8701 237.81 94.4301 236 93.6701C234.86 93.2201 233.05 93.2201 231.99 93.2201C231.08 93.2201 230.78 92.9901 230.78 92.5401C230.78 91.9301 231.61 91.8601 232.75 91.8601C236.69 91.8601 240.32 92.0901 241.91 92.0901C242.74 92.0901 245.62 91.8601 249.33 91.8601C250.31 91.8601 251.07 91.9401 251.07 92.5401C251.07 92.9901 250.61 93.2201 249.71 93.2201C248.95 93.2201 248.35 93.2201 247.44 93.4501C245.32 94.0601 244.71 95.6501 244.64 99.8901L243.81 147.68C243.81 149.35 243.51 150.03 242.83 150.03C242 150.03 241.09 149.2 240.25 148.36C235.48 143.82 225.79 133.9 217.91 126.1C209.66 117.92 201.25 108.46 199.89 107.02H199.66L200.49 138.83L200.48 138.79Z" fill="#004098"/>
<path d="M313.92 144.02C313.92 146.07 313.84 146.22 312.94 146.75C308.02 149.33 300.6 150.16 294.69 150.16C276.14 150.16 259.7 141.38 259.7 120.47C259.7 108.35 265.99 99.87 272.88 95.71C280.15 91.32 286.89 90.79 293.25 90.79C298.48 90.79 305.14 91.7 306.65 92C308.24 92.3 310.89 92.76 312.63 92.83C313.54 92.91 313.69 93.21 313.69 93.74C313.69 94.57 313.16 96.69 313.16 106.16C313.16 107.37 312.93 107.75 312.33 107.75C311.8 107.75 311.65 107.37 311.57 106.77C311.34 105.03 310.96 102.6 308.99 100.48C306.72 98.06 300.66 94.57 292.1 94.57C287.93 94.57 282.41 94.87 277.11 99.27C272.87 102.83 270.14 108.51 270.14 117.82C270.14 134.1 280.51 146.29 296.49 146.29C298.46 146.29 301.11 146.29 302.93 145.46C304.07 144.93 304.37 143.95 304.37 142.66V135.54C304.37 131.75 304.37 128.88 304.29 126.6C304.21 124.03 303.53 122.81 301.03 122.28C300.42 122.13 299.14 122.05 298.08 122.05C297.4 122.05 296.94 121.9 296.94 121.44C296.94 120.83 297.47 120.68 298.53 120.68C302.47 120.68 307.24 120.91 309.51 120.91C311.78 120.91 315.87 120.68 318.37 120.68C319.35 120.68 319.88 120.83 319.88 121.44C319.88 121.89 319.43 122.05 318.9 122.05C318.29 122.05 317.76 122.13 316.86 122.28C314.81 122.66 314.06 123.95 313.98 126.6C313.9 128.87 313.9 131.9 313.9 135.69V144.02H313.92Z" fill="#004098"/>
<path fill-rule="evenodd" clip-rule="evenodd" d="M317.05 4.53998C309.66 1.45998 301.41 1.50998 294.05 4.69998C286.56 1.45998 278.17 1.45998 270.68 4.69998C263.19 1.45998 254.8 1.45998 247.31 4.69998C239.94 1.50998 231.7 1.45998 224.3 4.54998V11.31C231.52 7.43998 240.08 7.48998 247.26 11.48C247.26 11.49 247.27 11.51 247.28 11.52C247.28 11.52 247.3 11.52 247.31 11.51C247.31 11.51 247.33 11.51 247.34 11.52L247.36 11.48C254.65 7.42998 263.35 7.42998 270.63 11.48L270.65 11.52C270.65 11.52 270.67 11.52 270.68 11.51C270.68 11.51 270.7 11.51 270.71 11.52C270.71 11.51 270.72 11.49 270.73 11.48C278.02 7.42998 286.72 7.42998 294 11.48C294 11.49 294.01 11.51 294.02 11.52C294.02 11.52 294.04 11.52 294.05 11.51C294.05 11.51 294.07 11.51 294.08 11.52L294.1 11.48C301.28 7.48998 309.83 7.43998 317.05 11.3V4.53998Z" fill="#004098"/>
<path fill-rule="evenodd" clip-rule="evenodd" d="M317.05 20.4199C309.66 17.3399 301.41 17.3899 294.05 20.5799C286.56 17.3399 278.17 17.3399 270.68 20.5799C263.19 17.3399 254.8 17.3399 247.31 20.5799C239.94 17.3899 231.7 17.3399 224.3 20.4299V27.1899C231.52 23.3199 240.08 23.3699 247.26 27.3599C247.26 27.3699 247.27 27.3899 247.28 27.3999C247.28 27.3999 247.3 27.3999 247.31 27.3899C247.31 27.3899 247.33 27.3899 247.34 27.3999L247.36 27.3599C254.65 23.3099 263.35 23.3099 270.63 27.3599L270.65 27.3999C270.65 27.3999 270.67 27.3999 270.68 27.3899C270.68 27.3899 270.7 27.3899 270.71 27.3999C270.71 27.3899 270.72 27.3699 270.73 27.3599C278.02 23.3099 286.72 23.3099 294 27.3599C294 27.3699 294.01 27.3899 294.02 27.3999C294.02 27.3999 294.04 27.3999 294.05 27.3899C294.05 27.3899 294.07 27.3899 294.08 27.3999L294.1 27.3599C301.28 23.3699 309.83 23.3199 317.05 27.1799V20.4199Z" fill="#004098"/>
<path fill-rule="evenodd" clip-rule="evenodd" d="M317.05 36.31C309.66 33.23 301.41 33.28 294.05 36.47C286.56 33.23 278.17 33.23 270.68 36.47C263.19 33.23 254.8 33.23 247.31 36.47C239.94 33.28 231.7 33.23 224.3 36.32V43.08C231.52 39.21 240.08 39.26 247.26 43.25C247.26 43.26 247.27 43.28 247.28 43.29C247.28 43.29 247.3 43.29 247.31 43.28C247.31 43.28 247.33 43.28 247.34 43.29L247.36 43.25C254.65 39.2 263.35 39.2 270.63 43.25L270.65 43.29C270.65 43.29 270.67 43.29 270.68 43.28C270.68 43.28 270.7 43.28 270.71 43.29C270.71 43.28 270.72 43.26 270.73 43.25C278.02 39.2 286.72 39.2 294 43.25C294 43.26 294.01 43.28 294.02 43.29C294.02 43.29 294.04 43.29 294.05 43.28C294.05 43.28 294.07 43.28 294.08 43.29L294.1 43.25C301.28 39.26 309.83 39.21 317.05 43.07V36.31Z" fill="#004098"/>
<path fill-rule="evenodd" clip-rule="evenodd" d="M317.05 52.1899C309.66 49.1099 301.41 49.1599 294.05 52.3499C286.56 49.1099 278.17 49.1099 270.68 52.3499C263.19 49.1099 254.8 49.1099 247.31 52.3499C239.94 49.1599 231.7 49.1099 224.3 52.1999V58.9599C231.52 55.0899 240.08 55.1399 247.26 59.1299C247.26 59.1399 247.27 59.1599 247.28 59.1699C247.28 59.1699 247.3 59.1699 247.31 59.1599C247.31 59.1599 247.33 59.1599 247.34 59.1699L247.36 59.1299C254.65 55.0799 263.35 55.0799 270.63 59.1299L270.65 59.1699C270.65 59.1699 270.67 59.1699 270.68 59.1599C270.68 59.1599 270.7 59.1599 270.71 59.1699C270.71 59.1599 270.72 59.1399 270.73 59.1299C278.02 55.0799 286.72 55.0799 294 59.1299C294 59.1399 294.01 59.1599 294.02 59.1699C294.02 59.1699 294.04 59.1699 294.05 59.1599C294.05 59.1599 294.07 59.1599 294.08 59.1699L294.1 59.1299C301.28 55.1399 309.83 55.0899 317.05 58.9499V52.1899Z" fill="#004098"/>
</svg>
