<svg width="490" height="48" viewBox="0 0 490 48" fill="none" xmlns="http://www.w3.org/2000/svg">
<path d="M13.96 29.2696C13.96 35.0896 13.9599 39.6296 14.2599 42.1796C14.4399 43.9396 14.7999 45.2696 16.6199 45.5096C17.4699 45.6296 18.7999 45.7496 19.6499 45.7496C20.4399 45.7496 20.6799 45.9296 20.6799 46.2296C20.6799 46.6496 20.26 46.8396 19.35 46.8396C15.53 46.8396 11.72 46.6596 10.14 46.6596C8.55995 46.6596 4.74996 46.8396 2.43996 46.8396C1.58996 46.8396 1.16995 46.7196 1.16995 46.2296C1.16995 45.9296 1.40996 45.7496 2.07996 45.7496C2.98996 45.7496 3.71995 45.6296 4.25995 45.5096C5.46995 45.2696 5.76996 43.9296 6.01996 42.1796C6.31996 39.6396 6.31996 35.0896 6.31996 29.2696V18.6096C6.31996 9.39957 6.31995 7.69957 6.19995 5.75957C6.07995 3.69957 5.58995 2.72957 3.58995 2.30957C3.09995 2.18957 2.06995 2.12957 1.22995 2.12957C0.61995 2.12957 0.199951 2.00957 0.199951 1.64957C0.199951 1.16957 0.679951 1.03957 1.58995 1.03957C3.16995 1.03957 4.91995 1.09957 6.49995 1.09957C8.07995 1.15957 9.46996 1.21957 10.32 1.21957C12.62 1.21957 24.92 1.21957 26.32 1.15957C27.47 1.09957 28.2 1.09957 28.8 0.91957C29.16 0.79957 29.47 0.55957 29.77 0.55957C30.01 0.55957 30.19 0.79957 30.19 1.10957C30.19 1.52957 29.89 2.25957 29.71 3.83957C29.65 4.44957 29.53 8.01957 29.41 8.74957C29.35 9.22957 29.23 9.59957 28.8 9.59957C28.37 9.59957 28.26 9.29957 28.19 8.62957C28.19 8.14957 28.19 7.17957 27.83 6.32957C27.41 5.47957 26.13 4.56957 23.83 4.50957L14.5 4.32957C14.14 4.32957 13.96 4.50957 13.96 5.17957V20.3296C13.96 20.6896 14.02 20.8796 14.38 20.8796L22.14 20.8196C23.17 20.8196 24.0199 20.8196 24.8699 20.7596C26.0199 20.6996 26.8699 20.4596 27.4799 19.6696C27.7799 19.3096 27.9 19.0596 28.27 19.0596C28.51 19.0596 28.63 19.2396 28.63 19.6096C28.63 19.9796 28.3299 21.4896 28.1499 23.3696C28.0299 24.5796 27.91 27.3696 27.91 27.7896C27.91 28.3396 27.91 28.9396 27.3 28.9396C26.94 28.9396 26.82 28.5196 26.82 28.0896C26.82 27.6596 26.7 26.9396 26.46 26.2096C26.16 25.3596 25.2499 24.2696 23.3699 24.0296C21.8599 23.8496 15.4299 23.8496 14.3999 23.8496C14.0999 23.8496 13.9799 23.9696 13.9799 24.3996V29.3096L13.96 29.2696Z" fill="white"/>
<path d="M46.86 18.5995C46.86 9.38953 46.86 7.68953 46.74 5.74953C46.62 3.68953 46.13 2.71953 44.13 2.29953C43.64 2.17953 42.61 2.11953 41.77 2.11953C41.1 2.11953 40.74 1.99953 40.74 1.56953C40.74 1.13953 41.16 1.01953 42.07 1.01953C45.28 1.01953 49.1 1.19953 50.92 1.19953C52.37 1.19953 56.19 1.01953 58.37 1.01953C59.28 1.01953 59.7 1.13953 59.7 1.56953C59.7 1.99953 59.34 2.11953 58.73 2.11953C58.06 2.11953 57.7 2.17953 56.97 2.29953C55.33 2.59953 54.85 3.62953 54.73 5.74953C54.61 7.68953 54.61 9.38953 54.61 18.5995V27.0795C54.61 35.8695 56.37 39.5595 59.34 41.9895C62.07 44.2295 64.85 44.4695 66.91 44.4695C69.58 44.4695 72.85 43.6195 75.27 41.1995C78.6 37.8695 78.78 32.4095 78.78 26.1695V18.5995C78.78 9.38953 78.78 7.68953 78.66 5.74953C78.54 3.68953 78.05 2.71953 76.05 2.29953C75.57 2.17953 74.54 2.11953 73.87 2.11953C73.2 2.11953 72.84 1.99953 72.84 1.56953C72.84 1.13953 73.26 1.01953 74.11 1.01953C77.2 1.01953 81.02 1.19953 81.08 1.19953C81.81 1.19953 85.63 1.01953 87.99 1.01953C88.84 1.01953 89.26 1.13953 89.26 1.56953C89.26 1.99953 88.9 2.11953 88.17 2.11953C87.5 2.11953 87.14 2.17953 86.41 2.29953C84.77 2.59953 84.29 3.62953 84.17 5.74953C84.05 7.68953 84.05 9.38953 84.05 18.5995V25.0795C84.05 31.8095 83.38 38.9595 78.29 43.3195C73.99 47.0195 69.63 47.6795 65.69 47.6795C62.48 47.6795 56.66 47.4995 52.24 43.4995C49.15 40.7095 46.85 36.2295 46.85 27.4395V18.5895L46.86 18.5995Z" fill="white"/>
<path d="M114.13 29.2698C114.13 37.0298 114.13 41.2098 115.4 42.2998C116.43 43.2098 118.01 43.6298 122.73 43.6298C125.94 43.6298 128.31 43.5698 129.82 41.9298C130.55 41.1398 131.27 39.4498 131.4 38.2898C131.46 37.7398 131.58 37.3798 132.07 37.3798C132.49 37.3798 132.56 37.6798 132.56 38.4098C132.56 39.0798 132.14 43.6198 131.65 45.3798C131.29 46.7098 130.98 47.0198 127.83 47.0198C123.47 47.0198 120.32 46.8998 117.59 46.8398C114.86 46.7198 112.68 46.6598 110.2 46.6598C109.53 46.6598 108.2 46.6598 106.75 46.7198C105.36 46.7198 103.78 46.8398 102.57 46.8398C101.78 46.8398 101.36 46.6598 101.36 46.2298C101.36 45.9298 101.6 45.7498 102.33 45.7498C103.24 45.7498 103.97 45.6298 104.51 45.5098C105.72 45.2698 106.02 43.9298 106.27 42.1798C106.57 39.6398 106.57 34.8498 106.57 29.2698V18.6098C106.57 9.39979 106.57 7.69979 106.45 5.75979C106.33 3.69979 105.84 2.72979 103.84 2.30979C103.35 2.18979 102.63 2.12979 101.84 2.12979C101.17 2.12979 100.81 2.00979 100.81 1.57979C100.81 1.14979 101.23 1.02979 102.14 1.02979C104.99 1.02979 108.8 1.20979 110.44 1.20979C111.89 1.20979 116.32 1.02979 118.68 1.02979C119.53 1.02979 119.95 1.14979 119.95 1.57979C119.95 2.00979 119.59 2.12979 118.86 2.12979C118.19 2.12979 117.22 2.18979 116.5 2.30979C114.86 2.60979 114.38 3.63979 114.26 5.75979C114.14 7.69979 114.14 9.39979 114.14 18.6098V29.2698H114.13Z" fill="white"/>
<path d="M156.24 29.2698C156.24 37.0298 156.24 41.2098 157.51 42.2998C158.54 43.2098 160.12 43.6298 164.84 43.6298C168.05 43.6298 170.42 43.5698 171.93 41.9298C172.66 41.1398 173.38 39.4498 173.51 38.2898C173.57 37.7398 173.69 37.3798 174.18 37.3798C174.6 37.3798 174.67 37.6798 174.67 38.4098C174.67 39.0798 174.25 43.6198 173.76 45.3798C173.4 46.7098 173.09 47.0198 169.94 47.0198C165.58 47.0198 162.43 46.8998 159.7 46.8398C156.97 46.7198 154.79 46.6598 152.31 46.6598C151.64 46.6598 150.31 46.6598 148.86 46.7198C147.47 46.7198 145.89 46.8398 144.68 46.8398C143.89 46.8398 143.47 46.6598 143.47 46.2298C143.47 45.9298 143.71 45.7498 144.44 45.7498C145.35 45.7498 146.08 45.6298 146.62 45.5098C147.83 45.2698 148.13 43.9298 148.38 42.1798C148.68 39.6398 148.68 34.8498 148.68 29.2698V18.6098C148.68 9.39979 148.68 7.69979 148.56 5.75979C148.44 3.69979 147.95 2.72979 145.95 2.30979C145.46 2.18979 144.74 2.12979 143.95 2.12979C143.28 2.12979 142.92 2.00979 142.92 1.57979C142.92 1.14979 143.34 1.02979 144.25 1.02979C147.1 1.02979 150.92 1.20979 152.55 1.20979C154 1.20979 158.43 1.02979 160.79 1.02979C161.64 1.02979 162.06 1.14979 162.06 1.57979C162.06 2.00979 161.7 2.12979 160.97 2.12979C160.3 2.12979 159.33 2.18979 158.61 2.30979C156.97 2.60979 156.49 3.63979 156.37 5.75979C156.25 7.69979 156.25 9.39979 156.25 18.6098V29.2698H156.24Z" fill="white"/>
<path d="M183.03 22.8398H200.31V26.1798H183.03V22.8398Z" fill="white"/>
<path d="M218.21 18.5998C218.21 9.38978 218.21 7.68979 218.09 5.74979C217.97 3.68979 217.36 2.65979 216.03 2.35979C215.36 2.17979 214.58 2.11979 213.85 2.11979C213.24 2.11979 212.88 1.99979 212.88 1.50979C212.88 1.14979 213.36 1.02979 214.33 1.02979C216.63 1.02979 220.45 1.20979 222.21 1.20979C223.72 1.20979 227.3 1.02979 229.6 1.02979C230.39 1.02979 230.87 1.14979 230.87 1.50979C230.87 1.98979 230.51 2.11979 229.9 2.11979C229.29 2.11979 228.81 2.17979 228.08 2.29979C226.44 2.59979 225.96 3.62979 225.84 5.74979C225.72 7.68979 225.72 9.38978 225.72 18.5998V29.2598C225.72 35.1398 225.72 39.9198 225.96 42.5298C226.14 44.1698 226.57 45.2598 228.38 45.4998C229.23 45.6198 230.56 45.7398 231.47 45.7398C232.14 45.7398 232.44 45.9198 232.44 46.2198C232.44 46.6398 231.95 46.8298 231.29 46.8298C227.29 46.8298 223.47 46.6498 221.84 46.6498C220.45 46.6498 216.63 46.8298 214.21 46.8298C213.42 46.8298 213 46.6498 213 46.2198C213 45.9198 213.24 45.7398 213.97 45.7398C214.88 45.7398 215.61 45.6198 216.15 45.4998C217.36 45.2598 217.73 44.2298 217.91 42.4698C218.21 39.9198 218.21 35.1398 218.21 29.2598V18.5998Z" fill="white"/>
<path d="M254.45 38.5998C254.57 43.3298 255.36 44.8998 256.57 45.3298C257.6 45.6898 258.75 45.7498 259.72 45.7498C260.39 45.7498 260.75 45.8698 260.75 46.2298C260.75 46.7098 260.21 46.8398 259.36 46.8398C255.42 46.8398 253 46.6598 251.85 46.6598C251.3 46.6598 248.46 46.8398 245.31 46.8398C244.52 46.8398 243.98 46.7798 243.98 46.2298C243.98 45.8698 244.34 45.7498 244.95 45.7498C245.74 45.7498 246.83 45.6898 247.68 45.4498C249.26 44.9698 249.5 43.2098 249.56 37.9398L250.1 2.06977C250.1 0.859766 250.28 0.00976562 250.89 0.00976562C251.56 0.00976562 252.1 0.799766 253.13 1.88977C253.86 2.67977 263.07 12.5498 271.91 21.3398C276.03 25.4598 284.21 34.1898 285.24 35.1498H285.54L284.93 7.93977C284.87 4.23977 284.32 3.08977 282.87 2.48977C281.96 2.12977 280.51 2.12977 279.66 2.12977C278.93 2.12977 278.69 1.94977 278.69 1.57977C278.69 1.09977 279.36 1.02977 280.27 1.02977C283.42 1.02977 286.33 1.20977 287.6 1.20977C288.27 1.20977 290.57 1.02977 293.54 1.02977C294.33 1.02977 294.93 1.08977 294.93 1.57977C294.93 1.93977 294.57 2.12977 293.84 2.12977C293.23 2.12977 292.75 2.12977 292.02 2.30977C290.32 2.78977 289.84 4.06977 289.78 7.45977L289.11 45.6898C289.11 47.0198 288.87 47.5698 288.32 47.5698C287.65 47.5698 286.93 46.8998 286.26 46.2398C282.44 42.5998 274.69 34.6698 268.38 28.4298C261.78 21.8898 255.05 14.3098 253.96 13.1598H253.78L254.45 38.6098V38.5998Z" fill="white"/>
<path d="M306.14 22.8398H323.42V26.1798H306.14V22.8398Z" fill="white"/>
<path d="M334.72 23.9297C334.72 13.5697 341.57 0.179688 359.74 0.179688C374.83 0.179688 384.22 8.96969 384.22 22.8397C384.22 36.7097 374.52 47.6797 359.13 47.6797C341.74 47.6797 334.71 34.6497 334.71 23.9297H334.72ZM375.74 25.0797C375.74 11.5097 367.92 3.07969 357.99 3.07969C351.02 3.07969 343.08 6.95969 343.08 22.0497C343.08 34.6497 350.05 44.6497 361.68 44.6497C365.92 44.6497 375.74 42.5897 375.74 25.0797Z" fill="white"/>
<path d="M405.74 38.5998C405.86 43.3298 406.65 44.8998 407.86 45.3298C408.89 45.6898 410.04 45.7498 411.01 45.7498C411.68 45.7498 412.04 45.8698 412.04 46.2298C412.04 46.7098 411.5 46.8398 410.65 46.8398C406.71 46.8398 404.29 46.6598 403.14 46.6598C402.6 46.6598 399.75 46.8398 396.6 46.8398C395.81 46.8398 395.27 46.7798 395.27 46.2298C395.27 45.8698 395.63 45.7498 396.24 45.7498C397.03 45.7498 398.12 45.6898 398.97 45.4498C400.55 44.9698 400.79 43.2098 400.85 37.9398L401.39 2.06977C401.39 0.859766 401.57 0.00976562 402.18 0.00976562C402.85 0.00976562 403.39 0.799766 404.42 1.88977C405.15 2.67977 414.36 12.5498 423.2 21.3398C427.32 25.4598 435.5 34.1898 436.53 35.1498H436.83L436.22 7.93977C436.16 4.23977 435.61 3.08977 434.16 2.48977C433.25 2.12977 431.8 2.12977 430.95 2.12977C430.22 2.12977 429.98 1.94977 429.98 1.57977C429.98 1.09977 430.65 1.02977 431.56 1.02977C434.71 1.02977 437.62 1.20977 438.89 1.20977C439.56 1.20977 441.86 1.02977 444.83 1.02977C445.62 1.02977 446.22 1.08977 446.22 1.57977C446.22 1.93977 445.86 2.12977 445.13 2.12977C444.52 2.12977 444.04 2.12977 443.31 2.30977C441.61 2.78977 441.13 4.06977 441.07 7.45977L440.4 45.6898C440.4 47.0198 440.16 47.5698 439.61 47.5698C438.94 47.5698 438.22 46.8998 437.55 46.2398C433.73 42.5998 425.98 34.6698 419.67 28.4298C413.07 21.8898 406.34 14.3098 405.25 13.1598H405.07L405.74 38.6098V38.5998Z" fill="white"/>
<path d="M465.18 18.5996C465.18 9.38955 465.18 7.68955 465.06 5.74955C464.94 3.68955 464.45 2.71955 462.45 2.29955C461.96 2.17955 460.93 2.11955 460.09 2.11955C459.42 2.11955 459.06 1.99955 459.06 1.56955C459.06 1.13955 459.48 1.01955 460.39 1.01955C462.03 1.01955 463.78 1.07955 465.3 1.07955C466.88 1.13955 468.27 1.19955 469.12 1.19955C471.06 1.19955 483.12 1.19955 484.27 1.13955C485.42 1.01955 486.39 0.899551 486.88 0.779551C487.18 0.719551 487.55 0.539551 487.85 0.539551C488.15 0.539551 488.21 0.779551 488.21 1.08955C488.21 1.50955 487.91 2.23955 487.73 5.02955C487.67 5.63955 487.55 8.29955 487.43 9.02955C487.37 9.32955 487.25 9.69955 486.82 9.69955C486.39 9.69955 486.28 9.39955 486.28 8.84955C486.28 8.42955 486.22 7.39955 485.92 6.66955C485.5 5.57955 484.89 4.84955 481.86 4.48955C480.83 4.36955 474.47 4.24955 473.26 4.24955C472.96 4.24955 472.84 4.42955 472.84 4.85955V20.1896C472.84 20.6096 472.9 20.8596 473.26 20.8596C474.59 20.8596 481.56 20.8595 482.95 20.7395C484.41 20.6195 485.31 20.4395 485.86 19.8295C486.28 19.3495 486.53 19.0396 486.83 19.0396C487.07 19.0396 487.25 19.1596 487.25 19.5196C487.25 19.8796 487.01 20.8496 486.76 23.9396C486.7 25.1496 486.52 27.5795 486.52 27.9995C486.52 28.4795 486.52 29.1495 485.97 29.1495C485.55 29.1495 485.42 28.9096 485.42 28.5996C485.36 27.9896 485.36 27.2095 485.18 26.4195C484.88 25.2095 484.03 24.2995 481.79 24.0595C480.64 23.9395 474.64 23.8795 473.19 23.8795C472.89 23.8795 472.83 24.1195 472.83 24.4895V29.2796C472.83 31.3396 472.77 36.9095 472.83 38.6695C472.95 42.8495 473.92 43.7595 480.1 43.7595C481.68 43.7595 484.22 43.7595 485.8 43.0295C487.38 42.2995 488.1 41.0295 488.53 38.5495C488.65 37.8795 488.77 37.6395 489.2 37.6395C489.69 37.6395 489.69 38.1195 489.69 38.7295C489.69 40.1195 489.2 44.2395 488.9 45.4595C488.48 47.0395 487.93 47.0396 485.63 47.0396C481.09 47.0396 477.75 46.9196 475.15 46.8596C472.54 46.7396 470.67 46.6796 468.85 46.6796C468.18 46.6796 466.85 46.6796 465.4 46.7396C464.01 46.7396 462.43 46.8596 461.22 46.8596C460.43 46.8596 460.01 46.6795 460.01 46.2495C460.01 45.9495 460.25 45.7696 460.98 45.7696C461.89 45.7696 462.62 45.6495 463.16 45.5295C464.37 45.2895 464.67 43.9496 464.92 42.1996C465.22 39.6596 465.22 34.8696 465.22 29.2896V18.6295L465.18 18.5996Z" fill="white"/>
</svg>
