<svg width="792" height="39" viewBox="0 0 792 39" fill="none" xmlns="http://www.w3.org/2000/svg">
<path d="M0.68 34.4899C0.08 34.1699 0 33.8498 0 33.3698C0 31.4898 0.12 29.2498 0.28 28.3698C0.36 27.8898 0.48 27.6098 0.72 27.6098C0.96 27.6098 1.08 27.8498 1.08 28.1698C1.08 30.7298 3.04 33.4899 7.08 33.4899C11.12 33.4899 14.32 31.4098 14.32 26.6498C14.32 21.2898 9.52 19.4099 7.56 19.0499C6.52 18.8499 6.28 18.6899 6.28 18.3699C6.28 18.0899 6.56 17.8898 7 17.8098C8.8 17.4498 13.2 15.6098 13.2 10.9298C13.2 9.24985 11.96 6.00985 7.88 6.00985C4.72 6.00985 2.32 7.88985 2.32 10.2498C2.32 10.7298 2.16 10.8498 1.96 10.8498C1.8 10.8498 1.68 10.7298 1.64 10.2898C1.48 9.00985 1.36 7.20985 1.36 6.28985C1.36 5.92985 1.4 5.76985 1.92 5.52985C3.28 4.92985 5.68 4.08984 9 4.08984C16.68 4.08984 18.08 8.12985 18.08 10.0098C18.08 13.9298 13.84 16.6498 12.24 17.2098V17.2898C15.2 17.9698 19.36 20.3298 19.36 25.1698C19.36 30.7698 14.52 35.4498 6.72 35.4498C3.88 35.4498 1.6 35.0099 0.68 34.4899Z" fill="white"/>
<path d="M31.16 16.3699V11.1298C31.16 10.1698 31.16 9.68985 30.56 9.68985C29.8 9.68985 26.8 11.2498 25.92 11.6098C25.72 11.6898 25.52 11.7698 25.36 11.7698C25.24 11.7698 25.04 11.5698 25.04 11.3298C25.04 11.0898 25.24 10.8898 25.44 10.7698C25.6 10.6898 33.28 5.64985 34.68 4.60985C35.04 4.36985 35.4 4.08984 35.72 4.08984C36.08 4.08984 36.2 4.52985 36.2 4.92985C36.2 5.24985 35.96 9.20985 35.96 15.3298V22.7299C35.96 26.5699 35.96 29.9698 36.12 31.7298C36.24 33.0098 36.44 33.6098 37.72 33.8898C38.32 34.0098 40.04 34.1299 40.36 34.1299C40.52 34.1299 40.72 34.2498 40.72 34.5298C40.72 34.8098 40.52 34.8898 40.08 34.8898C37.04 34.8898 34.48 34.7699 33.4 34.7699C32.48 34.7699 29.12 34.8898 26.56 34.8898C26.12 34.8898 25.88 34.8098 25.88 34.5298C25.88 34.2498 26.04 34.1299 26.2 34.1299C26.64 34.1299 28.68 34.0099 29.4 33.8499C30.68 33.5699 30.88 33.0098 31 31.7298C31.16 29.9698 31.24 26.5699 31.2 22.7299L31.16 16.3699Z" fill="white"/>
<path d="M61.12 4.05C61.23 4.13 61.28 4.21 61.28 4.29C61.28 4.37 61.27 4.44 61.24 4.49C57.27 12.57 52.12 18.66 45.8 22.77C45.72 22.82 45.65 22.85 45.58 22.85C45.51 22.85 45.44 22.81 45.36 22.73L44.88 22.29C44.8 22.21 44.76 22.13 44.76 22.05C44.76 21.97 44.8 21.89 44.88 21.81C47.12 19.46 49.35 16.5 51.56 12.93C53.77 9.33 55.59 5.64 57 1.85C57.03 1.8 57.07 1.74 57.12 1.69C57.17 1.64 57.23 1.61 57.3 1.61C57.37 1.61 57.44 1.64 57.52 1.69L61.12 4.05ZM68.44 23.13C68.49 23.13 68.55 23.14 68.6 23.17C73.56 25.7 76.85 28.61 78.48 31.89C79.07 33.09 79.36 34.16 79.36 35.09C79.36 35.78 79.2 36.4 78.88 36.93C78.48 37.68 77.92 38.05 77.2 38.05C76.85 38.05 76.51 37.98 76.16 37.83C75.81 37.68 75.49 37.5 75.2 37.29C75.12 37.24 75.08 37.17 75.08 37.09C74.84 35.86 74.31 34.41 73.48 32.73C68.07 34.14 61.32 35.56 53.24 36.97C52.89 37.42 52.51 37.74 52.08 37.93C52.03 37.96 51.97 37.97 51.92 37.97C51.87 37.97 51.81 37.94 51.76 37.89C51.71 37.84 51.67 37.8 51.64 37.77L49.4 33.05C49.37 33 49.36 32.94 49.36 32.87C49.36 32.8 49.39 32.74 49.46 32.67C49.53 32.6 49.6 32.57 49.68 32.57C50.99 32.36 51.77 32.12 52.04 31.85C53.53 30.2 55.27 27.49 57.24 23.73C59.24 19.94 60.65 16.72 61.48 14.05C61.51 14 61.55 13.94 61.6 13.89C61.65 13.84 61.71 13.81 61.78 13.81C61.85 13.81 61.92 13.84 62 13.89C64.59 15.84 65.9 16.83 65.94 16.87C65.98 16.91 66 16.96 66 17.03C66 17.1 65.99 17.16 65.96 17.21C64.68 19.9 62.91 22.7 60.64 25.61C58.59 28.2 56.55 30.46 54.52 32.41C59.24 32.22 65.27 31.8 72.6 31.13C71.24 28.65 69.6 26.25 67.68 23.93C67.63 23.88 67.6 23.81 67.6 23.73C67.6 23.65 67.63 23.58 67.68 23.53C67.73 23.48 67.77 23.44 67.8 23.41L68.28 23.17C68.33 23.14 68.39 23.13 68.44 23.13ZM83.48 17.21C83.53 17.24 83.59 17.28 83.64 17.33C83.69 17.38 83.72 17.44 83.72 17.49C83.72 17.54 83.67 17.73 83.56 18.05C83.53 18.18 83.45 18.26 83.32 18.29C82.36 18.48 81.53 18.92 80.84 19.61C80.39 20.06 80.04 20.6 79.8 21.21C79.77 21.26 79.73 21.32 79.68 21.37C79.63 21.42 79.57 21.45 79.5 21.45C79.43 21.45 79.36 21.42 79.28 21.37C76.19 19.37 73.68 16.8 71.76 13.65C69.84 10.5 68.41 6.6 67.48 1.93C67.45 1.9 67.44 1.86 67.44 1.81C67.44 1.7 67.51 1.62 67.64 1.57L68.04 1.33C68.09 1.28 68.15 1.25 68.22 1.25C68.29 1.25 68.35 1.28 68.4 1.33C68.45 1.38 68.49 1.42 68.52 1.45L70 4.53C71.23 7.28 73 9.76 75.32 11.97C77.67 14.18 80.39 15.93 83.48 17.21Z" fill="white"/>
<path d="M131 35.4499V36.6099C131 36.7199 130.97 36.7999 130.92 36.8499C130.87 36.8999 130.79 36.9299 130.68 36.9299H93.88C93.77 36.9299 93.69 36.8999 93.64 36.8499C93.59 36.7999 93.56 36.7399 93.56 36.6899C93.32 35.8899 93.2 35.4599 93.2 35.4099C93.2 35.3599 93.23 35.2999 93.3 35.2299C93.37 35.1599 93.45 35.1299 93.56 35.1299H109.68V28.4899H97.36C97.25 28.4899 97.17 28.4599 97.12 28.4099C97.07 28.3599 97.04 28.2999 97.04 28.2499C96.8 27.4499 96.68 27.0199 96.68 26.9699C96.68 26.9199 96.71 26.8599 96.78 26.7899C96.85 26.7199 96.93 26.6899 97.04 26.6899H109.68V21.0099H102.44V22.3699C102.44 22.5599 102.35 22.7399 102.18 22.9299C102.01 23.1199 101.68 23.3199 101.2 23.5299C100.45 23.8499 99.67 24.0099 98.84 24.0099H98.24C98.13 24.0099 98.05 23.9799 98 23.9299C97.95 23.8799 97.92 23.7999 97.92 23.6899V4.00994C97.92 3.89994 97.95 3.81994 98 3.76994C98.05 3.71994 98.13 3.68994 98.24 3.68994H125.84C125.95 3.68994 126.03 3.71994 126.08 3.76994C126.13 3.81994 126.16 3.89994 126.16 4.00994V21.6899C126.16 21.8199 126.11 21.9399 126 22.0499C125.81 22.2399 125.36 22.4599 124.64 22.7299C123.92 22.9999 123.23 23.1299 122.56 23.1299H121.96C121.85 23.1299 121.77 23.0999 121.72 23.0499C121.67 22.9999 121.64 22.9199 121.64 22.8099V21.0099H114.32V26.6899H127.68C127.79 26.6899 127.87 26.7199 127.92 26.7699C127.97 26.8199 128 26.8999 128 27.0099V28.1699C128 28.2799 127.97 28.3599 127.92 28.4099C127.87 28.4599 127.79 28.4899 127.68 28.4899H114.32V35.1299H130.68C130.79 35.1299 130.87 35.1599 130.92 35.2099C130.97 35.2599 131 35.3399 131 35.4499ZM109.68 11.4499V5.48994H102.44V11.4499H109.68ZM102.44 13.2499V19.2499H109.68V13.2499H102.44ZM121.64 11.4499V5.48994H114.32V11.4499H121.64ZM114.32 13.2499V19.2499H121.64V13.2499H114.32Z" fill="white"/>
<path d="M178.72 7.81023C178.72 7.92023 178.69 8.00024 178.64 8.05024C178.59 8.10024 178.51 8.13023 178.4 8.13023H162.32V12.7302H175.44C175.55 12.7302 175.63 12.7602 175.68 12.8102C175.73 12.8602 175.76 12.9402 175.76 13.0502V33.4502C175.76 35.0202 175.37 36.2102 174.6 37.0102C173.85 37.8102 172.32 38.3202 170 38.5302C169.97 38.5602 169.93 38.5702 169.88 38.5702C169.83 38.5702 169.77 38.5402 169.72 38.4702C169.67 38.4002 169.64 38.3302 169.64 38.2502C169.51 37.0002 169.23 36.1802 168.8 35.8102C168.08 35.2002 166.92 34.7702 165.32 34.5302C165.24 34.5302 165.17 34.5002 165.12 34.4502C165.07 34.4002 165.04 34.3202 165.04 34.2102V33.6102C165.04 33.5002 165.07 33.4202 165.12 33.3502C165.17 33.2802 165.23 33.2502 165.28 33.2502C165.33 33.2502 165.37 33.2602 165.4 33.2902C168.2 33.5002 169.95 33.6102 170.64 33.6102C170.85 33.6102 171.01 33.5602 171.1 33.4702C171.19 33.3802 171.24 33.2402 171.24 33.0502V14.5302H149.44V36.7702C149.44 36.9602 149.35 37.1402 149.16 37.3302C148.97 37.5202 148.65 37.7302 148.2 37.9702C147.45 38.3202 146.68 38.4902 145.88 38.4902H145.28C145.17 38.4902 145.09 38.4602 145.04 38.4102C144.99 38.3602 144.96 38.2802 144.96 38.1702V13.0502C144.96 12.9402 144.99 12.8602 145.04 12.8102C145.09 12.7602 145.17 12.7302 145.28 12.7302H157.84V8.13023H142.28C142.17 8.13023 142.09 8.10024 142.04 8.05024C141.99 8.00024 141.96 7.94024 141.96 7.89024C141.72 7.09024 141.6 6.66024 141.6 6.61024C141.6 6.56024 141.63 6.50024 141.7 6.43024C141.77 6.36024 141.85 6.33024 141.96 6.33024H157.84V0.850235C157.84 0.740235 157.87 0.660233 157.92 0.590233C157.97 0.520233 158.03 0.490234 158.08 0.490234C158.13 0.490234 159.45 0.660239 162.04 1.01024C162.12 1.01024 162.19 1.04023 162.24 1.09023C162.29 1.14023 162.32 1.22024 162.32 1.33024V6.33024H178.4C178.51 6.33024 178.59 6.36024 178.64 6.41024C178.69 6.46024 178.72 6.54024 178.72 6.65024V7.81023ZM162.16 27.2902H170.4C170.51 27.2902 170.59 27.3202 170.64 27.3702C170.69 27.4202 170.72 27.5002 170.72 27.6102V28.7702C170.72 28.8802 170.69 28.9602 170.64 29.0102C170.59 29.0602 170.51 29.0902 170.4 29.0902H162.16V36.2502C162.16 36.4602 161.99 36.6602 161.64 36.8502C161.51 36.9302 161.12 37.0502 160.48 37.2102C159.97 37.3402 159.41 37.4102 158.8 37.4102H158.16C158.05 37.4102 157.97 37.3802 157.92 37.3302C157.87 37.2802 157.84 37.2002 157.84 37.0902V29.0902H150.6C150.49 29.0902 150.41 29.0602 150.36 29.0102C150.31 28.9602 150.28 28.9002 150.28 28.8502C150.04 28.0502 149.92 27.6202 149.92 27.5702C149.92 27.5202 149.95 27.4602 150.02 27.3902C150.09 27.3202 150.17 27.2902 150.28 27.2902H157.84V23.0502H151.56C151.45 23.0502 151.37 23.0202 151.32 22.9702C151.27 22.9202 151.24 22.8602 151.24 22.8102C151 22.0102 150.88 21.5802 150.88 21.5302C150.88 21.4802 150.91 21.4202 150.98 21.3502C151.05 21.2802 151.13 21.2502 151.24 21.2502H160.96C161.65 19.4102 162.33 17.2102 163 14.6502C163 14.6002 163.03 14.5402 163.1 14.4702C163.17 14.4002 163.23 14.3702 163.28 14.3702C163.33 14.3702 163.39 14.3802 163.44 14.4102L166.6 15.7702C166.65 15.8002 166.71 15.8402 166.76 15.8902C166.81 15.9402 166.84 16.0002 166.84 16.0702C166.84 16.1402 166.81 16.2102 166.76 16.2902C165.48 18.3202 164.25 19.9702 163.08 21.2502H169.88C169.99 21.2502 170.07 21.2802 170.12 21.3302C170.17 21.3802 170.2 21.4602 170.2 21.5702V22.7302C170.2 22.8402 170.17 22.9202 170.12 22.9702C170.07 23.0202 169.99 23.0502 169.88 23.0502H162.16V27.2902ZM153.04 14.6502C153.09 14.6002 153.14 14.5702 153.18 14.5702C153.22 14.5702 153.25 14.5802 153.28 14.6102C156.21 15.4402 157.93 16.7002 158.44 18.4102C158.55 18.7802 158.6 19.1202 158.6 19.4102C158.6 20.1302 158.31 20.7202 157.72 21.1702C157.29 21.4902 156.87 21.6502 156.44 21.6502C155.88 21.6502 155.31 21.4002 154.72 20.8902C154.67 20.8402 154.64 20.7602 154.64 20.6502C154.56 18.9202 153.85 17.1602 152.52 15.3702C152.47 15.2902 152.44 15.2202 152.44 15.1702C152.44 15.0402 152.51 14.9402 152.64 14.8902L153.04 14.6502Z" fill="white"/>
<path d="M205.96 28.6499C205.99 28.6999 206 28.7599 206 28.8099C206 28.9199 205.93 28.9999 205.8 29.0499C202.63 30.8399 198.24 33.0199 192.64 35.6099C192.4 36.1399 192.04 36.4899 191.56 36.6499C191.51 36.6799 191.45 36.6899 191.4 36.6899C191.35 36.6899 191.29 36.6599 191.24 36.6099C191.19 36.5599 191.15 36.5199 191.12 36.4899L189 31.8099C188.97 31.7599 188.96 31.6999 188.96 31.6299C188.96 31.5599 188.99 31.4999 189.06 31.4299C189.13 31.3599 189.2 31.3299 189.28 31.3299C189.97 31.2199 191.71 30.8899 194.48 30.3299V22.2099H190.16C190.05 22.2099 189.97 22.1799 189.92 22.1299C189.87 22.0799 189.84 22.0199 189.84 21.9699C189.6 21.1699 189.48 20.7399 189.48 20.6899C189.48 20.6399 189.51 20.5799 189.58 20.5099C189.65 20.4399 189.73 20.4099 189.84 20.4099H194.48V12.7299C194.48 12.6199 194.51 12.5399 194.56 12.4699C194.61 12.3999 194.67 12.3699 194.72 12.3699C194.77 12.3699 196.04 12.5299 198.52 12.8499C198.6 12.8499 198.67 12.8799 198.72 12.9299C198.77 12.9799 198.8 13.0599 198.8 13.1699V20.4099H205.04C206.24 17.5799 207.08 14.4199 207.56 10.9299C207.56 10.8499 207.59 10.7799 207.66 10.7099C207.73 10.6399 207.79 10.6099 207.84 10.6099C207.89 10.6099 207.95 10.6199 208 10.6499L211.84 11.9299C211.89 11.9599 211.95 11.9999 212 12.0499C212.05 12.0999 212.08 12.1599 212.08 12.2099C212.08 12.2599 212.07 12.2999 212.04 12.3299C211.77 13.7199 211.39 15.0599 210.88 16.3699H224.56C224.67 16.3699 224.75 16.3999 224.8 16.4499C224.85 16.4999 224.88 16.5799 224.88 16.6899V18.5299C224.88 18.6099 224.87 18.6799 224.84 18.7299C223.32 20.6799 221.73 22.4599 220.08 24.0899C220 24.1699 219.93 24.2099 219.86 24.2099C219.79 24.2099 219.73 24.1999 219.68 24.1699L219.16 23.9299C219.03 23.8499 218.96 23.7399 218.96 23.6099C218.96 23.5799 219.09 23.1199 219.36 22.2099C219.63 21.2999 219.99 19.9599 220.44 18.1699H210C208.29 21.6099 206.25 24.2499 203.88 26.0899C203.83 26.1399 203.77 26.1699 203.7 26.1699C203.63 26.1699 203.56 26.1399 203.48 26.0899C203.13 25.8499 202.93 25.6999 202.88 25.6499C202.83 25.5999 202.8 25.5399 202.8 25.4699C202.8 25.3999 202.83 25.3299 202.88 25.2499C203.44 24.3699 203.96 23.3599 204.44 22.2099H198.8V29.4499C200.08 29.1599 201.51 28.8199 203.08 28.4499C204.65 28.0799 205.47 27.8899 205.52 27.8899C205.57 27.8899 205.63 27.9199 205.7 27.9699C205.77 28.0199 205.8 28.0799 205.8 28.1299L205.96 28.6499ZM193.64 9.84986V3.04987C193.64 2.93987 193.67 2.85986 193.72 2.80986C193.77 2.75986 193.85 2.72987 193.96 2.72987H197.68C197.79 2.72987 197.87 2.75986 197.92 2.80986C197.97 2.85986 198 2.93987 198 3.04987V8.36987H205.76V0.969864C205.76 0.859864 205.79 0.779862 205.84 0.709862C205.89 0.639862 205.95 0.609863 206 0.609863C206.05 0.609863 207.35 0.77986 209.88 1.12986C209.96 1.12986 210.03 1.15986 210.08 1.20986C210.13 1.25986 210.16 1.33986 210.16 1.44986V8.36987H218.72V2.52986C218.72 2.41986 218.75 2.33986 218.8 2.26986C218.85 2.19986 218.91 2.16986 218.96 2.16986C219.01 2.16986 220.31 2.33987 222.84 2.68987C222.92 2.68987 222.99 2.71986 223.04 2.76986C223.09 2.81986 223.12 2.89986 223.12 3.00986V10.9299C223.12 11.1999 222.89 11.4199 222.44 11.6099C221.59 11.8999 220.68 12.0499 219.72 12.0499H219.04C218.93 12.0499 218.85 12.0199 218.8 11.9699C218.75 11.9199 218.72 11.8399 218.72 11.7299V10.1699H193.96C193.85 10.1699 193.77 10.1399 193.72 10.0899C193.67 10.0399 193.64 9.95986 193.64 9.84986ZM215.56 20.7299C215.61 20.7599 215.66 20.7899 215.7 20.8299C215.74 20.8699 215.76 20.9199 215.76 20.9699C215.76 21.5599 215.72 22.0599 215.64 22.4899C215.64 22.7299 215.63 22.9199 215.6 23.0499C216.13 25.4999 217.28 27.5999 219.04 29.3299C220.83 31.0399 223.47 32.3999 226.96 33.4099C227.01 33.4099 227.07 33.4399 227.14 33.4899C227.21 33.5399 227.24 33.5999 227.24 33.6499C227.24 33.6999 227.21 33.8899 227.16 34.2099C227.16 34.2899 227.13 34.3599 227.08 34.4099C227.03 34.4599 226.97 34.4899 226.92 34.4899C225.99 34.7299 225.29 35.0899 224.84 35.5699C224.39 36.0499 224.11 36.7999 224 37.8099C224 37.8899 223.97 37.9599 223.9 38.0299C223.83 38.0999 223.77 38.1299 223.72 38.1299C223.67 38.1299 223.61 38.1199 223.56 38.0899C220.81 36.9199 218.75 35.2099 217.36 32.9699C216.19 31.0999 215.32 28.9199 214.76 26.4099C214.41 27.3999 214.01 28.3299 213.56 29.2099C212.87 30.4899 211.91 31.7399 210.68 32.9699C208.15 35.4999 204.31 37.3699 199.16 38.5699C199.13 38.5999 199.09 38.6099 199.04 38.6099C198.93 38.6099 198.85 38.5399 198.8 38.4099L198.48 37.8499C198.43 37.7999 198.4 37.7399 198.4 37.6699C198.4 37.5999 198.43 37.5399 198.48 37.4899C198.53 37.4399 198.59 37.3999 198.64 37.3699C200.37 36.7599 201.92 36.0599 203.28 35.2899C204.64 34.4899 205.75 33.6199 206.6 32.6899C207.48 31.7599 208.23 30.8099 208.84 29.8499C209.43 28.8599 209.89 27.7799 210.24 26.5899C210.59 25.3999 210.83 24.2999 210.96 23.2899C211.12 22.2199 211.23 21.0499 211.28 19.7699C211.28 19.6599 211.31 19.5799 211.38 19.5099C211.45 19.4399 211.51 19.4099 211.56 19.4099C211.61 19.4099 211.67 19.4199 211.72 19.4499L215.56 20.7299Z" fill="white"/>
<path d="M237.6 10.2903C237.65 10.2403 237.7 10.2103 237.74 10.2103C237.78 10.2103 237.81 10.2203 237.84 10.2503C241.28 10.4903 243.45 11.4603 244.36 13.1703C244.65 13.6503 244.8 14.1403 244.8 14.6503C244.8 15.1803 244.57 15.6803 244.12 16.1303C243.67 16.5803 243.16 16.8103 242.6 16.8103C242.17 16.8103 241.71 16.6903 241.2 16.4503C241.12 16.4003 241.07 16.3303 241.04 16.2503C240.45 14.4603 239.19 12.7603 237.24 11.1303C237.13 11.0503 237.08 10.9603 237.08 10.8503C237.08 10.7403 237.13 10.6503 237.24 10.5703L237.6 10.2903ZM249.8 8.13031C249.85 8.13031 249.91 8.16032 249.98 8.23032C250.05 8.30032 250.08 8.36032 250.08 8.41032C250.08 8.46032 250.07 8.52031 250.04 8.57031C247.03 17.5003 245.31 22.8003 244.88 24.4503C244.48 25.9403 244.27 27.1403 244.24 28.0503C244.29 28.5003 244.53 29.4403 244.96 30.8503C245.41 32.1803 245.64 33.4603 245.64 34.6903C245.64 34.8203 245.63 34.9603 245.6 35.0903C245.57 36.1603 245.24 37.0103 244.6 37.6503C244.04 38.2103 243.32 38.4903 242.44 38.4903C241.88 38.4903 241.41 38.3003 241.04 37.9303C240.67 37.5603 240.43 36.9703 240.32 36.1703V36.0903C240.56 34.5203 240.68 33.0903 240.68 31.8103V30.6903C240.6 29.2503 240.37 28.4103 240 28.1703C239.55 27.8503 238.92 27.6503 238.12 27.5703C237.93 27.5703 237.84 27.4603 237.84 27.2503V26.4503C237.84 26.3403 237.87 26.2603 237.92 26.2103C237.97 26.1603 238.05 26.1303 238.16 26.1303H239.92C240.13 26.1303 240.28 26.1003 240.36 26.0503C240.47 25.9403 240.61 25.7403 240.8 25.4503C241.33 24.4603 243.97 18.6903 248.72 8.13031C248.8 8.00031 248.91 7.93031 249.04 7.93031C249.07 7.93031 249.32 8.00031 249.8 8.13031ZM240.56 1.25031C240.61 1.17031 240.67 1.13031 240.72 1.13031C240.77 1.13031 240.81 1.14031 240.84 1.17031C244.47 1.54031 246.79 2.64031 247.8 4.45031C248.09 4.96031 248.24 5.48031 248.24 6.01031C248.24 6.57031 247.99 7.10031 247.48 7.61031C247.05 8.04031 246.56 8.25031 246 8.25031C245.6 8.25031 245.15 8.14031 244.64 7.93031C244.64 7.90031 244.62 7.88031 244.58 7.85031C244.54 7.82031 244.48 7.80031 244.4 7.77031C244.29 7.72031 244.23 7.64031 244.2 7.53031C243.91 6.62031 243.39 5.66031 242.64 4.65031C241.89 3.64031 241.11 2.78031 240.28 2.09031C240.17 2.01031 240.12 1.92031 240.12 1.83031C240.12 1.74031 240.16 1.65031 240.24 1.57031L240.56 1.25031ZM274.64 26.9703C274.75 26.9703 274.83 27.0003 274.88 27.0503C274.93 27.1003 274.96 27.1803 274.96 27.2903V28.4503C274.96 28.5603 274.93 28.6403 274.88 28.6903C274.83 28.7403 274.75 28.7703 274.64 28.7703H263.44C265.33 31.1203 269.19 32.8603 275 34.0103C275.05 34.0103 275.11 34.0403 275.18 34.0903C275.25 34.1403 275.28 34.2003 275.28 34.2503C275.28 34.3003 275.25 34.5003 275.2 34.8503C275.2 34.9303 275.17 35.0003 275.12 35.0503C275.07 35.1003 275.01 35.1303 274.96 35.1303C274.03 35.3403 273.35 35.6603 272.92 36.0903C272.49 36.5203 272.24 37.2103 272.16 38.1703C272.16 38.2503 272.13 38.3203 272.06 38.3903C271.99 38.4603 271.93 38.4903 271.88 38.4903C271.83 38.4903 271.77 38.4803 271.72 38.4503C266.79 36.8503 263.43 33.6803 261.64 28.9303C260.68 31.2003 259.05 33.1303 256.76 34.7303C254.39 36.3803 250.96 37.6503 246.48 38.5303C246.45 38.5603 246.41 38.5703 246.36 38.5703C246.31 38.5703 246.25 38.5403 246.2 38.4903C246.15 38.4403 246.11 38.4003 246.08 38.3703L245.84 37.8503C245.81 37.8003 245.8 37.7403 245.8 37.6703C245.8 37.6003 245.83 37.5403 245.88 37.4903C245.93 37.4403 245.99 37.4003 246.04 37.3703C251.72 35.5803 255.37 32.7203 257 28.7703H247.44C247.33 28.7703 247.25 28.7403 247.2 28.6903C247.15 28.6403 247.12 28.5803 247.12 28.5303C246.88 27.7303 246.76 27.3003 246.76 27.2503C246.76 27.2003 246.79 27.1403 246.86 27.0703C246.93 27.0003 247.01 26.9703 247.12 26.9703H257.52C257.73 26.2203 257.88 25.4203 257.96 24.5703L252.24 25.5303C251.97 25.9603 251.67 26.2403 251.32 26.3703C251.27 26.4003 251.21 26.4103 251.16 26.4103C251.11 26.4103 251.05 26.3803 251 26.3303C250.95 26.2803 250.91 26.2403 250.88 26.2103L248.96 22.2503C248.93 22.2003 248.92 22.1403 248.92 22.0703C248.92 22.0003 248.95 21.9403 249.02 21.8703C249.09 21.8003 249.16 21.7703 249.24 21.7703C249.83 21.7203 250.25 21.6403 250.52 21.5303C252.92 20.7803 255.56 19.6403 258.44 18.0903C256.04 18.6203 254.15 19.0203 252.76 19.2903C252.49 19.6903 252.21 19.9603 251.92 20.0903C251.89 20.1203 251.85 20.1303 251.78 20.1303C251.71 20.1303 251.65 20.1003 251.6 20.0503C251.55 20.0003 251.51 19.9603 251.48 19.9303L249.68 16.2503C249.65 16.2003 249.64 16.1403 249.64 16.0703C249.64 16.0003 249.67 15.9403 249.74 15.8703C249.81 15.8003 249.88 15.7703 249.96 15.7703C250.39 15.6903 250.65 15.6303 250.74 15.5903C250.83 15.5503 250.89 15.5303 250.92 15.5303C252.17 15.1603 253.52 14.4603 254.96 13.4503C256.56 12.3303 257.79 11.3203 258.64 10.4103C258.72 10.3303 258.8 10.2903 258.88 10.2903C258.96 10.2903 259.04 10.3303 259.12 10.4103L261.56 12.6903C261.64 12.7703 261.68 12.8503 261.68 12.9303C261.68 13.0403 261.63 13.1303 261.52 13.2103C260.05 14.1703 258.49 14.9803 256.84 15.6503C258.81 15.6203 260.83 15.5703 262.88 15.4903C264.85 14.2103 266.28 13.1803 267.16 12.4103C267.24 12.3303 267.31 12.2903 267.38 12.2903C267.45 12.2903 267.52 12.3203 267.6 12.3703C270.19 14.1603 271.49 15.0603 271.52 15.0903C271.6 15.1703 271.64 15.2503 271.64 15.3303C271.64 15.4403 271.56 15.5603 271.4 15.6903C271.13 15.9803 270.77 16.1303 270.32 16.1303C270.08 16.1303 269.81 16.0803 269.52 15.9703C268.48 16.5803 267.35 17.2003 266.12 17.8103C269.75 18.2903 272.08 19.4803 273.12 21.3703C273.44 21.9603 273.6 22.5003 273.6 23.0103C273.6 23.6203 273.36 24.1703 272.88 24.6503C272.51 25.0203 272.1 25.2103 271.66 25.2103C271.22 25.2103 270.76 25.0803 270.28 24.8103C270.2 24.7803 270.15 24.7303 270.12 24.6503C269.88 24.0403 269.49 23.2903 268.96 22.4103C267.52 22.7003 265.29 23.1403 262.28 23.7303C262.44 23.7603 262.55 23.8003 262.62 23.8503C262.69 23.9003 262.72 23.9603 262.72 24.0103C262.72 24.0603 262.71 24.1003 262.68 24.1303C262.57 25.3303 262.44 26.2803 262.28 26.9703H274.64ZM270.28 4.73032C270.31 4.78032 270.32 4.84031 270.32 4.89031C270.32 4.94031 270.29 5.00031 270.22 5.07031C270.15 5.14031 270.08 5.17031 270 5.17031C264.37 5.86031 258.56 6.21031 252.56 6.21031C251.57 6.21031 250.57 6.20031 249.56 6.17031C249.45 6.17031 249.37 6.14031 249.32 6.09031C249.27 6.04031 249.24 5.97031 249.24 5.89031C249.16 5.44031 249.12 5.18031 249.12 5.13031C249.12 5.08031 249.15 5.02031 249.22 4.97031C249.29 4.92031 249.36 4.89031 249.44 4.89031C252.61 4.49031 256.03 3.88032 259.68 3.05032C263.36 2.20032 266.29 1.38031 268.48 0.610313C268.53 0.580313 268.59 0.570312 268.64 0.570312C268.69 0.570312 268.75 0.600314 268.8 0.650314C268.85 0.700314 268.89 0.76031 268.92 0.81031L270.28 4.73032ZM250.52 7.09031C250.47 7.04031 250.44 6.98032 250.44 6.91032C250.44 6.84032 250.47 6.78032 250.52 6.73032C250.57 6.68032 250.69 6.60031 250.88 6.51031C251.07 6.42031 251.18 6.37032 251.22 6.37032C251.26 6.37032 251.29 6.38032 251.32 6.41032C254.07 7.21032 255.64 8.40031 256.04 9.97031C256.12 10.2103 256.16 10.4503 256.16 10.6903C256.16 11.3803 255.84 11.9603 255.2 12.4103H255.16C254.76 12.6503 254.36 12.7703 253.96 12.7703C253.37 12.7703 252.79 12.5203 252.2 12.0103C252.15 11.9603 252.12 11.8903 252.12 11.8103C252.01 10.2603 251.48 8.69031 250.52 7.09031ZM265.48 18.1303C262.97 19.3003 260.13 20.4403 256.96 21.5303C259.33 21.4203 262.96 21.2203 267.84 20.9303C267.07 19.9703 266.29 19.2103 265.52 18.6503C265.41 18.5703 265.36 18.4803 265.36 18.3903C265.36 18.3003 265.4 18.2103 265.48 18.1303ZM257.92 6.13031C257.87 6.05031 257.84 5.98032 257.84 5.91032C257.84 5.84032 257.87 5.78032 257.92 5.73032C257.97 5.68032 258.09 5.60031 258.28 5.51031C258.47 5.42031 258.58 5.37032 258.62 5.37032C258.66 5.37032 258.69 5.38032 258.72 5.41032C261.57 6.16032 263.21 7.34031 263.64 8.97031C263.72 9.21031 263.76 9.45032 263.76 9.69032C263.76 10.4103 263.43 11.0003 262.76 11.4503C262.36 11.7203 261.96 11.8503 261.56 11.8503C261 11.8503 260.44 11.6103 259.88 11.1303C259.8 11.0503 259.76 10.9703 259.76 10.8903C259.63 9.45031 259.01 7.86031 257.92 6.13031ZM265.12 12.4903C265.01 12.4103 264.96 12.3303 264.96 12.2503C264.96 12.1703 264.99 12.1003 265.04 12.0503C265.89 10.4503 266.87 8.14031 267.96 5.13031C267.99 5.08031 268.03 5.02031 268.08 4.97031C268.13 4.92031 268.2 4.89031 268.28 4.89031C268.36 4.89031 268.43 4.92031 268.48 4.97031C270.4 6.52031 271.38 7.31031 271.42 7.35031C271.46 7.39031 271.48 7.45031 271.48 7.53031C271.48 7.61031 271.45 7.68032 271.4 7.73032C269.51 10.0803 267.72 11.7803 266.04 12.8503C265.96 12.9003 265.89 12.9303 265.84 12.9303C265.79 12.9303 265.72 12.9003 265.64 12.8503L265.12 12.4903Z" fill="white"/>
<path d="M307.48 29.6499C307.56 30.1299 307.6 30.3999 307.6 30.4499C307.6 30.4999 307.57 30.5499 307.52 30.5899C307.47 30.6299 307.41 30.6599 307.36 30.6899C306.75 30.8999 305.59 31.2499 303.88 31.7299V37.2899C303.88 37.4199 303.83 37.5399 303.74 37.6299C303.65 37.7199 303.5 37.8299 303.3 37.9499C303.1 38.0699 302.75 38.1999 302.24 38.3299C301.73 38.4599 301.19 38.5299 300.6 38.5299H300C299.89 38.5299 299.81 38.4999 299.76 38.4499C299.71 38.3999 299.68 38.3199 299.68 38.2099V32.9699C295.55 34.1399 291.8 35.1399 288.44 35.9699C288.12 36.5299 287.72 36.8499 287.24 36.9299C287.21 36.9599 287.17 36.9699 287.12 36.9699C287.07 36.9699 287.01 36.9399 286.96 36.8899C286.91 36.8399 286.87 36.7799 286.84 36.7299L285.16 32.5299C285.13 32.4799 285.12 32.4199 285.12 32.3699C285.12 32.3199 285.15 32.2599 285.22 32.1899C285.29 32.1199 285.36 32.0899 285.44 32.0899C286.53 32.0099 287.99 31.8499 289.8 31.6099V18.1299H285.84C285.73 18.1299 285.65 18.0999 285.6 18.0499C285.55 17.9999 285.52 17.9399 285.52 17.8899C285.28 17.0899 285.16 16.6599 285.16 16.6099C285.16 16.5599 285.19 16.4999 285.26 16.4299C285.33 16.3599 285.41 16.3299 285.52 16.3299H322.72C322.83 16.3299 322.91 16.3599 322.96 16.4099C323.01 16.4599 323.04 16.5399 323.04 16.6499V17.8099C323.04 17.9199 323.01 17.9999 322.96 18.0499C322.91 18.0999 322.83 18.1299 322.72 18.1299H303.88V29.8099C306.04 29.4899 307.15 29.3299 307.22 29.3299C307.29 29.3299 307.35 29.3599 307.4 29.4299C307.45 29.4999 307.48 29.5699 307.48 29.6499ZM292.6 15.9299H292.04C291.93 15.9299 291.85 15.8999 291.8 15.8499C291.75 15.7999 291.72 15.7199 291.72 15.6099V3.44988C291.72 3.33988 291.75 3.25988 291.8 3.20988C291.85 3.15988 291.93 3.12988 292.04 3.12988H316.32C316.43 3.12988 316.51 3.15988 316.56 3.20988C316.61 3.25988 316.64 3.33988 316.64 3.44988V14.1699C316.64 14.2999 316.59 14.4199 316.48 14.5299C316.32 14.6899 315.88 14.8799 315.16 15.1099C314.44 15.3399 313.77 15.4499 313.16 15.4499H312.52C312.41 15.4499 312.33 15.4199 312.28 15.3699C312.23 15.3199 312.2 15.2399 312.2 15.1299V13.8899H296.16V14.4099C296.16 14.5699 296.08 14.7399 295.92 14.9099C295.76 15.0799 295.4 15.2799 294.84 15.4899C294.09 15.7799 293.35 15.9299 292.6 15.9299ZM299.68 21.0499V18.1299H293.96V21.0499H299.68ZM299.68 22.8499H293.96V25.8499H299.68V22.8499ZM299.68 27.6499H293.96V31.1299C295.72 30.9199 297.63 30.6799 299.68 30.4099V27.6499ZM312.2 7.52988V4.92989H296.16V7.52988H312.2ZM296.16 9.32989V12.0899H312.2V9.32989H296.16ZM319.6 22.8099V22.9299C318.56 25.9199 317.11 28.5399 315.24 30.8099C317.45 32.0599 320.08 33.0499 323.12 33.7699C323.17 33.7699 323.23 33.7999 323.3 33.8699C323.37 33.9399 323.4 33.9999 323.4 34.0499C323.4 34.0999 323.36 34.2799 323.28 34.5699C323.25 34.6999 323.17 34.7799 323.04 34.8099C321.55 35.1599 320.55 36.1999 320.04 37.9299C320.04 37.9799 320.01 38.0399 319.94 38.1099C319.87 38.1799 319.81 38.2099 319.76 38.2099C319.71 38.2099 319.65 38.1999 319.6 38.1699C316.61 36.9399 314.21 35.4499 312.4 33.6899C310.05 35.6099 307.31 37.1299 304.16 38.2499C304.11 38.2799 304.05 38.2899 304 38.2899C303.95 38.2899 303.89 38.2599 303.84 38.2099C303.79 38.1599 303.75 38.1199 303.72 38.0899L303.44 37.5299C303.41 37.4799 303.4 37.4099 303.4 37.3299C303.4 37.2199 303.47 37.1399 303.6 37.0899C306.24 35.6799 308.51 33.7799 310.4 31.4099C308.75 29.0899 307.53 26.1699 306.76 22.6499H304.68C304.57 22.6499 304.5 22.6299 304.46 22.5899C304.42 22.5499 304.39 22.4999 304.36 22.4499C304.09 21.6199 303.96 21.1799 303.96 21.1299C303.96 21.0799 303.99 21.0199 304.06 20.9499C304.13 20.8799 304.21 20.8499 304.32 20.8499H319.28C319.39 20.8499 319.47 20.8799 319.52 20.9299C319.57 20.9799 319.6 21.0599 319.6 21.1699V22.8099ZM312.36 28.6899C313.43 26.8999 314.29 24.8899 314.96 22.6499H308.28C309.19 25.0799 310.55 27.0899 312.36 28.6899Z" fill="white"/>
<path d="M370.6 25.5302C370.71 25.5302 370.79 25.5602 370.84 25.6102C370.89 25.6602 370.92 25.7402 370.92 25.8502V26.9702C370.92 27.0802 370.89 27.1602 370.84 27.2102C370.79 27.2602 370.71 27.2902 370.6 27.2902H354.72C356.16 29.2102 358.15 30.6602 360.68 31.6502C363.48 32.7202 366.92 33.4102 371 33.7302C371.08 33.7302 371.15 33.7602 371.2 33.8102C371.25 33.8602 371.28 33.9402 371.28 34.0502V34.4902C371.28 34.6002 371.25 34.6802 371.2 34.7302C371.15 34.7802 371.09 34.8102 371.04 34.8102C369.63 35.2102 368.75 36.3202 368.4 38.1302C368.4 38.1802 368.37 38.2402 368.3 38.3102C368.23 38.3802 368.17 38.4102 368.12 38.4102C368.07 38.4102 368.03 38.4002 368 38.3702C362.88 37.2802 359.08 35.4902 356.6 33.0102C355.11 31.4902 353.89 29.6002 352.96 27.3302C352.59 28.6602 352.05 29.8402 351.36 30.8502C350.61 31.8902 349.52 32.9202 348.08 33.9302C346.64 34.9202 344.73 35.7802 342.36 36.5302C339.99 37.2802 337.08 37.9402 333.64 38.5302C333.64 38.5602 333.61 38.5702 333.54 38.5702C333.47 38.5702 333.42 38.5402 333.38 38.4902C333.34 38.4402 333.31 38.3802 333.28 38.3302L333 37.6502C332.97 37.6002 332.96 37.5402 332.96 37.4902C332.96 37.4402 332.99 37.3802 333.06 37.3102C333.13 37.2402 333.19 37.2102 333.24 37.2102C338.09 35.8502 341.63 34.3602 343.84 32.7302C345.87 31.2402 347.24 29.4202 347.96 27.2902H334.08C333.97 27.2902 333.89 27.2602 333.84 27.2102C333.79 27.1602 333.76 27.1002 333.76 27.0502C333.52 26.2802 333.4 25.8602 333.4 25.8102C333.4 25.7602 333.43 25.7002 333.5 25.6302C333.57 25.5602 333.65 25.5302 333.76 25.5302H348.44C348.63 24.3602 348.77 22.8402 348.88 20.9702C348.88 20.8602 348.91 20.7802 348.96 20.7102C349.01 20.6402 349.07 20.6102 349.12 20.6102C349.17 20.6102 350.63 20.7702 353.48 21.0902C353.56 21.0902 353.63 21.1202 353.7 21.1702C353.77 21.2202 353.8 21.2802 353.8 21.3302C353.8 21.3802 353.79 21.4102 353.76 21.4102C353.68 23.1202 353.55 24.4902 353.36 25.5302H370.6ZM354.04 18.9302H369.84C369.95 18.9302 370.03 18.9602 370.08 19.0102C370.13 19.0602 370.16 19.1402 370.16 19.2502V20.4102C370.16 20.5202 370.13 20.6002 370.08 20.6502C370.03 20.7002 369.95 20.7302 369.84 20.7302H335C334.89 20.7302 334.82 20.7102 334.78 20.6702C334.74 20.6302 334.71 20.5802 334.68 20.5302C334.41 19.7002 334.28 19.2602 334.28 19.2102C334.28 19.1602 334.31 19.1002 334.38 19.0302C334.45 18.9602 334.53 18.9302 334.64 18.9302H349.52V14.8102H338.76C338.65 14.8102 338.57 14.7802 338.52 14.7302C338.47 14.6802 338.44 14.6202 338.44 14.5702C338.2 13.7702 338.08 13.3402 338.08 13.2902C338.08 13.2402 338.11 13.1802 338.18 13.1102C338.25 13.0402 338.33 13.0102 338.44 13.0102H349.52V9.13023H336.56C336.45 9.13023 336.38 9.11024 336.34 9.07024C336.3 9.03024 336.27 8.98024 336.24 8.93024C335.97 8.10024 335.84 7.66024 335.84 7.61024C335.84 7.56024 335.87 7.50024 335.94 7.43024C336.01 7.36024 336.09 7.33024 336.2 7.33024H354.64C355.65 5.20024 356.49 3.01023 357.16 0.770233C357.16 0.720233 357.19 0.660233 357.26 0.590233C357.33 0.520233 357.39 0.490234 357.46 0.490234C357.53 0.490234 357.59 0.500235 357.64 0.530235L361.32 2.21024C361.32 2.21024 361.39 2.28024 361.44 2.33024C361.49 2.38024 361.52 2.44024 361.52 2.51024C361.52 2.58024 361.49 2.65024 361.44 2.73024C360.11 4.49024 358.65 6.02024 357.08 7.33024H368.84C368.95 7.33024 369.03 7.36024 369.08 7.41024C369.13 7.46024 369.16 7.54024 369.16 7.65024V8.81023C369.16 8.92023 369.13 9.00024 369.08 9.05024C369.03 9.10024 368.95 9.13023 368.84 9.13023H354.04V13.0102H366.56C366.67 13.0102 366.75 13.0402 366.8 13.0902C366.85 13.1402 366.88 13.2202 366.88 13.3302V14.4902C366.88 14.6002 366.85 14.6802 366.8 14.7302C366.75 14.7802 366.67 14.8102 366.56 14.8102H354.04V18.9302ZM342.48 0.930237C342.53 0.880237 342.59 0.850235 342.64 0.850235C342.69 0.850235 342.72 0.860236 342.72 0.890236C346.08 1.40024 348.15 2.54024 348.92 4.33024C349.11 4.76024 349.2 5.17024 349.2 5.57024C349.2 6.18024 348.95 6.74024 348.44 7.25024C347.96 7.73024 347.43 7.97024 346.84 7.97024C346.39 7.97024 345.91 7.82024 345.4 7.53024C345.37 7.53024 345.33 7.51024 345.28 7.47024C345.23 7.43024 345.17 7.40024 345.12 7.37024C345.01 7.29024 344.96 7.20023 344.96 7.09023C344.83 6.21023 344.48 5.28024 343.92 4.29024C343.36 3.28024 342.75 2.41024 342.08 1.69024C342 1.61024 341.96 1.53023 341.96 1.45023C341.96 1.34023 342.01 1.25023 342.12 1.17023L342.48 0.930237Z" fill="white"/>
<path d="M419.04 35.89C419.04 36 419.01 36.08 418.96 36.13C418.91 36.18 418.83 36.21 418.72 36.21H383.72C383.61 36.21 383.53 36.18 383.48 36.13C383.43 36.08 383.4 36 383.4 35.89V4.04998C383.4 3.93998 383.43 3.85997 383.48 3.80997C383.53 3.75997 383.61 3.72998 383.72 3.72998H417C417.11 3.72998 417.19 3.75997 417.24 3.80997C417.29 3.85997 417.32 3.93998 417.32 4.04998V5.20998C417.32 5.31998 417.29 5.39997 417.24 5.44997C417.19 5.49997 417.11 5.52998 417 5.52998H387.88V34.41H418.72C418.83 34.41 418.91 34.44 418.96 34.49C419.01 34.54 419.04 34.62 419.04 34.73V35.89ZM398.2 32.25H397.64C397.53 32.25 397.45 32.22 397.4 32.17C397.35 32.12 397.32 32.04 397.32 31.93V30.21H393.64V31.73C393.64 31.89 393.57 32.04 393.42 32.19C393.27 32.34 392.97 32.5 392.52 32.69C391.56 32.96 390.93 33.09 390.64 33.09C390.61 33.09 390.6 33.08 390.6 33.05H390.12C390.01 33.05 389.93 33.02 389.88 32.97C389.83 32.92 389.8 32.84 389.8 32.73V21.01C389.8 20.9 389.83 20.82 389.88 20.77C389.93 20.72 390.01 20.69 390.12 20.69H400.88C400.99 20.69 401.07 20.72 401.12 20.77C401.17 20.82 401.2 20.9 401.2 21.01V31.01C401.2 31.14 401.13 31.28 401 31.43C400.87 31.58 400.53 31.74 400 31.93C399.33 32.14 398.73 32.25 398.2 32.25ZM393.64 22.49V28.41H397.32V22.49H393.64ZM395.2 19.13C395.2 19.13 395.16 19.12 395.16 19.09H394.64C394.53 19.09 394.45 19.06 394.4 19.01C394.35 18.96 394.32 18.88 394.32 18.77V8.60998C394.32 8.49998 394.35 8.41998 394.4 8.36998C394.45 8.31998 394.53 8.28998 394.64 8.28998H409.76C409.87 8.28998 409.95 8.31998 410 8.36998C410.05 8.41998 410.08 8.49998 410.08 8.60998V17.29C410.08 17.42 410.03 17.54 409.92 17.65C409.76 17.81 409.33 18 408.64 18.23C407.95 18.46 407.31 18.57 406.72 18.57H406.12C406.01 18.57 405.93 18.54 405.88 18.49C405.83 18.44 405.8 18.36 405.8 18.25V16.81H398.56V17.69C398.56 17.85 398.49 18 398.34 18.15C398.19 18.3 397.85 18.48 397.32 18.69C396.23 18.98 395.52 19.13 395.2 19.13ZM398.56 10.09V15.01H405.8V10.09H398.56ZM411.76 32.09H411.2C411.09 32.09 411.01 32.06 410.96 32.01C410.91 31.96 410.88 31.88 410.88 31.77V30.21H407.28V31.17C407.28 31.33 407.21 31.49 407.06 31.65C406.91 31.81 406.61 31.98 406.16 32.17C405.52 32.41 404.87 32.53 404.2 32.53H403.72C403.61 32.53 403.53 32.5 403.48 32.45C403.43 32.4 403.4 32.32 403.4 32.21V21.01C403.4 20.9 403.43 20.82 403.48 20.77C403.53 20.72 403.61 20.69 403.72 20.69H414.48C414.59 20.69 414.67 20.72 414.72 20.77C414.77 20.82 414.8 20.9 414.8 21.01V30.81C414.8 30.94 414.73 31.08 414.6 31.23C414.47 31.38 414.1 31.56 413.5 31.77C412.9 31.98 412.32 32.09 411.76 32.09ZM407.28 22.49V28.41H410.88V22.49H407.28Z" fill="white"/>
<path d="M446.84 24.41C446.95 24.81 447 25.04 447 25.09C447 25.14 446.97 25.2 446.92 25.25C446.87 25.3 446.83 25.34 446.8 25.37C443.95 26.81 440.73 28.32 437.16 29.89V37.01C437.16 37.2 437.01 37.41 436.72 37.65C436.48 37.89 436.09 38.09 435.54 38.25C434.99 38.41 434.39 38.49 433.72 38.49H433.24C433.13 38.49 433.05 38.46 433 38.41C432.95 38.36 432.92 38.28 432.92 38.17V31.73L432.32 31.97C432.08 32.45 431.72 32.8 431.24 33.01C431.19 33.04 431.13 33.05 431.08 33.05C431.03 33.05 430.97 33.02 430.92 32.97C430.87 32.92 430.83 32.88 430.8 32.85L428.6 28.45C428.57 28.4 428.56 28.34 428.56 28.27C428.56 28.2 428.59 28.14 428.66 28.07C428.73 28 428.8 27.97 428.88 27.97C429.87 27.81 431.21 27.54 432.92 27.17V5.45002C432.92 5.34002 432.95 5.26002 433 5.21002C433.05 5.16002 433.13 5.13002 433.24 5.13002H436.88C438.51 4.01002 440.29 2.60002 442.24 0.890022C442.32 0.810022 442.4 0.77002 442.48 0.77002C442.56 0.77002 442.64 0.810022 442.72 0.890022L445.56 4.21002C445.64 4.29002 445.68 4.37002 445.68 4.45002C445.68 4.53002 445.65 4.60002 445.6 4.65002C445.55 4.70002 445.49 4.74002 445.44 4.77002C442.67 5.84002 439.91 6.64002 437.16 7.17002V12.09H445.64C445.75 12.09 445.83 12.12 445.88 12.17C445.93 12.22 445.96 12.3 445.96 12.41V13.57C445.96 13.68 445.93 13.76 445.88 13.81C445.83 13.86 445.75 13.89 445.64 13.89H437.16V19.41H445.8C445.91 19.41 445.99 19.44 446.04 19.49C446.09 19.54 446.12 19.62 446.12 19.73V20.89C446.12 21 446.09 21.08 446.04 21.13C445.99 21.18 445.91 21.21 445.8 21.21H437.16V26.25C440.68 25.5 443.11 24.96 444.46 24.63C445.81 24.3 446.51 24.13 446.56 24.13C446.61 24.13 446.67 24.16 446.74 24.23C446.81 24.3 446.84 24.36 446.84 24.41ZM463.16 20.85V20.97C461.72 24.46 459.81 27.44 457.44 29.89C460.08 31.76 463.4 33.18 467.4 34.17C467.45 34.17 467.51 34.2 467.58 34.27C467.65 34.34 467.68 34.4 467.68 34.45C467.68 34.5 467.64 34.69 467.56 35.01C467.53 35.14 467.44 35.22 467.28 35.25C465.79 35.52 464.76 36.53 464.2 38.29C464.17 38.34 464.13 38.4 464.08 38.45C464.03 38.5 463.97 38.53 463.92 38.53C463.87 38.53 463.81 38.52 463.76 38.49C460 36.97 456.93 34.96 454.56 32.45C450.8 35.3 446.2 37.34 440.76 38.57C440.73 38.6 440.69 38.61 440.64 38.61C440.59 38.61 440.53 38.58 440.48 38.53L440.36 38.41L440.08 37.85C440.05 37.8 440.04 37.74 440.04 37.67C440.04 37.6 440.07 37.54 440.12 37.49C440.17 37.44 440.23 37.4 440.28 37.37C445.32 35.56 449.4 33.05 452.52 29.85C450.87 27.45 449.59 24.36 448.68 20.57H446.4C446.29 20.57 446.22 20.55 446.18 20.51C446.14 20.47 446.11 20.42 446.08 20.37C445.81 19.54 445.68 19.1 445.68 19.05C445.68 19 445.71 18.94 445.78 18.87C445.85 18.8 445.93 18.77 446.04 18.77H462.84C462.95 18.77 463.03 18.8 463.08 18.85C463.13 18.9 463.16 18.98 463.16 19.09V20.85ZM444.48 18.05C444.43 18 444.4 17.93 444.4 17.85C444.4 17.77 444.44 17.69 444.52 17.61C446.01 16.22 447.01 14.7 447.5 13.05C447.99 11.4 448.24 9.52003 448.24 7.41003V3.85002C448.24 3.74002 448.27 3.66002 448.32 3.61002C448.37 3.56002 448.45 3.53002 448.56 3.53002H461C461.11 3.53002 461.19 3.56002 461.24 3.61002C461.29 3.66002 461.32 3.74002 461.32 3.85002V12.13C461.32 12.21 461.33 12.28 461.36 12.33C461.41 12.36 461.48 12.37 461.56 12.37H463.44C463.71 12.37 463.87 12.37 463.94 12.35C464.01 12.34 464.09 12.33 464.18 12.33C464.27 12.33 464.4 12.3 464.56 12.25C464.72 12.2 464.81 12.17 464.84 12.17H465.36C466.43 12.62 466.96 13.22 466.96 13.97C466.96 14.82 466.55 15.45 465.72 15.85C464.97 16.17 463.73 16.33 462 16.33H460.28C458.92 16.33 458.05 16.1 457.68 15.63C457.31 15.16 457.12 14.32 457.12 13.09V5.33002H452.44V7.41003C452.44 12.77 450.05 16.52 445.28 18.65C445.25 18.68 445.2 18.69 445.12 18.69C445.04 18.69 444.96 18.64 444.88 18.53L444.48 18.05ZM454.56 27.49C456.16 25.41 457.41 23.1 458.32 20.57H450.24C451.17 23.21 452.61 25.52 454.56 27.49Z" fill="white"/>
<path d="M551.24 6.25031C551.24 6.36031 551.21 6.44031 551.16 6.49031C551.11 6.54031 551.03 6.57031 550.92 6.57031H540.76V8.45031C540.76 8.69031 540.57 8.92031 540.2 9.13031C539.99 9.21031 539.59 9.32031 539 9.45031C538.6 9.53031 538.05 9.57031 537.36 9.57031H536.72C536.61 9.57031 536.53 9.54031 536.48 9.49031C536.43 9.44031 536.4 9.36031 536.4 9.25031V6.57031H528.2V8.61031C528.2 8.77031 528.13 8.92031 527.98 9.07031C527.83 9.22031 527.47 9.37031 526.88 9.53031C526.29 9.69031 525.6 9.77031 524.8 9.77031H524.2C524.09 9.77031 524.01 9.74032 523.96 9.69032C523.91 9.64032 523.88 9.56031 523.88 9.45031V6.57031H514.2C514.09 6.57031 514.01 6.54031 513.96 6.49031C513.91 6.44031 513.88 6.38031 513.88 6.33031C513.69 5.56031 513.6 5.14031 513.6 5.09031C513.6 5.04031 513.63 4.98032 513.7 4.91032C513.77 4.84032 513.85 4.81031 513.96 4.81031H523.88V0.930313C523.88 0.820313 523.91 0.740311 523.96 0.670311C524.01 0.600311 524.07 0.570312 524.12 0.570312C524.17 0.570312 525.44 0.740309 527.92 1.09031C528 1.09031 528.07 1.12031 528.12 1.17031C528.17 1.22031 528.2 1.30032 528.2 1.41032V4.81031H536.4V0.930313C536.4 0.820313 536.43 0.740311 536.48 0.670311C536.53 0.600311 536.59 0.570312 536.64 0.570312C536.69 0.570312 537.97 0.740309 540.48 1.09031C540.56 1.09031 540.63 1.12031 540.68 1.17031C540.73 1.22031 540.76 1.30032 540.76 1.41032V4.81031H550.92C551.03 4.81031 551.11 4.84031 551.16 4.89031C551.21 4.94031 551.24 5.02031 551.24 5.13031V6.25031ZM550.28 19.6503C550.28 19.7603 550.25 19.8403 550.2 19.8903C550.15 19.9403 550.07 19.9703 549.96 19.9703H515.32C515.21 19.9703 515.13 19.9403 515.08 19.8903C515.03 19.8403 515 19.7803 515 19.7303C514.76 18.9303 514.64 18.5003 514.64 18.4503C514.64 18.4003 514.67 18.3403 514.74 18.2703C514.81 18.2003 514.89 18.1703 515 18.1703H530.04V15.8903H519.76C519.65 15.8903 519.57 15.8603 519.52 15.8103C519.47 15.7603 519.44 15.7003 519.44 15.6503C519.2 14.8503 519.08 14.4203 519.08 14.3703C519.08 14.3203 519.11 14.2603 519.18 14.1903C519.25 14.1203 519.33 14.0903 519.44 14.0903H530.04V12.0903H518.2C518.09 12.0903 518.02 12.0703 517.98 12.0303C517.94 11.9903 517.91 11.9403 517.88 11.8903C517.61 11.0603 517.48 10.6203 517.48 10.5703C517.48 10.5203 517.51 10.4603 517.58 10.3903C517.65 10.3203 517.73 10.2903 517.84 10.2903H530.04V7.53031C530.04 7.42031 530.07 7.34031 530.12 7.27031C530.17 7.20031 530.23 7.17031 530.28 7.17031C530.33 7.17031 531.61 7.33031 534.12 7.65031C534.2 7.65031 534.27 7.68032 534.32 7.73032C534.37 7.78032 534.4 7.86031 534.4 7.97031V10.2903H546.84C546.95 10.2903 547.03 10.3203 547.08 10.3703C547.13 10.4203 547.16 10.5003 547.16 10.6103V11.7703C547.16 11.8803 547.13 11.9603 547.08 12.0103C547.03 12.0603 546.95 12.0903 546.84 12.0903H534.4V14.0903H545.36C545.47 14.0903 545.55 14.1203 545.6 14.1703C545.65 14.2203 545.68 14.3003 545.68 14.4103V15.5703C545.68 15.6803 545.65 15.7603 545.6 15.8103C545.55 15.8603 545.47 15.8903 545.36 15.8903H534.4V18.1703H549.96C550.07 18.1703 550.15 18.2003 550.2 18.2503C550.25 18.3003 550.28 18.3803 550.28 18.4903V19.6503ZM543.44 21.8103C543.55 21.8103 543.63 21.8403 543.68 21.8903C543.73 21.9403 543.76 22.0203 543.76 22.1303V33.7303C543.76 35.2503 543.39 36.3803 542.64 37.1303C541.89 37.8803 540.4 38.3403 538.16 38.5303C538.13 38.5603 538.09 38.5703 538.04 38.5703C537.99 38.5703 537.93 38.5403 537.88 38.4703C537.83 38.4003 537.8 38.3303 537.8 38.2503C537.67 37.1303 537.36 36.3603 536.88 35.9303C536.19 35.3403 535.03 34.9303 533.4 34.6903C533.32 34.6903 533.25 34.6603 533.2 34.6103C533.15 34.5603 533.12 34.4803 533.12 34.3703V33.8503C533.12 33.7403 533.15 33.6603 533.2 33.5903C533.25 33.5203 533.31 33.4903 533.36 33.4903C533.41 33.4903 534.16 33.5403 535.6 33.6503C537.04 33.7603 538.12 33.8103 538.84 33.8103C539.05 33.8103 539.2 33.7703 539.28 33.6903C539.36 33.6103 539.4 33.5003 539.4 33.3703V31.4903H525.4V36.9303C525.4 37.0903 525.32 37.2603 525.16 37.4303C525 37.6003 524.67 37.8003 524.16 38.0103C523.04 38.3603 522.32 38.5303 522 38.5303L521.96 38.4903H521.4C521.29 38.4903 521.21 38.4603 521.16 38.4103C521.11 38.3603 521.08 38.2803 521.08 38.1703V22.1303C521.08 22.0203 521.11 21.9403 521.16 21.8903C521.21 21.8403 521.29 21.8103 521.4 21.8103H543.44ZM539.4 25.7303V23.6103H525.4V25.7303H539.4ZM525.4 27.5303V29.6903H539.4V27.5303H525.4Z" fill="white"/>
<path d="M599.52 31.5303C599.52 31.6403 599.49 31.7203 599.44 31.7703C599.39 31.8203 599.31 31.8503 599.2 31.8503H582.44V37.1303C582.44 37.3703 582.28 37.5803 581.96 37.7703C581.69 37.9603 581.29 38.1203 580.76 38.2503C580.23 38.4103 579.65 38.4903 579.04 38.4903H578.4C578.29 38.4903 578.21 38.4603 578.16 38.4103C578.11 38.3603 578.08 38.2803 578.08 38.1703V31.8503H561.92C561.81 31.8503 561.74 31.8303 561.7 31.7903C561.66 31.7503 561.63 31.7003 561.6 31.6503C561.33 30.8203 561.2 30.3803 561.2 30.3303C561.2 30.2803 561.23 30.2203 561.3 30.1503C561.37 30.0803 561.45 30.0503 561.56 30.0503H578.08V25.9303H563.96C563.85 25.9303 563.78 25.9103 563.74 25.8703C563.7 25.8303 563.67 25.7803 563.64 25.7303C563.37 24.9003 563.24 24.4603 563.24 24.4103C563.24 24.3603 563.27 24.3003 563.34 24.2303C563.41 24.1603 563.49 24.1303 563.6 24.1303H569.48V19.2503H562.68C562.57 19.2503 562.5 19.2303 562.46 19.1903C562.42 19.1503 562.39 19.1003 562.36 19.0503C562.09 18.2203 561.96 17.7803 561.96 17.7303C561.96 17.6803 561.99 17.6203 562.06 17.5503C562.13 17.4803 562.21 17.4503 562.32 17.4503H569.48V12.7703H564.4C564.29 12.7703 564.22 12.7503 564.18 12.7103C564.14 12.6703 564.11 12.6203 564.08 12.5703C563.81 11.7403 563.68 11.3003 563.68 11.2503C563.68 11.2003 563.71 11.1403 563.78 11.0703C563.85 11.0003 563.93 10.9703 564.04 10.9703H597.28C597.39 10.9703 597.47 11.0003 597.52 11.0503C597.57 11.1003 597.6 11.1803 597.6 11.2903V12.4503C597.6 12.5603 597.57 12.6403 597.52 12.6903C597.47 12.7403 597.39 12.7703 597.28 12.7703H591.16V17.4503H598.72C598.83 17.4503 598.91 17.4803 598.96 17.5303C599.01 17.5803 599.04 17.6603 599.04 17.7703V18.9303C599.04 19.0403 599.01 19.1203 598.96 19.1703C598.91 19.2203 598.83 19.2503 598.72 19.2503H591.16V24.1303H598.12C598.23 24.1303 598.31 24.1603 598.36 24.2103C598.41 24.2603 598.44 24.3403 598.44 24.4503V25.6103C598.44 25.7203 598.41 25.8003 598.36 25.8503C598.31 25.9003 598.23 25.9303 598.12 25.9303H582.44V30.0503H599.2C599.31 30.0503 599.39 30.0803 599.44 30.1303C599.49 30.1803 599.52 30.2603 599.52 30.3703V31.5303ZM576.68 7.05032V9.69032C576.68 9.85032 576.61 10.0003 576.48 10.1303C576.29 10.3203 575.91 10.4903 575.32 10.6503C574.73 10.8103 574.04 10.8903 573.24 10.8903H572.64C572.53 10.8903 572.45 10.8603 572.4 10.8103C572.35 10.7603 572.32 10.6803 572.32 10.5703V7.05032H562.16C562.05 7.05032 561.97 7.02031 561.92 6.97031C561.87 6.92031 561.84 6.86031 561.84 6.81031C561.65 6.01031 561.56 5.58031 561.56 5.53031C561.56 5.48031 561.59 5.42031 561.66 5.35031C561.73 5.28031 561.81 5.25031 561.92 5.25031H572.32V0.930313C572.32 0.820313 572.35 0.740311 572.4 0.670311C572.45 0.600311 572.51 0.570312 572.56 0.570312C572.61 0.570312 573.89 0.740309 576.4 1.09031C576.48 1.09031 576.55 1.12031 576.6 1.17031C576.65 1.22031 576.68 1.30032 576.68 1.41032V5.25031H583.84V0.930313C583.84 0.820313 583.87 0.740311 583.92 0.670311C583.97 0.600311 584.03 0.570312 584.08 0.570312C584.13 0.570312 585.44 0.730316 588 1.05032C588.08 1.05032 588.15 1.08031 588.2 1.13031C588.25 1.18031 588.28 1.26032 588.28 1.37032V5.25031H598.88C598.99 5.25031 599.07 5.28031 599.12 5.33031C599.17 5.38031 599.2 5.46031 599.2 5.57031V6.73032C599.2 6.84032 599.17 6.92031 599.12 6.97031C599.07 7.02031 598.99 7.05032 598.88 7.05032H588.28V9.49031C588.28 9.65031 588.23 9.78031 588.12 9.89031C587.99 10.0203 587.81 10.1403 587.6 10.2503C587.39 10.3603 587.01 10.4603 586.48 10.5703C585.95 10.6803 585.39 10.7303 584.8 10.7303H584.16C584.05 10.7303 583.97 10.7003 583.92 10.6503C583.87 10.6003 583.84 10.5203 583.84 10.4103V7.05032H576.68ZM578.08 12.7703H573.76V17.4503H578.08V12.7703ZM573.76 19.2503V24.1303H578.08V19.2503H573.76ZM586.84 17.4503V12.7703H582.44V17.4503H586.84ZM582.44 24.1303H586.84V19.2503H582.44V24.1303Z" fill="white"/>
<path d="M609.92 10.2901C610 10.2101 610.06 10.1701 610.1 10.1701C610.14 10.1701 610.17 10.1801 610.2 10.2101C613.75 10.4801 616 11.4901 616.96 13.2501C617.25 13.7601 617.4 14.2601 617.4 14.7701C617.4 15.3601 617.15 15.8901 616.64 16.3701C616.21 16.8001 615.73 17.0101 615.2 17.0101C614.77 17.0101 614.31 16.8901 613.8 16.6501C613.72 16.6001 613.67 16.5301 613.64 16.4501C613 14.5801 611.67 12.7801 609.64 11.0501C609.53 11.0001 609.48 10.9201 609.48 10.8301C609.48 10.7401 609.52 10.6501 609.6 10.5701L609.92 10.2901ZM622.04 9.61008C622.09 9.61008 622.15 9.64008 622.22 9.71008C622.29 9.78008 622.32 9.84008 622.32 9.89008C622.32 9.94008 622.31 10.0001 622.28 10.0501C619.48 18.0201 617.83 22.8901 617.32 24.6501C616.89 26.0901 616.68 27.2401 616.68 28.0901C616.68 28.5201 616.91 29.4401 617.36 30.8501C617.81 32.2101 618.04 33.5001 618.04 34.7301C618.04 35.9601 617.69 37.0001 617 37.6901C616.44 38.2501 615.72 38.5301 614.84 38.5301C614.31 38.5301 613.85 38.3501 613.48 37.9901C613.11 37.6301 612.85 37.0401 612.72 36.2101V36.1301C612.96 34.5601 613.08 33.1301 613.08 31.8501V30.7301C613 29.2901 612.77 28.4501 612.4 28.2101C611.97 27.8901 611.35 27.6901 610.52 27.6101C610.33 27.6101 610.24 27.5001 610.24 27.2901V26.4901C610.24 26.3801 610.27 26.3001 610.32 26.2501C610.37 26.2001 610.45 26.1701 610.56 26.1701H612.36C612.63 26.1701 612.8 26.1301 612.88 26.0501C612.96 25.9701 613.08 25.7801 613.24 25.4901C613.8 24.5601 616.37 19.2501 620.96 9.57008C621.04 9.44008 621.15 9.37008 621.28 9.37008C621.31 9.37008 621.56 9.45008 622.04 9.61008ZM613.12 1.25008C613.2 1.17008 613.26 1.13007 613.3 1.13007C613.34 1.13007 613.37 1.14007 613.4 1.17007C617.05 1.62007 619.36 2.78008 620.32 4.65008C620.59 5.18008 620.72 5.72008 620.72 6.25008C620.72 6.84008 620.49 7.36008 620.02 7.83008C619.55 8.30008 619.05 8.53008 618.52 8.53008C618.09 8.53008 617.63 8.38007 617.12 8.09007C617.04 8.04007 616.96 8.00008 616.88 7.97008C616.77 7.92008 616.71 7.84008 616.68 7.73008C616.17 5.92008 614.87 4.02008 612.76 2.05008C612.68 1.97008 612.64 1.89007 612.64 1.81007C612.64 1.73007 612.68 1.65008 612.76 1.57008L613.12 1.25008ZM623.6 23.9701V19.2501C623.6 19.1401 623.63 19.0601 623.68 18.9901C623.73 18.9201 623.79 18.8901 623.84 18.8901C623.89 18.8901 625.08 19.0601 627.4 19.4101C627.48 19.4101 627.55 19.4401 627.6 19.4901C627.65 19.5401 627.68 19.6201 627.68 19.7301V24.0501C627.57 31.1701 624.51 36.0201 618.48 38.6101C618.43 38.6401 618.37 38.6501 618.32 38.6501C618.24 38.6501 618.16 38.6001 618.08 38.4901L617.68 38.0101C617.63 37.9601 617.6 37.8901 617.6 37.8101C617.6 37.7001 617.65 37.6101 617.76 37.5301C621.65 34.7601 623.6 30.2401 623.6 23.9701ZM621.2 8.61008C621.09 8.61008 621.01 8.58008 620.96 8.53008C620.91 8.48008 620.88 8.42008 620.88 8.37008C620.64 7.57008 620.52 7.14007 620.52 7.09007C620.52 7.04007 620.55 6.98008 620.62 6.91008C620.69 6.84008 620.77 6.81007 620.88 6.81007H647C647.11 6.81007 647.19 6.84008 647.24 6.89008C647.29 6.94008 647.32 7.02007 647.32 7.13007V8.29008C647.32 8.40008 647.29 8.48008 647.24 8.53008C647.19 8.58008 647.11 8.61008 647 8.61008H633.12C633.95 9.20008 634.38 9.52008 634.42 9.57008C634.46 9.62008 634.48 9.69007 634.48 9.77007C634.48 9.85007 634.44 9.93008 634.36 10.0101C632.36 11.9001 630.03 13.5201 627.36 14.8501C630.11 14.6901 634.01 14.4401 639.08 14.0901C638.28 13.0001 637.41 12.0501 636.48 11.2501C636.4 11.1701 636.36 11.0901 636.36 11.0101C636.36 10.9001 636.41 10.8101 636.52 10.7301L636.92 10.4101C636.97 10.3601 637.03 10.3301 637.08 10.3301C637.13 10.3301 637.17 10.3401 637.2 10.3701C641.2 11.4101 643.77 13.0501 644.92 15.2901C645.27 15.9801 645.44 16.6201 645.44 17.1901C645.44 17.7601 645.25 18.2901 644.88 18.7701C644.48 19.3001 643.99 19.5701 643.4 19.5701C643 19.5701 642.55 19.4401 642.04 19.1701C641.96 19.1201 641.88 19.0801 641.8 19.0501C641.69 19.0001 641.63 18.9201 641.6 18.8101C641.31 17.8501 640.79 16.7601 640.04 15.5301C634.63 16.8601 629.33 18.0101 624.16 18.9701C623.95 19.1801 623.67 19.3801 623.32 19.5701C623.27 19.6001 623.21 19.6101 623.14 19.6101C623.07 19.6101 623.01 19.5801 622.96 19.5301C622.91 19.4801 622.87 19.4201 622.84 19.3701L621.36 15.3701C621.33 15.3201 621.32 15.2601 621.32 15.2101C621.32 15.1601 621.35 15.1001 621.42 15.0301C621.49 14.9601 621.55 14.9301 621.6 14.9301C622.03 14.8201 622.37 14.7201 622.64 14.6101C623.84 14.0501 625.24 12.9801 626.84 11.4101C627.77 10.4501 628.57 9.52008 629.24 8.61008H621.2ZM629.48 0.41008C629.53 0.36008 629.58 0.330078 629.62 0.330078C629.66 0.330078 629.69 0.340079 629.72 0.370079C632.95 0.930079 634.91 2.09007 635.6 3.85007C635.73 4.22007 635.8 4.58008 635.8 4.93008C635.8 5.62008 635.52 6.22008 634.96 6.73008C634.48 7.13008 633.99 7.33008 633.48 7.33008C632.97 7.33008 632.44 7.14007 631.88 6.77007C631.72 6.66007 631.62 6.59008 631.58 6.55008C631.54 6.51008 631.52 6.45008 631.52 6.37008C631.47 5.49008 631.19 4.58007 630.7 3.63007C630.21 2.68007 629.64 1.86007 629 1.17007C628.92 1.09007 628.88 1.01008 628.88 0.930077C628.88 0.800077 628.95 0.700078 629.08 0.650078L629.48 0.41008ZM630.52 19.2101C630.52 19.1001 630.55 19.0201 630.6 18.9501C630.65 18.8801 630.71 18.8501 630.76 18.8501C630.81 18.8501 632 19.0201 634.32 19.3701C634.4 19.3701 634.47 19.4001 634.52 19.4501C634.57 19.5001 634.6 19.5801 634.6 19.6901V36.1301C634.6 36.2601 634.53 36.4001 634.4 36.5501C634.27 36.7001 633.95 36.8601 633.44 37.0501C632.77 37.3201 632.12 37.4501 631.48 37.4501H630.84C630.73 37.4501 630.65 37.4201 630.6 37.3701C630.55 37.3201 630.52 37.2401 630.52 37.1301V19.2101ZM647.72 35.2901C647.72 36.8601 646.04 37.6501 642.68 37.6501H640.88C639.52 37.6501 638.64 37.4001 638.24 36.9101C637.84 36.4201 637.64 35.5701 637.64 34.3701V19.2101C637.64 19.1001 637.67 19.0201 637.72 18.9501C637.77 18.8801 637.83 18.8501 637.88 18.8501C637.93 18.8501 639.11 19.0101 641.4 19.3301C641.48 19.3301 641.55 19.3601 641.6 19.4101C641.65 19.4601 641.68 19.5401 641.68 19.6501V33.4901C641.68 33.6501 641.69 33.7301 641.72 33.7301C641.77 33.7601 641.82 33.7701 641.86 33.7701H643.96C644.07 33.7701 644.15 33.6801 644.2 33.4901C644.41 33.0601 644.83 31.4101 645.44 28.5301C645.44 28.4801 645.47 28.4201 645.52 28.3701C645.57 28.3201 645.65 28.2901 645.76 28.2901H646.24C646.35 28.2901 646.43 28.3201 646.48 28.3701C646.53 28.4201 646.56 28.5001 646.56 28.6101L646.72 33.6501C647.39 34.0201 647.72 34.5701 647.72 35.2901Z" fill="white"/>
<path d="M661.6 6.09019L661.56 5.8902C661.56 5.7802 661.59 5.7002 661.66 5.6502C661.73 5.6002 661.8 5.5702 661.88 5.5702C662.31 5.5202 662.55 5.4902 662.6 5.4902C662.65 5.4902 662.7 5.5202 662.74 5.5702C662.78 5.6202 662.81 5.6602 662.84 5.6902C663.05 6.1402 663.2 6.6202 663.28 7.1302H674.12V5.2502H662.36C662.25 5.2502 662.18 5.2302 662.14 5.1902C662.1 5.1502 662.07 5.1002 662.04 5.0502C661.77 4.2202 661.64 3.7802 661.64 3.7302C661.64 3.6802 661.67 3.6202 661.74 3.5502C661.81 3.4802 661.89 3.4502 662 3.4502H691.56C691.67 3.4502 691.75 3.4802 691.8 3.5302C691.85 3.5802 691.88 3.6602 691.88 3.7702V4.9302C691.88 5.0402 691.85 5.1202 691.8 5.1702C691.75 5.2202 691.67 5.2502 691.56 5.2502H678.44V7.1302H693.72C693.83 7.1302 693.91 7.1602 693.96 7.2102C694.01 7.2602 694.04 7.3402 694.04 7.4502V9.2502C694.04 9.3602 694.01 9.4402 693.96 9.4902C692.63 10.8202 691.21 11.8902 689.72 12.6902C689.67 12.7402 689.61 12.7702 689.56 12.7702C689.51 12.7702 689.44 12.7402 689.36 12.6902C689.07 12.5002 688.89 12.3802 688.84 12.3302C688.79 12.2802 688.76 12.2202 688.76 12.1702C688.76 12.1202 688.77 12.0602 688.8 12.0102C689.15 11.0202 689.44 10.0002 689.68 8.9302H678.44V15.2102C678.44 15.3202 678.4 15.4102 678.32 15.4902C678.05 15.7802 677.53 16.0202 676.76 16.2102C676.23 16.3202 675.67 16.3702 675.08 16.3702H674.44C674.33 16.3702 674.25 16.3402 674.2 16.2902C674.15 16.2402 674.12 16.1602 674.12 16.0502V8.9302H663.52V9.1302C663.52 10.0902 663.33 10.9402 662.96 11.6902C662.51 12.5402 661.91 13.1402 661.16 13.4902C660.73 13.6802 660.35 13.7702 660 13.7702C659.23 13.7702 658.61 13.5602 658.16 13.1302C657.73 12.7002 657.52 12.2002 657.52 11.6102C657.52 10.6002 658.15 9.8202 659.4 9.2902C659.99 9.0002 660.51 8.5302 660.96 7.8902C661.39 7.3302 661.6 6.73019 661.6 6.09019ZM669.32 27.3702H675.16C675.27 27.3702 675.35 27.4002 675.4 27.4502C675.45 27.5002 675.48 27.5802 675.48 27.6902V28.8502C675.48 28.9602 675.45 29.0402 675.4 29.0902C675.35 29.1402 675.27 29.1702 675.16 29.1702H669.32V32.7702C672.92 32.3702 674.85 32.1502 675.1 32.1102C675.35 32.0702 675.51 32.0502 675.58 32.0502C675.65 32.0502 675.71 32.0802 675.76 32.1502C675.81 32.2202 675.84 32.2902 675.84 32.3702C675.92 32.8002 675.96 33.0402 675.96 33.0902C675.96 33.1402 675.93 33.1902 675.88 33.2302C675.83 33.2702 675.77 33.3002 675.72 33.3302C671.67 34.6902 666.75 36.1202 660.96 37.6102C660.72 38.1202 660.33 38.4402 659.8 38.5702C659.77 38.6002 659.73 38.6102 659.68 38.6102C659.63 38.6102 659.57 38.5802 659.52 38.5302L659.4 38.4102L657.6 34.4502C657.57 34.4002 657.56 34.3402 657.56 34.2702C657.56 34.2002 657.59 34.1402 657.66 34.0702C657.73 34.0002 657.8 33.9702 657.88 33.9702L660.76 33.6902V26.9702C660.76 26.8602 660.79 26.7802 660.84 26.7102C660.89 26.6402 660.95 26.6102 661 26.6102C661.05 26.6102 662 26.7402 663.84 27.0102C663.92 27.0102 663.99 27.0402 664.04 27.0902C664.09 27.1402 664.12 27.2202 664.12 27.3302V33.3702L665.64 33.1702V24.5302H664.68C664.57 24.7402 664.4 24.9202 664.16 25.0502C663.89 25.2102 663.55 25.3602 663.12 25.4902H663.08C662.63 25.6002 662.2 25.6502 661.8 25.6502H661.36C661.25 25.6502 661.17 25.6202 661.12 25.5702C661.07 25.5202 661.04 25.4402 661.04 25.3302V17.7702C661.04 17.6602 661.07 17.5802 661.12 17.5302C661.17 17.4802 661.25 17.4502 661.36 17.4502H673.68C673.79 17.4502 673.87 17.4802 673.92 17.5302C673.97 17.5802 674 17.6602 674 17.7702V24.0502C674 24.1802 673.93 24.3202 673.8 24.4702C673.67 24.6202 673.35 24.7802 672.84 24.9702C672.17 25.1802 671.6 25.2902 671.12 25.2902H670.6C670.49 25.2902 670.41 25.2602 670.36 25.2102C670.31 25.1602 670.28 25.0802 670.28 24.9702V24.5302H669.32V27.3702ZM664 14.7702V13.6102C664 13.5002 664.03 13.4202 664.08 13.3702C664.13 13.3202 664.21 13.2902 664.32 13.2902H672.68C672.79 13.2902 672.87 13.3202 672.92 13.3702C672.97 13.4202 673 13.5002 673 13.6102V14.7702C673 14.8802 672.97 14.9602 672.92 15.0102C672.87 15.0602 672.79 15.0902 672.68 15.0902H664.32C664.21 15.0902 664.13 15.0602 664.08 15.0102C664.03 14.9602 664 14.8802 664 14.7702ZM673.04 10.5702V11.7302C673.04 11.8402 673.01 11.9202 672.96 11.9702C672.91 12.0202 672.83 12.0502 672.72 12.0502H664.84C664.73 12.0502 664.65 12.0202 664.6 11.9702C664.55 11.9202 664.52 11.8402 664.52 11.7302V10.5702C664.52 10.4602 664.55 10.3802 664.6 10.3302C664.65 10.2802 664.73 10.2502 664.84 10.2502H672.72C672.83 10.2502 672.91 10.2802 672.96 10.3302C673.01 10.3802 673.04 10.4602 673.04 10.5702ZM664.72 19.2102V22.7302H670.28V19.2102H664.72ZM690.96 20.1302C690.96 20.2102 690.95 20.2802 690.92 20.3302C689.88 21.8002 688.65 23.1602 687.24 24.4102C689.64 25.2902 692.4 25.9202 695.52 26.2902C695.6 26.2902 695.67 26.3202 695.74 26.3702C695.81 26.4202 695.84 26.4802 695.84 26.5302C695.84 26.5802 695.81 26.7702 695.76 27.0902C695.76 27.2502 695.68 27.3402 695.52 27.3702C694.43 27.6902 693.73 28.5602 693.44 29.9702C693.44 30.0202 693.41 30.0802 693.34 30.1502C693.27 30.2202 693.21 30.2502 693.16 30.2502C693.08 30.2502 692.83 30.1802 692.4 30.0502C692.43 30.0802 692.44 30.1202 692.44 30.1702C692.44 30.2502 692.39 30.3302 692.28 30.4102C692.04 30.6502 691.68 30.8502 691.2 31.0102V36.8502C691.2 36.9802 691.13 37.1202 691 37.2502C690.87 37.3802 690.48 37.5602 689.84 37.7902C689.2 38.0202 688.6 38.1302 688.04 38.1302H687.44C687.33 38.1302 687.25 38.1002 687.2 38.0502C687.15 38.0002 687.12 37.9202 687.12 37.8102V36.4902H681.32V36.9702C681.32 37.1802 681.19 37.4002 680.92 37.6102C680.65 37.8202 680.27 38.0002 679.78 38.1502C679.29 38.3002 678.77 38.3702 678.24 38.3702H677.68C677.57 38.3702 677.49 38.3402 677.44 38.2902C677.39 38.2402 677.36 38.1602 677.36 38.0502V30.1302C675.84 30.6602 674.48 31.0802 673.28 31.3702C673.25 31.4002 673.21 31.4102 673.16 31.4102C673.05 31.4102 672.97 31.3602 672.92 31.2502L672.56 30.6902C672.51 30.6102 672.48 30.5402 672.48 30.4702C672.48 30.4002 672.51 30.3402 672.56 30.2902C672.61 30.2402 672.67 30.2002 672.72 30.1702C676.37 28.7302 679.56 26.8502 682.28 24.5302C681.43 23.6502 680.69 22.7202 680.08 21.7302C678.16 23.5402 676.28 24.9002 674.44 25.8102C674.39 25.8402 674.33 25.8502 674.26 25.8502C674.19 25.8502 674.13 25.8202 674.08 25.7702C673.73 25.4802 673.54 25.3102 673.5 25.2702C673.46 25.2302 673.44 25.1702 673.44 25.0902C673.44 24.9802 673.49 24.8902 673.6 24.8102C674.91 23.7702 676.13 22.4102 677.28 20.7302C678.43 19.0202 679.32 17.3402 679.96 15.6902C679.99 15.6402 680.03 15.5802 680.08 15.5302C680.13 15.4802 680.19 15.4502 680.24 15.4502C680.29 15.4502 680.35 15.4602 680.4 15.4902L683.36 16.6102C683.41 16.6402 683.47 16.6802 683.52 16.7302C683.57 16.7802 683.6 16.8402 683.6 16.8902C683.6 16.9402 683.59 17.0002 683.56 17.0502C683.4 17.5302 683.23 17.9402 683.04 18.2902H690.64C690.75 18.2902 690.83 18.3202 690.88 18.3702C690.93 18.4202 690.96 18.5002 690.96 18.6102V20.1302ZM687.4 10.2902C687.51 10.2902 687.59 10.3202 687.64 10.3702C687.69 10.4202 687.72 10.5002 687.72 10.6102V11.7702C687.72 11.8802 687.69 11.9602 687.64 12.0102C687.59 12.0602 687.51 12.0902 687.4 12.0902H679.72C679.61 12.0902 679.53 12.0602 679.48 12.0102C679.43 11.9602 679.4 11.8802 679.4 11.7702V10.6102C679.4 10.5002 679.43 10.4202 679.48 10.3702C679.53 10.3202 679.61 10.2902 679.72 10.2902H687.4ZM679.4 13.6502C679.4 13.5402 679.43 13.4602 679.48 13.4102C679.53 13.3602 679.61 13.3302 679.72 13.3302H687.96C688.07 13.3302 688.15 13.3602 688.2 13.4102C688.25 13.4602 688.28 13.5402 688.28 13.6502V14.8102C688.28 14.9202 688.25 15.0002 688.2 15.0502C688.15 15.1002 688.07 15.1302 687.96 15.1302H679.72C679.61 15.1302 679.53 15.1002 679.48 15.0502C679.43 15.0002 679.4 14.9202 679.4 14.8102V13.6502ZM681.64 20.0902L681.2 20.5702C681.87 21.3402 682.81 22.1002 684.04 22.8502C684.97 21.8402 685.71 20.9202 686.24 20.0902H681.64ZM681.24 28.4102L687 28.8902L687.64 28.2502C686.39 27.6602 685.36 27.0802 684.56 26.4902C683.73 27.0502 682.63 27.6902 681.24 28.4102ZM681.32 30.7302V34.6902H687.12V30.7302H681.32Z" fill="white"/>
<path d="M711.72 33.1703L715.4 33.4503C715.85 33.4503 716.21 33.3203 716.48 33.0503C716.91 32.6203 717.27 31.3703 717.56 29.2903C717.96 26.6803 718.23 22.8003 718.36 17.6503H714.64C714.24 22.0503 713.41 25.9603 712.16 29.3703C710.85 32.8603 708.83 35.9003 706.08 38.4903C706 38.5703 705.92 38.6103 705.84 38.6103C705.76 38.6103 705.68 38.5703 705.6 38.4903L705.16 38.0903C705.08 38.0103 705.04 37.9403 705.04 37.8703C705.04 37.8003 705.07 37.7403 705.12 37.6903C707.31 34.1203 708.73 30.1203 709.4 25.6903C709.96 21.9303 710.24 17.6903 710.24 12.9703V10.5303H706.16C706.05 10.5303 705.97 10.5003 705.92 10.4503C705.87 10.4003 705.84 10.3403 705.84 10.2903C705.6 9.52028 705.48 9.10028 705.48 9.05028C705.48 9.00028 705.51 8.94028 705.58 8.87028C705.65 8.80028 705.73 8.77027 705.84 8.77027H725.52C725.63 8.77027 725.71 8.80027 725.76 8.85027C725.81 8.90027 725.84 8.98027 725.84 9.09027V10.2103C725.84 10.3203 725.81 10.4003 725.76 10.4503C725.71 10.5003 725.63 10.5303 725.52 10.5303H715C714.95 12.4803 714.87 14.2503 714.76 15.8503H722.24C722.35 15.8503 722.43 15.8803 722.48 15.9303C722.53 15.9803 722.56 16.0603 722.56 16.1703V17.8503C722.37 23.8503 722.05 28.2203 721.6 30.9703C721.17 33.7703 720.47 35.6203 719.48 36.5303C718.33 37.6203 716.81 38.1703 714.92 38.1703C714.81 38.1703 714.73 38.1403 714.68 38.0903C714.63 38.0403 714.6 37.9603 714.6 37.8503C714.6 36.6803 714.44 35.9303 714.12 35.6103L714.08 35.5703C713.71 35.1403 712.89 34.7703 711.64 34.4503C711.59 34.4503 711.53 34.4203 711.48 34.3703C711.43 34.3203 711.4 34.2403 711.4 34.1303V33.5303C711.4 33.4203 711.43 33.3403 711.48 33.2703C711.53 33.2003 711.61 33.1703 711.72 33.1703ZM711.44 0.770271C711.49 0.720271 711.55 0.690277 711.6 0.690277C711.65 0.690277 711.69 0.700278 711.72 0.730278C715.19 1.58028 717.33 3.02028 718.16 5.05028C718.37 5.56028 718.48 6.04027 718.48 6.49027C718.48 7.18027 718.2 7.82028 717.64 8.41028C717.19 8.84028 716.69 9.05028 716.16 9.05028C715.55 9.05028 714.93 8.81028 714.32 8.33028C714.24 8.25028 714.2 8.17027 714.2 8.09027C714.09 7.02027 713.72 5.89028 713.08 4.69028C712.49 3.46028 711.81 2.41027 711.04 1.53027C710.96 1.45027 710.92 1.37028 710.92 1.29028C710.92 1.18028 710.97 1.09028 711.08 1.01028L711.44 0.770271ZM723.18 20.2903C723.11 20.2903 723.04 20.2603 722.96 20.2103C722.64 19.9703 722.46 19.8303 722.42 19.7903C722.38 19.7503 722.36 19.7003 722.36 19.6303C722.36 19.5603 722.39 19.4903 722.44 19.4103C724.28 17.0403 725.87 14.1003 727.22 10.6103C728.57 7.12028 729.48 3.86027 729.96 0.850273C729.96 0.770273 729.99 0.700272 730.06 0.630272C730.13 0.560272 730.19 0.530273 730.24 0.530273C730.29 0.530273 730.33 0.540274 730.36 0.570274L735.88 1.81027C735.93 1.81027 735.99 1.84028 736.06 1.91028C736.13 1.98028 736.16 2.04027 736.16 2.09027C736.16 2.33027 736.04 2.57027 735.8 2.81027C735.56 3.05027 735.19 3.22028 734.68 3.33028C735.83 6.88028 737.8 10.0503 740.6 12.8503C741.59 13.8603 742.64 14.7403 743.76 15.4903C743.87 15.5703 743.92 15.6603 743.92 15.7703C743.92 15.8003 743.88 15.9803 743.8 16.3303C743.8 16.4603 743.73 16.5603 743.6 16.6103C742.11 17.2503 741.24 18.1803 741 19.4103C741 19.4603 740.97 19.5203 740.9 19.5903C740.83 19.6603 740.76 19.6903 740.68 19.6903L740.44 19.5703C737.43 16.4203 735.15 11.8103 733.6 5.73028C732.53 8.37028 731.2 10.9203 729.6 13.3703C727.79 16.1203 725.71 18.4003 723.36 20.2103C723.31 20.2603 723.25 20.2903 723.18 20.2903ZM724.84 26.8503C724.92 26.7403 724.99 26.6903 725.06 26.6903C725.13 26.6903 725.16 26.7003 725.16 26.7303C731.56 27.8203 736.01 29.7703 738.52 32.5703C739.59 33.7703 740.12 34.8903 740.12 35.9303C740.12 36.2803 740.07 36.6103 739.96 36.9303C739.64 37.8403 739 38.2903 738.04 38.2903C737.48 38.2903 736.96 38.1803 736.48 37.9703C736.43 37.9403 736.39 37.9003 736.36 37.8503C735.32 36.2003 733.67 34.4203 731.4 32.5303C729.13 30.6403 726.89 29.0403 724.68 27.7303C724.55 27.6803 724.48 27.6003 724.48 27.5103C724.48 27.4203 724.51 27.3303 724.56 27.2503L724.84 26.8503ZM728.44 16.4103C728.52 16.3303 728.58 16.2903 728.62 16.2903C728.66 16.2903 728.69 16.3003 728.72 16.3303C732.8 16.7603 735.48 17.9403 736.76 19.8903C737.19 20.5303 737.4 21.1203 737.4 21.6503C737.4 22.1803 737.24 22.6603 736.92 23.0903C736.49 23.7003 735.93 24.0103 735.24 24.0103C734.87 24.0103 734.47 23.9303 734.04 23.7703C733.96 23.7403 733.91 23.6903 733.88 23.6103C733.27 22.5703 732.43 21.4803 731.36 20.3303C730.29 19.1303 729.21 18.1003 728.12 17.2503C728.01 17.1703 727.96 17.0803 727.96 16.9903C727.96 16.9003 728 16.8103 728.08 16.7303L728.44 16.4103Z" fill="white"/>
<path d="M788.96 26.1303H789.4C789.51 26.1303 789.59 26.1603 789.64 26.2103C789.69 26.2603 789.72 26.3403 789.72 26.4503L789.88 32.8903C790.84 33.3403 791.32 33.9803 791.32 34.8103C791.32 35.8203 790.72 36.5403 789.52 36.9703C788.43 37.3403 786.49 37.5303 783.72 37.5303H780.36C778.52 37.5303 777.27 37.2003 776.6 36.5303C775.99 35.9203 775.68 34.8603 775.68 33.3703V16.2503C775.49 16.2803 775.29 16.2903 775.08 16.2903H768.68V30.2103C769.99 29.9403 771.39 29.6403 772.88 29.2903C774.37 28.9403 775.15 28.7703 775.2 28.7703C775.25 28.7703 775.31 28.8003 775.38 28.8703C775.45 28.9403 775.48 29.0003 775.48 29.0503C775.61 29.4803 775.68 29.7203 775.68 29.7703C775.68 29.8203 775.65 29.8803 775.6 29.9303C775.55 29.9803 775.51 30.0203 775.48 30.0503C770.71 32.2403 764.65 34.7203 757.32 37.4903C757.05 38.0003 756.68 38.3303 756.2 38.4903C756.15 38.5203 756.09 38.5303 756.04 38.5303C755.99 38.5303 755.93 38.5003 755.88 38.4503C755.83 38.4003 755.79 38.3603 755.76 38.3303L753.32 33.6503C753.29 33.6003 753.28 33.5403 753.28 33.4703C753.28 33.4003 753.31 33.3403 753.38 33.2703C753.45 33.2003 753.52 33.1703 753.6 33.1703C754.45 33.0603 755.56 32.8803 756.92 32.6103V9.57029C756.92 9.46029 756.95 9.38029 757 9.31029C757.05 9.24029 757.11 9.21029 757.16 9.21029C757.21 9.21029 758.44 9.38029 760.84 9.73029C760.92 9.73029 760.99 9.76029 761.04 9.81029C761.09 9.86029 761.12 9.94029 761.12 10.0503V31.7703C761.36 31.7403 761.65 31.7003 762 31.6303C762.35 31.5603 762.79 31.4803 763.32 31.3703C763.72 31.2603 764.07 31.1803 764.36 31.1303V1.41029C764.36 1.30029 764.39 1.22029 764.44 1.15029C764.49 1.08029 764.55 1.05029 764.62 1.05029C764.69 1.05029 765.95 1.24029 768.4 1.61029C768.48 1.61029 768.55 1.64029 768.6 1.69029C768.65 1.74029 768.68 1.82029 768.68 1.93029V14.5303H775.68V1.97029C775.68 1.86029 775.71 1.78029 775.76 1.73029C775.81 1.68029 775.89 1.65029 776 1.65029H779.76C779.87 1.65029 779.95 1.68029 780 1.73029C780.05 1.78029 780.08 1.86029 780.08 1.97029V15.5303C782.35 13.7203 784.48 11.6403 786.48 9.29029C786.56 9.21029 786.64 9.17029 786.72 9.17029L786.96 9.29029C786.96 9.29029 787.79 10.5403 789.36 12.9703C789.41 13.0503 789.44 13.1303 789.44 13.2103C789.44 13.2903 789.39 13.3703 789.28 13.4503C786.45 15.2603 783.39 16.7203 780.08 17.8103V32.2103C780.08 32.5803 780.15 32.8403 780.28 32.9703C780.44 33.0803 780.77 33.1303 781.28 33.1303H783.96C785.32 33.1303 786.16 33.1003 786.48 33.0503H786.52C786.73 33.0503 786.93 32.9303 787.12 32.6903C787.44 32.0203 787.95 29.9203 788.64 26.3703C788.64 26.3203 788.67 26.2603 788.72 26.2103C788.77 26.1603 788.85 26.1303 788.96 26.1303Z" fill="white"/>
</svg>
