<svg width="562" height="126" viewBox="0 0 562 126" fill="none" xmlns="http://www.w3.org/2000/svg">
<path d="M-9.76585e-06 11.7702L0.40999 11.4502C4.11999 11.9702 6.41999 13.1702 7.30999 15.0402C7.82999 16.1802 7.71999 17.1302 6.98999 17.8902C6.18999 18.7202 5.22999 18.7802 4.08999 18.0702C3.74999 16.9402 3.19999 15.8002 2.42999 14.6702C1.68999 13.5002 0.87999 12.5402 -0.0100098 11.7702H-9.76585e-06ZM12.97 8.9602L13.8 9.1402C10.27 19.7802 8.29999 25.9602 7.86999 27.6802C7.40999 29.3702 7.17999 30.7602 7.17999 31.8702C7.20999 32.3902 7.46999 33.5102 7.95999 35.2302C8.47999 36.9502 8.70999 38.5402 8.64999 40.0102C8.61999 41.1102 8.30999 41.9702 7.72999 42.5902C7.17999 43.2302 6.43999 43.5602 5.51999 43.5602C4.38999 43.5602 3.70999 42.7802 3.49999 41.2102C3.89999 38.7902 4.03999 36.6902 3.90999 34.9102C3.81999 33.1002 3.50999 32.0102 2.98999 31.6402C2.46999 31.2702 1.69999 31.0402 0.68999 30.9502V29.9802H2.70999C2.95999 29.9802 3.11999 29.9702 3.21999 29.9302C3.30999 29.9002 3.41999 29.8202 3.53999 29.7002C3.65999 29.5802 3.79999 29.3602 3.94999 29.0602C4.55999 27.9602 7.56999 21.2602 12.97 8.9602ZM3.16999 1.5202L3.57999 1.2002C7.53999 1.8402 9.98999 3.1602 10.94 5.1602C11.49 6.3602 11.37 7.3502 10.57 8.1502C9.76999 8.9202 8.77999 8.9502 7.57999 8.2402C6.96999 6.0302 5.48999 3.7902 3.15999 1.5202H3.16999ZM43.33 22.3502H22.91C22.2 23.7002 21.33 25.0202 20.29 26.3102H41.17V28.2902C40.5 35.9302 39.04 40.5402 36.8 42.1402C35.39 43.0902 33.64 43.5702 31.56 43.5702C31.56 42.2202 31.3 41.2802 30.78 40.7602C30.04 40.0802 28.79 39.5902 27.01 39.2902V38.5502C29.95 38.8002 31.78 38.9202 32.48 38.9202C33.18 38.9202 33.69 38.7802 34.09 38.5102C35.35 37.4702 36.28 33.8502 36.9 27.6502H34.23C32.76 31.6102 30.46 34.8902 27.33 37.4902C24.23 40.0702 20.14 42.1102 15.05 43.6102L14.68 42.8702C22.19 39.7402 27.18 34.6702 29.63 27.6402H26.64C23.79 32.4202 19.1 36.1402 12.56 38.7702L12.1 38.0802C16.64 35.3502 20.06 31.8702 22.36 27.6402H19.09C16.54 30.2202 13.43 32.3602 9.74999 34.0802L9.28999 33.3902C13.21 30.6302 16.25 26.9502 18.4 22.3502H11.45L11.08 21.0202H43.33V22.3502ZM20.74 16.6502V18.3102C20.74 18.4302 20.6 18.5902 20.33 18.7702C20.08 18.9202 19.69 19.0802 19.13 19.2302C18.58 19.3502 17.98 19.4102 17.34 19.4102H16.6V3.5402H38.13V17.7502C38.13 17.8402 37.99 17.9602 37.72 18.1202C37.44 18.2702 37.01 18.4302 36.43 18.5802C35.88 18.7302 35.28 18.8102 34.64 18.8102H33.9V16.6502H20.74ZM33.9 4.8302H20.74V9.3802H33.9V4.8302ZM20.74 15.3202H33.9V10.6702H20.74V15.3202Z" fill="#004098"/>
<path d="M66.4699 26.5401V28.3301C65.0599 31.4001 63.0199 34.1101 60.3499 36.4701C57.6799 38.8001 54.4199 40.6401 50.5499 41.9901L50.1799 41.3901C52.9099 39.8601 55.2699 37.9101 57.2599 35.5501C59.2799 33.1601 60.7899 30.6001 61.7699 27.8701H51.3699L50.9599 26.5401H66.4599H66.4699ZM87.4499 22.3501L90.6699 25.6601C87.8799 27.8701 84.5699 29.7701 80.7299 31.3601C84.0399 33.9401 88.2599 35.9001 93.3799 37.2501L93.2899 37.7601C91.5399 38.1601 90.3899 39.5201 89.8399 41.8501C85.8499 39.8901 82.5399 37.5001 79.8999 34.6701C77.2599 31.8501 75.2199 28.1201 73.7799 23.4901V38.0701C73.7799 39.7601 73.3799 41.0301 72.5799 41.8901C71.7799 42.7801 70.1599 43.3301 67.6999 43.5501C67.6099 42.1401 67.2499 41.1601 66.6399 40.6101C65.8699 39.9001 64.4599 39.4101 62.4099 39.1401V38.5001C65.7199 38.7101 67.7499 38.8201 68.4799 38.8201C69.2099 38.8201 69.5399 38.5301 69.5399 37.9501V21.2501H61.6699V22.1701C61.6699 22.4201 61.2599 22.7101 60.4299 23.0401C59.6299 23.3501 58.8199 23.5001 57.9899 23.5001H57.2999V6.48014H68.2499C68.7399 4.24014 69.1199 2.29014 69.3999 0.640137L74.3699 1.84014C72.5899 4.17014 71.2299 5.72014 70.2799 6.49014H86.0999V21.9001C86.0699 22.1101 85.6199 22.3901 84.7699 22.7301C83.9099 23.0701 83.1299 23.2401 82.4199 23.2401H81.6799V21.2601H73.7699V22.0901C74.9699 25.2801 76.9399 28.1001 79.6999 30.5501C82.8299 27.9101 85.3999 25.1801 87.4299 22.3601L87.4499 22.3501ZM81.6999 7.81014H61.6899V13.1901H81.6999V7.82014V7.81014ZM61.6899 14.5301V19.9101H81.6999V14.5301H61.6899Z" fill="#004098"/>
<path d="M172.91 14.21V16.14C170.27 27.03 164.78 34.76 156.44 39.32L155.98 38.77C159.26 36.1 161.93 32.73 163.98 28.65C166.03 24.57 167.49 20.2 168.35 15.54H157.4L156.99 14.21H172.91ZM192.83 9.00996L196.51 12.41C192.98 15.91 189.2 18.87 185.15 21.29C188.49 26.93 193.34 31.43 199.69 34.77L199.51 35.23C197.64 35.57 196.32 36.86 195.55 39.09C191.5 35.9 188.21 32.1 185.66 27.68C183.14 23.23 181.27 17.42 180.05 10.25V37.85C180.05 39.69 179.64 41.04 178.81 41.9C178.01 42.79 176.28 43.36 173.61 43.6C173.43 42.07 173 40.99 172.32 40.38C171.4 39.61 169.88 39.08 167.77 38.77V38.08C171.48 38.36 173.72 38.49 174.49 38.49C175.26 38.49 175.59 38.17 175.59 37.52V0.959961L180.05 1.59996V6.98996C180.97 12.05 182.49 16.5 184.6 20.33C187.97 16.47 190.72 12.69 192.83 9.00996Z" fill="#004098"/>
<path d="M206.59 12.33L207 12.01C210.68 12.5 212.95 13.67 213.81 15.51C214.33 16.65 214.19 17.6 213.4 18.36C212.57 19.16 211.57 19.19 210.41 18.45C210.13 17.35 209.64 16.24 208.94 15.14C208.23 14.01 207.45 13.07 206.59 12.33ZM218.87 10.12L219.7 10.3C216.51 20.21 214.69 26.08 214.23 27.92C213.77 29.55 213.56 30.89 213.59 31.97C213.59 32.49 213.84 33.61 214.33 35.33C214.82 37.02 215.04 38.6 214.97 40.07C214.94 41.14 214.65 41.99 214.1 42.6C213.58 43.24 212.84 43.57 211.89 43.57C210.79 43.57 210.14 42.79 209.96 41.22C210.3 38.83 210.4 36.74 210.28 34.96C210.19 33.18 209.9 32.12 209.41 31.79C208.89 31.42 208.14 31.19 207.16 31.1V30.13H209.14C209.39 30.13 209.55 30.11 209.65 30.08C209.74 30.05 209.85 29.97 209.97 29.85C210.12 29.73 210.28 29.53 210.43 29.25C211.01 28.15 213.83 21.77 218.89 10.11L218.87 10.12ZM209.35 1.83998L209.76 1.51998C213.75 1.97998 216.26 3.17998 217.3 5.10998C217.91 6.27998 217.85 7.26998 217.12 8.09998C216.35 8.92998 215.37 9.01998 214.18 8.37998C213.41 6.22998 211.8 4.05998 209.35 1.84998V1.83998ZM229.77 29.76V31.42C227.29 36.3 222.85 39.82 216.48 42L216.11 41.31C218.19 40.14 220.03 38.66 221.63 36.85C223.25 35.04 224.5 33.11 225.36 31.05H218.32L217.91 29.76H229.78H229.77ZM220.29 8.96998L219.92 7.63998H229.03C228.6 7.54998 228.22 7.37998 227.88 7.12998C227.48 5.22998 226.42 3.32998 224.71 1.42998L225.12 1.14998C228.55 1.69998 230.62 2.84998 231.33 4.59998C231.76 5.66998 231.58 6.54998 230.78 7.21998C230.5 7.42998 230.2 7.56998 229.86 7.62998H235.06C236.04 5.50998 236.93 3.20998 237.73 0.72998L241.46 2.33998C240.17 4.29998 238.47 6.06998 236.35 7.62998H248.4V8.95998H235.61V12.59H247.16V13.92H235.61V17.88H249.69V19.21H218.78L218.41 17.88H231.43V13.92H221.63L221.31 12.59H231.43V8.95998H220.3L220.29 8.96998ZM244.39 25.02L247.1 28.33C244.83 30.11 242.25 31.61 239.37 32.84C241.88 35.14 245.4 36.87 249.9 38.04L249.85 38.55C248.26 38.98 247.21 40.3 246.72 42.51C244.02 40.98 241.75 39.17 239.91 37.08C238.1 34.96 236.69 32.3 235.68 29.08V38.97C235.68 40.47 235.33 41.59 234.62 42.33C233.91 43.07 232.41 43.53 230.11 43.71C229.96 42.42 229.6 41.55 229.05 41.09C228.31 40.51 227.04 40.06 225.23 39.76V39.12C228.27 39.33 230.11 39.44 230.75 39.44C231.12 39.44 231.36 39.38 231.49 39.26C231.64 39.11 231.72 38.86 231.72 38.52V26.42H223.39L223.16 25.09H235.67V27.8C236.41 29.49 237.4 30.96 238.66 32.22C240.59 30.29 242.49 27.9 244.36 25.04L244.39 25.02ZM227.19 20.6L227.33 19.91C233.56 19.94 237.3 20.78 238.55 22.44C239.13 23.24 239.04 23.93 238.27 24.51C237.41 25.18 236.48 25.26 235.46 24.74C235.25 24.65 235.05 24.53 234.86 24.37C233.24 22.71 230.67 21.46 227.18 20.6H227.19Z" fill="#004098"/>
<path d="M353.56 6.35016V8.56016C352.06 10.3702 350.42 11.9002 348.64 13.1602L348.13 12.8402C348.47 11.4602 348.74 9.74016 348.96 7.69016H319.43C319.52 9.13016 319.32 10.3902 318.83 11.4602C318.37 12.5002 317.74 13.2702 316.94 13.7602C316.3 14.1902 315.56 14.3402 314.73 14.2202C313.93 14.0702 313.4 13.6402 313.12 12.9302C312.66 11.6102 313.18 10.5802 314.68 9.85016C315.6 9.39016 316.4 8.61016 317.07 7.50016C317.74 6.40016 318.05 5.23016 317.99 4.00016L318.68 3.95016C318.99 4.90016 319.19 5.70016 319.28 6.34016H333.95C333.7 6.25016 333.41 6.11016 333.08 5.93016C332.93 4.98016 332.53 4.03016 331.88 3.08016C331.27 2.10016 330.56 1.32016 329.76 0.730156L330.13 0.410156C333.75 0.410156 335.99 1.27016 336.85 2.99016C337.37 4.00016 337.25 4.92016 336.48 5.75016C336.2 6.03016 335.88 6.23016 335.51 6.35016H353.54H353.56ZM345.1 27.1402H349.84V42.1802C349.81 42.3302 349.36 42.5502 348.51 42.8202C347.65 43.1302 346.9 43.2802 346.26 43.2802H345.57V40.6102H322.71V42.1702C322.71 42.4202 322.3 42.6902 321.47 43.0002C320.67 43.3402 319.86 43.5102 319.03 43.5102H318.39V27.1402H345.12H345.1ZM347.72 11.0902V12.4202H320.99L320.62 11.0902H347.71H347.72ZM342.48 25.1202H341.74V23.3302H326.51V24.3402C326.51 24.5502 326.1 24.8302 325.27 25.1702C324.44 25.4802 323.63 25.6302 322.83 25.6302H322.23V15.9602H346.06V24.0102C346.03 24.1902 345.58 24.4202 344.73 24.7002C343.87 24.9802 343.12 25.1102 342.48 25.1102V25.1202ZM331.99 28.4802H322.7V33.1702H331.99V28.4802ZM322.7 34.5102V39.2902H331.99V34.5102H322.7ZM326.52 22.0002H341.75V17.3102H326.52V22.0002ZM345.56 28.4902H336.22V33.1802H345.56V28.4902ZM336.22 39.3002H345.56V34.5202H336.22V39.3002Z" fill="#004098"/>
<path d="M366.2 30.6802H366.98C367.68 33.0402 367.99 35.0502 367.9 36.7102C367.84 38.3402 367.47 39.6102 366.8 40.5302C366.34 41.1102 365.7 41.4202 364.87 41.4502C364.07 41.5102 363.49 41.2402 363.12 40.6202C362.84 40.0702 362.8 39.5002 362.98 38.9202C363.16 38.3402 363.53 37.8502 364.08 37.4502C364.69 36.8102 365.23 35.8302 365.69 34.5102C366.15 33.1602 366.32 31.8902 366.2 30.6902V30.6802ZM364.73 29.6202L363.07 24.8402C363.74 24.7202 364.2 24.5502 364.45 24.3302C366.44 22.6102 368.61 19.9002 370.94 16.1902C368.85 16.9602 367.31 17.4902 366.29 17.8002C365.98 18.2602 365.63 18.5802 365.23 18.7702L363.25 13.9902C363.83 13.8402 364.25 13.6702 364.49 13.4802C365.56 12.3202 366.71 10.4102 367.94 7.78018C369.17 5.11018 370.02 2.83018 370.52 0.930176L374.2 3.55018C373.22 5.61018 371.99 7.57018 370.52 9.44018C369.05 11.2802 367.62 12.8602 366.24 14.1802C367.96 14.2402 369.92 14.2402 372.13 14.1802C373.2 12.3102 373.97 10.7802 374.43 9.58018L377.51 12.8002C376.28 14.8902 374.64 17.0302 372.59 19.2402C370.53 21.4202 368.5 23.3202 366.47 24.9402C367.63 24.8802 370.53 24.6902 375.16 24.3902C374.76 22.5502 374.24 20.9602 373.6 19.6102L374.15 19.3802C377.19 21.2802 378.83 23.3702 379.07 25.6402C379.19 27.0202 378.81 27.9702 377.92 28.4902C377.09 28.9502 376.26 28.7402 375.44 27.8502C375.47 27.2402 375.44 26.5202 375.35 25.6902C371.73 26.9502 368.56 27.9702 365.83 28.7702C365.52 29.2002 365.16 29.4902 364.73 29.6402V29.6202ZM369.51 30.1302L370.15 29.9902C372.54 32.2602 373.63 34.5402 373.42 36.8402C373.3 38.1902 372.79 39.0302 371.9 39.3702C371.16 39.6802 370.47 39.4202 369.83 38.5902C370.32 35.9502 370.21 33.1302 369.51 30.1302ZM388.46 29.5802L388.69 30.0902C385.62 33.5902 383.48 35.9502 382.25 37.1702C382.19 37.8802 381.93 38.3202 381.47 38.5002L378.57 34.3602C378.82 35.6502 378.55 36.6002 377.79 37.2102C377.05 37.7902 376.27 37.6502 375.44 36.8002C375.56 34.4402 374.95 31.9202 373.6 29.2602L374.15 29.0302C376.6 30.5902 378.04 32.2802 378.47 34.0902C380.4 33.3502 383.73 31.8502 388.45 29.5802H388.46ZM405.76 17.5702V18.9002H393.52V38.2202C393.52 39.8102 393.18 40.9902 392.51 41.7602C391.84 42.5602 390.42 43.0502 388.28 43.2302C388.22 41.9402 387.96 41.0802 387.5 40.6502C386.92 40.0402 385.83 39.6102 384.23 39.3602V38.6702C386.65 38.8502 388.14 38.9502 388.69 38.9502C389.3 38.9502 389.61 38.6902 389.61 38.1702V18.9002H379.35L378.98 17.5702H392.6L393.8 13.9402H381.56V11.7802C383.31 8.01018 384.69 4.42018 385.7 1.02018L389.33 2.03018C389.15 3.29018 388.84 4.47018 388.41 5.57018H400.28V7.46018L396.92 17.5802H405.75L405.76 17.5702ZM380.87 21.2502L381.38 20.9702C384.72 21.9802 386.72 23.4202 387.36 25.2902C387.73 26.4602 387.53 27.3602 386.76 28.0002C385.93 28.7102 385.01 28.6302 384 27.7702C383.88 26.7302 383.51 25.6102 382.9 24.4102C382.32 23.1802 381.64 22.1302 380.88 21.2402L380.87 21.2502ZM385.56 12.6002H394.25L396.14 6.90018H387.91C387.54 7.85018 386.76 9.75018 385.56 12.6002ZM400.05 20.0102L403.04 23.3202C401.66 24.4902 399.14 26.1102 395.5 28.2002L395.09 27.7402C396.44 25.9302 398.09 23.3602 400.06 20.0102H400.05ZM395.22 30.4502L395.54 29.9902C399.96 30.6002 402.85 32.0902 404.23 34.4502C405.06 35.8302 405.15 37.0102 404.51 37.9902C403.93 38.8802 403.1 39.0502 402.03 38.5002C401.91 38.4402 401.78 38.3602 401.66 38.2702C399.64 34.6202 397.49 32.0102 395.22 30.4502Z" fill="#004098"/>
<path d="M511.43 20.51V21.84H495.93V28.1H506.14V41.81C506.11 42.02 505.66 42.29 504.81 42.59C503.98 42.9 503.23 43.05 502.56 43.05H501.87V40.34H485.17V42.04C485.17 42.29 484.77 42.56 483.97 42.87C483.2 43.21 482.42 43.38 481.62 43.38H480.98V28.11H491.65V21.85H478.54C477.77 31.48 474.77 38.76 469.52 43.7L468.92 43.29C471.13 39.46 472.58 35.23 473.29 30.59C474 25.93 474.35 20.64 474.35 14.72V3.77002H507.01V14.95C506.98 15.1 506.52 15.33 505.63 15.64C504.74 15.95 503.97 16.1 503.33 16.1H502.59V13.48H478.76V14.72C478.76 16.53 478.71 18.46 478.62 20.52H491.64V14.26L495.92 14.77V20.52H511.42L511.43 20.51ZM502.6 5.05002H478.77V12.13H502.6V5.06002V5.05002ZM501.86 29.43H485.16V39H501.86V29.43Z" fill="#004098"/>
<path d="M531.44 22.6301V24.2401C530.46 27.9801 528.68 31.1901 526.1 33.8501C526.38 33.9101 526.68 34.0801 527.02 34.3601C528.8 35.9501 531.1 37.0101 533.92 37.5301C536.74 38.0501 540.85 38.3101 546.25 38.3101C553.58 38.2501 558.82 38.1401 561.98 37.9901V38.5901C560.23 38.9001 559.19 40.0801 558.85 42.1301H544.82C539.73 42.1301 535.9 41.6801 533.32 40.8001C530.74 39.9401 528.47 38.3001 526.51 35.8801C525.9 35.2101 525.41 35.2401 525.04 35.9701C524.09 37.7201 523.17 39.6701 522.28 41.8101C522.4 42.1801 522.33 42.4801 522.05 42.7301L518.78 38.5001C519.3 38.1301 520.25 37.4001 521.63 36.2901C523.04 35.1901 523.99 34.4801 524.48 34.1701C526.07 31.3201 527.15 27.9101 527.7 23.9601H521.77V21.9401C523.27 19.2401 524.56 16.6701 525.63 14.2101H519.93L519.52 12.8801H529.04V15.0401C527.66 17.8901 526.36 20.4201 525.13 22.6301H531.43H531.44ZM521.23 1.75012L521.64 1.43012C525.26 2.32012 527.48 3.78012 528.31 5.80012C528.8 7.06012 528.65 8.08012 527.85 8.88012C527.02 9.68012 526.05 9.72012 524.95 9.02012C524.86 8.96012 524.77 8.90012 524.67 8.84012C524.39 6.45012 523.24 4.09012 521.22 1.76012L521.23 1.75012ZM534.2 9.98012H530.93L530.56 8.65012H546.38V9.98012H537.92C537.86 12.4901 537.8 14.3801 537.74 15.6401H544.23V17.4801C544.11 23.4301 543.88 27.7101 543.54 30.3101C543.23 32.8901 542.67 34.5701 541.84 35.3701C541.01 36.1101 539.88 36.5001 538.44 36.5701C538.44 35.5601 538.24 34.8501 537.84 34.4501C537.38 33.9601 536.57 33.5801 535.4 33.3001V32.5601C536.69 32.6801 537.73 32.7401 538.53 32.7401C538.87 32.7401 539.13 32.6301 539.31 32.4201C540.08 31.5001 540.57 26.3501 540.78 16.9601H537.65C537.34 20.9501 536.68 24.4701 535.67 27.5401C534.66 30.6101 533.08 33.3501 530.93 35.7701L530.42 35.2601C532.2 31.8901 533.32 28.2101 533.78 24.2201C534.24 20.2301 534.38 15.4801 534.19 9.96012L534.2 9.98012ZM534.15 1.19012L534.66 0.960117C537.76 1.94012 539.57 3.31012 540.09 5.05012C540.4 6.15012 540.14 7.01012 539.31 7.63012C538.45 8.24012 537.53 8.12012 536.55 7.26012C536.4 5.42012 535.6 3.40012 534.16 1.19012H534.15ZM545.33 13.9301L544.69 13.5201C546.59 10.0601 547.85 5.84012 548.46 0.870117L552.19 2.25012C551.7 4.27012 551.07 6.07012 550.3 7.63012H561.34V8.96012H549.52C548.29 10.9801 546.9 12.6401 545.33 13.9301ZM546.16 33.2501V32.5601C548.28 32.7101 549.55 32.7901 549.98 32.7901C550.29 32.7901 550.49 32.7401 550.58 32.6501C550.7 32.5301 550.76 32.3301 550.76 32.0501V24.5501H545.24L544.87 23.2201H550.76V17.7501L552.55 17.9301C553.26 16.9201 553.96 15.7101 554.67 14.3001H547.03L546.62 12.9701H558.72V14.7201C557.13 16.0401 555.67 17.1601 554.35 18.0801V23.2301H560.93V24.5601H554.35V32.2401C554.35 33.7701 554.04 34.8901 553.43 35.6001C552.85 36.2701 551.61 36.6901 549.7 36.8401C549.58 35.6101 549.33 34.8201 548.96 34.4501C548.47 33.9001 547.53 33.5001 546.15 33.2501H546.16Z" fill="#004098"/>
<path d="M148.829 0.00081053L99.9114 48.9185L100.618 49.6256L149.536 0.707917L148.829 0.00081053Z" fill="#004098"/>
<path d="M100.618 0.000901043L99.9114 0.708008L148.829 49.6257L149.536 48.9185L100.618 0.000901043Z" fill="#004098"/>
<path d="M305.786 0.00325733L256.869 48.9209L257.576 49.628L306.493 0.710364L305.786 0.00325733Z" fill="#004098"/>
<path d="M257.576 0.00334245L256.869 0.710449L305.786 49.6281L306.493 48.921L257.576 0.00334245Z" fill="#004098"/>
<path d="M461.855 -0.00504345L412.937 48.9126L413.644 49.6197L462.562 0.702063L461.855 -0.00504345Z" fill="#004098"/>
<path d="M413.644 -0.00495833L412.937 0.702148L461.855 49.6198L462.562 48.9127L413.644 -0.00495833Z" fill="#004098"/>
<path d="M90.39 110.55C90.39 115.35 90.39 119.1 90.64 121.2C90.79 122.65 91.09 123.75 92.59 123.95C93.29 124.05 94.39 124.15 95.09 124.15C95.74 124.15 95.94 124.3 95.94 124.55C95.94 124.9 95.59 125.05 94.84 125.05C91.69 125.05 88.54 124.9 87.24 124.9C85.94 124.9 82.79 125.05 80.89 125.05C80.19 125.05 79.84 124.95 79.84 124.55C79.84 124.3 80.04 124.15 80.59 124.15C81.34 124.15 81.94 124.05 82.39 123.95C83.39 123.75 83.64 122.65 83.84 121.2C84.09 119.1 84.09 115.35 84.09 110.55V101.75C84.09 94.1501 84.09 92.7501 83.99 91.1501C83.89 89.4501 83.49 88.6501 81.84 88.3001C81.44 88.2001 80.59 88.1501 79.89 88.1501C79.39 88.1501 79.04 88.0501 79.04 87.7501C79.04 87.3501 79.44 87.2501 80.19 87.2501C81.49 87.2501 82.94 87.3001 84.24 87.3001C85.54 87.3501 86.69 87.4001 87.39 87.4001C89.29 87.4001 99.44 87.4001 100.59 87.3501C101.54 87.3001 102.14 87.3001 102.64 87.1501C102.94 87.0501 103.19 86.8501 103.44 86.8501C103.64 86.8501 103.79 87.0501 103.79 87.3001C103.79 87.6501 103.54 88.2501 103.39 89.5501C103.34 90.0501 103.24 93.0001 103.14 93.6001C103.09 94.0001 102.99 94.3001 102.64 94.3001C102.29 94.3001 102.19 94.0501 102.14 93.5001C102.14 93.1001 102.14 92.3001 101.84 91.6001C101.49 90.9001 100.44 90.1501 98.54 90.1001L90.84 89.9501C90.54 89.9501 90.39 90.1001 90.39 90.6501V103.15C90.39 103.45 90.44 103.6 90.74 103.6L97.14 103.55C97.99 103.55 98.69 103.55 99.39 103.5C100.34 103.45 101.04 103.25 101.54 102.6C101.79 102.3 101.89 102.1 102.19 102.1C102.39 102.1 102.49 102.25 102.49 102.55C102.49 102.85 102.24 104.1 102.09 105.65C101.99 106.65 101.89 108.95 101.89 109.3C101.89 109.75 101.89 110.25 101.39 110.25C101.09 110.25 100.99 109.9 100.99 109.55C100.99 109.2 100.89 108.6 100.69 108C100.44 107.3 99.69 106.4 98.14 106.2C96.89 106.05 91.59 106.05 90.74 106.05C90.49 106.05 90.39 106.15 90.39 106.5V110.55Z" fill="#004098"/>
<path d="M117.54 101.75C117.54 94.15 117.54 92.75 117.44 91.15C117.34 89.45 116.94 88.65 115.29 88.3C114.89 88.2 114.04 88.15 113.34 88.15C112.79 88.15 112.49 88.05 112.49 87.7C112.49 87.35 112.84 87.25 113.59 87.25C116.24 87.25 119.39 87.4 120.89 87.4C122.09 87.4 125.24 87.25 127.04 87.25C127.79 87.25 128.14 87.35 128.14 87.7C128.14 88.05 127.84 88.15 127.34 88.15C126.79 88.15 126.49 88.2 125.89 88.3C124.54 88.55 124.14 89.4 124.04 91.15C123.94 92.75 123.94 94.15 123.94 101.75V108.75C123.94 116 125.39 119.05 127.84 121.05C130.09 122.9 132.39 123.1 134.09 123.1C136.29 123.1 138.99 122.4 140.99 120.4C143.74 117.65 143.89 113.15 143.89 108V101.75C143.89 94.15 143.89 92.75 143.79 91.15C143.69 89.45 143.29 88.65 141.64 88.3C141.24 88.2 140.39 88.15 139.84 88.15C139.29 88.15 138.99 88.05 138.99 87.7C138.99 87.35 139.34 87.25 140.04 87.25C142.59 87.25 145.74 87.4 145.79 87.4C146.39 87.4 149.54 87.25 151.49 87.25C152.19 87.25 152.54 87.35 152.54 87.7C152.54 88.05 152.24 88.15 151.64 88.15C151.09 88.15 150.79 88.2 150.19 88.3C148.84 88.55 148.44 89.4 148.34 91.15C148.24 92.75 148.24 94.15 148.24 101.75V107.1C148.24 112.65 147.69 118.55 143.49 122.15C139.94 125.2 136.34 125.75 133.09 125.75C130.44 125.75 125.64 125.6 121.99 122.3C119.44 120 117.54 116.3 117.54 109.05V101.75Z" fill="#004098"/>
<path d="M173.04 110.55C173.04 116.95 173.04 120.4 174.09 121.3C174.94 122.05 176.24 122.4 180.14 122.4C182.79 122.4 184.74 122.35 185.99 121C186.59 120.35 187.19 118.95 187.29 118C187.34 117.55 187.44 117.25 187.84 117.25C188.19 117.25 188.24 117.5 188.24 118.1C188.24 118.65 187.89 122.4 187.49 123.85C187.19 124.95 186.94 125.2 184.34 125.2C180.74 125.2 178.14 125.1 175.89 125.05C173.64 124.95 171.84 124.9 169.79 124.9C169.24 124.9 168.14 124.9 166.94 124.95C165.79 124.95 164.49 125.05 163.49 125.05C162.84 125.05 162.49 124.9 162.49 124.55C162.49 124.3 162.69 124.15 163.29 124.15C164.04 124.15 164.64 124.05 165.09 123.95C166.09 123.75 166.34 122.65 166.54 121.2C166.79 119.1 166.79 115.15 166.79 110.55V101.75C166.79 94.15 166.79 92.75 166.69 91.15C166.59 89.45 166.19 88.65 164.54 88.3C164.14 88.2 163.54 88.15 162.89 88.15C162.34 88.15 162.04 88.05 162.04 87.7C162.04 87.35 162.39 87.25 163.14 87.25C165.49 87.25 168.64 87.4 169.99 87.4C171.19 87.4 174.84 87.25 176.79 87.25C177.49 87.25 177.84 87.35 177.84 87.7C177.84 88.05 177.54 88.15 176.94 88.15C176.39 88.15 175.59 88.2 174.99 88.3C173.64 88.55 173.24 89.4 173.14 91.15C173.04 92.75 173.04 94.15 173.04 101.75V110.55Z" fill="#004098"/>
<path d="M207.79 110.55C207.79 116.95 207.79 120.4 208.84 121.3C209.69 122.05 210.99 122.4 214.89 122.4C217.54 122.4 219.49 122.35 220.74 121C221.34 120.35 221.94 118.95 222.04 118C222.09 117.55 222.19 117.25 222.59 117.25C222.94 117.25 222.99 117.5 222.99 118.1C222.99 118.65 222.64 122.4 222.24 123.85C221.94 124.95 221.69 125.2 219.09 125.2C215.49 125.2 212.89 125.1 210.64 125.05C208.39 124.95 206.59 124.9 204.54 124.9C203.99 124.9 202.89 124.9 201.69 124.95C200.54 124.95 199.24 125.05 198.24 125.05C197.59 125.05 197.24 124.9 197.24 124.55C197.24 124.3 197.44 124.15 198.04 124.15C198.79 124.15 199.39 124.05 199.84 123.95C200.84 123.75 201.09 122.65 201.29 121.2C201.54 119.1 201.54 115.15 201.54 110.55V101.75C201.54 94.15 201.54 92.75 201.44 91.15C201.34 89.45 200.94 88.65 199.29 88.3C198.89 88.2 198.29 88.15 197.64 88.15C197.09 88.15 196.79 88.05 196.79 87.7C196.79 87.35 197.14 87.25 197.89 87.25C200.24 87.25 203.39 87.4 204.74 87.4C205.94 87.4 209.59 87.25 211.54 87.25C212.24 87.25 212.59 87.35 212.59 87.7C212.59 88.05 212.29 88.15 211.69 88.15C211.14 88.15 210.34 88.2 209.74 88.3C208.39 88.55 207.99 89.4 207.89 91.15C207.79 92.75 207.79 94.15 207.79 101.75V110.55Z" fill="#004098"/>
<path d="M229.89 105.25H244.14V108.01H229.89V105.25Z" fill="#004098"/>
<path d="M258.92 101.75C258.92 94.15 258.92 92.75 258.82 91.15C258.72 89.45 258.22 88.6 257.12 88.35C256.57 88.2 255.92 88.15 255.32 88.15C254.82 88.15 254.52 88.05 254.52 87.65C254.52 87.35 254.92 87.25 255.72 87.25C257.62 87.25 260.77 87.4 262.22 87.4C263.47 87.4 266.42 87.25 268.32 87.25C268.97 87.25 269.37 87.35 269.37 87.65C269.37 88.05 269.07 88.15 268.57 88.15C268.07 88.15 267.67 88.2 267.07 88.3C265.72 88.55 265.32 89.4 265.22 91.15C265.12 92.75 265.12 94.15 265.12 101.75V110.55C265.12 115.4 265.12 119.35 265.32 121.5C265.47 122.85 265.82 123.75 267.32 123.95C268.02 124.05 269.12 124.15 269.87 124.15C270.42 124.15 270.67 124.3 270.67 124.55C270.67 124.9 270.27 125.05 269.72 125.05C266.42 125.05 263.27 124.9 261.92 124.9C260.77 124.9 257.62 125.05 255.62 125.05C254.97 125.05 254.62 124.9 254.62 124.55C254.62 124.3 254.82 124.15 255.42 124.15C256.17 124.15 256.77 124.05 257.22 123.95C258.22 123.75 258.52 122.9 258.67 121.45C258.92 119.35 258.92 115.4 258.92 110.55V101.75Z" fill="#004098"/>
<path d="M288.82 118.25C288.92 122.15 289.57 123.45 290.57 123.8C291.42 124.1 292.37 124.15 293.17 124.15C293.72 124.15 294.02 124.25 294.02 124.55C294.02 124.95 293.57 125.05 292.87 125.05C289.62 125.05 287.62 124.9 286.67 124.9C286.22 124.9 283.87 125.05 281.27 125.05C280.62 125.05 280.17 125 280.17 124.55C280.17 124.25 280.47 124.15 280.97 124.15C281.62 124.15 282.52 124.1 283.22 123.9C284.52 123.5 284.72 122.05 284.77 117.7L285.22 88.0999C285.22 87.0999 285.37 86.3999 285.87 86.3999C286.42 86.3999 286.87 87.0499 287.72 87.9499C288.32 88.5999 295.92 96.7499 303.22 104C306.62 107.4 313.37 114.6 314.22 115.4H314.47L313.97 92.9499C313.92 89.8999 313.47 88.9499 312.27 88.4499C311.52 88.1499 310.32 88.1499 309.62 88.1499C309.02 88.1499 308.82 87.9999 308.82 87.6999C308.82 87.2999 309.37 87.2499 310.12 87.2499C312.72 87.2499 315.12 87.3999 316.17 87.3999C316.72 87.3999 318.62 87.2499 321.07 87.2499C321.72 87.2499 322.22 87.2999 322.22 87.6999C322.22 87.9999 321.92 88.1499 321.32 88.1499C320.82 88.1499 320.42 88.1499 319.82 88.2999C318.42 88.6999 318.02 89.7499 317.97 92.5499L317.42 124.1C317.42 125.2 317.22 125.65 316.77 125.65C316.22 125.65 315.62 125.1 315.07 124.55C311.92 121.55 305.52 115 300.32 109.85C294.87 104.45 289.32 98.1999 288.42 97.2499H288.27L288.82 118.25Z" fill="#004098"/>
<path d="M331.47 105.25H345.72V108.01H331.47V105.25Z" fill="#004098"/>
<path d="M355.05 106.15C355.05 97.5998 360.7 86.5498 375.7 86.5498C388.15 86.5498 395.9 93.7998 395.9 105.25C395.9 116.7 387.9 125.75 375.2 125.75C360.85 125.75 355.05 115 355.05 106.15ZM388.9 107.1C388.9 95.8998 382.45 88.9498 374.25 88.9498C368.5 88.9498 361.95 92.1498 361.95 104.6C361.95 115 367.7 123.25 377.3 123.25C380.8 123.25 388.9 121.55 388.9 107.1Z" fill="#004098"/>
<path d="M413.65 118.25C413.75 122.15 414.4 123.45 415.4 123.8C416.25 124.1 417.2 124.15 418 124.15C418.55 124.15 418.85 124.25 418.85 124.55C418.85 124.95 418.4 125.05 417.7 125.05C414.45 125.05 412.45 124.9 411.5 124.9C411.05 124.9 408.7 125.05 406.1 125.05C405.45 125.05 405 125 405 124.55C405 124.25 405.3 124.15 405.8 124.15C406.45 124.15 407.35 124.1 408.05 123.9C409.35 123.5 409.55 122.05 409.6 117.7L410.05 88.0999C410.05 87.0999 410.2 86.3999 410.7 86.3999C411.25 86.3999 411.7 87.0499 412.55 87.9499C413.15 88.5999 420.75 96.7499 428.05 104C431.45 107.4 438.2 114.6 439.05 115.4H439.3L438.8 92.9499C438.75 89.8999 438.3 88.9499 437.1 88.4499C436.35 88.1499 435.15 88.1499 434.45 88.1499C433.85 88.1499 433.65 87.9999 433.65 87.6999C433.65 87.2999 434.2 87.2499 434.95 87.2499C437.55 87.2499 439.95 87.3999 441 87.3999C441.55 87.3999 443.45 87.2499 445.9 87.2499C446.55 87.2499 447.05 87.2999 447.05 87.6999C447.05 87.9999 446.75 88.1499 446.15 88.1499C445.65 88.1499 445.25 88.1499 444.65 88.2999C443.25 88.6999 442.85 89.7499 442.8 92.5499L442.25 124.1C442.25 125.2 442.05 125.65 441.6 125.65C441.05 125.65 440.45 125.1 439.9 124.55C436.75 121.55 430.35 115 425.15 109.85C419.7 104.45 414.15 98.1999 413.25 97.2499H413.1L413.65 118.25Z" fill="#004098"/>
<path d="M462.7 101.75C462.7 94.1501 462.7 92.7501 462.6 91.1501C462.5 89.4501 462.1 88.6501 460.45 88.3001C460.05 88.2001 459.2 88.1501 458.5 88.1501C457.95 88.1501 457.65 88.0501 457.65 87.7001C457.65 87.3501 458 87.2501 458.75 87.2501C460.1 87.2501 461.55 87.3001 462.8 87.3001C464.1 87.3501 465.25 87.4001 465.95 87.4001C467.55 87.4001 477.5 87.4001 478.45 87.3501C479.4 87.2501 480.2 87.1501 480.6 87.0501C480.85 87.0001 481.15 86.8501 481.4 86.8501C481.65 86.8501 481.7 87.0501 481.7 87.3001C481.7 87.6501 481.45 88.2501 481.3 90.5501C481.25 91.0501 481.15 93.2501 481.05 93.8501C481 94.1001 480.9 94.4001 480.55 94.4001C480.2 94.4001 480.1 94.1501 480.1 93.7001C480.1 93.3501 480.05 92.5001 479.8 91.9001C479.45 91.0001 478.95 90.4001 476.45 90.1001C475.6 90.0001 470.35 89.9001 469.35 89.9001C469.1 89.9001 469 90.0501 469 90.4001V103.05C469 103.4 469.05 103.6 469.35 103.6C470.45 103.6 476.2 103.6 477.35 103.5C478.55 103.4 479.3 103.25 479.75 102.75C480.1 102.35 480.3 102.1 480.55 102.1C480.75 102.1 480.9 102.2 480.9 102.5C480.9 102.8 480.7 103.6 480.5 106.15C480.45 107.15 480.3 109.15 480.3 109.5C480.3 109.9 480.3 110.45 479.85 110.45C479.5 110.45 479.4 110.25 479.4 110C479.35 109.5 479.35 108.85 479.2 108.2C478.95 107.2 478.25 106.45 476.4 106.25C475.45 106.15 470.5 106.1 469.3 106.1C469.05 106.1 469 106.3 469 106.6V110.55C469 112.25 468.95 116.85 469 118.3C469.1 121.75 469.9 122.5 475 122.5C476.3 122.5 478.4 122.5 479.7 121.9C481 121.3 481.6 120.25 481.95 118.2C482.05 117.65 482.15 117.45 482.5 117.45C482.9 117.45 482.9 117.85 482.9 118.35C482.9 119.5 482.5 122.9 482.25 123.9C481.9 125.2 481.45 125.2 479.55 125.2C475.8 125.2 473.05 125.1 470.9 125.05C468.75 124.95 467.2 124.9 465.7 124.9C465.15 124.9 464.05 124.9 462.85 124.95C461.7 124.95 460.4 125.05 459.4 125.05C458.75 125.05 458.4 124.9 458.4 124.55C458.4 124.3 458.6 124.15 459.2 124.15C459.95 124.15 460.55 124.05 461 123.95C462 123.75 462.25 122.65 462.45 121.2C462.7 119.1 462.7 115.15 462.7 110.55V101.75Z" fill="#004098"/>
</svg>
