<svg width="564" height="77" viewBox="0 0 564 77" fill="none" xmlns="http://www.w3.org/2000/svg">
<path d="M563.14 0.335938H0.22998V76.8159H563.14V0.335938Z" fill="#5BAFE2"/>
<path d="M185.69 59.1052C185.59 59.1052 185.55 59.1452 185.51 59.2652L184.42 62.1653C184.22 62.6753 184.12 63.1552 184.12 63.4052C184.12 63.7652 184.3 64.0352 184.93 64.0352H185.23C185.47 64.0352 185.53 64.0753 185.53 64.1953C185.53 64.3553 185.41 64.3952 185.19 64.3952C184.54 64.3952 183.67 64.3352 183.04 64.3352C182.82 64.3352 181.7 64.3952 180.65 64.3952C180.39 64.3952 180.26 64.3553 180.26 64.1953C180.26 64.0753 180.34 64.0352 180.5 64.0352C180.68 64.0352 180.97 64.0152 181.13 63.9952C182.06 63.8752 182.45 63.1853 182.85 62.1653L187.94 49.4252C188.18 48.8352 188.31 48.6152 188.51 48.6152C188.69 48.6152 188.81 48.7952 189.02 49.2652C189.51 50.3852 192.75 58.6552 194.05 61.7352C194.82 63.5652 195.41 63.8453 195.83 63.9453C196.13 64.0053 196.44 64.0252 196.68 64.0252C196.84 64.0252 196.94 64.0452 196.94 64.1852C196.94 64.3452 196.76 64.3853 196.01 64.3853C195.26 64.3853 193.8 64.3852 192.18 64.3452C191.81 64.3252 191.57 64.3252 191.57 64.1852C191.57 64.0652 191.65 64.0252 191.85 64.0052C191.99 63.9652 192.13 63.7852 192.03 63.5352L190.41 59.2352C190.37 59.1352 190.31 59.0952 190.21 59.0952H185.69V59.1052ZM189.83 58.0952C189.93 58.0952 189.95 58.0353 189.93 57.9753L188.1 52.9652C188.08 52.8852 188.06 52.7852 188 52.7852C187.94 52.7852 187.9 52.8852 187.88 52.9652L186.01 57.9552C185.99 58.0352 186.01 58.0952 186.09 58.0952H189.82H189.83Z" fill="white"/>
<path d="M199.89 54.9454C199.89 51.8654 199.89 51.2954 199.85 50.6454C199.81 49.9554 199.65 49.6354 198.98 49.4854C198.82 49.4454 198.47 49.4254 198.19 49.4254C197.97 49.4254 197.85 49.3854 197.85 49.2454C197.85 49.1054 197.99 49.0654 198.3 49.0654C199.38 49.0654 200.65 49.1254 201.22 49.1254C202.05 49.1254 203.23 49.0654 204.16 49.0654C206.7 49.0654 207.61 49.9154 207.93 50.2254C208.38 50.6554 208.94 51.5654 208.94 52.6354C208.94 55.5154 206.83 57.5454 203.95 57.5454C203.85 57.5454 203.62 57.5454 203.52 57.5254C203.42 57.5054 203.28 57.4854 203.28 57.3454C203.28 57.1854 203.42 57.1254 203.85 57.1254C204.99 57.1254 206.57 55.8454 206.57 53.7754C206.57 53.1054 206.51 51.7454 205.37 50.7354C204.64 50.0654 203.81 49.9454 203.34 49.9454C203.04 49.9454 202.73 49.9654 202.55 50.0254C202.45 50.0654 202.39 50.1854 202.39 50.4154V58.5254C202.39 60.3954 202.39 61.9954 202.49 62.8654C202.55 63.4354 202.67 63.8754 203.28 63.9554C203.56 63.9954 204.01 64.0354 204.31 64.0354C204.53 64.0354 204.64 64.0954 204.64 64.1954C204.64 64.3354 204.48 64.3954 204.25 64.3954C202.91 64.3954 201.63 64.3354 201.11 64.3354C200.64 64.3354 199.37 64.3954 198.56 64.3954C198.3 64.3954 198.15 64.3354 198.15 64.1954C198.15 64.0954 198.23 64.0354 198.47 64.0354C198.77 64.0354 199.02 63.9954 199.2 63.9554C199.61 63.8754 199.71 63.4254 199.79 62.8354C199.89 61.9854 199.89 60.3854 199.89 58.5154V54.9454Z" fill="white"/>
<path d="M213.98 54.9454C213.98 51.8654 213.98 51.2954 213.94 50.6454C213.9 49.9554 213.74 49.6354 213.07 49.4854C212.91 49.4454 212.56 49.4254 212.28 49.4254C212.06 49.4254 211.94 49.3854 211.94 49.2454C211.94 49.1054 212.08 49.0654 212.39 49.0654C213.47 49.0654 214.74 49.1254 215.31 49.1254C216.14 49.1254 217.32 49.0654 218.25 49.0654C220.79 49.0654 221.7 49.9154 222.02 50.2254C222.47 50.6554 223.03 51.5654 223.03 52.6354C223.03 55.5154 220.92 57.5454 218.04 57.5454C217.94 57.5454 217.71 57.5454 217.61 57.5254C217.51 57.5054 217.37 57.4854 217.37 57.3454C217.37 57.1854 217.51 57.1254 217.94 57.1254C219.08 57.1254 220.66 55.8454 220.66 53.7754C220.66 53.1054 220.6 51.7454 219.46 50.7354C218.73 50.0654 217.9 49.9454 217.43 49.9454C217.13 49.9454 216.82 49.9654 216.64 50.0254C216.54 50.0654 216.48 50.1854 216.48 50.4154V58.5254C216.48 60.3954 216.48 61.9954 216.58 62.8654C216.64 63.4354 216.76 63.8754 217.37 63.9554C217.65 63.9954 218.1 64.0354 218.4 64.0354C218.62 64.0354 218.73 64.0954 218.73 64.1954C218.73 64.3354 218.57 64.3954 218.34 64.3954C217 64.3954 215.72 64.3354 215.2 64.3354C214.73 64.3354 213.46 64.3954 212.65 64.3954C212.39 64.3954 212.24 64.3354 212.24 64.1954C212.24 64.0954 212.32 64.0354 212.56 64.0354C212.86 64.0354 213.11 63.9954 213.29 63.9554C213.7 63.8754 213.8 63.4254 213.88 62.8354C213.98 61.9854 213.98 60.3854 213.98 58.5154V54.9454Z" fill="white"/>
<path d="M225.87 56.7254C225.87 53.2554 228.16 48.7754 234.25 48.7754C239.3 48.7754 242.44 51.7154 242.44 56.3554C242.44 60.9954 239.19 64.6654 234.04 64.6654C228.22 64.6654 225.87 60.3054 225.87 56.7154V56.7254ZM239.6 57.1054C239.6 52.5654 236.98 49.7454 233.66 49.7454C231.33 49.7454 228.67 51.0454 228.67 56.0954C228.67 60.3154 231 63.6554 234.9 63.6554C236.32 63.6554 239.6 62.9654 239.6 57.1054Z" fill="white"/>
<path d="M247.49 54.9454C247.49 51.8654 247.49 51.2954 247.45 50.6454C247.41 49.9554 247.21 49.6154 246.76 49.5054C246.54 49.4454 246.27 49.4254 246.03 49.4254C245.83 49.4254 245.71 49.3854 245.71 49.2254C245.71 49.1054 245.87 49.0654 246.2 49.0654C246.97 49.0654 248.25 49.1254 248.84 49.1254C249.35 49.1254 250.54 49.0654 251.31 49.0654C251.57 49.0654 251.74 49.1054 251.74 49.2254C251.74 49.3854 251.62 49.4254 251.41 49.4254C251.2 49.4254 251.05 49.4454 250.8 49.4854C250.25 49.5854 250.09 49.9354 250.05 50.6454C250.01 51.2954 250.01 51.8654 250.01 54.9454V58.5154C250.01 60.4854 250.01 62.0854 250.09 62.9554C250.15 63.5054 250.29 63.8654 250.9 63.9454C251.18 63.9854 251.63 64.0254 251.93 64.0254C252.15 64.0254 252.25 64.0854 252.25 64.1854C252.25 64.3254 252.09 64.3854 251.87 64.3854C250.53 64.3854 249.25 64.3254 248.71 64.3254C248.24 64.3254 246.97 64.3854 246.16 64.3854C245.9 64.3854 245.75 64.3254 245.75 64.1854C245.75 64.0854 245.83 64.0254 246.07 64.0254C246.37 64.0254 246.62 63.9854 246.8 63.9454C247.21 63.8654 247.33 63.5154 247.39 62.9354C247.49 62.0854 247.49 60.4854 247.49 58.5154V54.9454Z" fill="white"/>
<path d="M258.61 61.6356C258.65 63.2156 258.91 63.7456 259.32 63.8856C259.66 64.0056 260.05 64.0256 260.37 64.0256C260.59 64.0256 260.71 64.0656 260.71 64.1856C260.71 64.3456 260.53 64.3856 260.24 64.3856C258.92 64.3856 258.11 64.3256 257.73 64.3256C257.55 64.3256 256.59 64.3856 255.54 64.3856C255.28 64.3856 255.09 64.3656 255.09 64.1856C255.09 64.0656 255.21 64.0256 255.41 64.0256C255.67 64.0256 256.04 64.0056 256.32 63.9256C256.85 63.7656 256.93 63.1756 256.95 61.4156L257.13 49.4156C257.13 49.0056 257.19 48.7256 257.39 48.7256C257.61 48.7256 257.8 48.9856 258.14 49.3556C258.38 49.6156 261.47 52.9256 264.43 55.8656C265.81 57.2456 268.55 60.1656 268.89 60.4856H268.99L268.79 51.3856C268.77 50.1456 268.59 49.7656 268.1 49.5556C267.8 49.4356 267.31 49.4356 267.02 49.4356C266.78 49.4356 266.7 49.3756 266.7 49.2556C266.7 49.0956 266.92 49.0756 267.23 49.0756C268.28 49.0756 269.26 49.1356 269.68 49.1356C269.9 49.1356 270.67 49.0756 271.67 49.0756C271.93 49.0756 272.14 49.0956 272.14 49.2556C272.14 49.3756 272.02 49.4356 271.77 49.4356C271.57 49.4356 271.4 49.4356 271.16 49.4956C270.59 49.6556 270.43 50.0856 270.41 51.2156L270.19 64.0156C270.19 64.4656 270.11 64.6456 269.93 64.6456C269.71 64.6456 269.46 64.4256 269.24 64.1956C267.96 62.9756 265.37 60.3256 263.26 58.2356C261.05 56.0456 258.8 53.5156 258.43 53.1256H258.37L258.59 61.6456L258.61 61.6356Z" fill="white"/>
<path d="M280.19 50.1952L277.17 50.2751C275.99 50.3151 275.51 50.4151 275.2 50.8651C275 51.1651 274.9 51.4151 274.86 51.5751C274.82 51.7351 274.76 51.8152 274.64 51.8152C274.5 51.8152 274.46 51.7151 274.46 51.4951C274.46 51.1751 274.84 49.3252 274.89 49.1652C274.95 48.9052 275.01 48.7852 275.13 48.7852C275.29 48.7852 275.5 48.9851 276 49.0251C276.59 49.0851 277.36 49.1252 278.03 49.1252H286.06C286.71 49.1252 287.15 49.0651 287.46 49.0251C287.76 48.9651 287.93 48.9251 288.01 48.9251C288.15 48.9251 288.17 49.0451 288.17 49.3551C288.17 49.7851 288.11 51.1851 288.11 51.7051C288.09 51.9051 288.05 52.0251 287.93 52.0251C287.77 52.0251 287.73 51.9251 287.71 51.6151L287.69 51.3951C287.65 50.8651 287.1 50.3052 285.3 50.2552L282.74 50.1952V58.5052C282.74 60.3752 282.74 61.9752 282.84 62.8452C282.9 63.4152 283.02 63.8552 283.63 63.9352C283.91 63.9752 284.36 64.0151 284.66 64.0151C284.88 64.0151 284.98 64.0751 284.98 64.1751C284.98 64.3151 284.82 64.3752 284.6 64.3752C283.26 64.3752 281.98 64.3152 281.42 64.3152C280.95 64.3152 279.68 64.3752 278.87 64.3752C278.61 64.3752 278.46 64.3151 278.46 64.1751C278.46 64.0751 278.54 64.0151 278.78 64.0151C279.08 64.0151 279.33 63.9752 279.51 63.9352C279.92 63.8552 280.04 63.4052 280.1 62.8152C280.2 61.9652 280.2 60.3651 280.2 58.4951V50.1852L280.19 50.1952Z" fill="white"/>
<path d="M293.15 49.1452C293.21 48.8052 293.33 48.6152 293.49 48.6152C293.65 48.6152 293.77 48.7152 294.04 49.2452L299.58 60.6852L305.1 49.1052C305.26 48.7852 305.36 48.6152 305.55 48.6152C305.74 48.6152 305.85 48.8152 305.91 49.2452L307.76 61.7752C307.94 63.0552 308.15 63.6452 308.75 63.8252C309.34 64.0052 309.74 64.0252 310.01 64.0252C310.19 64.0252 310.33 64.0453 310.33 64.1653C310.33 64.3253 310.09 64.3853 309.8 64.3853C309.29 64.3853 306.5 64.3252 305.68 64.2652C305.21 64.2252 305.09 64.1652 305.09 64.0452C305.09 63.9452 305.17 63.8852 305.31 63.8252C305.43 63.7852 305.49 63.5252 305.41 62.9552L304.19 54.0352H304.11L299.69 63.2452C299.22 64.1952 299.12 64.3853 298.94 64.3853C298.76 64.3853 298.55 63.9752 298.23 63.3752C297.74 62.4452 296.14 59.3352 295.9 58.7752C295.72 58.3452 294.5 55.7952 293.79 54.2752H293.71L292.66 62.3452C292.62 62.7152 292.6 62.9752 292.6 63.2952C292.6 63.6752 292.86 63.8653 293.21 63.9453C293.58 64.0253 293.86 64.0452 294.06 64.0452C294.22 64.0452 294.36 64.0852 294.36 64.1852C294.36 64.3652 294.18 64.4052 293.87 64.4052C293.02 64.4052 292.11 64.3452 291.74 64.3452C291.36 64.3452 290.38 64.4052 289.73 64.4052C289.53 64.4052 289.36 64.3652 289.36 64.1852C289.36 64.0852 289.48 64.0452 289.69 64.0452C289.85 64.0452 289.99 64.0452 290.3 63.9852C290.87 63.8652 291.03 63.0753 291.13 62.3853L293.14 49.1653L293.15 49.1452Z" fill="white"/>
<path d="M314.37 54.9453C314.37 51.8653 314.37 51.2953 314.33 50.6453C314.29 49.9553 314.13 49.6353 313.46 49.4853C313.3 49.4453 312.95 49.4253 312.67 49.4253C312.45 49.4253 312.33 49.3853 312.33 49.2453C312.33 49.1053 312.47 49.0653 312.78 49.0653C313.33 49.0653 313.92 49.0853 314.42 49.0853C314.95 49.1053 315.41 49.1253 315.7 49.1253C316.35 49.1253 320.38 49.1253 320.77 49.1053C321.15 49.0653 321.48 49.0253 321.64 48.9853C321.74 48.9653 321.86 48.9053 321.96 48.9053C322.06 48.9053 322.08 48.9853 322.08 49.0853C322.08 49.2253 321.98 49.4753 321.92 50.4053C321.9 50.6053 321.86 51.4953 321.82 51.7453C321.8 51.8453 321.76 51.9653 321.62 51.9653C321.48 51.9653 321.44 51.8653 321.44 51.6853C321.44 51.5453 321.42 51.1953 321.32 50.9553C321.18 50.5953 320.98 50.3453 319.96 50.2253C319.62 50.1853 317.49 50.1453 317.08 50.1453C316.98 50.1453 316.94 50.2053 316.94 50.3453V55.4753C316.94 55.6153 316.96 55.6953 317.08 55.6953C317.53 55.6953 319.86 55.6953 320.33 55.6553C320.82 55.6153 321.12 55.5553 321.3 55.3553C321.44 55.1953 321.52 55.0953 321.62 55.0953C321.7 55.0953 321.76 55.1353 321.76 55.2553C321.76 55.3753 321.68 55.7053 321.6 56.7353C321.58 57.1453 321.52 57.9553 321.52 58.0953C321.52 58.2553 321.52 58.4753 321.34 58.4753C321.2 58.4753 321.16 58.3953 321.16 58.2953C321.14 58.0953 321.14 57.8253 321.08 57.5653C320.98 57.1553 320.7 56.8553 319.94 56.7753C319.56 56.7353 317.55 56.7153 317.06 56.7153C316.96 56.7153 316.94 56.7953 316.94 56.9153V58.5153C316.94 59.2053 316.92 61.0653 316.94 61.6553C316.98 63.0553 317.31 63.3553 319.37 63.3553C319.9 63.3553 320.75 63.3553 321.28 63.1153C321.81 62.8753 322.05 62.4453 322.19 61.6153C322.23 61.3953 322.27 61.3153 322.41 61.3153C322.57 61.3153 322.57 61.4753 322.57 61.6753C322.57 62.1453 322.41 63.5253 322.31 63.9253C322.17 64.4553 321.99 64.4553 321.22 64.4553C319.7 64.4553 318.58 64.4153 317.71 64.3953C316.84 64.3553 316.21 64.3353 315.6 64.3353C315.38 64.3353 314.93 64.3353 314.44 64.3553C313.97 64.3553 313.45 64.3953 313.04 64.3953C312.78 64.3953 312.63 64.3353 312.63 64.1953C312.63 64.0953 312.71 64.0353 312.95 64.0353C313.25 64.0353 313.5 63.9953 313.68 63.9553C314.09 63.8753 314.19 63.4253 314.27 62.8353C314.37 61.9853 314.37 60.3853 314.37 58.5153V54.9453Z" fill="white"/>
<path d="M329.13 61.6356C329.17 63.2156 329.43 63.7456 329.84 63.8856C330.18 64.0056 330.57 64.0256 330.89 64.0256C331.11 64.0256 331.23 64.0656 331.23 64.1856C331.23 64.3456 331.05 64.3856 330.76 64.3856C329.44 64.3856 328.63 64.3256 328.25 64.3256C328.07 64.3256 327.11 64.3856 326.06 64.3856C325.8 64.3856 325.61 64.3656 325.61 64.1856C325.61 64.0656 325.73 64.0256 325.93 64.0256C326.19 64.0256 326.56 64.0056 326.84 63.9256C327.37 63.7656 327.45 63.1756 327.47 61.4156L327.65 49.4156C327.65 49.0056 327.71 48.7256 327.91 48.7256C328.13 48.7256 328.32 48.9856 328.66 49.3556C328.9 49.6156 331.99 52.9256 334.95 55.8656C336.33 57.2456 339.07 60.1656 339.41 60.4856H339.51L339.31 51.3856C339.29 50.1456 339.11 49.7656 338.62 49.5556C338.32 49.4356 337.83 49.4356 337.54 49.4356C337.3 49.4356 337.22 49.3756 337.22 49.2556C337.22 49.0956 337.44 49.0756 337.75 49.0756C338.8 49.0756 339.78 49.1356 340.2 49.1356C340.42 49.1356 341.19 49.0756 342.19 49.0756C342.45 49.0756 342.66 49.0956 342.66 49.2556C342.66 49.3756 342.54 49.4356 342.29 49.4356C342.09 49.4356 341.92 49.4356 341.68 49.4956C341.11 49.6556 340.95 50.0856 340.93 51.2156L340.71 64.0156C340.71 64.4656 340.63 64.6456 340.45 64.6456C340.23 64.6456 339.98 64.4256 339.76 64.1956C338.48 62.9756 335.89 60.3256 333.78 58.2356C331.57 56.0456 329.32 53.5156 328.95 53.1256H328.89L329.11 61.6456L329.13 61.6356Z" fill="white"/>
<path d="M350.71 50.1952L347.69 50.2751C346.51 50.3151 346.03 50.4151 345.72 50.8651C345.52 51.1651 345.42 51.4151 345.38 51.5751C345.34 51.7351 345.28 51.8152 345.16 51.8152C345.02 51.8152 344.98 51.7151 344.98 51.4951C344.98 51.1751 345.36 49.3252 345.41 49.1652C345.47 48.9052 345.53 48.7852 345.65 48.7852C345.81 48.7852 346.02 48.9851 346.52 49.0251C347.11 49.0851 347.88 49.1252 348.55 49.1252H356.58C357.23 49.1252 357.67 49.0651 357.98 49.0251C358.28 48.9651 358.45 48.9251 358.53 48.9251C358.67 48.9251 358.69 49.0451 358.69 49.3551C358.69 49.7851 358.63 51.1851 358.63 51.7051C358.61 51.9051 358.57 52.0251 358.45 52.0251C358.29 52.0251 358.25 51.9251 358.23 51.6151L358.21 51.3951C358.17 50.8651 357.62 50.3052 355.82 50.2552L353.26 50.1952V58.5052C353.26 60.3752 353.26 61.9752 353.36 62.8452C353.42 63.4152 353.54 63.8552 354.15 63.9352C354.43 63.9752 354.88 64.0151 355.18 64.0151C355.4 64.0151 355.5 64.0751 355.5 64.1751C355.5 64.3151 355.34 64.3752 355.12 64.3752C353.78 64.3752 352.5 64.3152 351.94 64.3152C351.47 64.3152 350.2 64.3752 349.39 64.3752C349.13 64.3752 348.98 64.3151 348.98 64.1751C348.98 64.0751 349.06 64.0151 349.3 64.0151C349.6 64.0151 349.85 63.9752 350.03 63.9352C350.44 63.8552 350.56 63.4052 350.62 62.8152C350.72 61.9652 350.72 60.3651 350.72 58.4951V50.1852L350.71 50.1952Z" fill="white"/>
<path d="M206.16 33.5254V34.2654H182.42L182.21 33.5254H195.11C196.54 29.5054 197.74 25.0454 198.71 20.1354L201.42 21.1054C200.81 23.2354 199.99 25.3954 198.97 27.5954C197.97 29.7754 196.92 31.7554 195.83 33.5254H206.15H206.16ZM205.21 18.7054H183.49L183.28 17.9654H205.2V18.7054H205.21ZM186.71 20.4954L187.09 20.3654C189.68 22.9054 191.26 25.5154 191.82 28.2054C192.16 29.8354 192.05 31.0354 191.49 31.7854C191.01 32.4354 190.41 32.4454 189.68 31.8354L189.5 31.6554C189.47 28.7254 188.54 25.0054 186.71 20.4854V20.4954ZM191.03 12.4254L191.29 12.2754C193.62 12.9254 195.08 13.9054 195.66 15.2354C196.02 16.0354 195.97 16.6954 195.51 17.2254C195.07 17.7154 194.5 17.7654 193.82 17.3754C193.73 17.3254 193.65 17.2754 193.56 17.2254C193.27 15.7454 192.43 14.1454 191.03 12.4254Z" fill="white"/>
<path d="M241.9 14.2351H244.45V25.0651C244.43 25.1551 244.2 25.2751 243.74 25.4451C243.28 25.6151 242.87 25.6951 242.51 25.6951H242.15V24.1351H237.04V31.2851C237.58 31.0851 238.44 30.7351 239.59 30.2351C240.77 29.7451 241.5 29.4351 241.79 29.3151C241.26 28.1351 240.64 27.0451 239.92 26.0151L240.23 25.8851C242.72 27.3451 244.27 29.0151 244.88 30.8951C245.24 32.0351 245.18 32.9151 244.7 33.5251C244.29 34.0551 243.78 34.1051 243.17 33.6751C243.07 33.6051 242.97 33.5351 242.86 33.4451C242.84 32.4051 242.58 31.2351 242.07 29.9451C239.52 31.8651 237.57 33.2651 236.24 34.1351C236.03 34.5451 235.8 34.8151 235.52 34.9551L234.01 32.1951C234.33 31.9951 234.54 31.8251 234.62 31.6851C234.7 31.5351 234.75 31.3051 234.75 30.9951V14.2051H241.88L241.9 14.2351ZM237.05 18.7851H242.16V14.9751H237.05V18.7851ZM237.05 23.4351H242.16V19.5251H237.05V23.4351ZM255.45 14.2851V28.5151C255.45 29.4751 255.25 30.1751 254.86 30.6351C254.47 31.0951 253.63 31.3951 252.36 31.5251C252.31 30.6551 252.15 30.0751 251.87 29.7851C251.55 29.3951 250.91 29.1051 249.95 28.9151V28.5551C251.4 28.6551 252.28 28.7051 252.61 28.7051C252.81 28.7051 252.95 28.6751 253.02 28.6051C253.11 28.5251 253.15 28.3851 253.15 28.1951V15.0151H248.88V35.1451C248.88 35.3151 248.68 35.5151 248.29 35.7351C247.9 35.9551 247.46 36.0651 246.99 36.0651H246.58V14.2651H255.45V14.2851Z" fill="white"/>
<path d="M307.49 14.3857V15.1256H301.82C301.1 16.2656 300.36 17.2356 299.57 18.0356H305.63V30.4556C305.61 30.5556 305.37 30.7057 304.89 30.8857C304.43 31.0757 304.01 31.1656 303.64 31.1656H303.26V30.1156H297.26V30.6556C297.26 30.8056 297.05 30.9856 296.62 31.1956C296.19 31.3856 295.75 31.4756 295.29 31.4756H294.93V22.7656C294.78 22.8656 294.48 22.9356 294.04 22.9656C293.14 24.3956 292.12 25.7256 291 26.9556L290.72 26.7756C291.04 25.5456 291.35 24.1256 291.64 22.5056H289.55V32.9056C289.55 33.8556 289.34 34.5856 288.94 35.0756C288.55 35.5856 287.73 35.8956 286.49 35.9956C286.46 35.1956 286.3 34.6456 286.03 34.3356C285.69 33.9456 285.04 33.6756 284.09 33.5156V33.1556C285.55 33.2556 286.45 33.3056 286.77 33.3056C287.11 33.3056 287.28 33.1556 287.28 32.8456V22.4956H283.65L283.42 21.7556H294.94V18.0256H298.82C298.96 17.0056 299.06 16.0356 299.13 15.1156H294.22C294.12 15.3056 293.79 15.4156 293.25 15.4456C292.3 16.3456 291 17.2556 289.37 18.1756C290.24 18.8956 290.6 19.6356 290.47 20.4256C290.38 20.9756 290.09 21.2856 289.58 21.3756C289.27 21.4256 288.94 21.3456 288.58 21.1456C288.34 20.4156 287.86 19.6356 287.12 18.8156C286.41 17.9956 285.65 17.3456 284.85 16.8456L285.06 16.6156C286.56 16.8056 287.78 17.1656 288.71 17.7156C289.43 16.7756 290.03 15.8756 290.52 15.0056H284.16L283.93 14.2656H293.77V14.6956L293.69 14.3656H307.51L307.49 14.3857ZM291.93 36.0256L291.73 35.6656C292.82 35.0856 293.92 34.3356 295.03 33.4156C296.15 32.4956 297.01 31.6356 297.61 30.8356L299.58 32.5456C298.78 33.2956 297.65 33.9856 296.21 34.6156C294.76 35.2456 293.34 35.7156 291.94 36.0256H291.93ZM303.25 18.7556H297.25V21.7656H303.25V18.7556ZM297.25 22.5156V25.5556H303.25V22.5156H297.25ZM297.25 29.3857H303.25V26.2956H297.25V29.3857ZM300.67 31.1956L300.9 30.9656C303.64 31.3456 305.47 32.1856 306.37 33.4956C306.88 34.2656 306.96 34.9256 306.6 35.4856C306.28 35.9956 305.76 36.1156 305.07 35.8456C304.61 35.0656 303.96 34.2356 303.13 33.3656C302.31 32.4956 301.5 31.7756 300.68 31.1956H300.67Z" fill="white"/>
<path d="M336.37 29.0555H336.78C337.17 30.4355 337.32 31.5955 337.24 32.5255C337.17 33.4455 336.92 34.1655 336.5 34.6755C336.23 35.0155 335.85 35.1955 335.38 35.2155C334.9 35.2355 334.55 35.0555 334.33 34.6755C334.18 34.3355 334.16 34.0055 334.28 33.6755C334.4 33.3555 334.62 33.0755 334.94 32.8355C335.33 32.4455 335.68 31.8855 335.99 31.1755C336.3 30.4455 336.42 29.7355 336.37 29.0555ZM335.4 28.6255L334.35 25.7855C334.72 25.6955 335.01 25.5955 335.19 25.4755C336.57 24.4855 338.04 22.9055 339.61 20.7255C338.54 21.0855 337.34 21.4555 336.01 21.8455C335.84 22.1555 335.62 22.3555 335.35 22.4555L334.23 19.6455C334.57 19.5655 334.81 19.4655 334.94 19.3655C335.67 18.7155 336.46 17.6555 337.32 16.1755C338.17 14.6755 338.79 13.3755 339.19 12.2655L341.31 13.8955C340.7 14.9855 339.91 16.0455 338.96 17.0655C338.01 18.0655 337.07 18.9455 336.15 19.6955C337.92 19.6955 339.34 19.6955 340.39 19.6655C341.17 18.4355 341.73 17.4855 342.05 16.8055L343.94 18.6955C343.14 19.9055 342.04 21.1455 340.64 22.4255C339.26 23.7055 337.9 24.8155 336.55 25.7455C338.71 25.6055 340.72 25.4555 342.58 25.2855C342.22 24.3955 341.77 23.5455 341.23 22.7255L341.54 22.5755C343.48 23.5255 344.64 24.6555 345.01 25.9455C345.25 26.7255 345.14 27.3155 344.68 27.7055C344.24 28.0655 343.74 28.0055 343.2 27.5255C343.15 27.0455 343.01 26.4855 342.79 25.8355C340.78 26.5855 338.54 27.3255 336.07 28.0555C335.86 28.3255 335.64 28.5055 335.4 28.5955V28.6255ZM339 28.6555L339.36 28.5555C340.84 29.8355 341.54 31.1355 341.45 32.4655C341.4 33.2455 341.11 33.7655 340.58 33.9955C340.07 34.2155 339.6 34.0455 339.17 33.4855C339.44 31.9855 339.38 30.3755 338.99 28.6555H339ZM341.99 28.1455L342.27 28.0155C343.99 28.8155 344.99 29.8055 345.28 30.9755C345.47 31.7555 345.32 32.3455 344.85 32.7355C344.37 33.1155 343.86 33.0455 343.32 32.5255C343.34 31.1155 342.89 29.6455 341.99 28.1355V28.1455ZM356.73 17.1355V18.2555C356.58 23.2855 356.31 27.0955 355.94 29.7055C355.56 32.2955 355.02 33.9655 354.3 34.7155C353.5 35.5655 352.39 35.9955 350.98 35.9955C350.98 35.1655 350.83 34.5955 350.52 34.3055C350.11 33.9155 349.32 33.6055 348.14 33.3855L348.17 32.9755C349.96 33.1455 351.06 33.2355 351.47 33.2355C351.88 33.2355 352.22 33.1055 352.49 32.8555C353.51 31.9355 354.17 26.9455 354.46 17.8855H348.48C347.36 20.3755 346.06 22.3655 344.6 23.8655L344.22 23.6855C344.94 22.2255 345.59 20.4455 346.19 18.3755C346.8 16.2755 347.27 14.2055 347.6 12.1455L350.15 13.0355C349.77 14.6155 349.33 15.9955 348.82 17.1455H356.74L356.73 17.1355ZM347.84 21.7855L348.15 21.6355C350.31 22.7255 351.65 24.0255 352.16 25.5455C352.48 26.5355 352.4 27.2955 351.91 27.8455C351.47 28.3355 350.93 28.3755 350.3 27.9455C350.21 27.8955 350.13 27.8255 350.05 27.7355C349.98 25.9955 349.25 24.0155 347.85 21.7855H347.84Z" fill="white"/>
</svg>
