<svg width="595" height="36" viewBox="0 0 595 36" fill="none" xmlns="http://www.w3.org/2000/svg">
<path d="M35.34 5.05997H21.96C21.12 7.00997 20.36 9.04996 19.68 11.18V34.85C19.65 34.93 19.49 35.03 19.19 35.15C18.91 35.3 18.53 35.43 18.05 35.53C17.57 35.66 17.12 35.72 16.72 35.72H16.04V15.09C11.66 20.79 6.44 25.38 0.38 28.85L0 28.43C3.85 25.42 7.32 21.79 10.41 17.56C13.53 13.3 15.76 9.13997 17.1 5.05997H0.87L0.57 3.95996H35.34V5.05997ZM21.2 14.98L21.58 14.6C27.61 16.27 31.74 18.56 33.97 21.48C35.21 23.08 35.6 24.42 35.15 25.51C34.8 26.37 34.11 26.68 33.1 26.42C32.87 26.37 32.64 26.28 32.42 26.15C31.46 24.4 29.9 22.49 27.75 20.41C25.6 18.33 23.42 16.52 21.21 14.98H21.2Z" fill="#004098"/>
<path d="M73 3.54004V4.64005H67.11V30.82C67.11 32.32 66.73 33.45 65.97 34.24C65.21 35.05 63.65 35.54 61.3 35.72C61.22 34.5 60.82 33.62 60.08 33.06C59.22 32.48 57.67 32.02 55.44 31.69V31.16C59.32 31.41 61.63 31.54 62.39 31.54C63.1 31.54 63.45 31.24 63.45 30.63V4.64005H37.88L37.54 3.54004H72.99H73ZM56.66 12.85V25.54C56.63 25.69 56.28 25.89 55.6 26.15C54.92 26.4 54.3 26.53 53.74 26.53H53.17V23.49H45.42V26.91C45.42 27.11 45.1 27.35 44.47 27.63C43.86 27.91 43.22 28.05 42.53 28.05H42V11.14H56.67V12.85H56.66ZM45.41 22.39H53.16V12.24H45.41V22.39Z" fill="#004098"/>
<path d="M79.5301 22.6901H80.1001C80.7101 24.3101 80.9701 25.7801 80.9001 27.1001C80.8201 28.3901 80.5701 29.4701 80.1401 30.3301C79.7101 31.1701 79.1601 31.8001 78.5101 32.2301C77.9301 32.6601 77.2701 32.8101 76.5301 32.6901C75.8201 32.5901 75.3401 32.2301 75.0901 31.6301C74.6601 30.4701 75.1301 29.5301 76.5001 28.8201C77.3101 28.2901 78.0201 27.4501 78.6301 26.3101C79.2601 25.1701 79.5701 23.9701 79.5401 22.7001L79.5301 22.6901ZM101.46 18.5901H83.7101V20.0301C83.7101 20.2301 83.3701 20.4901 82.6801 20.7901C82.0201 21.0701 81.3401 21.2101 80.6301 21.2101H80.1001V3.08008H105.07V19.5701C105.04 19.7201 104.68 19.9401 103.97 20.2201C103.26 20.4701 102.63 20.6001 102.07 20.6001H101.46V18.5901ZM90.8601 4.19009H83.7201V10.1601H90.8601V4.19009ZM83.7201 17.4901H90.8601V11.2601H83.7201V17.4901ZM102 26.1901L102.11 30.9001C102.67 31.0801 103.05 31.2801 103.25 31.5101C103.48 31.7401 103.59 32.0301 103.59 32.3801C103.59 32.9401 103.34 33.3501 102.83 33.6301C102.35 33.9301 101.45 34.1501 100.13 34.2801C98.8101 34.4301 96.8801 34.5101 94.3201 34.5101H89.0801C87.0801 34.5101 85.7601 34.2901 85.1301 33.8601C84.5001 33.4501 84.1801 32.6101 84.1801 31.3101V21.8101L87.7901 22.2701V30.5901C87.7901 30.8901 87.8901 31.1001 88.0901 31.2001C88.3201 31.2801 88.8201 31.3101 89.6101 31.3101H94.6301C97.0601 31.3101 98.4901 31.3001 98.9201 31.2701C99.4001 31.2501 99.7601 31.0501 99.9801 30.7001C100.28 30.1701 100.8 28.6601 101.54 26.1801H102V26.1901ZM90.1101 20.3401L90.4501 20.0701C93.7401 21.0101 95.7801 22.4401 96.5701 24.3601C97.0801 25.5801 96.9701 26.5801 96.2701 27.3601C95.6101 28.0901 94.8001 28.1801 93.8401 27.6301C93.7101 27.5501 93.5901 27.4701 93.4601 27.3601C93.3801 26.1901 93.0201 24.9801 92.3601 23.7101C91.7301 22.4201 90.9801 21.2901 90.1201 20.3301L90.1101 20.3401ZM101.47 4.19009H94.3301V10.1601H101.47V4.19009ZM94.3301 17.4901H101.47V11.2601H94.3301V17.4901ZM102.04 22.7001L102.38 22.4301C106.18 23.6701 108.59 25.4401 109.6 27.7501C110.23 29.1401 110.22 30.3101 109.56 31.2501C108.95 32.0601 108.15 32.2401 107.17 31.7801C106.94 31.6501 106.71 31.5001 106.49 31.3201C106.34 29.9001 105.83 28.4101 104.97 26.8401C104.13 25.2701 103.16 23.8901 102.04 22.7001Z" fill="#004098"/>
<path d="M126.31 7.76013V8.86011H112.44L112.14 7.76013H126.31ZM113.31 12.5501H124.71V13.6501H113.61L113.31 12.5501ZM124.71 17.4501V18.5501H113.61L113.31 17.4501H124.71ZM123.8 22.2801V32.8401C123.77 33.0201 123.44 33.2301 122.81 33.4901C122.2 33.7401 121.64 33.8701 121.14 33.8701H120.61V32.0801H116.81V34.3201C116.81 34.5001 116.51 34.7101 115.9 34.9701C115.32 35.2201 114.72 35.3501 114.11 35.3501H113.65V22.2801H123.8ZM115.1 1.27011L115.44 1.04013C118.51 1.45013 120.37 2.41011 121.03 3.93011C121.43 4.87011 121.32 5.64012 120.69 6.25012C119.98 6.93012 119.13 6.97011 118.14 6.36011C117.68 4.69011 116.67 2.99011 115.1 1.27011ZM116.81 30.9901H120.61V23.3901H116.81V30.9901ZM147.29 28.2901L146.87 32.6201C147.68 33.6601 147.92 34.4301 147.59 34.9401C147.31 35.3401 146.89 35.5601 146.34 35.5901C145.81 35.6401 145.28 35.5601 144.74 35.3601C144.23 35.1601 143.75 34.8901 143.3 34.5601C141.96 33.6001 140.87 32.4301 140.03 31.0601C138.03 32.6801 135.82 33.9701 133.42 34.9401L133.08 34.3701C135.08 33.1001 137.04 31.3701 138.97 29.1601C138.26 27.4901 137.72 25.4001 137.34 22.8901H133.27V25.1701L136.5 24.5201L136.61 24.9801C135.24 25.6601 134.13 26.2101 133.27 26.6101V31.5901C133.27 32.8101 132.99 33.7201 132.43 34.3301C131.9 34.9401 130.8 35.3201 129.12 35.4701C129.02 34.4601 128.79 33.8001 128.44 33.4901C127.98 33.0301 127.1 32.7001 125.78 32.5001V31.9301C127.78 32.0801 129.01 32.1601 129.47 32.1601C129.77 32.1601 129.98 32.1101 130.08 32.0101C130.18 31.9101 130.23 31.7301 130.23 31.4801V28.0201C129.95 28.1501 129.5 28.3601 128.86 28.6701C128.23 28.9501 127.73 29.1601 127.38 29.3201C127.2 29.7801 126.91 30.0701 126.51 30.1901L124.99 26.7701C125.65 26.6701 127.4 26.3401 130.23 25.7801V22.8901H124.99L124.69 21.7901H130.24V18.9001C128.62 19.2301 127.12 19.4301 125.76 19.5101L125.53 18.9001C128.49 18.0101 131.19 16.7701 133.62 15.1801H125.3L125 14.0801H134.08V10.9301H127.77L127.47 9.83011H134.08V6.71011H126.25L125.98 5.61011H137.23C137.91 4.04011 138.47 2.29012 138.9 0.370117L143.57 1.89014C143.39 2.40014 142.92 2.61013 142.16 2.54013C140.94 3.76013 139.7 4.78012 138.44 5.62012H146.99V6.72012H137.38V9.84012H145.32V10.9401H137.38V14.0901H147.75V15.1901H134.03L136.84 17.7001C136.51 18.0301 135.89 18.0401 134.98 17.7401C134.14 17.9901 133.57 18.1601 133.27 18.2301V21.8001H137.22C137.04 20.2601 136.93 18.1901 136.88 15.6101L141.1 16.0301C142.04 16.0801 142.8 16.2501 143.38 16.5201C143.99 16.7701 144.43 17.0501 144.71 17.3601C144.99 17.6601 145.18 17.9801 145.28 18.3101C145.38 18.6101 145.39 18.9101 145.32 19.1801C145.24 19.4601 145.11 19.6901 144.9 19.8601C145.84 20.5401 146.81 21.3501 147.83 22.2901C147.73 22.7001 147.4 22.9001 146.84 22.9001H140.34C140.49 24.1201 140.74 25.3101 141.1 26.4701C141.66 25.6801 142.34 24.5601 143.15 23.0901L145.24 25.3301C144.38 26.7201 143.39 27.9801 142.28 29.0901C142.91 30.2001 143.71 31.0901 144.67 31.7501C145.07 32.0301 145.37 31.9501 145.54 31.5201C145.87 30.9101 146.31 29.8101 146.87 28.2101L147.29 28.2901ZM129.13 0.700134L129.47 0.470123C132.23 0.850123 133.88 1.74013 134.41 3.13013C134.74 3.97013 134.59 4.66012 133.95 5.22012C133.27 5.80012 132.48 5.79011 131.59 5.18011C131.39 3.69011 130.56 2.19013 129.12 0.700134H129.13ZM142.92 21.7901L144.21 20.1201C143.78 20.2001 143.32 20.0701 142.84 19.7401C142.69 18.5801 142.09 17.4501 141.05 16.3601C140.87 16.6901 140.52 16.9001 139.99 17.0101C139.99 18.9101 140.05 20.5101 140.18 21.8001H142.92V21.7901Z" fill="#004098"/>
<path d="M200.15 3.42017V33.8601C200.1 34.0401 199.72 34.2801 199.01 34.5801C198.3 34.9101 197.65 35.0702 197.07 35.0702H196.54V31.7302H173.55V34.0102C173.55 34.2602 173.23 34.5502 172.6 34.8802C171.99 35.2102 171.33 35.3701 170.62 35.3701H170.01V3.41016H200.14L200.15 3.42017ZM173.55 30.6302H196.54V4.52014H173.55V30.6302ZM192.32 10.7602V24.7401C192.29 24.8701 191.94 25.0702 191.26 25.3502C190.6 25.6302 190.02 25.7701 189.51 25.7701H188.98V23.0702H181.53V25.2401C181.53 25.4201 181.23 25.6502 180.62 25.9202C180.04 26.1702 179.43 26.3001 178.8 26.3001H178.31V10.7602H192.33H192.32ZM181.53 21.9702H188.98V11.8601H181.53V21.9702Z" fill="#004098"/>
<path d="M213.29 10.6403V13.5303C215.98 14.6703 217.56 16.0803 218.04 17.7503C218.32 18.8103 218.12 19.5903 217.43 20.0703C216.77 20.5503 216.06 20.4503 215.3 19.7703C215.17 18.2803 214.5 16.5403 213.29 14.5603V34.5503C213.29 34.7803 213 35.0303 212.42 35.3103C211.84 35.6103 211.25 35.7703 210.67 35.7703H209.99V19.6203C208.65 22.3603 207.01 24.7803 205.09 26.8803L204.56 26.4203C206.84 22.5703 208.47 17.3103 209.46 10.6503H205.13L204.83 9.55026H210V0.280273L213.31 0.770264V9.55026H217.26V10.6503H213.31L213.29 10.6403ZM222.87 18.0503V0.570282L225.99 1.03027V19.1203C225.94 23.2203 225.1 26.6103 223.48 29.2703C221.88 31.9303 219.16 34.0803 215.31 35.7303L214.93 35.2703C217.77 33.4703 219.78 31.3303 220.97 28.8503C222.19 26.3403 222.82 23.2403 222.87 19.5403C221.81 21.0103 220.5 22.6803 218.96 24.5603C219.01 25.0903 218.82 25.4803 218.39 25.7403L216 22.2403C218.05 21.0703 220.34 19.6803 222.88 18.0603L222.87 18.0503ZM217.44 6.99026L217.9 6.76028C220.71 8.33028 222.32 10.1203 222.73 12.1203C222.98 13.3103 222.77 14.1603 222.08 14.6703C221.42 15.1503 220.72 15.0303 219.99 14.2903C219.86 12.1603 219.01 9.73026 217.44 6.99026ZM238.87 26.9403L239.02 31.2003C239.83 31.6103 240.24 32.0703 240.24 32.6103C240.24 33.2903 239.83 33.7803 239.02 34.0503C238.21 34.3503 236.78 34.5103 234.73 34.5103H232.34C231.02 34.5103 230.12 34.2803 229.64 33.8303C229.18 33.3703 228.96 32.5803 228.96 31.4403V1.15027H232.15V12.2103C233.59 9.80027 234.66 7.78028 235.34 6.13028L237.85 8.79028C236.15 10.7403 234.25 12.4803 232.15 14.0003V16.7703C235.34 18.0903 237.3 19.7203 238.04 21.6703C238.47 22.8903 238.34 23.8103 237.66 24.4403C237 25.0503 236.22 25.0003 235.3 24.2903C234.97 22.5403 233.92 20.5203 232.15 18.2103V30.4503C232.15 30.8303 232.21 31.1003 232.34 31.2503C232.49 31.4003 232.77 31.4803 233.18 31.4803H234.89C235.8 31.4803 236.37 31.4703 236.6 31.4403C236.88 31.3903 237.09 31.2603 237.25 31.0603C237.55 30.6503 237.95 29.2903 238.43 26.9603H238.89L238.87 26.9403Z" fill="#004098"/>
<path d="M275.2 2.88989V34.1599C275.17 34.3399 274.81 34.5799 274.1 34.8799C273.39 35.2099 272.73 35.3699 272.12 35.3699H271.59V32.7499H247.84V34.3099C247.84 34.5599 247.52 34.8499 246.89 35.1799C246.28 35.5099 245.62 35.6699 244.91 35.6699H244.3V2.87988H275.19L275.2 2.88989ZM254.41 31.6599H271.59V3.99988H247.84V31.6599H254.34L252.55 29.1499C253.41 28.5699 253.84 28.0399 253.84 27.5499V25.2299C252.02 26.0199 250.23 26.6399 248.48 27.0899L248.14 26.4399C251.56 25.0499 254.32 23.2999 256.42 21.1999H254.44V21.6199C254.44 21.7699 254.15 21.9599 253.57 22.1899C252.99 22.4199 252.42 22.5299 251.86 22.5299H251.4V15.4599H267.97V21.1199L270.25 23.3599C270 23.6099 269.58 23.6399 269 23.4399C267.91 23.9499 266.81 24.4299 265.69 24.8799C268.12 26.1199 269.52 27.4299 269.87 28.7899C270.07 29.6299 269.87 30.1699 269.26 30.4199C268.85 30.5999 268.39 30.5499 267.85 30.2699C267.17 29.3099 266.03 28.1699 264.43 26.8499C262.86 25.5299 261.11 24.3499 259.19 23.3199L259.46 22.7499C261.49 23.2599 263.16 23.7899 264.48 24.3499C265.39 23.4899 266.22 22.5999 266.95 21.6899C266.29 21.8899 265.78 21.9899 265.43 21.9899H264.9V21.1899H260.15C259.26 22.0999 258.15 22.9399 256.81 23.6999V27.8399C258.05 27.5099 259.77 26.9999 261.98 26.3199L262.13 26.8499C258.3 29.1299 255.91 30.5399 254.95 31.0699C254.8 31.3199 254.62 31.5099 254.42 31.6399L254.41 31.6599ZM271.02 12.0499V13.1499H248.94L248.64 12.0499H258.03V9.30988H250.81L250.51 8.20987H258.03V4.86987L261.3 5.28989V8.21988H269.39V9.31989H261.3V12.0599H271.03L271.02 12.0499ZM264.9 20.1099V16.5799H254.45V20.1099H264.9Z" fill="#004098"/>
<path d="M294.61 7.4902V32.1102C294.58 32.2902 294.23 32.5002 293.55 32.7602C292.89 33.0402 292.28 33.1802 291.73 33.1802H291.2V30.2502H284.47V33.1802C284.47 33.4102 284.18 33.6602 283.6 33.9402C283.02 34.2402 282.4 34.4002 281.74 34.4002H281.17V7.50021H285.35C285.81 4.84021 286.16 2.50021 286.41 0.470215L290.13 1.72021C289.37 3.52021 288.27 5.44021 286.82 7.50021H294.61V7.4902ZM291.19 8.59021H284.46V18.0502H291.19V8.59021ZM284.46 29.1502H291.19V19.1602H284.46V29.1502ZM313.11 7.41022V9.0802C312.96 16.8302 312.68 22.6102 312.27 26.4102C311.89 30.1802 311.23 32.6002 310.29 33.6702C309.15 34.9902 307.47 35.6502 305.24 35.6502C305.24 34.3602 304.97 33.4802 304.44 33.0302C303.78 32.4002 302.48 31.9202 300.53 31.5902L300.57 30.9802C302.95 31.2302 304.74 31.3602 305.93 31.3602C306.56 31.3602 307.06 31.2002 307.41 30.8702C308.07 30.2402 308.55 28.1202 308.85 24.5202C309.15 20.9202 309.38 15.5902 309.53 8.5202H301.55C299.7 11.8602 297.67 14.5202 295.47 16.5002L294.94 16.1602C297.45 11.8502 299.31 6.62021 300.53 0.470215L304.14 1.95023C303.61 4.03023 302.94 5.85023 302.13 7.42023H313.11V7.41022ZM298.14 15.4302L298.48 15.2002C302 16.4402 304.19 18.1302 305.05 20.2502C305.56 21.5202 305.47 22.5602 304.78 23.3702C304.15 24.1102 303.35 24.1802 302.39 23.6002C302.24 23.5202 302.09 23.4202 301.93 23.3002C301.78 22.0802 301.33 20.7502 300.6 19.3102C299.89 17.8702 299.07 16.5702 298.13 15.4302H298.14Z" fill="#004098"/>
<path d="M346.64 6.57986H322.4C322.48 7.76986 322.31 8.80989 321.91 9.69989C321.53 10.5599 321.01 11.2099 320.35 11.6399C319.82 12.0199 319.21 12.1599 318.53 12.0599C317.87 11.9599 317.43 11.6199 317.2 11.0299C317.02 10.4999 317.06 10.0199 317.31 9.58987C317.56 9.12987 317.96 8.77988 318.49 8.52988C319.25 8.12988 319.9 7.46987 320.43 6.54987C320.99 5.60987 321.24 4.60987 321.19 3.54987L321.76 3.50989C322.01 4.24989 322.19 4.89987 322.29 5.48987H334.72C334.37 5.43987 334.01 5.29989 333.66 5.06989C333.53 4.28989 333.2 3.46989 332.67 2.63989C332.14 1.80989 331.54 1.12988 330.88 0.629883L331.18 0.359863C334.17 0.389863 336.03 1.11988 336.77 2.55988C337.23 3.41988 337.14 4.20989 336.5 4.91989C336.2 5.21989 335.84 5.40987 335.44 5.48987H350.45V7.30988C349.21 8.59988 347.84 9.71987 346.35 10.6499L345.97 10.3799C346.2 9.36988 346.43 8.09986 346.65 6.57986H346.64ZM345.31 13.1199L347.82 16.2699C345.59 17.5399 342.74 18.7299 339.27 19.8399C341.47 24.4999 345.74 27.8199 352.08 29.7999L352 30.2199C350.58 30.4499 349.57 31.4699 348.96 33.2999C343.67 30.3599 340.17 25.9499 338.47 20.0799C338.29 20.1299 337.92 20.2299 337.37 20.3799C336.84 20.5299 336.43 20.6499 336.15 20.7199C337.42 23.4599 338.04 26.0899 338.01 28.6199C337.98 31.1499 337.45 33.0299 336.41 34.2399C335.57 35.2499 333.91 35.7599 331.43 35.7599C331.4 34.7199 331.13 33.9599 330.59 33.4799C330.08 33.0199 328.99 32.6199 327.32 32.2599V31.7299C329.4 31.9299 331.09 32.0299 332.41 32.0299C332.97 32.0299 333.33 31.8999 333.51 31.6499C334.3 30.5899 334.62 28.7399 334.5 26.0999C329.71 29.5999 324.07 32.0999 317.59 33.6199L317.32 33.0099C320.54 31.8499 323.64 30.2399 326.63 28.1799C329.62 26.1299 331.99 23.9499 333.74 21.6399C333.61 21.1099 333.46 20.6299 333.28 20.1999C331.33 21.5399 329.02 22.8299 326.36 24.0799C323.7 25.2999 321.06 26.2699 318.46 27.0099L318.27 26.4799C320.73 25.3699 323.19 23.9099 325.64 22.1099C328.1 20.3099 330.07 18.5099 331.57 16.7099C331.39 16.3799 331.15 16.0299 330.85 15.6499C327.33 17.7299 323.35 19.3499 318.92 20.5099L318.62 19.9799C323.15 18.0599 327.17 15.4099 330.67 12.0399H322.69L322.39 10.9399H346.98V12.0399H335.81C334.69 13.0799 333.3 14.1299 331.63 15.1899C333.33 16.5599 334.7 18.1499 335.73 19.9799C339.58 17.7799 342.77 15.4799 345.31 13.0999V13.1199Z" fill="#004098"/>
<path d="M407.21 16.42H391.06C392.81 23.62 398.33 28.82 407.63 32.04L407.59 32.5C405.67 32.8 404.55 33.87 404.25 35.69C401.97 34.6 399.97 33.31 398.25 31.81C396.55 30.32 395.2 28.72 394.18 27.02C393.17 25.32 392.37 23.69 391.79 22.12C391.23 20.52 390.79 18.81 390.46 16.99C390.11 19.17 389.56 21.11 388.83 22.8C388.12 24.5 387.08 26.16 385.71 27.78C384.37 29.38 382.58 30.83 380.35 32.15C378.12 33.47 375.42 34.66 372.26 35.72L371.88 35.11C376.9 32.75 380.48 30.09 382.63 27.13C384.78 24.17 386.13 20.59 386.66 16.41H373.21L372.91 15.31H386.78C386.93 13.84 387.03 10.53 387.08 5.39005H375.45L375.15 4.29004H404.87V5.39005H391.15C391.05 10.2 390.9 13.51 390.69 15.31H407.22V16.41L407.21 16.42Z" fill="#004098"/>
<path d="M444.52 16.42H428.37C430.12 23.62 435.64 28.82 444.94 32.04L444.9 32.5C442.98 32.8 441.86 33.87 441.56 35.69C439.28 34.6 437.28 33.31 435.56 31.81C433.86 30.32 432.51 28.72 431.49 27.02C430.48 25.32 429.68 23.69 429.1 22.12C428.54 20.52 428.1 18.81 427.77 16.99C427.42 19.17 426.87 21.11 426.14 22.8C425.43 24.5 424.39 26.16 423.02 27.78C421.68 29.38 419.89 30.83 417.66 32.15C415.43 33.47 412.73 34.66 409.57 35.72L409.19 35.11C414.21 32.75 417.79 30.09 419.94 27.13C422.09 24.17 423.44 20.59 423.97 16.41H410.52L410.22 15.31H424.09C424.24 13.84 424.34 10.53 424.39 5.39005H412.76L412.46 4.29004H442.18V5.39005H428.46C428.36 10.2 428.21 13.51 428 15.31H444.53V16.41L444.52 16.42Z" fill="#004098"/>
<path d="M446.38 9.43018L446.72 9.16019C449.78 9.59019 451.68 10.5802 452.42 12.1202C452.85 13.0602 452.76 13.8402 452.15 14.4802C451.49 15.1602 450.69 15.2202 449.76 14.6302C449.48 13.6902 449.02 12.7602 448.39 11.8202C447.78 10.8602 447.11 10.0602 446.38 9.43018ZM457.02 7.07019L457.7 7.26019C454.84 15.8502 453.2 20.9502 452.8 22.5702C452.39 24.0402 452.2 25.1802 452.23 25.9902C452.23 26.4702 452.44 27.4202 452.88 28.8402C453.31 30.2302 453.5 31.5402 453.45 32.7502C453.4 33.6402 453.15 34.3302 452.69 34.8402C452.23 35.3702 451.61 35.6402 450.83 35.6402C449.92 35.6402 449.37 35.0102 449.2 33.7402C449.5 31.7402 449.61 29.9902 449.5 28.5002C449.42 27.0102 449.17 26.1202 448.74 25.8402C448.28 25.5102 447.65 25.3102 446.84 25.2302V24.4702H448.51C448.79 24.4702 448.98 24.4302 449.08 24.3602C449.21 24.2802 449.37 24.0702 449.57 23.7102C450.05 22.7702 452.53 17.2302 457.02 7.07019ZM449 0.950195L449.34 0.680176C452.61 1.21018 454.63 2.3002 455.42 3.9502C455.88 4.9402 455.77 5.7602 455.12 6.4202C454.46 7.0502 453.64 7.08018 452.65 6.50018C452.14 4.68018 450.93 2.8302 449 0.950195ZM478.64 33.2502H481.64V34.7702H454.28L453.98 33.6702H457.82V20.6702H478.64V33.2502ZM462.38 16.1902V17.7102C462.38 17.8102 462.27 17.9402 462.04 18.0902C461.84 18.2202 461.49 18.3402 461.01 18.4702C460.55 18.5702 460.06 18.6202 459.53 18.6202H458.96V2.96017H477.73V17.2502C477.73 17.3302 477.62 17.4302 477.39 17.5502C477.16 17.6802 476.81 17.8002 476.33 17.9302C475.87 18.0602 475.38 18.1202 474.85 18.1202H474.24V16.1802H462.38V16.1902ZM461.09 21.7802V33.6702H463.9V21.7802H461.09ZM474.24 4.07019H462.38V15.0902H474.24V4.07019ZM467.1 4.53018L469.8 5.71017C469.52 6.95017 469.12 8.04019 468.58 8.98019C471.09 9.56019 472.58 10.5102 473.06 11.8302C473.34 12.5902 473.2 13.1602 472.64 13.5402C472.18 13.8202 471.66 13.7902 471.08 13.4602C470.52 12.2202 469.52 10.9702 468.08 9.7002C466.76 11.6502 465.1 13.0402 463.1 13.8802L462.8 13.3502C465.18 11.4802 466.61 8.54018 467.09 4.53018H467.1ZM469.57 33.6802V21.7902H466.72V33.6802H469.57ZM475.27 21.7902H472.38V33.6802H475.27V21.7902Z" fill="#004098"/>
<path d="M497.19 21.6302V23.1102C496.02 25.6402 494.34 27.8902 492.14 29.8402C489.94 31.7702 487.24 33.2902 484.05 34.4002L483.75 33.9102C486 32.6402 487.96 31.0402 489.6 29.0802C491.27 27.1002 492.51 24.9903 493.32 22.7303H484.73L484.39 21.6302H497.2H497.19ZM514.52 18.1703L517.18 20.9102C514.87 22.7302 512.14 24.3102 508.97 25.6202C511.71 27.7502 515.19 29.3703 519.42 30.4803L519.34 30.9002C517.9 31.2302 516.95 32.3602 516.49 34.2802C513.2 32.6602 510.46 30.6803 508.28 28.3503C506.1 26.0203 504.42 22.9402 503.23 19.1202V31.1703C503.23 32.5603 502.9 33.6103 502.24 34.3203C501.58 35.0503 500.24 35.5102 498.21 35.6902C498.13 34.5202 497.84 33.7103 497.34 33.2603C496.71 32.6803 495.54 32.2703 493.84 32.0403V31.5103C496.58 31.6903 498.25 31.7802 498.86 31.7802C499.47 31.7802 499.73 31.5402 499.73 31.0602V17.2702H493.23V18.0302C493.23 18.2302 492.89 18.4702 492.2 18.7502C491.54 19.0002 490.87 19.1302 490.19 19.1302H489.62V5.07025H498.66C499.06 3.22025 499.38 1.61023 499.61 0.240234L503.71 1.23026C502.24 3.16026 501.11 4.44025 500.33 5.07025H513.4V17.8002C513.37 17.9802 513.01 18.2103 512.3 18.4803C511.59 18.7603 510.94 18.9002 510.36 18.9002H509.75V17.2702H503.21V17.9503C504.2 20.5903 505.83 22.9202 508.11 24.9402C510.69 22.7602 512.82 20.5102 514.49 18.1802L514.52 18.1703ZM509.77 6.16025H493.24V10.6102H509.77V6.16025ZM493.24 11.7102V16.1602H509.77V11.7102H493.24Z" fill="#004098"/>
<path d="M528.54 6.65009V15.2801C528.54 17.3101 528.48 19.0701 528.35 20.5601C528.22 22.0301 527.94 23.7501 527.51 25.7301C527.1 27.6801 526.4 29.5101 525.38 31.2001C524.39 32.9001 523.13 34.4201 521.58 35.7601L521.09 35.4201C522.69 32.7901 523.72 29.8501 524.21 26.6001C524.69 23.3601 524.93 19.5801 524.93 15.2801V5.55008H540.7C540.34 5.50008 539.99 5.3701 539.64 5.1701C539.16 3.52011 538.04 1.90009 536.3 0.310089L536.64 0.0800781C539.86 0.230078 541.86 1.06008 542.64 2.55008C543.12 3.44008 543.05 4.24009 542.41 4.94009C542.11 5.27009 541.71 5.47008 541.23 5.55008H556.51V6.65009H528.54ZM550.28 22.0001V23.7501C548.68 26.0601 546.68 28.0301 544.28 29.6801C547.72 30.8201 551.93 31.5301 556.9 31.8101V32.2701C555.33 32.7001 554.37 33.8301 554.01 35.6501C548.61 34.8401 544.34 33.4601 541.2 31.5101C537.04 33.6101 531.81 34.9901 525.51 35.6501L525.28 35.0801C530.78 33.9901 535.37 32.2801 539.07 29.9501C536.97 28.2801 535.26 26.0001 533.94 23.1101H531.17L530.83 22.0101H550.29L550.28 22.0001ZM545.23 20.2101H544.58V18.7701H537.63V19.9101C537.63 20.0601 537.31 20.2501 536.68 20.4801C536.05 20.6801 535.43 20.7801 534.82 20.7801H534.17V12.9101H529.46L529.16 11.8101H534.18V7.6301L537.64 8.09009V11.8101H544.59V7.6301L548.05 8.09009V11.8101H555.57V12.9101H548.05V19.2901C548.05 19.4401 547.73 19.6301 547.1 19.8601C546.47 20.0901 545.85 20.2001 545.24 20.2001L545.23 20.2101ZM546.22 23.1001H534.86C536.3 25.2801 538.43 27.0801 541.24 28.5001C543.34 26.8801 545 25.0801 546.22 23.1001ZM537.63 17.6701H544.58V12.9201H537.63V17.6701Z" fill="#004098"/>
<path d="M580.72 27.1402H572.25V34.2502C572.25 34.5002 571.96 34.7802 571.38 35.0902C570.82 35.4202 570.19 35.5802 569.48 35.5802H568.87V2.18018C568.62 2.56018 568.16 2.74017 567.5 2.71017C566.69 5.47017 565.94 8.18018 565.26 10.8402V34.7402C565.23 34.8902 564.92 35.0902 564.31 35.3502C563.7 35.6002 563.11 35.7302 562.52 35.7302H561.91V15.5902C560.87 17.2402 559.82 18.6402 558.76 19.8102L558.23 19.4702C560.86 14.1002 562.79 7.75018 564.01 0.430176L568.87 1.87018V2.82019H580.65V13.7302C580.62 13.8802 580.26 14.0902 579.55 14.3402C578.87 14.5702 578.26 14.6802 577.73 14.6802H577.16V12.7402H572.26V18.8202H580.35V19.8802H572.26V26.0402H580.73V27.1402H580.72ZM577.15 3.85019H572.25V11.6402H577.15V3.85019ZM592.39 17.3402V18.9402C591.4 22.5902 589.94 25.6402 588.02 28.1002C589.72 29.8702 591.84 31.3702 594.4 32.5802L594.32 32.9602C592.9 33.1402 591.86 34.0602 591.2 35.7302C589.1 34.1802 587.37 32.3602 586.03 30.2602C583.62 32.5402 580.51 34.3302 576.68 35.6202L576.41 35.1302C579.88 33.4302 582.68 31.1002 584.81 28.1402C583.54 25.5102 582.61 22.2802 582 18.4502H580.52L580.18 17.3502H592.38L592.39 17.3402ZM588.55 3.93018H582.47L582.13 2.83017H592.2V13.7402C592.17 13.8702 591.79 14.0602 591.06 14.3102C590.32 14.5602 589.69 14.6902 589.16 14.6902H588.55V12.9002H582.36L582.02 11.8002H588.56V3.93018H588.55ZM588.89 18.4502H582.81C583.52 21.3102 584.65 23.8102 586.19 25.9402C587.41 23.7402 588.31 21.2402 588.89 18.4502Z" fill="#004098"/>
</svg>
