<svg width="839" height="49" viewBox="0 0 839 49" fill="none" xmlns="http://www.w3.org/2000/svg">
<path d="M9.42498 13.8302L14.365 16.1302C10.815 26.3402 6.23498 33.8102 0.63498 38.5502L0.10498 38.0702C2.31498 34.9002 4.23498 31.0802 5.86498 26.6002C7.49498 22.1202 8.68498 17.8602 9.41498 13.8302H9.42498ZM20.465 2.93018L25.265 3.60017V40.7002C25.265 42.6502 24.805 44.1102 23.875 45.0702C22.975 46.0302 21.045 46.6502 18.065 46.9402C17.875 45.2402 17.405 44.0802 16.675 43.4402C15.685 42.6402 13.925 42.0302 11.395 41.6202V40.9502C15.715 41.2402 18.305 41.3802 19.175 41.3802C20.045 41.3802 20.475 41.0302 20.475 40.3202V2.93018H20.465ZM31.025 14.6902C37.205 18.7202 41.285 23.1902 43.265 28.0802C44.485 31.1202 44.655 33.5502 43.795 35.3802C43.125 36.7202 42.135 37.1402 40.815 36.6302C40.335 36.4702 39.875 36.1802 39.425 35.7702C39.105 32.6302 38.085 29.2102 36.355 25.5002C34.655 21.7902 32.675 18.3002 30.405 15.0402L31.025 14.7002V14.6902Z" fill="white"/>
<path d="M78.985 2.50021L85.365 3.89021C85.235 4.37021 84.615 4.6702 83.495 4.8002C84.905 6.5602 86.905 8.18021 89.495 9.65021C92.115 11.1202 94.795 12.2602 97.515 13.0602L97.465 13.7302C96.635 13.9502 95.925 14.4302 95.355 15.1702C94.815 15.8702 94.475 16.6702 94.345 17.5702C91.845 16.1902 89.565 14.4202 87.485 12.2402C85.435 10.0302 83.885 7.71021 82.825 5.28021C81.645 7.23021 79.925 9.20021 77.685 11.1802C75.445 13.1302 72.995 14.8602 70.345 16.3602L74.615 18.1402H93.865V28.7502C93.835 28.9102 93.435 29.1302 92.665 29.4202C91.925 29.6802 91.255 29.8202 90.645 29.8502L94.245 32.5402C93.925 32.9202 93.315 33.2102 92.425 33.4002V45.3002C92.395 45.4902 91.965 45.7202 91.125 45.9702C90.295 46.2602 89.545 46.4002 88.865 46.4002H88.195V44.2902H75.575V45.6302C75.575 45.7302 75.445 45.8702 75.195 46.0602C74.935 46.2502 74.535 46.4302 73.995 46.5902C73.445 46.7502 72.855 46.8302 72.215 46.8302H71.495V30.1302C71.305 30.1602 71.015 30.1802 70.635 30.1802H69.965V16.6002C68.845 17.2402 67.725 17.8002 66.605 18.2802L66.225 17.6602C67.475 16.7602 68.445 16.0102 69.155 15.4002C69.055 15.4302 68.915 15.4502 68.725 15.4502H63.065V21.5902C66.525 23.0302 68.555 24.8102 69.165 26.9202C69.545 28.2302 69.305 29.2102 68.445 29.8502C67.585 30.4902 66.635 30.3502 65.615 29.4202C65.455 27.5302 64.605 25.3102 63.075 22.7502V45.6002C63.075 45.8602 62.695 46.1402 61.925 46.4602C61.185 46.7802 60.435 46.9402 59.665 46.9402H58.755V26.9202C57.125 30.1802 55.045 33.1302 52.515 35.7502L51.845 35.1702C54.885 30.1502 57.015 23.5702 58.225 15.4402H52.995L52.615 14.0502H58.755V2.48021L63.075 3.1002V14.0402H69.985C72.095 12.5702 73.985 10.7302 75.645 8.5202C77.305 6.2802 78.425 4.26021 79.005 2.47021L78.985 2.50021ZM87.765 31.4002L89.785 29.1902V28.3302H73.995V28.9502C73.995 29.0802 73.855 29.2402 73.565 29.4302C73.305 29.6202 72.955 29.7802 72.505 29.9102L76.205 31.4002H87.775H87.765ZM80.185 19.5002H73.995V26.9402H80.185V19.5002ZM74.955 20.5602L75.575 20.2702C77.845 21.4902 79.015 22.8502 79.075 24.3502C79.105 25.2102 78.785 25.7602 78.115 25.9802C77.605 26.1102 77.105 25.9502 76.625 25.5002C76.565 23.8402 76.005 22.1902 74.945 20.5602H74.955ZM88.775 13.9402V15.3302H75.575L75.195 13.9402H88.775ZM75.575 32.7602V37.1302H88.195V32.7602H75.575ZM75.575 42.9402H88.195V38.5202H75.575V42.9402ZM89.785 19.5202H83.685V26.9602H89.785V21.9702C89.495 22.2902 89.065 22.4302 88.485 22.4002C87.775 23.4602 86.725 24.6902 85.315 26.1002L84.695 25.8602C85.305 24.1302 85.785 22.2902 86.135 20.3402L89.785 21.4402V19.5202Z" fill="white"/>
<path d="M104.755 14.1702L105.135 13.8302C109.235 14.1502 111.825 15.3002 112.915 17.2902C113.525 18.4402 113.455 19.4302 112.725 20.2702C111.925 21.1702 110.905 21.2902 109.655 20.6502C109.175 19.5002 108.485 18.3502 107.595 17.1902C106.695 16.0102 105.755 15.0002 104.765 14.1702H104.755ZM118.675 11.1902L119.495 11.4302C115.755 22.7902 113.705 29.1302 113.355 30.4402C112.845 32.3302 112.585 33.7802 112.585 34.8102C112.615 35.3502 112.905 36.5102 113.445 38.2702C114.025 40.0302 114.275 41.7102 114.215 43.3102C114.185 44.4302 113.845 45.3302 113.205 46.0002C112.595 46.6702 111.795 47.0102 110.805 47.0102C109.625 47.0102 108.885 46.1902 108.595 44.5602C109.005 42.0602 109.155 39.8902 109.025 38.0302C108.925 36.1402 108.605 35.0202 108.065 34.6702C107.485 34.2502 106.675 34.0002 105.615 33.9002V32.9402H107.775C108.125 32.9402 108.385 32.8902 108.545 32.8002C108.705 32.6702 108.915 32.3802 109.165 31.9402C109.805 30.7902 112.975 23.8802 118.665 11.2002L118.675 11.1902ZM108.545 3.41016L108.975 3.03017C113.295 3.48017 116.015 4.76016 117.135 6.87016C117.805 8.12016 117.745 9.19016 116.945 10.0902C116.145 11.0202 115.085 11.1502 113.775 10.4702C113.265 9.19017 112.525 7.91016 111.565 6.63016C110.605 5.35016 109.595 4.28016 108.545 3.41016ZM148.765 34.1802V35.5702H133.215C132.095 38.2902 130.145 40.6102 127.355 42.5302C124.575 44.4202 120.575 45.8902 115.355 46.9502L115.065 46.2802C122.105 44.0702 126.555 40.5002 128.405 35.5802H116.785L116.405 34.1902H128.835C129.185 32.9102 129.395 31.5202 129.455 30.0102C127.185 30.4302 124.785 30.8602 122.255 31.3102C121.935 31.8502 121.565 32.2202 121.155 32.4102L118.855 27.6602C119.625 27.6002 120.165 27.5002 120.485 27.3702C123.685 26.3502 127.575 24.4702 132.145 21.7502C128.815 22.5202 125.585 23.1902 122.445 23.7702C122.155 24.3102 121.805 24.6802 121.385 24.8702L119.275 20.5002C119.815 20.4002 120.215 20.3102 120.475 20.2102C122.015 19.7602 123.725 18.8802 125.615 17.5702C127.505 16.2602 128.975 15.0602 130.035 13.9702L132.965 16.7102C130.595 18.2502 127.975 19.4902 125.095 20.4502C126.955 20.4202 130.135 20.3102 134.645 20.1102C136.915 18.6402 138.755 17.2802 140.165 16.0302L142.755 19.2002C138.375 22.2402 132.415 25.0402 124.895 27.6002C128.795 27.4402 134.235 27.1402 141.215 26.6902C140.445 25.5102 139.535 24.3702 138.475 23.2802L138.955 22.9902C142.765 23.7902 145.135 25.2102 146.055 27.2602C146.595 28.5102 146.485 29.5202 145.715 30.2802C144.915 31.0802 143.955 31.1102 142.835 30.3802C142.645 29.6102 142.275 28.7002 141.735 27.6402C138.025 28.4402 134.615 29.1002 131.515 29.6102L134.345 30.2302C134.245 31.6102 134.045 32.9202 133.725 34.1702H148.745L148.765 34.1802ZM129.565 8.31017L129.995 8.12016C125.865 8.50016 122.135 8.71016 118.815 8.74016L118.675 7.92017C122.645 7.31017 126.865 6.46016 131.345 5.38016C135.825 4.26016 139.375 3.19016 142.005 2.16016L143.585 6.53017C139.685 7.11017 135.215 7.63017 130.195 8.11017C133.365 9.01017 135.175 10.3202 135.615 12.0502C135.905 13.1702 135.595 14.0202 134.705 14.5902C133.745 15.2302 132.735 15.1002 131.685 14.2102C131.555 12.4202 130.855 10.4502 129.575 8.31017H129.565ZM120.735 9.51016L121.265 9.27016C124.435 10.2602 126.225 11.6402 126.645 13.4002C126.935 14.5202 126.625 15.3702 125.735 15.9402C124.715 16.5502 123.685 16.3902 122.665 15.4602C122.565 13.5402 121.925 11.5602 120.745 9.51016H120.735ZM134.365 37.2102L134.795 36.7802C140.615 37.9302 144.475 39.8402 146.365 42.4902C147.385 43.9002 147.585 45.1002 146.945 46.0902C146.335 46.9902 145.395 47.1602 144.115 46.6202C143.155 45.1802 141.735 43.5602 139.845 41.7702C137.955 39.9802 136.135 38.4602 134.375 37.2102H134.365ZM138.445 16.2802L137.825 15.8502C138.915 13.8702 140.125 11.0802 141.475 7.50017L144.785 10.2802C142.645 12.9702 140.525 14.9702 138.445 16.2802Z" fill="white"/>
<path d="M201.525 11.67V13.01H181.985C180.165 15.51 178.545 17.43 177.135 18.77H193.795V45.27C193.765 45.46 193.285 45.73 192.355 46.09C191.425 46.44 190.595 46.62 189.855 46.62H189.085V43.4H169.455V45.27C169.455 45.56 169.025 45.89 168.155 46.28C167.325 46.66 166.445 46.86 165.515 46.86H164.795V18.78H175.405C175.465 18.17 175.625 16.25 175.885 13.02H157.455L157.025 11.68H182.655C184.195 8.63996 185.405 5.56996 186.305 2.45996L191.155 4.18996C189.295 6.96996 186.975 9.46996 184.195 11.68H201.525V11.67ZM166.825 2.92996L167.255 2.58997C171.415 3.51997 173.975 5.11997 174.935 7.38997C175.545 8.76997 175.415 9.89996 174.555 10.8C173.695 11.7 172.635 11.78 171.385 11.04C171.255 10.98 171.125 10.9 171.005 10.8C170.555 8.26996 169.165 5.64996 166.825 2.92996ZM189.095 20.11H169.465V26.3H189.095V20.11ZM169.465 27.69V34.03H189.095V27.69H169.465ZM169.465 41.99H189.095V35.41H169.465V41.99Z" fill="white"/>
<path d="M251.345 35.58L251.535 41.24C252.595 41.66 253.115 42.31 253.115 43.21C253.115 44.2 252.495 44.91 251.245 45.32C250.025 45.74 247.695 45.94 244.235 45.94H239.775C237.725 45.94 236.365 45.65 235.695 45.08C235.025 44.5 234.685 43.4 234.685 41.77V31.83H228.015C227.795 33.4 227.395 34.84 226.815 36.15C226.235 37.46 225.345 38.81 224.125 40.18C222.905 41.52 221.185 42.77 218.945 43.92C216.735 45.07 214.075 46.06 210.975 46.9L210.595 46.28C214.945 44.39 218.065 42.25 219.955 39.85C221.875 37.45 223.025 34.78 223.415 31.83H212.275L211.895 30.44H223.555C223.585 30.06 223.605 29.48 223.605 28.71V22.28H219.095L218.855 21.42C216.105 23.24 213.035 24.72 209.635 25.84L209.205 25.22C213.075 23.17 216.435 20.56 219.285 17.4C222.135 14.23 224.245 10.81 225.625 7.13002H214.925L214.495 5.74002H230.765V7.80002C228.235 13.14 224.525 17.51 219.625 20.9H244.105V22.29H239.165V30.45H251.455V31.84H239.165V40.62C239.165 41.04 239.265 41.32 239.455 41.48C239.675 41.61 240.145 41.67 240.845 41.67H246.655C247.425 41.64 247.875 41.62 247.995 41.62C248.475 41.59 248.845 41.4 249.095 41.04C249.415 40.46 249.995 38.64 250.825 35.57H251.355L251.345 35.58ZM212.845 9.85002L213.225 9.47003C217.195 9.95003 219.645 11.17 220.565 13.12C221.145 14.3 221.015 15.31 220.185 16.14C219.355 17 218.345 17.1 217.165 16.43C217.035 16.37 216.925 16.29 216.825 16.19C216.665 15.07 216.205 13.93 215.435 12.78C214.665 11.6 213.805 10.62 212.845 9.85002ZM228.155 30.44H234.685V22.28H228.205V28.66C228.205 29.46 228.185 30.05 228.155 30.44ZM248.745 8.07002L252.005 11.19C249.925 12.73 247.305 14.1 244.135 15.32C247.145 17.37 250.645 19.05 254.645 20.36L254.505 20.94C252.555 21.2 251.195 22.46 250.425 24.73C241.365 20.06 235.495 12.71 232.805 2.70003L233.525 2.27002C234.485 4.89002 235.945 7.39003 237.895 9.76003C240.105 7.33002 241.815 5.14002 243.035 3.18002L246.255 6.11003C244.335 7.81003 241.855 9.36002 238.815 10.77C239.995 12.08 241.405 13.33 243.035 14.51C245.595 12.05 247.495 9.90002 248.745 8.08002V8.07002Z" fill="white"/>
<path d="M273.905 0.680176V48.6802H271.985V0.680176H273.905Z" fill="white"/>
<path d="M309.045 16.33V18.35C306.295 29.71 300.565 37.77 291.865 42.54L291.385 41.96C294.805 39.18 297.595 35.66 299.735 31.4C301.875 27.14 303.395 22.58 304.295 17.72H292.875L292.445 16.33H309.055H309.045ZM329.825 10.91L333.665 14.46C329.985 18.11 326.035 21.2 321.805 23.72C325.295 29.61 330.345 34.3 336.975 37.78L336.785 38.26C334.835 38.61 333.455 39.96 332.655 42.29C328.435 38.96 324.995 34.99 322.335 30.39C319.715 25.75 317.755 19.69 316.475 12.2V41C316.475 42.92 316.045 44.33 315.175 45.22C314.345 46.15 312.535 46.74 309.755 47C309.565 45.4 309.115 44.28 308.415 43.64C307.455 42.84 305.875 42.28 303.665 41.96V41.24C307.535 41.53 309.875 41.67 310.675 41.67C311.475 41.67 311.825 41.33 311.825 40.66V2.5L316.485 3.17V8.78999C317.445 14.07 319.025 18.71 321.235 22.71C324.755 18.68 327.615 14.74 329.825 10.9V10.91Z" fill="white"/>
<path d="M383.635 4.95033V15.1703C386.005 17.1903 387.535 18.5303 388.245 19.2003C388.115 19.7103 387.705 19.9703 386.995 19.9703H353.825V26.9803C353.825 28.4503 353.775 29.7803 353.685 30.9603C353.585 32.1103 353.365 33.4703 353.015 35.0403C352.665 36.6103 352.165 38.0303 351.525 39.3103C350.915 40.5903 350.025 41.9003 348.835 43.2503C347.685 44.5903 346.305 45.7803 344.705 46.8003L344.225 46.3203C346.245 43.7603 347.565 40.9103 348.205 37.7803C348.845 34.6103 349.165 31.0103 349.165 26.9803V18.5803H381.035L383.485 15.3603C382.685 15.9403 381.485 16.2203 379.885 16.2203H379.065V14.2003H350.125V4.98033H354.635V12.8003H364.525V2.34033L369.085 2.92033V12.8103H379.065V4.36034L383.625 4.94032L383.635 4.95033ZM387.575 33.8003V35.1403H371.925V45.8403C371.925 45.9403 371.765 46.0603 371.445 46.2203C371.155 46.4103 370.695 46.5903 370.055 46.7503C369.445 46.9103 368.795 46.9903 368.085 46.9903H367.225V35.1303H354.745L354.365 33.7903H367.225V26.2103H357.095L356.715 24.8203H384.795V26.2103H371.935V33.7903H387.585L387.575 33.8003Z" fill="white"/>
<path d="M419.585 9.08002H405.665C403.205 12.44 400.305 15.13 396.975 17.14L396.395 16.66C399.625 12.88 402.155 8.00002 403.975 2.02002L408.245 4.13002C407.545 5.92002 407.015 7.11002 406.665 7.68002H419.575V9.07002L419.585 9.08002ZM433.365 31.26H438.265V33.32C437.725 38.7 436.535 41.96 434.715 43.11C433.405 43.94 431.695 44.36 429.575 44.36C429.635 42.92 429.365 41.93 428.755 41.38C428.085 40.74 426.775 40.26 424.815 39.94V39.22C427.505 39.44 429.345 39.56 430.335 39.56C431.075 39.56 431.565 39.45 431.825 39.22C432.685 38.58 433.315 36.39 433.695 32.64H421.355V45.74C421.325 45.87 421.165 46.01 420.875 46.17C420.585 46.36 420.135 46.54 419.535 46.7C418.925 46.89 418.275 46.99 417.565 46.99H416.705V35.95C412.095 40.27 405.685 43.57 397.455 45.84L397.075 45.17C400.535 43.7 403.695 41.87 406.575 39.7C409.485 37.49 411.875 35.14 413.725 32.64H401.625V30.77C402.395 27.54 402.925 25.31 403.205 24.1H416.695V18.34H400.805L400.375 16.95H435.845V26.26C435.815 26.45 435.345 26.72 434.455 27.08C433.595 27.4 432.805 27.56 432.105 27.56H431.385V25.5H421.355V31.26H433.355H433.365ZM405.955 31.26H416.705V25.5H407.105C406.655 27.8 406.275 29.72 405.955 31.26ZM407.345 10.33L407.825 9.99002C411.025 10.44 412.895 11.46 413.445 13.06C413.765 14.02 413.525 14.79 412.725 15.36C411.925 15.94 411.045 15.86 410.085 15.12C409.955 14.29 409.625 13.42 409.075 12.53C408.565 11.63 407.985 10.9 407.345 10.32V10.33ZM441.235 7.69002V9.08002H424.535C422.485 11.7 420.155 13.78 417.525 15.32L416.905 14.89C419.495 11.56 421.525 7.27003 423.005 2.03003L427.185 4.33002C426.925 5.32002 426.405 6.44002 425.605 7.69002H441.255H441.235ZM421.365 18.35V24.11H431.395V18.35H421.365ZM426.215 10.38L426.645 10.04C429.935 10.3 431.905 11.21 432.545 12.78C432.965 13.77 432.765 14.57 431.965 15.18C431.105 15.82 430.155 15.77 429.135 15.04C429.005 14.24 428.655 13.41 428.075 12.54C427.495 11.64 426.875 10.92 426.205 10.38H426.215Z" fill="white"/>
<path d="M449.105 22.4702H493.555V24.0502H449.585L449.105 22.4702Z" fill="white"/>
<path d="M516.645 21.5102L516.785 22.0902C515.345 23.1102 513.525 24.3602 511.315 25.8302V41.4802C511.315 43.2702 510.965 44.5802 510.255 45.4202C509.555 46.2502 508.045 46.7802 505.745 47.0002C505.585 45.4602 505.285 44.4402 504.835 43.9302C504.195 43.1902 503.045 42.7002 501.375 42.4402V41.7202C503.965 41.9102 505.555 42.0102 506.125 42.0102C506.795 42.0102 507.135 41.7202 507.135 41.1502V28.5302C506.715 28.7902 506.075 29.1902 505.215 29.7302C504.385 30.2402 503.855 30.5602 503.635 30.6902C503.505 31.3002 503.155 31.7502 502.575 32.0302L500.465 26.6502C501.935 26.3002 504.165 25.6302 507.135 24.6302V14.9802H501.565L501.185 13.5902H507.135V2.41016L511.315 3.03017V13.5902H517.895V14.9802H511.315V23.2802C511.695 23.1502 512.245 22.9802 512.945 22.7502C513.685 22.4902 514.355 22.2702 514.965 22.0802C515.575 21.8902 516.135 21.7002 516.645 21.5002V21.5102ZM523.415 11.4802V2.94016L527.735 3.52016V25.1702C527.675 30.4502 526.595 34.8802 524.515 38.4702C522.465 42.0502 518.965 44.9202 514.005 47.0602L513.525 46.4802C516.345 44.5602 518.505 42.3702 520.005 39.9002C521.545 37.4002 522.545 34.5102 523.025 31.2102C520.045 33.4202 517.985 34.9202 516.835 35.7202C516.615 36.3902 516.245 36.7902 515.735 36.9202L513.715 31.6402C515.315 31.3202 518.485 30.5702 523.215 29.3802C523.345 28.2002 523.405 26.7902 523.405 25.1602V22.5202H516.975L516.595 21.1302H523.415V12.8302H517.075L516.645 11.4902H523.415V11.4802ZM546.555 32.3602V33.7002H536.285V45.4102C536.285 45.7002 535.865 46.0302 535.035 46.4202C534.235 46.8002 533.435 47.0002 532.635 47.0002H531.815V2.98016L536.275 3.60016V11.4702H545.975V12.8102H536.275V21.2602H545.395V22.6502H536.275V32.3502H546.545L546.555 32.3602Z" fill="white"/>
<path d="M565.745 0.680176V48.6802H563.825V0.680176H565.745Z" fill="white"/>
<path d="M583.455 13.78L583.885 13.44C587.755 13.98 590.155 15.23 591.085 17.18C591.625 18.36 591.515 19.36 590.745 20.16C589.915 21.02 588.905 21.09 587.725 20.35C587.375 19.17 586.795 17.98 585.995 16.8C585.225 15.58 584.375 14.58 583.455 13.78ZM596.895 10.8L597.755 11.04C594.135 21.89 592.075 28.34 591.565 30.38C591.055 32.24 590.815 33.68 590.845 34.7C590.845 35.31 591.115 36.51 591.665 38.3C592.205 40.06 592.445 41.71 592.385 43.24C592.325 44.36 592.005 45.24 591.425 45.88C590.845 46.55 590.065 46.89 589.075 46.89C587.925 46.89 587.235 46.09 587.015 44.49C587.395 41.96 587.525 39.75 587.395 37.87C587.295 35.98 586.975 34.86 586.435 34.51C585.855 34.09 585.055 33.84 584.035 33.74V32.78H586.145C586.495 32.78 586.735 32.73 586.865 32.64C587.025 32.54 587.235 32.27 587.485 31.82C588.095 30.64 591.225 23.63 596.895 10.8ZM586.765 3.06998L587.195 2.72998C591.325 3.39998 593.885 4.77999 594.875 6.85999C595.455 8.10999 595.325 9.14998 594.495 9.97998C593.665 10.78 592.625 10.81 591.375 10.08C590.735 7.77997 589.195 5.43998 586.765 3.06998ZM624.205 43.87H627.995V45.79H593.435L593.055 44.4H597.905V27.98H624.205V43.87ZM603.665 22.32V24.24C603.665 24.37 603.525 24.53 603.235 24.72C602.975 24.88 602.545 25.04 601.935 25.2C601.355 25.33 600.735 25.39 600.065 25.39H599.345V5.60999H623.055V23.66C623.055 23.76 622.915 23.88 622.625 24.04C622.335 24.2 621.885 24.36 621.285 24.52C620.705 24.68 620.085 24.76 619.415 24.76H618.645V22.31H603.665V22.32ZM602.035 29.38V44.4H605.585V29.38H602.035ZM618.645 7.00998H603.665V20.93H618.645V7.00998ZM609.625 7.58998L613.035 9.07997C612.685 10.65 612.175 12.02 611.495 13.21C614.665 13.95 616.555 15.15 617.155 16.81C617.505 17.77 617.335 18.49 616.625 18.97C616.045 19.32 615.395 19.29 614.655 18.87C613.955 17.3 612.685 15.72 610.865 14.12C609.205 16.58 607.105 18.34 604.575 19.4L604.195 18.73C607.205 16.36 609.015 12.65 609.615 7.58998H609.625ZM612.745 44.41V29.39H609.145V44.41H612.745ZM619.945 29.39H616.295V44.41H619.945V29.39Z" fill="white"/>
<path d="M652.825 29.1904V31.0604C651.355 34.2604 649.225 37.0904 646.445 39.5604C643.665 41.9904 640.255 43.9104 636.225 45.3204L635.845 44.7004C638.695 43.1004 641.155 41.0704 643.235 38.6004C645.345 36.1004 646.915 33.4304 647.935 30.5804H637.085L636.655 29.1904H652.835H652.825ZM674.715 24.8204L678.075 28.2804C675.165 30.5804 671.705 32.5704 667.705 34.2304C671.165 36.9204 675.565 38.9704 680.905 40.3704L680.805 40.9004C678.985 41.3204 677.785 42.7404 677.205 45.1704C673.045 43.1204 669.585 40.6304 666.835 37.6804C664.085 34.7404 661.955 30.8504 660.455 26.0204V41.2404C660.455 43.0004 660.035 44.3304 659.205 45.2204C658.375 46.1504 656.675 46.7204 654.115 46.9504C654.015 45.4804 653.655 44.4504 653.015 43.8804C652.215 43.1404 650.745 42.6304 648.595 42.3404V41.6704C652.055 41.8904 654.165 42.0104 654.935 42.0104C655.705 42.0104 656.035 41.7104 656.035 41.1004V23.6804H647.825V24.6404C647.825 24.9004 647.395 25.2004 646.525 25.5504C645.695 25.8704 644.845 26.0304 643.985 26.0304H643.265V8.2704H654.685C655.195 5.9304 655.595 3.90041 655.885 2.17041L661.065 3.42041C659.205 5.85041 657.785 7.4704 656.795 8.2704H673.305V24.3504C673.275 24.5704 672.805 24.8604 671.915 25.2104C671.015 25.5604 670.205 25.7404 669.465 25.7404H668.695V23.6804H660.435V24.5404C661.685 27.8704 663.745 30.8104 666.625 33.3704C669.885 30.6204 672.575 27.7704 674.685 24.8304L674.715 24.8204ZM668.715 9.65041H647.835V15.2704H668.715V9.65041ZM647.835 16.6604V22.2804H668.715V16.6604H647.835Z" fill="white"/>
<path d="M711.425 9.08002H697.505C695.045 12.44 692.145 15.13 688.815 17.14L688.235 16.66C691.465 12.88 693.995 8.00002 695.815 2.02002L700.085 4.13002C699.385 5.92002 698.855 7.11002 698.505 7.68002H711.415V9.07002L711.425 9.08002ZM725.205 31.26H730.105V33.32C729.565 38.7 728.375 41.96 726.555 43.11C725.245 43.94 723.535 44.36 721.415 44.36C721.475 42.92 721.205 41.93 720.595 41.38C719.925 40.74 718.615 40.26 716.655 39.94V39.22C719.345 39.44 721.185 39.56 722.175 39.56C722.915 39.56 723.405 39.45 723.665 39.22C724.525 38.58 725.155 36.39 725.535 32.64H713.195V45.74C713.165 45.87 713.005 46.01 712.715 46.17C712.425 46.36 711.975 46.54 711.375 46.7C710.765 46.89 710.115 46.99 709.405 46.99H708.545V35.95C703.935 40.27 697.525 43.57 689.295 45.84L688.915 45.17C692.375 43.7 695.535 41.87 698.415 39.7C701.325 37.49 703.715 35.14 705.565 32.64H693.465V30.77C694.235 27.54 694.765 25.31 695.045 24.1H708.535V18.34H692.645L692.215 16.95H727.685V26.26C727.655 26.45 727.185 26.72 726.295 27.08C725.435 27.4 724.645 27.56 723.945 27.56H723.225V25.5H713.195V31.26H725.195H725.205ZM697.795 31.26H708.545V25.5H698.945C698.495 27.8 698.115 29.72 697.795 31.26ZM699.185 10.33L699.665 9.99002C702.865 10.44 704.735 11.46 705.285 13.06C705.605 14.02 705.365 14.79 704.565 15.36C703.765 15.94 702.885 15.86 701.925 15.12C701.795 14.29 701.465 13.42 700.915 12.53C700.405 11.63 699.825 10.9 699.185 10.32V10.33ZM733.075 7.69002V9.08002H716.375C714.325 11.7 711.995 13.78 709.365 15.32L708.745 14.89C711.335 11.56 713.365 7.27003 714.845 2.03003L719.025 4.33002C718.765 5.32002 718.245 6.44002 717.445 7.69002H733.095H733.075ZM713.205 18.35V24.11H723.235V18.35H713.205ZM718.055 10.38L718.485 10.04C721.775 10.3 723.745 11.21 724.385 12.78C724.805 13.77 724.605 14.57 723.805 15.18C722.945 15.82 721.995 15.77 720.975 15.04C720.845 14.24 720.495 13.41 719.915 12.54C719.335 11.64 718.715 10.92 718.045 10.38H718.055Z" fill="white"/>
<path d="M740.945 22.4702H785.395V24.0502H741.425L740.945 22.4702Z" fill="white"/>
<path d="M801.715 11.6702V22.1302C801.715 24.0502 801.685 25.7102 801.615 27.1202C801.545 28.5302 801.345 30.2402 800.995 32.2602C800.675 34.2802 800.225 36.0702 799.655 37.6402C799.075 39.2102 798.235 40.8602 797.115 42.5802C796.025 44.2802 794.715 45.7802 793.175 47.0902L792.555 46.6602C794.475 43.4302 795.725 39.8402 796.295 35.9102C796.875 31.9702 797.155 27.3802 797.155 22.1302V10.2702H817.605C817.185 10.1402 816.835 9.98019 816.545 9.79019C815.905 7.49019 814.365 5.07019 811.935 2.54019L812.315 2.2002C816.575 2.7802 819.255 4.1402 820.375 6.2802C821.045 7.5602 820.985 8.66019 820.185 9.59019C819.895 9.91019 819.545 10.1302 819.125 10.2602H837.795V11.6502H801.695L801.715 11.6702ZM838.095 43.8302V45.2202H799.455L799.075 43.8302H816.305V35.4802H803.635L803.255 34.0902H816.315V12.1102L820.825 12.6902V34.1002H834.215V35.4902H820.825V43.8402H838.105L838.095 43.8302ZM806.755 14.2102L810.885 15.4102C810.465 17.8402 810.025 19.7502 809.545 21.1202C812.715 22.6902 814.525 24.5102 814.965 26.5902C815.225 27.8702 814.915 28.8002 814.055 29.3702C813.225 29.8802 812.345 29.7202 811.415 28.8902C811.315 27.0302 810.535 24.8702 809.065 22.4102C807.335 26.6702 805.195 29.9602 802.635 32.3002L801.915 31.8702C804.535 27.2902 806.155 21.4102 806.765 14.2102H806.755ZM826.295 14.3502L830.565 15.6902C830.085 18.1502 829.505 20.1202 828.835 21.5902C832.485 23.0602 834.725 24.9302 835.555 27.2102C836.065 28.6502 835.895 29.7502 835.025 30.5202C834.225 31.2202 833.285 31.1602 832.195 30.3302C831.775 27.9902 830.485 25.4702 828.305 22.7502C826.645 26.1402 824.595 28.8902 822.165 31.0102L821.495 30.5302C823.955 26.3402 825.555 20.9502 826.295 14.3502Z" fill="white"/>
</svg>
