<svg width="100" height="25" viewBox="0 0 100 25" fill="none" xmlns="http://www.w3.org/2000/svg">
<path d="M15.2001 14.84C15.2001 17.03 15.2001 18.74 15.3101 19.7C15.3801 20.36 15.5201 20.86 16.2001 20.96C16.5201 21.01 17.0201 21.05 17.3401 21.05C17.6401 21.05 17.7301 21.12 17.7301 21.23C17.7301 21.39 17.5701 21.46 17.2301 21.46C15.7901 21.46 14.35 21.39 13.76 21.39C13.17 21.39 11.73 21.46 10.86 21.46C10.54 21.46 10.38 21.41 10.38 21.23C10.38 21.12 10.4701 21.05 10.7201 21.05C11.0601 21.05 11.34 21 11.54 20.96C12 20.87 12.1101 20.37 12.2001 19.7C12.3101 18.74 12.3101 17.03 12.3101 14.84V10.82C12.3101 7.35002 12.31 6.71002 12.26 5.98002C12.21 5.20002 12.03 4.84002 11.28 4.68002C11.1 4.63002 10.71 4.61002 10.39 4.61002C10.16 4.61002 10 4.56002 10 4.43002C10 4.25002 10.18 4.20002 10.53 4.20002C11.12 4.20002 11.78 4.22002 12.38 4.22002C12.97 4.24002 13.5001 4.27002 13.8201 4.27002C14.6901 4.27002 19.3201 4.27002 19.8501 4.25002C20.2801 4.23002 20.56 4.23002 20.79 4.16002C20.93 4.11002 21.04 4.02002 21.16 4.02002C21.25 4.02002 21.3201 4.11002 21.3201 4.23002C21.3201 4.39002 21.21 4.66003 21.14 5.26003C21.12 5.49003 21.07 6.84002 21.03 7.11002C21.01 7.29002 20.96 7.43002 20.8 7.43002C20.64 7.43002 20.5901 7.32002 20.5701 7.06002C20.5701 6.88002 20.5701 6.51003 20.4301 6.19003C20.2701 5.87003 19.79 5.53003 18.92 5.51003L15.4 5.44003C15.26 5.44003 15.1901 5.51003 15.1901 5.76003V11.47C15.1901 11.61 15.2101 11.68 15.3501 11.68L18.27 11.66C18.66 11.66 18.98 11.66 19.3 11.64C19.73 11.62 20.05 11.53 20.28 11.23C20.39 11.09 20.4401 11 20.5801 11C20.6701 11 20.7201 11.07 20.7201 11.21C20.7201 11.35 20.61 11.92 20.54 12.63C20.49 13.09 20.4501 14.14 20.4501 14.3C20.4501 14.51 20.4501 14.73 20.2201 14.73C20.0801 14.73 20.04 14.57 20.04 14.41C20.04 14.25 19.99 13.98 19.9 13.7C19.79 13.38 19.44 12.97 18.74 12.88C18.17 12.81 15.75 12.81 15.36 12.81C15.25 12.81 15.2001 12.86 15.2001 13.02V14.87V14.84Z" fill="white"/>
<path d="M26.98 10.8199C26.98 7.34994 26.9799 6.70993 26.9299 5.97993C26.8799 5.19993 26.7 4.83994 25.95 4.67994C25.77 4.62994 25.3799 4.60994 25.0599 4.60994C24.8099 4.60994 24.6699 4.55994 24.6699 4.39994C24.6699 4.23994 24.8299 4.18994 25.1699 4.18994C26.3799 4.18994 27.8199 4.25994 28.2699 4.25994C29.3899 4.25994 30.2799 4.18994 31.0599 4.18994C35.1899 4.18994 35.9199 6.39994 35.9199 7.60994C35.9199 9.47994 34.85 10.5999 33.59 11.5999C35.46 12.2399 37.7399 13.8599 37.7399 16.5299C37.7399 18.9699 35.8499 21.5099 31.6499 21.5099C31.3799 21.5099 30.7099 21.4599 30.0499 21.4399C29.3699 21.3899 28.68 21.3699 28.34 21.3699C28.09 21.3699 27.5899 21.3699 27.0399 21.3899C26.5099 21.3899 25.92 21.4399 25.46 21.4399C25.16 21.4399 24.9999 21.3699 24.9999 21.2099C24.9999 21.0999 25.0899 21.0299 25.3699 21.0299C25.7099 21.0299 25.9899 20.9799 26.1899 20.9399C26.6499 20.8499 26.76 20.3499 26.85 19.6799C26.96 18.7199 26.96 16.9199 26.96 14.8199V10.7999L26.98 10.8199ZM29.72 11.2099C29.72 11.3899 29.7899 11.4399 29.8799 11.4599C30.0899 11.5099 30.43 11.5299 30.95 11.5299C31.7 11.5299 32.21 11.4399 32.59 11.0999C33.18 10.6199 33.5299 9.79994 33.5299 8.67994C33.5299 7.14994 32.6399 5.13994 30.6799 5.13994C30.3599 5.13994 30.1499 5.13994 29.9299 5.18994C29.7699 5.23994 29.72 5.32994 29.72 5.57994V11.2199V11.2099ZM32.73 13.0399C32.25 12.6999 31.73 12.5399 30.84 12.4899C30.43 12.4699 30.1999 12.4699 29.8599 12.4699C29.7699 12.4699 29.72 12.5199 29.72 12.6299V18.0399C29.72 19.5499 29.7899 19.9299 30.5199 20.2299C31.1399 20.4799 31.6599 20.4999 32.1899 20.4999C33.2199 20.4999 34.95 19.9499 34.95 17.5799C34.95 16.1699 34.4699 14.2499 32.7399 13.0399H32.73Z" fill="white"/>
<path d="M49.38 5.09L51.5 6.64C51.32 6.94 51.0401 7.03 50.4501 7.03H42.3501L42.24 6.57H48.29L49.39 5.09H49.38ZM43.26 9.54H47.3501L48.4 8.12L50.41 9.6C50.25 9.87 49.93 9.99 49.36 9.99H43.4L43.26 9.53V9.54ZM50.4 12.58C50.24 12.88 49.9201 12.97 49.3501 12.97H43.39L43.25 12.51H47.3401L48.39 11.09L50.4 12.57V12.58ZM47.66 15.59L48.5 14.45L50.92 16.16C50.78 16.32 50.46 16.5 50.03 16.57V21.91C50.03 21.91 49.46 22.57 47.86 22.57V21.02H45.4401V22.64C45.4401 22.64 45.12 23.44 43.27 23.44V14.63L45.53 15.59H47.65H47.66ZM50.42 3.74C50.26 4.04 49.96 4.13 49.37 4.13H43.4601L43.3201 3.67H47.2201L48.3401 2.19L50.42 3.74ZM45.4401 20.56H47.86V16.04H45.4401V20.56ZM55.4401 9.17C54.8001 9.9 53.8001 11.06 52.4501 12.5C52.4001 12.8 52.24 13.05 52.02 13.16L50.49 10.92C51.36 10.6 53.3901 9.78 55.3501 8.91L55.4401 9.16V9.17ZM50.9401 3.51C53.2001 4.13 53.9501 5.09 53.9501 5.84C53.9501 6.52 53.38 7.03 52.79 7.03C52.45 7.03 52.1301 6.89 51.8501 6.55C51.8001 5.61 51.32 4.38 50.75 3.65L50.9301 3.51H50.9401ZM64.0901 5.79C63.9301 5.97 63.7 6.02 63.25 6.04C62.72 6.75 61.83 7.82 61.17 8.41L60.87 8.25C60.98 7.59 61.14 6.33 61.24 5.47H59.53C59.9 8.53 61.08 10.72 64.05 11.93L64 12.2C62.88 12.45 62.31 13.07 62.17 14.46C60.28 13.09 59.57 10.15 59.27 6.95H59.25C58.79 9.76 57.4901 12.36 52.9501 14.35L55 15.19H59.8201L60.76 13.93L63.3401 15.76C63.2001 15.94 62.8801 16.13 62.4301 16.24V22.56C62.4301 22.56 61.74 23.15 60.03 23.15V21.69H54.89V22.53C54.89 22.53 54.57 23.37 52.54 23.37V14.51L51.8301 14.78L51.5601 14.44C56.5801 11.79 57.0801 8.6 57.2201 5.45H56.6001C55.8501 6.8 54.96 7.96 54 8.78L53.6801 8.57C54.4301 7.06 55.14 4.46 55.53 2L58.4801 2.82C58.3901 3.09 58.21 3.25 57.64 3.25C57.41 3.84 57.14 4.44 56.86 4.98H61.01L62.11 3.86L64.1001 5.75L64.0901 5.79ZM60.03 15.65H54.89V21.24H60.03V15.65Z" fill="white"/>
<path d="M74.7401 5.06979L76.8402 6.61979C76.6802 6.91979 76.3802 7.00979 75.7902 7.00979H67.4802L67.3701 6.57979H73.6201L74.7401 5.06979ZM68.4402 9.51978H72.6401L73.6902 8.09978L75.7202 9.57979C75.5402 9.87979 75.2402 9.96979 74.6702 9.96979H68.5702L68.4302 9.50979L68.4402 9.51978ZM75.7202 12.5598C75.5402 12.8598 75.2402 12.9498 74.6702 12.9498H68.5702L68.4302 12.5198H72.6301L73.6802 11.0798L75.7102 12.5598H75.7202ZM72.9302 15.5698L73.8002 14.4498L76.2202 16.1398C76.0802 16.2998 75.7602 16.4798 75.3302 16.5698V21.8898C75.3302 21.8898 74.7602 22.5498 73.1602 22.5498V21.0198H70.6002V22.6198C70.6002 22.6198 70.3002 23.4198 68.4502 23.4198V14.6298L70.7102 15.5698H72.9202H72.9302ZM75.6201 3.71979C75.4601 4.01979 75.1602 4.10979 74.5702 4.10979H68.5902L68.4802 3.67979H72.4102L73.5502 2.16978L75.6301 3.71979H75.6201ZM70.6002 20.5698H73.1602V16.0298H70.6002V20.5698ZM86.5302 4.97978L89.0201 6.96979C88.8401 7.17979 88.5602 7.30979 88.0402 7.39979C87.9502 17.0098 87.8302 21.2098 86.6902 22.3498C85.9602 23.0998 85.2102 23.4198 83.7002 23.4498C83.7002 22.2198 83.6302 21.5098 81.1902 21.0998L81.2102 20.7598C82.0802 20.8098 83.4502 20.8298 84.0402 20.8298C84.4302 20.8298 84.5902 20.7798 84.7902 20.5598C85.5402 19.8098 85.6602 15.2398 85.7302 6.81979H79.5001C78.9701 7.84979 78.4002 8.77979 77.7902 9.64979L79.5702 10.3998H81.5101L82.3801 9.27979L84.7102 10.9498C84.5702 11.1098 84.2502 11.2898 83.8202 11.3798V18.3698C83.8202 18.3698 83.2501 18.9398 81.7401 18.9398V17.7998H79.4802V19.0998C79.4802 19.0998 79.1602 19.8498 77.4302 19.8498V10.0998C76.8602 10.8498 76.2402 11.5198 75.5802 12.0898L75.2802 11.9098C76.5602 9.66978 77.8102 5.74979 78.4502 2.02979L81.8302 2.98978C81.7402 3.25978 81.5602 3.41978 80.9402 3.41978C80.5702 4.44978 80.1602 5.42979 79.7302 6.35979H85.4602L86.5302 4.98978V4.97978ZM81.7401 10.8498H79.4802V13.7898H81.7401V10.8498ZM79.4802 17.3298H81.7401V14.2498H79.4802V17.3298Z" fill="white"/>
</svg>
